<svg width="75" height="96" viewBox="0 0 75 96" fill="none" xmlns="http://www.w3.org/2000/svg">
<rect x="0.25" y="0.25" width="74.2" height="94.6" rx="7.75" fill="white"></rect>
<rect x="0.25" y="0.25" width="74.2" height="94.6" rx="7.75" stroke="#003500" stroke-width="0.5"></rect>
<path d="M61.0516 60.9983C61.0516 64.2926 59.9156 67.0473 57.6437 69.2625C55.4285 71.4208 52.759 72.5 49.6351 72.5C46.3976 72.5 43.6712 71.3924 41.4561 69.1773C39.2409 66.9053 38.1334 64.179 38.1334 60.9983C38.1334 57.8176 39.2409 55.1196 41.4561 52.9045C43.728 50.6893 46.4544 49.5818 49.6351 49.5818C52.8726 49.5818 55.5705 50.7177 57.7289 52.9897C59.944 55.2048 61.0516 57.8744 61.0516 60.9983ZM60.1996 60.9983C60.1996 58.0448 59.1489 55.5456 57.0474 53.5009C55.0026 51.4561 52.5034 50.4337 49.5499 50.4337C46.6531 50.4337 44.154 51.4561 42.0525 53.5009C40.0077 55.5456 38.9853 58.0448 38.9854 60.9983C38.9853 64.0086 40.0077 66.5362 42.0525 68.5809C44.154 70.6257 46.6816 71.648 49.6351 71.648C52.5886 71.648 55.0877 70.6257 57.1325 68.5809C59.1772 66.4794 60.1996 63.9518 60.1996 60.9983ZM49.6351 51.7117C52.3046 51.7117 54.5197 52.6205 56.2806 54.438C58.0981 56.2556 59.0068 58.4423 59.0069 60.9983C59.0068 63.6678 58.0981 65.9114 56.2806 67.7289C54.4629 69.5465 52.2478 70.4553 49.6351 70.4553C46.9655 70.4553 44.722 69.5465 42.9045 67.7289C41.1437 65.8546 40.2633 63.611 40.2634 60.9983C40.2633 58.3288 41.1721 56.1136 42.9897 54.3528C44.8072 52.5921 47.0223 51.7117 49.6351 51.7117ZM43.5009 67.1325C45.2048 68.7797 47.2211 69.6033 49.5499 69.6033C51.9354 69.6033 53.9518 68.7797 55.599 67.1325C57.3029 65.4854 58.1549 63.4406 58.1549 60.9983C58.1549 58.6695 57.3313 56.6816 55.6842 55.0344C54.0369 53.3305 52.0206 52.4785 49.6351 52.4785C47.1927 52.4785 45.148 53.3305 43.5009 55.0344C41.8537 56.6816 41.0301 58.6695 41.0301 60.9983C41.0301 63.4406 41.8537 65.4854 43.5009 67.1325ZM55.2582 58.6979C55.9965 58.698 56.5929 58.9251 57.0474 59.3795C57.5017 59.8339 57.7289 60.4019 57.7289 61.0835C57.7289 61.7651 57.5017 62.3331 57.0474 62.7874C56.5929 63.185 55.9965 63.3838 55.2582 63.3838H53.7246C54.4629 64.6902 54.8321 65.5706 54.8322 66.025C54.8321 66.6498 54.6049 67.2177 54.1506 67.7289C53.6962 68.1833 53.0998 68.4105 52.3615 68.4105C52.191 68.4105 51.9922 68.4105 51.7651 68.4105C51.5946 68.3537 51.4242 68.2685 51.2539 68.1549C51.1402 67.9845 51.0266 67.8709 50.9131 67.8141C50.7995 67.7005 50.6575 67.5301 50.4871 67.3029C50.3735 67.0757 50.2598 66.9053 50.1463 66.7918C50.0895 66.6782 50.0043 66.5078 49.8907 66.2806C49.7771 65.9966 49.6919 65.8262 49.6351 65.7694C48.9535 67.0189 48.4139 67.7573 48.0163 67.9845C47.6755 68.2685 47.2779 68.4105 46.8236 68.4105C46.142 68.4105 45.5456 68.1833 45.0344 67.7289C44.58 67.2745 44.3528 66.7349 44.3528 66.1102C44.3528 65.6558 44.7504 64.747 45.5456 63.3838H43.9269C43.2452 63.3838 42.6772 63.1566 42.2229 62.7022C41.7685 62.2478 41.5413 61.6799 41.5413 60.9983C41.5413 60.3167 41.7401 59.7771 42.1377 59.3795C42.592 58.9251 43.1884 58.698 43.9269 58.6979H45.5456C44.8072 57.3916 44.438 56.5112 44.438 56.0568C44.438 55.432 44.6652 54.8925 45.1196 54.438C45.574 53.9269 46.142 53.6713 46.8236 53.6713C47.1075 53.6713 47.3347 53.7281 47.5052 53.8417C47.7323 53.8985 47.9027 53.9837 48.0163 54.0973C48.1867 54.1541 48.3571 54.3244 48.5275 54.6084C48.6979 54.8356 48.8115 55.006 48.8683 55.1196C48.9251 55.1764 49.0387 55.3752 49.2091 55.716C49.4363 56.0568 49.5783 56.2556 49.6351 56.3124C50.3167 55.0628 50.8278 54.3245 51.1687 54.0973C51.5094 53.8701 51.9354 53.7565 52.4467 53.7564C53.1282 53.7565 53.6962 53.9837 54.1506 54.438C54.6049 54.8925 54.8321 55.432 54.8322 56.0568C54.8321 56.4544 54.4629 57.3348 53.7246 58.6979H55.2582ZM52.3615 67.5585C52.8158 67.5585 53.185 67.4165 53.469 67.1325C53.8098 66.8485 53.9802 66.4794 53.9802 66.025C53.9802 65.741 53.9234 65.457 53.8098 65.173L52.2762 62.5319H55.2582C56.3373 62.5319 56.8769 62.0491 56.877 61.0835C56.8769 60.0611 56.3373 59.5499 55.2582 59.5499H52.2762L53.8098 56.9088C53.9233 56.568 53.9802 56.2556 53.9802 55.9716C53.9802 55.574 53.8382 55.2332 53.5542 54.9492C53.2702 54.6653 52.901 54.5233 52.4467 54.5233C51.8786 54.5233 51.4526 54.8073 51.1687 55.3752L49.6351 58.0163L48.1015 55.3752C47.7607 54.8073 47.3347 54.5233 46.8236 54.5233C46.3691 54.5233 45.9716 54.6936 45.6308 55.0344C45.3468 55.3184 45.2048 55.6592 45.2048 56.0568C45.2048 56.3408 45.29 56.6248 45.4604 56.9088L46.994 59.5499H43.9269C42.9044 59.5499 42.3933 60.0611 42.3933 61.0835C42.3933 62.0491 42.9044 62.5319 43.9269 62.5319H46.994L45.4604 65.173C45.29 65.5138 45.2048 65.8262 45.2048 66.1102C45.2048 66.5077 45.3468 66.8485 45.6308 67.1325C45.9716 67.4165 46.3407 67.5585 46.7384 67.5585C47.3063 67.5585 47.7607 67.2745 48.1015 66.7065L49.6351 64.1506L51.1687 66.7065C51.4526 67.2745 51.8502 67.5585 52.3615 67.5585ZM47.846 59.2943C48.3571 58.8399 48.9251 58.6128 49.5499 58.6127C50.2315 58.6128 50.8278 58.8399 51.3391 59.2943C51.8502 59.7487 52.1058 60.3167 52.1058 60.9983C52.1058 61.7367 51.8502 62.3615 51.3391 62.8726C50.8847 63.327 50.2883 63.5542 49.5499 63.5542C48.8683 63.5542 48.3003 63.2986 47.846 62.7874C47.3915 62.2763 47.1643 61.6799 47.1644 60.9983C47.1643 60.3167 47.3915 59.7487 47.846 59.2943ZM49.6351 62.7022C50.0895 62.7022 50.4587 62.5319 50.7427 62.1911C51.0834 61.8503 51.2538 61.4527 51.2539 60.9983C51.2538 60.5439 51.0834 60.1747 50.7427 59.8907C50.4587 59.5499 50.0611 59.3795 49.5499 59.3795C49.0955 59.3795 48.6979 59.5499 48.3572 59.8907C48.0731 60.1747 47.9311 60.5439 47.9312 60.9983C47.9311 61.5095 48.1015 61.9355 48.4423 62.2762C48.7831 62.5602 49.1807 62.7022 49.6351 62.7022ZM50.4019 60.9983C50.4019 61.5663 50.1463 61.8503 49.6351 61.8503C49.0671 61.8503 48.7831 61.5663 48.7831 60.9983C48.7831 60.4871 49.0671 60.2315 49.6351 60.2315C50.1463 60.2315 50.4019 60.4871 50.4019 60.9983ZM61.0516 34.4165C61.0516 37.7109 59.9156 40.4656 57.6437 42.6807C55.4285 44.8391 52.759 45.9183 49.6351 45.9182C46.3976 45.9183 43.6712 44.8107 41.4561 42.5955C39.2409 40.3236 38.1334 37.5973 38.1334 34.4165C38.1334 31.2358 39.2409 28.5379 41.4561 26.3227C43.728 24.1076 46.4544 23 49.6351 23C52.8726 23 55.5705 24.136 57.7289 26.4079C59.944 28.6231 61.0516 31.2926 61.0516 34.4165ZM60.1996 34.4165C60.1996 31.463 59.1489 28.9639 57.0474 26.9191C55.0026 24.8744 52.5034 23.852 49.5499 23.852C46.6531 23.852 44.154 24.8744 42.0525 26.9191C40.0077 28.9639 38.9853 31.463 38.9854 34.4165C38.9853 37.4269 40.0077 39.9544 42.0525 41.9991C44.154 44.0439 46.6816 45.0663 49.6351 45.0663C52.5886 45.0663 55.0877 44.0439 57.1325 41.9991C59.1772 39.8976 60.1996 37.3701 60.1996 34.4165ZM49.6351 25.1299C52.3046 25.13 54.5197 26.0388 56.2806 27.8563C58.0981 29.6739 59.0068 31.8606 59.0069 34.4165C59.0068 37.0861 58.0981 39.3296 56.2806 41.1472C54.4629 42.9647 52.2478 43.8735 49.6351 43.8735C46.9655 43.8735 44.722 42.9647 42.9045 41.1472C41.1437 39.2728 40.2633 37.0293 40.2634 34.4165C40.2633 31.747 41.1721 29.5319 42.9897 27.7711C44.8072 26.0103 47.0223 25.13 49.6351 25.1299ZM43.5009 40.5508C45.2048 42.1979 47.2211 43.0215 49.5499 43.0215C51.9354 43.0215 53.9518 42.1979 55.599 40.5508C57.3029 38.9036 58.1549 36.8589 58.1549 34.4165C58.1549 32.0878 57.3313 30.0999 55.6842 28.4527C54.0369 26.7487 52.0206 25.8968 49.6351 25.8967C47.1927 25.8968 45.148 26.7487 43.5009 28.4527C41.8537 30.0999 41.0301 32.0878 41.0301 34.4165C41.0301 36.8589 41.8537 38.9036 43.5009 40.5508ZM55.2582 32.1162C55.9965 32.1162 56.5929 32.3434 57.0474 32.7978C57.5017 33.2522 57.7289 33.8202 57.7289 34.5017C57.7289 35.1833 57.5017 35.7513 57.0474 36.2057C56.5929 36.6033 55.9965 36.8021 55.2582 36.8021H53.7246C54.4629 38.1085 54.8321 38.9888 54.8322 39.4432C54.8321 40.068 54.6049 40.636 54.1506 41.1472C53.6962 41.6016 53.0998 41.8288 52.3615 41.8287C52.191 41.8288 51.9922 41.8288 51.7651 41.8287C51.5946 41.772 51.4242 41.6868 51.2539 41.5731C51.1402 41.4028 51.0266 41.2892 50.9131 41.2324C50.7995 41.1188 50.6575 40.9484 50.4871 40.7212C50.3735 40.494 50.2598 40.3236 50.1463 40.21C50.0895 40.0964 50.0043 39.926 49.8907 39.6988C49.7771 39.4148 49.6919 39.2444 49.6351 39.1876C48.9535 40.4372 48.4139 41.1756 48.0163 41.4027C47.6755 41.6868 47.2779 41.8288 46.8236 41.8287C46.142 41.8288 45.5456 41.6016 45.0344 41.1472C44.58 40.6928 44.3528 40.1532 44.3528 39.5284C44.3528 39.074 44.7504 38.1652 45.5456 36.8021H43.9269C43.2452 36.8021 42.6772 36.5749 42.2229 36.1205C41.7685 35.6661 41.5413 35.0981 41.5413 34.4165C41.5413 33.735 41.7401 33.1954 42.1377 32.7978C42.592 32.3434 43.1884 32.1162 43.9269 32.1162H45.5456C44.8072 30.8098 44.438 29.9295 44.438 29.475C44.438 28.8503 44.6652 28.3107 45.1196 27.8563C45.574 27.3451 46.142 27.0895 46.8236 27.0895C47.1075 27.0895 47.3347 27.1463 47.5052 27.2599C47.7323 27.3167 47.9027 27.4019 48.0163 27.5155C48.1867 27.5723 48.3571 27.7427 48.5275 28.0267C48.6979 28.2539 48.8115 28.4243 48.8683 28.5379C48.9251 28.5947 49.0387 28.7935 49.2091 29.1342C49.4363 29.4751 49.5783 29.6739 49.6351 29.7306C50.3167 28.4811 50.8278 27.7427 51.1687 27.5155C51.5094 27.2883 51.9354 27.1747 52.4467 27.1747C53.1282 27.1747 53.6962 27.4019 54.1506 27.8563C54.6049 28.3107 54.8321 28.8503 54.8322 29.475C54.8321 29.8727 54.4629 30.753 53.7246 32.1162H55.2582ZM52.3615 40.9768C52.8158 40.9768 53.185 40.8348 53.469 40.5508C53.8098 40.2668 53.9802 39.8976 53.9802 39.4432C53.9802 39.1592 53.9234 38.8752 53.8098 38.5912L52.2762 35.9501H55.2582C56.3373 35.9501 56.8769 35.4673 56.877 34.5017C56.8769 33.4794 56.3373 32.9682 55.2582 32.9681H52.2762L53.8098 30.327C53.9233 29.9862 53.9802 29.6739 53.9802 29.3898C53.9802 28.9923 53.8382 28.6515 53.5542 28.3675C53.2702 28.0835 52.901 27.9415 52.4467 27.9415C51.8786 27.9415 51.4526 28.2255 51.1687 28.7935L49.6351 31.4346L48.1015 28.7935C47.7607 28.2255 47.3347 27.9415 46.8236 27.9415C46.3691 27.9415 45.9716 28.1119 45.6308 28.4527C45.3468 28.7367 45.2048 29.0775 45.2048 29.475C45.2048 29.7591 45.29 30.043 45.4604 30.327L46.994 32.9681H43.9269C42.9044 32.9682 42.3933 33.4794 42.3933 34.5017C42.3933 35.4673 42.9044 35.9501 43.9269 35.9501H46.994L45.4604 38.5912C45.29 38.932 45.2048 39.2444 45.2048 39.5284C45.2048 39.926 45.3468 40.2668 45.6308 40.5508C45.9716 40.8348 46.3407 40.9768 46.7384 40.9768C47.3063 40.9768 47.7607 40.6928 48.1015 40.1248L49.6351 37.5688L51.1687 40.1248C51.4526 40.6928 51.8502 40.9768 52.3615 40.9768ZM47.846 32.7126C48.3571 32.2582 48.9251 32.031 49.5499 32.031C50.2315 32.031 50.8278 32.2582 51.3391 32.7126C51.8502 33.167 52.1058 33.735 52.1058 34.4165C52.1058 35.1549 51.8502 35.7797 51.3391 36.2909C50.8847 36.7453 50.2883 36.9725 49.5499 36.9725C48.8683 36.9725 48.3003 36.7169 47.846 36.2057C47.3915 35.6945 47.1643 35.0981 47.1644 34.4165C47.1643 33.735 47.3915 33.167 47.846 32.7126ZM49.6351 36.1205C50.0895 36.1205 50.4587 35.9501 50.7427 35.6093C51.0834 35.2685 51.2538 34.8709 51.2539 34.4165C51.2538 33.9622 51.0834 33.593 50.7427 33.3089C50.4587 32.9682 50.0611 32.7978 49.5499 32.7978C49.0955 32.7978 48.6979 32.9682 48.3572 33.3089C48.0731 33.593 47.9311 33.9622 47.9312 34.4165C47.9311 34.9277 48.1015 35.3537 48.4423 35.6945C48.7831 35.9785 49.1807 36.1205 49.6351 36.1205ZM50.4019 34.4165C50.4019 34.9845 50.1463 35.2685 49.6351 35.2685C49.0671 35.2685 48.7831 34.9845 48.7831 34.4165C48.7831 33.9054 49.0671 33.6498 49.6351 33.6497C50.1463 33.6498 50.4019 33.9054 50.4019 34.4165ZM35.9182 60.9983C35.9182 64.2926 34.7822 67.0473 32.5103 69.2625C30.2951 71.4208 27.6256 72.5 24.5017 72.5C21.2642 72.5 18.5378 71.3924 16.3227 69.1773C14.1076 66.9053 13 64.179 13 60.9983C13 57.8176 14.1076 55.1196 16.3227 52.9045C18.5946 50.6893 21.321 49.5818 24.5017 49.5818C27.7392 49.5818 30.4372 50.7177 32.5955 52.9897C34.8106 55.2048 35.9182 57.8744 35.9182 60.9983ZM35.0663 60.9983C35.0662 58.0448 34.0155 55.5456 31.9139 53.5009C29.8691 51.4561 27.37 50.4337 24.4165 50.4337C21.5198 50.4337 19.0206 51.4561 16.9191 53.5009C14.8743 55.5456 13.852 58.0448 13.852 60.9983C13.852 64.0086 14.8743 66.5362 16.9191 68.5809C19.0206 70.6257 21.5482 71.648 24.5017 71.648C27.4552 71.648 29.9544 70.6257 31.9991 68.5809C34.0439 66.4794 35.0662 63.9518 35.0663 60.9983ZM24.5017 51.7117C27.1712 51.7117 29.3864 52.6205 31.1472 54.438C32.9647 56.2556 33.8735 58.4423 33.8735 60.9983C33.8735 63.6678 32.9647 65.9114 31.1472 67.7289C29.3296 69.5465 27.1144 70.4553 24.5017 70.4553C21.8322 70.4553 19.5886 69.5465 17.7711 67.7289C16.0103 65.8546 15.1299 63.611 15.1299 60.9983C15.1299 58.3288 16.0387 56.1136 17.8563 54.3528C19.6738 52.5921 21.889 51.7117 24.5017 51.7117ZM18.3675 67.1325C20.0714 68.7797 22.0878 69.6033 24.4165 69.6033C26.802 69.6033 28.8184 68.7797 30.4656 67.1325C32.1695 65.4854 33.0215 63.4406 33.0215 60.9983C33.0215 58.6695 32.1979 56.6816 30.5508 55.0344C28.9036 53.3305 26.8872 52.4785 24.5017 52.4785C22.0594 52.4785 20.0146 53.3305 18.3675 55.0344C16.7203 56.6816 15.8967 58.6695 15.8967 60.9983C15.8967 63.4406 16.7203 65.4854 18.3675 67.1325ZM30.1248 58.6979C30.8631 58.698 31.4595 58.9251 31.9139 59.3795C32.3683 59.8339 32.5955 60.4019 32.5955 61.0835C32.5955 61.7651 32.3683 62.3331 31.9139 62.7874C31.4595 63.185 30.8631 63.3838 30.1248 63.3838H28.5912C29.3296 64.6902 29.6987 65.5706 29.6988 66.025C29.6987 66.6498 29.4716 67.2177 29.0172 67.7289C28.5628 68.1833 27.9664 68.4105 27.228 68.4105C27.0576 68.4105 26.8588 68.4105 26.6317 68.4105C26.4613 68.3537 26.2909 68.2685 26.1205 68.1549C26.0069 67.9845 25.8933 67.8709 25.7797 67.8141C25.6661 67.7005 25.5241 67.5301 25.3537 67.3029C25.2401 67.0757 25.1265 66.9053 25.0129 66.7918C24.9561 66.6782 24.8709 66.5078 24.7573 66.2806C24.6437 65.9966 24.5585 65.8262 24.5017 65.7694C23.8201 67.0189 23.2805 67.7573 22.8829 67.9845C22.5421 68.2685 22.1445 68.4105 21.6902 68.4105C21.0086 68.4105 20.4122 68.1833 19.901 67.7289C19.4466 67.2745 19.2194 66.7349 19.2194 66.1102C19.2194 65.6558 19.617 64.747 20.4122 63.3838H18.7935C18.1119 63.3838 17.5439 63.1566 17.0895 62.7022C16.6351 62.2478 16.4079 61.6799 16.4079 60.9983C16.4079 60.3167 16.6067 59.7771 17.0043 59.3795C17.4587 58.9251 18.055 58.698 18.7935 58.6979H20.4122C19.6738 57.3916 19.3046 56.5112 19.3046 56.0568C19.3046 55.432 19.5318 54.8925 19.9862 54.438C20.4406 53.9269 21.0086 53.6713 21.6902 53.6713C21.9742 53.6713 22.2014 53.7281 22.3718 53.8417C22.5989 53.8985 22.7693 53.9837 22.8829 54.0973C23.0533 54.1541 23.2237 54.3244 23.3941 54.6084C23.5645 54.8356 23.6781 55.006 23.7349 55.1196C23.7917 55.1764 23.9053 55.3752 24.0757 55.716C24.3029 56.0568 24.4449 56.2556 24.5017 56.3124C25.1833 55.0628 25.6945 54.3245 26.0353 54.0973C26.376 53.8701 26.802 53.7565 27.3132 53.7564C27.9948 53.7565 28.5628 53.9837 29.0172 54.438C29.4716 54.8925 29.6987 55.432 29.6988 56.0568C29.6987 56.4544 29.3296 57.3348 28.5912 58.6979H30.1248ZM27.228 67.5585C27.6824 67.5585 28.0516 67.4165 28.3356 67.1325C28.6764 66.8485 28.8468 66.4794 28.8468 66.025C28.8468 65.741 28.79 65.457 28.6764 65.173L27.1428 62.5319H30.1248C31.2039 62.5319 31.7435 62.0491 31.7436 61.0835C31.7435 60.0611 31.2039 59.5499 30.1248 59.5499H27.1428L28.6764 56.9088C28.79 56.568 28.8468 56.2556 28.8468 55.9716C28.8468 55.574 28.7048 55.2332 28.4208 54.9492C28.1368 54.6653 27.7676 54.5233 27.3132 54.5233C26.7452 54.5233 26.3192 54.8073 26.0353 55.3752L24.5017 58.0163L22.9681 55.3752C22.6273 54.8073 22.2013 54.5233 21.6902 54.5233C21.2358 54.5233 20.8382 54.6936 20.4974 55.0344C20.2134 55.3184 20.0714 55.6592 20.0714 56.0568C20.0714 56.3408 20.1566 56.6248 20.327 56.9088L21.8606 59.5499H18.7935C17.7711 59.5499 17.2599 60.0611 17.2599 61.0835C17.2599 62.0491 17.7711 62.5319 18.7935 62.5319H21.8606L20.327 65.173C20.1566 65.5138 20.0714 65.8262 20.0714 66.1102C20.0714 66.5077 20.2134 66.8485 20.4974 67.1325C20.8382 67.4165 21.2074 67.5585 21.605 67.5585C22.1729 67.5585 22.6273 67.2745 22.9681 66.7065L24.5017 64.1506L26.0353 66.7065C26.3192 67.2745 26.7168 67.5585 27.228 67.5585ZM22.7126 59.2943C23.2237 58.8399 23.7917 58.6128 24.4165 58.6127C25.0981 58.6128 25.6945 58.8399 26.2057 59.2943C26.7168 59.7487 26.9724 60.3167 26.9725 60.9983C26.9724 61.7367 26.7168 62.3615 26.2057 62.8726C25.7513 63.327 25.1549 63.5542 24.4165 63.5542C23.7349 63.5542 23.1669 63.2986 22.7126 62.7874C22.2582 62.2763 22.0309 61.6799 22.031 60.9983C22.0309 60.3167 22.2582 59.7487 22.7126 59.2943ZM24.5017 62.7022C24.9561 62.7022 25.3253 62.5319 25.6093 62.1911C25.9501 61.8503 26.1205 61.4527 26.1205 60.9983C26.1205 60.5439 25.9501 60.1747 25.6093 59.8907C25.3253 59.5499 24.9277 59.3795 24.4165 59.3795C23.9621 59.3795 23.5645 59.5499 23.2238 59.8907C22.9397 60.1747 22.7977 60.5439 22.7978 60.9983C22.7977 61.5095 22.9681 61.9355 23.3089 62.2762C23.6497 62.5602 24.0473 62.7022 24.5017 62.7022ZM25.2685 60.9983C25.2685 61.5663 25.0129 61.8503 24.5017 61.8503C23.9337 61.8503 23.6497 61.5663 23.6497 60.9983C23.6497 60.4871 23.9337 60.2315 24.5017 60.2315C25.0129 60.2315 25.2685 60.4871 25.2685 60.9983ZM35.9182 34.4165C35.9182 37.7109 34.7822 40.4656 32.5103 42.6807C30.2951 44.8391 27.6256 45.9183 24.5017 45.9182C21.2642 45.9183 18.5378 44.8107 16.3227 42.5955C14.1076 40.3236 13 37.5973 13 34.4165C13 31.2358 14.1076 28.5379 16.3227 26.3227C18.5946 24.1076 21.321 23 24.5017 23C27.7392 23 30.4372 24.136 32.5955 26.4079C34.8106 28.6231 35.9182 31.2926 35.9182 34.4165ZM35.0663 34.4165C35.0662 31.463 34.0155 28.9639 31.9139 26.9191C29.8691 24.8744 27.37 23.852 24.4165 23.852C21.5198 23.852 19.0206 24.8744 16.9191 26.9191C14.8743 28.9639 13.852 31.463 13.852 34.4165C13.852 37.4269 14.8743 39.9544 16.9191 41.9991C19.0206 44.0439 21.5482 45.0663 24.5017 45.0663C27.4552 45.0663 29.9544 44.0439 31.9991 41.9991C34.0439 39.8976 35.0662 37.3701 35.0663 34.4165ZM24.5017 25.1299C27.1712 25.13 29.3864 26.0388 31.1472 27.8563C32.9647 29.6739 33.8735 31.8606 33.8735 34.4165C33.8735 37.0861 32.9647 39.3296 31.1472 41.1472C29.3296 42.9647 27.1144 43.8735 24.5017 43.8735C21.8322 43.8735 19.5886 42.9647 17.7711 41.1472C16.0103 39.2728 15.1299 37.0293 15.1299 34.4165C15.1299 31.747 16.0387 29.5319 17.8563 27.7711C19.6738 26.0103 21.889 25.13 24.5017 25.1299ZM18.3675 40.5508C20.0714 42.1979 22.0878 43.0215 24.4165 43.0215C26.802 43.0215 28.8184 42.1979 30.4656 40.5508C32.1695 38.9036 33.0215 36.8589 33.0215 34.4165C33.0215 32.0878 32.1979 30.0999 30.5508 28.4527C28.9036 26.7487 26.8872 25.8968 24.5017 25.8967C22.0594 25.8968 20.0146 26.7487 18.3675 28.4527C16.7203 30.0999 15.8967 32.0878 15.8967 34.4165C15.8967 36.8589 16.7203 38.9036 18.3675 40.5508ZM30.1248 32.1162C30.8631 32.1162 31.4595 32.3434 31.9139 32.7978C32.3683 33.2522 32.5955 33.8202 32.5955 34.5017C32.5955 35.1833 32.3683 35.7513 31.9139 36.2057C31.4595 36.6033 30.8631 36.8021 30.1248 36.8021H28.5912C29.3296 38.1085 29.6987 38.9888 29.6988 39.4432C29.6987 40.068 29.4716 40.636 29.0172 41.1472C28.5628 41.6016 27.9664 41.8288 27.228 41.8287C27.0576 41.8288 26.8588 41.8288 26.6317 41.8287C26.4613 41.772 26.2909 41.6868 26.1205 41.5731C26.0069 41.4028 25.8933 41.2892 25.7797 41.2324C25.6661 41.1188 25.5241 40.9484 25.3537 40.7212C25.2401 40.494 25.1265 40.3236 25.0129 40.21C24.9561 40.0964 24.8709 39.926 24.7573 39.6988C24.6437 39.4148 24.5585 39.2444 24.5017 39.1876C23.8201 40.4372 23.2805 41.1756 22.8829 41.4027C22.5421 41.6868 22.1445 41.8288 21.6902 41.8287C21.0086 41.8288 20.4122 41.6016 19.901 41.1472C19.4466 40.6928 19.2194 40.1532 19.2194 39.5284C19.2194 39.074 19.617 38.1652 20.4122 36.8021H18.7935C18.1119 36.8021 17.5439 36.5749 17.0895 36.1205C16.6351 35.6661 16.4079 35.0981 16.4079 34.4165C16.4079 33.735 16.6067 33.1954 17.0043 32.7978C17.4587 32.3434 18.055 32.1162 18.7935 32.1162H20.4122C19.6738 30.8098 19.3046 29.9295 19.3046 29.475C19.3046 28.8503 19.5318 28.3107 19.9862 27.8563C20.4406 27.3451 21.0086 27.0895 21.6902 27.0895C21.9742 27.0895 22.2014 27.1463 22.3718 27.2599C22.5989 27.3167 22.7693 27.4019 22.8829 27.5155C23.0533 27.5723 23.2237 27.7427 23.3941 28.0267C23.5645 28.2539 23.6781 28.4243 23.7349 28.5379C23.7917 28.5947 23.9053 28.7935 24.0757 29.1342C24.3029 29.4751 24.4449 29.6739 24.5017 29.7306C25.1833 28.4811 25.6945 27.7427 26.0353 27.5155C26.376 27.2883 26.802 27.1747 27.3132 27.1747C27.9948 27.1747 28.5628 27.4019 29.0172 27.8563C29.4716 28.3107 29.6987 28.8503 29.6988 29.475C29.6987 29.8727 29.3296 30.753 28.5912 32.1162H30.1248ZM27.228 40.9768C27.6824 40.9768 28.0516 40.8348 28.3356 40.5508C28.6764 40.2668 28.8468 39.8976 28.8468 39.4432C28.8468 39.1592 28.79 38.8752 28.6764 38.5912L27.1428 35.9501H30.1248C31.2039 35.9501 31.7435 35.4673 31.7436 34.5017C31.7435 33.4794 31.2039 32.9682 30.1248 32.9681H27.1428L28.6764 30.327C28.79 29.9862 28.8468 29.6739 28.8468 29.3898C28.8468 28.9923 28.7048 28.6515 28.4208 28.3675C28.1368 28.0835 27.7676 27.9415 27.3132 27.9415C26.7452 27.9415 26.3192 28.2255 26.0353 28.7935L24.5017 31.4346L22.9681 28.7935C22.6273 28.2255 22.2013 27.9415 21.6902 27.9415C21.2358 27.9415 20.8382 28.1119 20.4974 28.4527C20.2134 28.7367 20.0714 29.0775 20.0714 29.475C20.0714 29.7591 20.1566 30.043 20.327 30.327L21.8606 32.9681H18.7935C17.7711 32.9682 17.2599 33.4794 17.2599 34.5017C17.2599 35.4673 17.7711 35.9501 18.7935 35.9501H21.8606L20.327 38.5912C20.1566 38.932 20.0714 39.2444 20.0714 39.5284C20.0714 39.926 20.2134 40.2668 20.4974 40.5508C20.8382 40.8348 21.2074 40.9768 21.605 40.9768C22.1729 40.9768 22.6273 40.6928 22.9681 40.1248L24.5017 37.5688L26.0353 40.1248C26.3192 40.6928 26.7168 40.9768 27.228 40.9768ZM22.7126 32.7126C23.2237 32.2582 23.7917 32.031 24.4165 32.031C25.0981 32.031 25.6945 32.2582 26.2057 32.7126C26.7168 33.167 26.9724 33.735 26.9725 34.4165C26.9724 35.1549 26.7168 35.7797 26.2057 36.2909C25.7513 36.7453 25.1549 36.9725 24.4165 36.9725C23.7349 36.9725 23.1669 36.7169 22.7126 36.2057C22.2582 35.6945 22.0309 35.0981 22.031 34.4165C22.0309 33.735 22.2582 33.167 22.7126 32.7126ZM24.5017 36.1205C24.9561 36.1205 25.3253 35.9501 25.6093 35.6093C25.9501 35.2685 26.1205 34.8709 26.1205 34.4165C26.1205 33.9622 25.9501 33.593 25.6093 33.3089C25.3253 32.9682 24.9277 32.7978 24.4165 32.7978C23.9621 32.7978 23.5645 32.9682 23.2238 33.3089C22.9397 33.593 22.7977 33.9622 22.7978 34.4165C22.7977 34.9277 22.9681 35.3537 23.3089 35.6945C23.6497 35.9785 24.0473 36.1205 24.5017 36.1205ZM25.2685 34.4165C25.2685 34.9845 25.0129 35.2685 24.5017 35.2685C23.9337 35.2685 23.6497 34.9845 23.6497 34.4165C23.6497 33.9054 23.9337 33.6498 24.5017 33.6497C25.0129 33.6498 25.2685 33.9054 25.2685 34.4165Z" fill="#006C00"></path>
</svg>