<svg width="75" height="96" viewBox="0 0 75 96" fill="none" xmlns="http://www.w3.org/2000/svg">
<g clip-path="url(#clip0_1_915)">
<rect width="74.7" height="95.1" rx="8" fill="white"></rect>
<path d="M74.7 87.9C74.6999 92.7 72.4333 95.1 67.9 95.1H6.8C2.26666 95.1 -2.4e-06 92.7 0 87.9V7.2C-2.4e-06 2.40007 2.26666 7.6e-05 6.8 0H67.9C72.4333 7.6e-05 74.6999 2.40007 74.7 7.2V87.9ZM73 87.9V7.2C72.9999 3.5334 71.2999 1.70007 67.9 1.7H6.8C3.4 1.70007 1.7 3.5334 1.7 7.2V87.9C1.7 91.6333 3.4 93.5 6.8 93.5H67.9C71.2999 93.5 72.9999 91.6333 73 87.9Z" fill="white"></path>
<path d="M57.9404 58.0187C57.9404 60.6237 57.0431 62.7946 55.2486 64.5312C53.454 66.2679 51.3121 67.1362 48.8229 67.1362C46.2758 67.1362 44.1339 66.2679 42.3973 64.5312C40.6606 62.7367 39.7922 60.5948 39.7923 58.1056C39.7922 55.5585 40.6606 53.4166 42.3973 51.6799C44.1339 49.8854 46.2758 48.9881 48.8229 48.9881C51.37 48.9881 53.5119 49.8854 55.2486 51.6799C57.0431 53.4166 57.9404 55.5295 57.9404 58.0187ZM57.2457 58.0187C57.2457 55.7032 56.4063 53.735 54.7276 52.1141C53.1066 50.4353 51.1095 49.5959 48.7361 49.5959C46.4205 49.5959 44.4523 50.4353 42.8314 52.1141C41.2105 53.735 40.4001 55.7032 40.4001 58.0187C40.4001 60.4501 41.2105 62.4762 42.8314 64.0971C44.5102 65.6601 46.5073 66.4415 48.8229 66.4415C51.1963 66.4415 53.1935 65.6311 54.8144 64.0102C56.4352 62.3893 57.2457 60.3922 57.2457 58.0187ZM48.8229 50.6379C50.9648 50.6379 52.7304 51.3615 54.1197 52.8087C55.5669 54.256 56.2905 55.9926 56.2906 58.0187C56.2905 60.1606 55.5669 61.9552 54.1197 63.4024C52.6725 64.7917 50.9069 65.4864 48.8229 65.4864C46.7389 65.4864 44.9733 64.7628 43.5261 63.3156C42.0788 61.8683 41.3552 60.1027 41.3553 58.0187C41.3552 55.9348 42.0788 54.1981 43.5261 52.8087C45.0312 51.3615 46.7968 50.6379 48.8229 50.6379ZM43.9603 62.9682C45.2917 64.2418 46.8836 64.8786 48.7361 64.8785C50.6464 64.8786 52.2673 64.2418 53.5988 62.9682C54.9301 61.6368 55.5959 59.987 55.5959 58.0187C55.5959 56.1663 54.9301 54.5744 53.5988 53.2429C52.3251 51.9115 50.7332 51.2458 48.8229 51.2457C46.9126 51.2458 45.2917 51.9115 43.9603 53.2429C42.6867 54.5744 42.0499 56.1663 42.0499 58.0187C42.0499 59.987 42.6867 61.6368 43.9603 62.9682ZM53.3382 56.1952C53.8592 56.1952 54.2934 56.3979 54.6407 56.8031C55.0459 57.1504 55.2485 57.5846 55.2486 58.1056C55.2485 58.6266 55.0749 59.0607 54.7276 59.4081C54.3802 59.7554 53.9171 59.9291 53.3382 59.9291H52.0358C52.6725 60.9711 52.9909 61.6657 52.9909 62.0131C52.9909 62.5341 52.7883 62.9972 52.3831 63.4024C52.0357 63.7497 51.5726 63.9234 50.9938 63.9234C50.8779 63.9234 50.7332 63.9234 50.5596 63.9234C50.4438 63.8655 50.299 63.7787 50.1254 63.6629C50.0096 63.5471 49.8938 63.4603 49.7781 63.4024C49.7202 63.2866 49.6333 63.1708 49.5176 63.0551C49.4018 62.8814 49.3149 62.7656 49.2571 62.7077C49.1992 62.592 49.1123 62.4472 48.9966 62.2736C48.9387 62.042 48.8808 61.8973 48.8229 61.8394C48.3019 62.7656 47.8967 63.3445 47.6073 63.5761C47.3178 63.7497 46.9704 63.8366 46.5653 63.8365C46.0442 63.8366 45.5811 63.6629 45.1759 63.3156C44.8286 62.9682 44.6549 62.563 44.6549 62.0999C44.6549 61.6947 44.9733 60.9711 45.6101 59.9291H44.3076C43.7866 59.9291 43.3235 59.7554 42.9183 59.4081C42.5709 59.0029 42.3972 58.5397 42.3973 58.0187C42.3972 57.4399 42.5709 57.0057 42.9183 56.7162C43.2656 56.3689 43.7287 56.1952 44.3076 56.1952H45.6101C44.9733 55.1533 44.6549 54.4586 44.6549 54.1112C44.6549 53.5903 44.8286 53.1561 45.1759 52.8087C45.5811 52.4035 46.0732 52.2009 46.6521 52.2009C46.8257 52.2009 46.9994 52.2588 47.1731 52.3746C47.3467 52.4325 47.4914 52.4904 47.6073 52.5482C47.723 52.6061 47.8388 52.7509 47.9546 52.9824C48.1282 53.1561 48.215 53.2719 48.2151 53.3297C48.2729 53.3876 48.3598 53.5613 48.4756 53.8507C48.6492 54.1402 48.765 54.3139 48.8229 54.3717C49.4018 53.3298 49.807 52.7219 50.0386 52.5482C50.328 52.3746 50.6753 52.2878 51.0806 52.2877C51.6015 52.2878 52.0357 52.4614 52.3831 52.8087C52.7883 53.1561 52.9909 53.5903 52.9909 54.1112C52.9909 54.4007 52.6725 55.0954 52.0358 56.1952H53.3382ZM50.9938 63.2287C51.341 63.2287 51.6305 63.1129 51.8621 62.8814C52.1515 62.6498 52.2962 62.3604 52.2963 62.0131C52.2962 61.7815 52.2383 61.5789 52.1226 61.4052L50.9069 59.2344H53.3382C54.1486 59.2344 54.5539 58.8581 54.5539 58.1056C54.5539 57.2951 54.1486 56.8899 53.3382 56.8899H50.9069L52.1226 54.8059C52.2383 54.5165 52.2962 54.256 52.2963 54.0244C52.2962 53.735 52.1804 53.4745 51.9489 53.2429C51.7173 53.0114 51.4279 52.8956 51.0806 52.8956C50.6174 52.8956 50.2701 53.0982 50.0386 53.5034L48.8229 55.6742L47.6073 53.5034C47.3757 53.0982 47.0573 52.8956 46.6521 52.8956C46.3047 52.8956 45.9863 53.0114 45.6969 53.2429C45.4653 53.4745 45.3496 53.7639 45.3496 54.1112C45.3496 54.3428 45.4075 54.5744 45.5233 54.8059L46.7389 56.8899H44.3076C43.4971 56.8899 43.0919 57.2951 43.0919 58.1056C43.0919 58.8581 43.4971 59.2344 44.3076 59.2344H46.7389L45.5233 61.4052C45.3496 61.6368 45.2627 61.8683 45.2628 62.0999C45.2627 62.3893 45.3785 62.6498 45.6101 62.8814C45.8995 63.1129 46.2179 63.2287 46.5653 63.2287C47.0283 63.2287 47.3757 62.9972 47.6073 62.5341L48.8229 60.5369L50.0386 62.5341C50.2701 62.9972 50.5885 63.2287 50.9938 63.2287ZM47.4336 56.7162C47.8388 56.311 48.3019 56.1084 48.8229 56.1084C49.3439 56.1084 49.807 56.311 50.2123 56.7162C50.6174 57.0636 50.82 57.4977 50.8201 58.0187C50.82 58.5976 50.6174 59.0897 50.2123 59.4949C49.807 59.8422 49.3149 60.0159 48.7361 60.0159C48.2151 60.0159 47.7519 59.8422 47.3468 59.4949C46.9994 59.0897 46.8257 58.5976 46.8258 58.0187C46.8257 57.4977 47.0283 57.0636 47.4336 56.7162ZM48.8229 59.3212C49.1702 59.3212 49.4597 59.2055 49.6913 58.9739C49.9807 58.7424 50.1254 58.4529 50.1254 58.1056C50.1254 57.7004 49.9807 57.382 49.6913 57.1504C49.4597 56.861 49.1413 56.7162 48.7361 56.7162C48.3887 56.7162 48.0993 56.861 47.8678 57.1504C47.6362 57.382 47.5204 57.6714 47.5204 58.0187C47.5204 58.424 47.6362 58.7424 47.8678 58.9739C48.1572 59.2055 48.4755 59.3212 48.8229 59.3212ZM49.5176 58.0187C49.5175 58.4819 49.286 58.7134 48.8229 58.7134C48.4177 58.7134 48.215 58.4819 48.2151 58.0187C48.215 57.6135 48.4177 57.4109 48.8229 57.4109C49.286 57.4109 49.5175 57.6135 49.5176 58.0187ZM57.9404 77.3825C57.9404 79.9875 57.0431 82.1583 55.2486 83.895C53.454 85.6317 51.3121 86.5 48.8229 86.5C46.2758 86.5 44.1339 85.6027 42.3973 83.8082C40.6606 82.0715 39.7922 79.9296 39.7923 77.3825C39.7922 74.8933 40.6606 72.7804 42.3973 71.0437C44.1339 69.2492 46.2758 68.3519 48.8229 68.3519C51.37 68.3519 53.5119 69.2492 55.2486 71.0437C57.0431 72.7804 57.9404 74.8933 57.9404 77.3825ZM57.2457 77.3825C57.2457 75.067 56.4063 73.0987 54.7276 71.4779C53.1066 69.7991 51.1095 68.9597 48.7361 68.9597C46.4205 68.9597 44.4523 69.7991 42.8314 71.4779C41.2105 73.0987 40.4001 75.067 40.4001 77.3825C40.4001 79.8138 41.2105 81.811 42.8314 83.374C44.5102 84.9949 46.5073 85.8053 48.8229 85.8053C51.1963 85.8053 53.1935 84.9949 54.8144 83.374C56.4352 81.7531 57.2457 79.7559 57.2457 77.3825ZM48.8229 70.0017C50.9648 70.0017 52.7304 70.7253 54.1197 72.1725C55.5669 73.6197 56.2905 75.3564 56.2906 77.3825C56.2905 79.5244 55.5669 81.29 54.1197 82.6793C52.6725 84.1265 50.9069 84.8502 48.8229 84.8502C46.7389 84.8502 44.9733 84.1265 43.5261 82.6793C42.0788 81.2321 41.3552 79.4665 41.3553 77.3825C41.3552 75.2985 42.0788 73.5619 43.5261 72.1725C45.0312 70.7253 46.7968 70.0017 48.8229 70.0017ZM43.9603 82.2452C45.2917 83.5766 46.8836 84.2423 48.7361 84.2423C50.6464 84.2423 52.2673 83.5766 53.5988 82.2452C54.9301 80.9716 55.5959 79.3507 55.5959 77.3825C55.5959 75.5301 54.9301 73.9381 53.5988 72.6067C52.3251 71.2753 50.7332 70.6095 48.8229 70.6095C46.9126 70.6095 45.2917 71.2753 43.9603 72.6067C42.6867 73.9381 42.0499 75.5301 42.0499 77.3825C42.0499 79.3507 42.6867 80.9716 43.9603 82.2452ZM53.3382 75.559C53.8592 75.559 54.2934 75.7327 54.6407 76.08C55.0459 76.4852 55.2485 76.9483 55.2486 77.4693C55.2485 77.9903 55.0749 78.4245 54.7276 78.7718C54.3802 79.1192 53.9171 79.2928 53.3382 79.2928H52.0358C52.6725 80.3348 52.9909 81.0295 52.9909 81.3768C52.9909 81.8978 52.7883 82.332 52.3831 82.6793C52.0357 83.0845 51.5726 83.2872 50.9938 83.2872C50.8779 83.2872 50.7332 83.2582 50.5596 83.2003C50.4438 83.2003 50.299 83.1424 50.1254 83.0267C50.0096 82.9109 49.8938 82.7951 49.7781 82.6793C49.7202 82.6214 49.6333 82.5057 49.5176 82.332C49.4018 82.2162 49.3149 82.1004 49.2571 81.9847C49.1992 81.9268 49.1123 81.7821 48.9966 81.5505C48.9387 81.3768 48.8808 81.2611 48.8229 81.2032C48.3019 82.1294 47.8967 82.7083 47.6073 82.9398C47.3178 83.1135 46.9704 83.2003 46.5653 83.2003C46.0442 83.2003 45.5811 83.0267 45.1759 82.6793C44.8286 82.332 44.6549 81.9268 44.6549 81.4637C44.6549 81.0584 44.9733 80.3348 45.6101 79.2928H44.3076C43.7866 79.2928 43.3235 79.0902 42.9183 78.685C42.5709 78.3377 42.3972 77.9035 42.3973 77.3825C42.3972 76.8036 42.5709 76.3405 42.9183 75.9932C43.2656 75.7037 43.7287 75.559 44.3076 75.559H45.6101C44.9733 74.517 44.6549 73.8224 44.6549 73.475C44.6549 72.954 44.8286 72.5199 45.1759 72.1725C45.5811 71.7673 46.0732 71.5647 46.6521 71.5647C46.8257 71.5647 46.9994 71.6226 47.1731 71.7384C47.3467 71.7963 47.4914 71.8541 47.6073 71.912C47.723 71.9699 47.8388 72.1146 47.9546 72.3462C48.1282 72.5199 48.215 72.6356 48.2151 72.6935C48.2729 72.7514 48.3598 72.9251 48.4756 73.2145C48.6492 73.504 48.765 73.6776 48.8229 73.7355C49.4018 72.6935 49.807 72.0857 50.0386 71.912C50.328 71.7384 50.6753 71.6515 51.0806 71.6515C51.6015 71.6515 52.0357 71.8252 52.3831 72.1725C52.7883 72.5199 52.9909 72.954 52.9909 73.475C52.9909 73.7645 52.6725 74.4591 52.0358 75.559H53.3382ZM50.9938 82.5925C51.341 82.5925 51.6305 82.4767 51.8621 82.2452C52.1515 82.0136 52.2962 81.7242 52.2963 81.3768C52.2962 81.1453 52.2383 80.9427 52.1226 80.769L50.9069 78.5982H53.3382C54.1486 78.5982 54.5539 78.193 54.5539 77.3825C54.5539 76.63 54.1486 76.2537 53.3382 76.2537H50.9069L52.1226 74.1697C52.2383 73.8802 52.2962 73.6197 52.2963 73.3882C52.2962 73.0988 52.1804 72.8382 51.9489 72.6067C51.7173 72.3751 51.4279 72.2594 51.0806 72.2594C50.6174 72.2594 50.2701 72.462 50.0386 72.8672L48.8229 75.038L47.6073 72.8672C47.3757 72.462 47.0573 72.2594 46.6521 72.2594C46.3047 72.2594 45.9863 72.3751 45.6969 72.6067C45.4653 72.8382 45.3496 73.1277 45.3496 73.475C45.3496 73.7066 45.4075 73.9381 45.5233 74.1697L46.7389 76.2537H44.3076C43.4971 76.2537 43.0919 76.63 43.0919 77.3825C43.0919 78.193 43.4971 78.5982 44.3076 78.5982H46.7389L45.5233 80.769C45.3496 81.0006 45.2627 81.2321 45.2628 81.4637C45.2627 81.7531 45.3785 82.0136 45.6101 82.2452C45.8995 82.4767 46.2179 82.5925 46.5653 82.5925C47.0283 82.5925 47.3757 82.3609 47.6073 81.8978L48.8229 79.9007L50.0386 81.8978C50.2701 82.3609 50.5885 82.5925 50.9938 82.5925ZM47.4336 75.9932C47.8388 75.6459 48.3019 75.4722 48.8229 75.4722C49.3439 75.4722 49.807 75.6459 50.2123 75.9932C50.6174 76.3984 50.82 76.8615 50.8201 77.3825C50.82 77.9614 50.6174 78.4245 50.2123 78.7718C49.807 79.1771 49.3149 79.3797 48.7361 79.3797C48.2151 79.3797 47.7519 79.1771 47.3468 78.7718C46.9994 78.4245 46.8257 77.9614 46.8258 77.3825C46.8257 76.8615 47.0283 76.3984 47.4336 75.9932ZM48.8229 78.685C49.1702 78.685 49.4597 78.5692 49.6913 78.3377C49.9807 78.1061 50.1254 77.7877 50.1254 77.3825C50.1254 77.0352 49.9807 76.7168 49.6913 76.4274C49.4597 76.1958 49.1413 76.08 48.7361 76.08C48.3887 76.08 48.0993 76.1958 47.8678 76.4274C47.6362 76.7168 47.5204 77.0352 47.5204 77.3825C47.5204 77.7877 47.6362 78.1061 47.8678 78.3377C48.1572 78.5692 48.4755 78.685 48.8229 78.685ZM49.5176 77.3825C49.5175 77.8456 49.286 78.0772 48.8229 78.0772C48.4177 78.0772 48.215 77.8456 48.2151 77.3825C48.215 76.9773 48.4177 76.7747 48.8229 76.7747C49.286 76.7747 49.5175 76.9773 49.5176 77.3825ZM57.9404 19.0306C57.9404 21.6357 57.0431 23.8065 55.2486 25.5431C53.454 27.2798 51.3121 28.1482 48.8229 28.1481C46.2758 28.1482 44.1339 27.2798 42.3973 25.5431C40.6606 23.7486 39.7922 21.6067 39.7923 19.1175C39.7922 16.5704 40.6606 14.4285 42.3973 12.6918C44.1339 10.8973 46.2758 10.0001 48.8229 10C51.37 10.0001 53.5119 10.8973 55.2486 12.6918C57.0431 14.4285 57.9404 16.5415 57.9404 19.0306ZM57.2457 19.0306C57.2457 16.7152 56.4063 14.7469 54.7276 13.126C53.1066 11.4473 51.1095 10.6079 48.7361 10.6078C46.4205 10.6079 44.4523 11.4473 42.8314 13.126C41.2105 14.7469 40.4001 16.7152 40.4001 19.0306C40.4001 21.462 41.2105 23.4881 42.8314 25.109C44.5102 26.672 46.5073 27.4535 48.8229 27.4535C51.1963 27.4535 53.1935 26.6431 54.8144 25.0221C56.4352 23.4013 57.2457 21.4041 57.2457 19.0306ZM48.8229 11.6498C50.9648 11.6499 52.7304 12.3735 54.1197 13.8207C55.5669 15.2679 56.2905 17.0046 56.2906 19.0306C56.2905 21.1726 55.5669 22.9671 54.1197 24.4143C52.6725 25.8037 50.9069 26.4983 48.8229 26.4983C46.7389 26.4983 44.9733 25.7747 43.5261 24.3275C42.0788 22.8803 41.3552 21.1147 41.3553 19.0306C41.3552 16.9467 42.0788 15.21 43.5261 13.8207C45.0312 12.3735 46.7968 11.6499 48.8229 11.6498ZM43.9603 23.9801C45.2917 25.2537 46.8836 25.8905 48.7361 25.8905C50.6464 25.8905 52.2673 25.2537 53.5988 23.9801C54.9301 22.6487 55.5959 20.9989 55.5959 19.0306C55.5959 17.1783 54.9301 15.5863 53.5988 14.2548C52.3251 12.9234 50.7332 12.2577 48.8229 12.2577C46.9126 12.2577 45.2917 12.9234 43.9603 14.2548C42.6867 15.5863 42.0499 17.1783 42.0499 19.0306C42.0499 20.9989 42.6867 22.6487 43.9603 23.9801ZM53.3382 17.2072C53.8592 17.2072 54.2934 17.4098 54.6407 17.815C55.0459 18.1624 55.2485 18.5965 55.2486 19.1175C55.2485 19.6385 55.0749 20.0727 54.7276 20.42C54.3802 20.7674 53.9171 20.941 53.3382 20.941H52.0358C52.6725 21.983 52.9909 22.6777 52.9909 23.025C52.9909 23.546 52.7883 24.0091 52.3831 24.4143C52.0357 24.7617 51.5726 24.9353 50.9938 24.9353C50.8779 24.9353 50.7332 24.9353 50.5596 24.9353C50.4438 24.8775 50.299 24.7906 50.1254 24.6748C50.0096 24.5591 49.8938 24.4722 49.7781 24.4143C49.7202 24.2986 49.6333 24.1828 49.5176 24.067C49.4018 23.8934 49.3149 23.7776 49.2571 23.7196C49.1992 23.6039 49.1123 23.4592 48.9966 23.2855C48.9387 23.054 48.8808 22.9092 48.8229 22.8513C48.3019 23.7776 47.8967 24.3565 47.6073 24.588C47.3178 24.7617 46.9704 24.8485 46.5653 24.8485C46.0442 24.8485 45.5811 24.6748 45.1759 24.3275C44.8286 23.9802 44.6549 23.575 44.6549 23.1118C44.6549 22.7066 44.9733 21.983 45.6101 20.941H44.3076C43.7866 20.941 43.3235 20.7674 42.9183 20.42C42.5709 20.0148 42.3972 19.5517 42.3973 19.0306C42.3972 18.4518 42.5709 18.0176 42.9183 17.7281C43.2656 17.3809 43.7287 17.2072 44.3076 17.2072H45.6101C44.9733 16.1652 44.6549 15.4705 44.6549 15.1232C44.6549 14.6022 44.8286 14.168 45.1759 13.8207C45.5811 13.4155 46.0732 13.2129 46.6521 13.2128C46.8257 13.2129 46.9994 13.2708 47.1731 13.3865C47.3467 13.4444 47.4914 13.5023 47.6073 13.5602C47.723 13.6181 47.8388 13.7628 47.9546 13.9943C48.1282 14.168 48.215 14.2838 48.2151 14.3417C48.2729 14.3996 48.3598 14.5733 48.4756 14.8627C48.6492 15.1522 48.765 15.3258 48.8229 15.3837C49.4018 14.3417 49.807 13.7339 50.0386 13.5602C50.328 13.3866 50.6753 13.2997 51.0806 13.2997C51.6015 13.2997 52.0357 13.4734 52.3831 13.8207C52.7883 14.168 52.9909 14.6022 52.9909 15.1232C52.9909 15.4127 52.6725 16.1073 52.0358 17.2072H53.3382ZM50.9938 24.2406C51.341 24.2407 51.6305 24.1249 51.8621 23.8933C52.1515 23.6618 52.2962 23.3724 52.2963 23.025C52.2962 22.7935 52.2383 22.5909 52.1226 22.4171L50.9069 20.2463H53.3382C54.1486 20.2464 54.5539 19.8701 54.5539 19.1175C54.5539 18.3071 54.1486 17.9019 53.3382 17.9018H50.9069L52.1226 15.8178C52.2383 15.5284 52.2962 15.2679 52.2963 15.0363C52.2962 14.7469 52.1804 14.4864 51.9489 14.2548C51.7173 14.0233 51.4279 13.9076 51.0806 13.9075C50.6174 13.9076 50.2701 14.1102 50.0386 14.5153L48.8229 16.6862L47.6073 14.5153C47.3757 14.1102 47.0573 13.9076 46.6521 13.9075C46.3047 13.9076 45.9863 14.0233 45.6969 14.2548C45.4653 14.4864 45.3496 14.7759 45.3496 15.1232C45.3496 15.3548 45.4075 15.5863 45.5233 15.8178L46.7389 17.9018H44.3076C43.4971 17.9019 43.0919 18.3071 43.0919 19.1175C43.0919 19.8701 43.4971 20.2464 44.3076 20.2463H46.7389L45.5233 22.4171C45.3496 22.6487 45.2627 22.8803 45.2628 23.1118C45.2627 23.4013 45.3785 23.6618 45.6101 23.8933C45.8995 24.1249 46.2179 24.2407 46.5653 24.2406C47.0283 24.2407 47.3757 24.0091 47.6073 23.546L48.8229 21.5488L50.0386 23.546C50.2701 24.0091 50.5885 24.2407 50.9938 24.2406ZM47.4336 17.7281C47.8388 17.323 48.3019 17.1204 48.8229 17.1203C49.3439 17.1204 49.807 17.323 50.2123 17.7281C50.6174 18.0755 50.82 18.5097 50.8201 19.0306C50.82 19.6096 50.6174 20.1016 50.2123 20.5068C49.807 20.8542 49.3149 21.0279 48.7361 21.0278C48.2151 21.0279 47.7519 20.8542 47.3468 20.5068C46.9994 20.1016 46.8257 19.6096 46.8258 19.0306C46.8257 18.5097 47.0283 18.0755 47.4336 17.7281ZM48.8229 20.3331C49.1702 20.3332 49.4597 20.2174 49.6913 19.9858C49.9807 19.7543 50.1254 19.4649 50.1254 19.1175C50.1254 18.7123 49.9807 18.3939 49.6913 18.1623C49.4597 17.8729 49.1413 17.7282 48.7361 17.7281C48.3887 17.7282 48.0993 17.8729 47.8678 18.1623C47.6362 18.3939 47.5204 18.6834 47.5204 19.0306C47.5204 19.4359 47.6362 19.7543 47.8678 19.9858C48.1572 20.2174 48.4755 20.3332 48.8229 20.3331ZM49.5176 19.0306C49.5175 19.4938 49.286 19.7254 48.8229 19.7253C48.4177 19.7254 48.215 19.4938 48.2151 19.0306C48.215 18.6255 48.4177 18.4229 48.8229 18.4228C49.286 18.4229 49.5175 18.6255 49.5176 19.0306ZM57.9404 38.3944C57.9404 40.9995 57.0431 43.1703 55.2486 44.9069C53.454 46.6436 51.3121 47.5119 48.8229 47.5119C46.2758 47.5119 44.1339 46.6436 42.3973 44.9069C40.6606 43.1124 39.7922 40.9705 39.7923 38.4813C39.7922 35.9342 40.6606 33.7923 42.3973 32.0556C44.1339 30.2611 46.2758 29.3638 48.8229 29.3638C51.37 29.3638 53.5119 30.2611 55.2486 32.0556C57.0431 33.7923 57.9404 35.9053 57.9404 38.3944ZM57.2457 38.3944C57.2457 36.0789 56.4063 34.1107 54.7276 32.4898C53.1066 30.8111 51.1095 29.9717 48.7361 29.9716C46.4205 29.9717 44.4523 30.8111 42.8314 32.4898C41.2105 34.1107 40.4001 36.0789 40.4001 38.3944C40.4001 40.8258 41.2105 42.8519 42.8314 44.4728C44.5102 46.0358 46.5073 46.8173 48.8229 46.8173C51.1963 46.8173 53.1935 46.0068 54.8144 44.3859C56.4352 42.7651 57.2457 40.7679 57.2457 38.3944ZM48.8229 31.0136C50.9648 31.0137 52.7304 31.7373 54.1197 33.1844C55.5669 34.6317 56.2905 36.3684 56.2906 38.3944C56.2905 40.5364 55.5669 42.3309 54.1197 43.7781C52.6725 45.1675 50.9069 45.8621 48.8229 45.8621C46.7389 45.8621 44.9733 45.1385 43.5261 43.6913C42.0788 42.2441 41.3552 40.4785 41.3553 38.3944C41.3552 36.3105 42.0788 34.5738 43.5261 33.1844C45.0312 31.7373 46.7968 31.0137 48.8229 31.0136ZM43.9603 43.3439C45.2917 44.6175 46.8836 45.2543 48.7361 45.2543C50.6464 45.2543 52.2673 44.6175 53.5988 43.3439C54.9301 42.0125 55.5959 40.3627 55.5959 38.3944C55.5959 36.542 54.9301 34.9501 53.5988 33.6186C52.3251 32.2872 50.7332 31.6215 48.8229 31.6215C46.9126 31.6215 45.2917 32.2872 43.9603 33.6186C42.6867 34.9501 42.0499 36.542 42.0499 38.3944C42.0499 40.3627 42.6867 42.0125 43.9603 43.3439ZM53.3382 36.5709C53.8592 36.571 54.2934 36.7736 54.6407 37.1788C55.0459 37.5261 55.2485 37.9603 55.2486 38.4813C55.2485 39.0023 55.0749 39.4365 54.7276 39.7838C54.3802 40.1311 53.9171 40.3048 53.3382 40.3048H52.0358C52.6725 41.3468 52.9909 42.0415 52.9909 42.3888C52.9909 42.9098 52.7883 43.3729 52.3831 43.7781C52.0357 44.1255 51.5726 44.2991 50.9938 44.2991C50.8779 44.2991 50.7332 44.2991 50.5596 44.2991C50.4438 44.2412 50.299 44.1544 50.1254 44.0386C50.0096 43.9228 49.8938 43.836 49.7781 43.7781C49.7202 43.6623 49.6333 43.5466 49.5176 43.4308C49.4018 43.2571 49.3149 43.1413 49.2571 43.0834C49.1992 42.9677 49.1123 42.823 48.9966 42.6493C48.9387 42.4177 48.8808 42.273 48.8229 42.2151C48.3019 43.1413 47.8967 43.7202 47.6073 43.9518C47.3178 44.1255 46.9704 44.2123 46.5653 44.2123C46.0442 44.2123 45.5811 44.0386 45.1759 43.6913C44.8286 43.344 44.6549 42.9387 44.6549 42.4756C44.6549 42.0704 44.9733 41.3468 45.6101 40.3048H44.3076C43.7866 40.3048 43.3235 40.1311 42.9183 39.7838C42.5709 39.3786 42.3972 38.9155 42.3973 38.3944C42.3972 37.8156 42.5709 37.3814 42.9183 37.0919C43.2656 36.7446 43.7287 36.571 44.3076 36.5709H45.6101C44.9733 35.529 44.6549 34.8343 44.6549 34.4869C44.6549 33.966 44.8286 33.5318 45.1759 33.1844C45.5811 32.7793 46.0732 32.5767 46.6521 32.5766C46.8257 32.5767 46.9994 32.6345 47.1731 32.7503C47.3467 32.8082 47.4914 32.8661 47.6073 32.924C47.723 32.9819 47.8388 33.1266 47.9546 33.3581C48.1282 33.5318 48.215 33.6476 48.2151 33.7054C48.2729 33.7634 48.3598 33.937 48.4756 34.2264C48.6492 34.5159 48.765 34.6896 48.8229 34.7474C49.4018 33.7055 49.807 33.0977 50.0386 32.924C50.328 32.7503 50.6753 32.6635 51.0806 32.6634C51.6015 32.6635 52.0357 32.8372 52.3831 33.1844C52.7883 33.5318 52.9909 33.966 52.9909 34.4869C52.9909 34.7764 52.6725 35.4711 52.0358 36.5709H53.3382ZM50.9938 43.6044C51.341 43.6045 51.6305 43.4887 51.8621 43.2571C52.1515 43.0256 52.2962 42.7361 52.2963 42.3888C52.2962 42.1572 52.2383 41.9546 52.1226 41.7809L50.9069 39.6101H53.3382C54.1486 39.6101 54.5539 39.2339 54.5539 38.4813C54.5539 37.6709 54.1486 37.2656 53.3382 37.2656H50.9069L52.1226 35.1816C52.2383 34.8922 52.2962 34.6317 52.2963 34.4001C52.2962 34.1107 52.1804 33.8502 51.9489 33.6186C51.7173 33.3871 51.4279 33.2713 51.0806 33.2713C50.6174 33.2713 50.2701 33.4739 50.0386 33.8791L48.8229 36.0499L47.6073 33.8791C47.3757 33.4739 47.0573 33.2713 46.6521 33.2713C46.3047 33.2713 45.9863 33.3871 45.6969 33.6186C45.4653 33.8502 45.3496 34.1397 45.3496 34.4869C45.3496 34.7185 45.4075 34.9501 45.5233 35.1816L46.7389 37.2656H44.3076C43.4971 37.2656 43.0919 37.6709 43.0919 38.4813C43.0919 39.2339 43.4971 39.6101 44.3076 39.6101H46.7389L45.5233 41.7809C45.3496 42.0125 45.2627 42.2441 45.2628 42.4756C45.2627 42.7651 45.3785 43.0256 45.6101 43.2571C45.8995 43.4887 46.2179 43.6045 46.5653 43.6044C47.0283 43.6045 47.3757 43.3729 47.6073 42.9098L48.8229 40.9126L50.0386 42.9098C50.2701 43.3729 50.5885 43.6045 50.9938 43.6044ZM47.4336 37.0919C47.8388 36.6868 48.3019 36.4841 48.8229 36.4841C49.3439 36.4841 49.807 36.6868 50.2123 37.0919C50.6174 37.4393 50.82 37.8735 50.8201 38.3944C50.82 38.9734 50.6174 39.4654 50.2123 39.8706C49.807 40.218 49.3149 40.3916 48.7361 40.3916C48.2151 40.3916 47.7519 40.218 47.3468 39.8706C46.9994 39.4654 46.8257 38.9734 46.8258 38.3944C46.8257 37.8735 47.0283 37.4393 47.4336 37.0919ZM48.8229 39.6969C49.1702 39.697 49.4597 39.5812 49.6913 39.3496C49.9807 39.1181 50.1254 38.8286 50.1254 38.4813C50.1254 38.0761 49.9807 37.7577 49.6913 37.5261C49.4597 37.2367 49.1413 37.092 48.7361 37.0919C48.3887 37.092 48.0993 37.2367 47.8678 37.5261C47.6362 37.7577 47.5204 38.0471 47.5204 38.3944C47.5204 38.7997 47.6362 39.1181 47.8678 39.3496C48.1572 39.5812 48.4755 39.697 48.8229 39.6969ZM49.5176 38.3944C49.5175 38.8576 49.286 39.0891 48.8229 39.0891C48.4177 39.0891 48.215 38.8576 48.2151 38.3944C48.215 37.9893 48.4177 37.7866 48.8229 37.7866C49.286 37.7866 49.5175 37.9893 49.5176 38.3944ZM34.1481 58.0187C34.1481 60.6237 33.2508 62.7946 31.4563 64.5312C29.6617 66.2679 27.5198 67.1362 25.0306 67.1362C22.4835 67.1362 20.3416 66.2679 18.605 64.5312C16.8683 62.7367 16 60.5948 16 58.1056C16 55.5585 16.8683 53.4166 18.605 51.6799C20.3416 49.8854 22.4835 48.9881 25.0306 48.9881C27.5777 48.9881 29.7196 49.8854 31.4563 51.6799C33.2508 53.4166 34.1481 55.5295 34.1481 58.0187ZM33.4535 58.0187C33.4534 55.7032 32.614 53.735 30.9353 52.1141C29.3144 50.4353 27.3172 49.5959 24.9438 49.5959C22.6282 49.5959 20.66 50.4353 19.0392 52.1141C17.4183 53.735 16.6078 55.7032 16.6078 58.0187C16.6078 60.4501 17.4183 62.4762 19.0392 64.0971C20.7179 65.6601 22.7151 66.4415 25.0306 66.4415C27.4041 66.4415 29.4012 65.6311 31.0221 64.0102C32.643 62.3893 33.4534 60.3922 33.4535 58.0187ZM25.0306 50.6379C27.1725 50.6379 28.9381 51.3615 30.3275 52.8087C31.7747 54.256 32.4983 55.9926 32.4983 58.0187C32.4983 60.1606 31.7747 61.9552 30.3275 63.4024C28.8802 64.7917 27.1146 65.4864 25.0306 65.4864C22.9466 65.4864 21.181 64.7628 19.7338 63.3156C18.2866 61.8683 17.563 60.1027 17.563 58.0187C17.563 55.9348 18.2866 54.1981 19.7338 52.8087C21.2389 51.3615 23.0045 50.6379 25.0306 50.6379ZM20.168 62.9682C21.4994 64.2418 23.0914 64.8786 24.9438 64.8785C26.8541 64.8786 28.475 64.2418 29.8065 62.9682C31.1379 61.6368 31.8036 59.987 31.8036 58.0187C31.8036 56.1663 31.1379 54.5744 29.8065 53.2429C28.5329 51.9115 26.9409 51.2458 25.0306 51.2457C23.1203 51.2458 21.4994 51.9115 20.168 53.2429C18.8944 54.5744 18.2576 56.1663 18.2577 58.0187C18.2576 59.987 18.8944 61.6368 20.168 62.9682ZM29.546 56.1952C30.0669 56.1952 30.5011 56.3979 30.8485 56.8031C31.2537 57.1504 31.4563 57.5846 31.4563 58.1056C31.4563 58.6266 31.2826 59.0607 30.9353 59.4081C30.5879 59.7554 30.1248 59.9291 29.546 59.9291H28.2435C28.8802 60.9711 29.1986 61.6657 29.1986 62.0131C29.1986 62.5341 28.996 62.9972 28.5908 63.4024C28.2434 63.7497 27.7803 63.9234 27.2015 63.9234C27.0857 63.9234 26.9409 63.9234 26.7673 63.9234C26.6515 63.8655 26.5068 63.7787 26.3331 63.6629C26.2173 63.5471 26.1016 63.4603 25.9858 63.4024C25.9279 63.2866 25.8411 63.1708 25.7253 63.0551C25.6095 62.8814 25.5227 62.7656 25.4648 62.7077C25.4069 62.592 25.3201 62.4472 25.2043 62.2736C25.1464 62.042 25.0885 61.8973 25.0306 61.8394C24.5096 62.7656 24.1044 63.3445 23.815 63.5761C23.5255 63.7497 23.1782 63.8366 22.773 63.8365C22.252 63.8366 21.7889 63.6629 21.3837 63.3156C21.0363 62.9682 20.8626 62.563 20.8627 62.0999C20.8626 61.6947 21.181 60.9711 21.8178 59.9291H20.5153C19.9943 59.9291 19.5312 59.7554 19.126 59.4081C18.7786 59.0029 18.605 58.5397 18.605 58.0187C18.605 57.4399 18.7786 57.0057 19.126 56.7162C19.4733 56.3689 19.9364 56.1952 20.5153 56.1952H21.8178C21.181 55.1533 20.8626 54.4586 20.8627 54.1112C20.8626 53.5903 21.0363 53.1561 21.3837 52.8087C21.7889 52.4035 22.2809 52.2009 22.8598 52.2009C23.0335 52.2009 23.2071 52.2588 23.3808 52.3746C23.5545 52.4325 23.6992 52.4904 23.815 52.5482C23.9307 52.6061 24.0465 52.7509 24.1623 52.9824C24.336 53.1561 24.4228 53.2719 24.4228 53.3297C24.4807 53.3876 24.5675 53.5613 24.6833 53.8507C24.857 54.1402 24.9727 54.3139 25.0306 54.3717C25.6095 53.3298 26.0147 52.7219 26.2463 52.5482C26.5357 52.3746 26.8831 52.2878 27.2883 52.2877C27.8093 52.2878 28.2434 52.4614 28.5908 52.8087C28.996 53.1561 29.1986 53.5903 29.1986 54.1112C29.1986 54.4007 28.8802 55.0954 28.2435 56.1952H29.546ZM27.2015 63.2287C27.5488 63.2287 27.8382 63.1129 28.0698 62.8814C28.3592 62.6498 28.5039 62.3604 28.504 62.0131C28.5039 61.7815 28.4461 61.5789 28.3303 61.4052L27.1146 59.2344H29.546C30.3564 59.2344 30.7616 58.8581 30.7616 58.1056C30.7616 57.2951 30.3564 56.8899 29.546 56.8899H27.1146L28.3303 54.8059C28.4461 54.5165 28.5039 54.256 28.504 54.0244C28.5039 53.735 28.3882 53.4745 28.1566 53.2429C27.9251 53.0114 27.6356 52.8956 27.2883 52.8956C26.8252 52.8956 26.4778 53.0982 26.2463 53.5034L25.0306 55.6742L23.815 53.5034C23.5834 53.0982 23.265 52.8956 22.8598 52.8956C22.5125 52.8956 22.1941 53.0114 21.9047 53.2429C21.6731 53.4745 21.5573 53.7639 21.5573 54.1112C21.5573 54.3428 21.6152 54.5744 21.731 54.8059L22.9467 56.8899H20.5153C19.7049 56.8899 19.2996 57.2951 19.2997 58.1056C19.2996 58.8581 19.7049 59.2344 20.5153 59.2344H22.9467L21.731 61.4052C21.5573 61.6368 21.4705 61.8683 21.4705 62.0999C21.4705 62.3893 21.5862 62.6498 21.8178 62.8814C22.1072 63.1129 22.4256 63.2287 22.773 63.2287C23.2361 63.2287 23.5834 62.9972 23.815 62.5341L25.0306 60.5369L26.2463 62.5341C26.4778 62.9972 26.7962 63.2287 27.2015 63.2287ZM23.6413 56.7162C24.0465 56.311 24.5096 56.1084 25.0306 56.1084C25.5516 56.1084 26.0147 56.311 26.42 56.7162C26.8252 57.0636 27.0278 57.4977 27.0278 58.0187C27.0278 58.5976 26.8252 59.0897 26.42 59.4949C26.0147 59.8422 25.5227 60.0159 24.9438 60.0159C24.4228 60.0159 23.9597 59.8422 23.5545 59.4949C23.2071 59.0897 23.0335 58.5976 23.0335 58.0187C23.0335 57.4977 23.2361 57.0636 23.6413 56.7162ZM25.0306 59.3212C25.378 59.3212 25.6674 59.2055 25.899 58.9739C26.1884 58.7424 26.3331 58.4529 26.3331 58.1056C26.3331 57.7004 26.1884 57.382 25.899 57.1504C25.6674 56.861 25.349 56.7162 24.9438 56.7162C24.5965 56.7162 24.307 56.861 24.0755 57.1504C23.8439 57.382 23.7281 57.6714 23.7281 58.0187C23.7281 58.424 23.8439 58.7424 24.0755 58.9739C24.3649 59.2055 24.6833 59.3212 25.0306 59.3212ZM25.7253 58.0187C25.7253 58.4819 25.4937 58.7134 25.0306 58.7134C24.6254 58.7134 24.4228 58.4819 24.4228 58.0187C24.4228 57.6135 24.6254 57.4109 25.0306 57.4109C25.4937 57.4109 25.7253 57.6135 25.7253 58.0187ZM34.1481 77.3825C34.1481 79.9875 33.2508 82.1583 31.4563 83.895C29.6617 85.6317 27.5198 86.5 25.0306 86.5C22.4835 86.5 20.3416 85.6027 18.605 83.8082C16.8683 82.0715 16 79.9296 16 77.3825C16 74.8933 16.8683 72.7804 18.605 71.0437C20.3416 69.2492 22.4835 68.3519 25.0306 68.3519C27.5777 68.3519 29.7196 69.2492 31.4563 71.0437C33.2508 72.7804 34.1481 74.8933 34.1481 77.3825ZM33.4535 77.3825C33.4534 75.067 32.614 73.0987 30.9353 71.4779C29.3144 69.7991 27.3172 68.9597 24.9438 68.9597C22.6282 68.9597 20.66 69.7991 19.0392 71.4779C17.4183 73.0987 16.6078 75.067 16.6078 77.3825C16.6078 79.8138 17.4183 81.811 19.0392 83.374C20.7179 84.9949 22.7151 85.8053 25.0306 85.8053C27.4041 85.8053 29.4012 84.9949 31.0221 83.374C32.643 81.7531 33.4534 79.7559 33.4535 77.3825ZM25.0306 70.0017C27.1725 70.0017 28.9381 70.7253 30.3275 72.1725C31.7747 73.6197 32.4983 75.3564 32.4983 77.3825C32.4983 79.5244 31.7747 81.29 30.3275 82.6793C28.8802 84.1265 27.1146 84.8502 25.0306 84.8502C22.9466 84.8502 21.181 84.1265 19.7338 82.6793C18.2866 81.2321 17.563 79.4665 17.563 77.3825C17.563 75.2985 18.2866 73.5619 19.7338 72.1725C21.2389 70.7253 23.0045 70.0017 25.0306 70.0017ZM20.168 82.2452C21.4994 83.5766 23.0914 84.2423 24.9438 84.2423C26.8541 84.2423 28.475 83.5766 29.8065 82.2452C31.1379 80.9716 31.8036 79.3507 31.8036 77.3825C31.8036 75.5301 31.1379 73.9381 29.8065 72.6067C28.5329 71.2753 26.9409 70.6095 25.0306 70.6095C23.1203 70.6095 21.4994 71.2753 20.168 72.6067C18.8944 73.9381 18.2576 75.5301 18.2577 77.3825C18.2576 79.3507 18.8944 80.9716 20.168 82.2452ZM29.546 75.559C30.0669 75.559 30.5011 75.7327 30.8485 76.08C31.2537 76.4852 31.4563 76.9483 31.4563 77.4693C31.4563 77.9903 31.2826 78.4245 30.9353 78.7718C30.5879 79.1192 30.1248 79.2928 29.546 79.2928H28.2435C28.8802 80.3348 29.1986 81.0295 29.1986 81.3768C29.1986 81.8978 28.996 82.332 28.5908 82.6793C28.2434 83.0845 27.7803 83.2872 27.2015 83.2872C27.0857 83.2872 26.9409 83.2582 26.7673 83.2003C26.6515 83.2003 26.5068 83.1424 26.3331 83.0267C26.2173 82.9109 26.1016 82.7951 25.9858 82.6793C25.9279 82.6214 25.8411 82.5057 25.7253 82.332C25.6095 82.2162 25.5227 82.1004 25.4648 81.9847C25.4069 81.9268 25.3201 81.7821 25.2043 81.5505C25.1464 81.3768 25.0885 81.2611 25.0306 81.2032C24.5096 82.1294 24.1044 82.7083 23.815 82.9398C23.5255 83.1135 23.1782 83.2003 22.773 83.2003C22.252 83.2003 21.7889 83.0267 21.3837 82.6793C21.0363 82.332 20.8626 81.9268 20.8627 81.4637C20.8626 81.0584 21.181 80.3348 21.8178 79.2928H20.5153C19.9943 79.2928 19.5312 79.0902 19.126 78.685C18.7786 78.3377 18.605 77.9035 18.605 77.3825C18.605 76.8036 18.7786 76.3405 19.126 75.9932C19.4733 75.7037 19.9364 75.559 20.5153 75.559H21.8178C21.181 74.517 20.8626 73.8224 20.8627 73.475C20.8626 72.954 21.0363 72.5199 21.3837 72.1725C21.7889 71.7673 22.2809 71.5647 22.8598 71.5647C23.0335 71.5647 23.2071 71.6226 23.3808 71.7384C23.5545 71.7963 23.6992 71.8541 23.815 71.912C23.9307 71.9699 24.0465 72.1146 24.1623 72.3462C24.336 72.5199 24.4228 72.6356 24.4228 72.6935C24.4807 72.7514 24.5675 72.9251 24.6833 73.2145C24.857 73.504 24.9727 73.6776 25.0306 73.7355C25.6095 72.6935 26.0147 72.0857 26.2463 71.912C26.5357 71.7384 26.8831 71.6515 27.2883 71.6515C27.8093 71.6515 28.2434 71.8252 28.5908 72.1725C28.996 72.5199 29.1986 72.954 29.1986 73.475C29.1986 73.7645 28.8802 74.4591 28.2435 75.559H29.546ZM27.2015 82.5925C27.5488 82.5925 27.8382 82.4767 28.0698 82.2452C28.3592 82.0136 28.5039 81.7242 28.504 81.3768C28.5039 81.1453 28.4461 80.9427 28.3303 80.769L27.1146 78.5982H29.546C30.3564 78.5982 30.7616 78.193 30.7616 77.3825C30.7616 76.63 30.3564 76.2537 29.546 76.2537H27.1146L28.3303 74.1697C28.4461 73.8802 28.5039 73.6197 28.504 73.3882C28.5039 73.0988 28.3882 72.8382 28.1566 72.6067C27.9251 72.3751 27.6356 72.2594 27.2883 72.2594C26.8252 72.2594 26.4778 72.462 26.2463 72.8672L25.0306 75.038L23.815 72.8672C23.5834 72.462 23.265 72.2594 22.8598 72.2594C22.5125 72.2594 22.1941 72.3751 21.9047 72.6067C21.6731 72.8382 21.5573 73.1277 21.5573 73.475C21.5573 73.7066 21.6152 73.9381 21.731 74.1697L22.9467 76.2537H20.5153C19.7049 76.2537 19.2996 76.63 19.2997 77.3825C19.2996 78.193 19.7049 78.5982 20.5153 78.5982H22.9467L21.731 80.769C21.5573 81.0006 21.4705 81.2321 21.4705 81.4637C21.4705 81.7531 21.5862 82.0136 21.8178 82.2452C22.1072 82.4767 22.4256 82.5925 22.773 82.5925C23.2361 82.5925 23.5834 82.3609 23.815 81.8978L25.0306 79.9007L26.2463 81.8978C26.4778 82.3609 26.7962 82.5925 27.2015 82.5925ZM23.6413 75.9932C24.0465 75.6459 24.5096 75.4722 25.0306 75.4722C25.5516 75.4722 26.0147 75.6459 26.42 75.9932C26.8252 76.3984 27.0278 76.8615 27.0278 77.3825C27.0278 77.9614 26.8252 78.4245 26.42 78.7718C26.0147 79.1771 25.5227 79.3797 24.9438 79.3797C24.4228 79.3797 23.9597 79.1771 23.5545 78.7718C23.2071 78.4245 23.0335 77.9614 23.0335 77.3825C23.0335 76.8615 23.2361 76.3984 23.6413 75.9932ZM25.0306 78.685C25.378 78.685 25.6674 78.5692 25.899 78.3377C26.1884 78.1061 26.3331 77.7877 26.3331 77.3825C26.3331 77.0352 26.1884 76.7168 25.899 76.4274C25.6674 76.1958 25.349 76.08 24.9438 76.08C24.5965 76.08 24.307 76.1958 24.0755 76.4274C23.8439 76.7168 23.7281 77.0352 23.7281 77.3825C23.7281 77.7877 23.8439 78.1061 24.0755 78.3377C24.3649 78.5692 24.6833 78.685 25.0306 78.685ZM25.7253 77.3825C25.7253 77.8456 25.4937 78.0772 25.0306 78.0772C24.6254 78.0772 24.4228 77.8456 24.4228 77.3825C24.4228 76.9773 24.6254 76.7747 25.0306 76.7747C25.4937 76.7747 25.7253 76.9773 25.7253 77.3825ZM34.1481 19.0306C34.1481 21.6357 33.2508 23.8065 31.4563 25.5431C29.6617 27.2798 27.5198 28.1482 25.0306 28.1481C22.4835 28.1482 20.3416 27.2798 18.605 25.5431C16.8683 23.7486 16 21.6067 16 19.1175C16 16.5704 16.8683 14.4285 18.605 12.6918C20.3416 10.8973 22.4835 10.0001 25.0306 10C27.5777 10.0001 29.7196 10.8973 31.4563 12.6918C33.2508 14.4285 34.1481 16.5415 34.1481 19.0306ZM33.4535 19.0306C33.4534 16.7152 32.614 14.7469 30.9353 13.126C29.3144 11.4473 27.3172 10.6079 24.9438 10.6078C22.6282 10.6079 20.66 11.4473 19.0392 13.126C17.4183 14.7469 16.6078 16.7152 16.6078 19.0306C16.6078 21.462 17.4183 23.4881 19.0392 25.109C20.7179 26.672 22.7151 27.4535 25.0306 27.4535C27.4041 27.4535 29.4012 26.6431 31.0221 25.0221C32.643 23.4013 33.4534 21.4041 33.4535 19.0306ZM25.0306 11.6498C27.1725 11.6499 28.9381 12.3735 30.3275 13.8207C31.7747 15.2679 32.4983 17.0046 32.4983 19.0306C32.4983 21.1726 31.7747 22.9671 30.3275 24.4143C28.8802 25.8037 27.1146 26.4983 25.0306 26.4983C22.9466 26.4983 21.181 25.7747 19.7338 24.3275C18.2866 22.8803 17.563 21.1147 17.563 19.0306C17.563 16.9467 18.2866 15.21 19.7338 13.8207C21.2389 12.3735 23.0045 11.6499 25.0306 11.6498ZM20.168 23.9801C21.4994 25.2537 23.0914 25.8905 24.9438 25.8905C26.8541 25.8905 28.475 25.2537 29.8065 23.9801C31.1379 22.6487 31.8036 20.9989 31.8036 19.0306C31.8036 17.1783 31.1379 15.5863 29.8065 14.2548C28.5329 12.9234 26.9409 12.2577 25.0306 12.2577C23.1203 12.2577 21.4994 12.9234 20.168 14.2548C18.8944 15.5863 18.2576 17.1783 18.2577 19.0306C18.2576 20.9989 18.8944 22.6487 20.168 23.9801ZM29.546 17.2072C30.0669 17.2072 30.5011 17.4098 30.8485 17.815C31.2537 18.1624 31.4563 18.5965 31.4563 19.1175C31.4563 19.6385 31.2826 20.0727 30.9353 20.42C30.5879 20.7674 30.1248 20.941 29.546 20.941H28.2435C28.8802 21.983 29.1986 22.6777 29.1986 23.025C29.1986 23.546 28.996 24.0091 28.5908 24.4143C28.2434 24.7617 27.7803 24.9353 27.2015 24.9353C27.0857 24.9353 26.9409 24.9353 26.7673 24.9353C26.6515 24.8775 26.5068 24.7906 26.3331 24.6748C26.2173 24.5591 26.1016 24.4722 25.9858 24.4143C25.9279 24.2986 25.8411 24.1828 25.7253 24.067C25.6095 23.8934 25.5227 23.7776 25.4648 23.7196C25.4069 23.6039 25.3201 23.4592 25.2043 23.2855C25.1464 23.054 25.0885 22.9092 25.0306 22.8513C24.5096 23.7776 24.1044 24.3565 23.815 24.588C23.5255 24.7617 23.1782 24.8485 22.773 24.8485C22.252 24.8485 21.7889 24.6748 21.3837 24.3275C21.0363 23.9802 20.8626 23.575 20.8627 23.1118C20.8626 22.7066 21.181 21.983 21.8178 20.941H20.5153C19.9943 20.941 19.5312 20.7674 19.126 20.42C18.7786 20.0148 18.605 19.5517 18.605 19.0306C18.605 18.4518 18.7786 18.0176 19.126 17.7281C19.4733 17.3809 19.9364 17.2072 20.5153 17.2072H21.8178C21.181 16.1652 20.8626 15.4705 20.8627 15.1232C20.8626 14.6022 21.0363 14.168 21.3837 13.8207C21.7889 13.4155 22.2809 13.2129 22.8598 13.2128C23.0335 13.2129 23.2071 13.2708 23.3808 13.3865C23.5545 13.4444 23.6992 13.5023 23.815 13.5602C23.9307 13.6181 24.0465 13.7628 24.1623 13.9943C24.336 14.168 24.4228 14.2838 24.4228 14.3417C24.4807 14.3996 24.5675 14.5733 24.6833 14.8627C24.857 15.1522 24.9727 15.3258 25.0306 15.3837C25.6095 14.3417 26.0147 13.7339 26.2463 13.5602C26.5357 13.3866 26.8831 13.2997 27.2883 13.2997C27.8093 13.2997 28.2434 13.4734 28.5908 13.8207C28.996 14.168 29.1986 14.6022 29.1986 15.1232C29.1986 15.4127 28.8802 16.1073 28.2435 17.2072H29.546ZM27.2015 24.2406C27.5488 24.2407 27.8382 24.1249 28.0698 23.8933C28.3592 23.6618 28.5039 23.3724 28.504 23.025C28.5039 22.7935 28.4461 22.5909 28.3303 22.4171L27.1146 20.2463H29.546C30.3564 20.2464 30.7616 19.8701 30.7616 19.1175C30.7616 18.3071 30.3564 17.9019 29.546 17.9018H27.1146L28.3303 15.8178C28.4461 15.5284 28.5039 15.2679 28.504 15.0363C28.5039 14.7469 28.3882 14.4864 28.1566 14.2548C27.9251 14.0233 27.6356 13.9076 27.2883 13.9075C26.8252 13.9076 26.4778 14.1102 26.2463 14.5153L25.0306 16.6862L23.815 14.5153C23.5834 14.1102 23.265 13.9076 22.8598 13.9075C22.5125 13.9076 22.1941 14.0233 21.9047 14.2548C21.6731 14.4864 21.5573 14.7759 21.5573 15.1232C21.5573 15.3548 21.6152 15.5863 21.731 15.8178L22.9467 17.9018H20.5153C19.7049 17.9019 19.2996 18.3071 19.2997 19.1175C19.2996 19.8701 19.7049 20.2464 20.5153 20.2463H22.9467L21.731 22.4171C21.5573 22.6487 21.4705 22.8803 21.4705 23.1118C21.4705 23.4013 21.5862 23.6618 21.8178 23.8933C22.1072 24.1249 22.4256 24.2407 22.773 24.2406C23.2361 24.2407 23.5834 24.0091 23.815 23.546L25.0306 21.5488L26.2463 23.546C26.4778 24.0091 26.7962 24.2407 27.2015 24.2406ZM23.6413 17.7281C24.0465 17.323 24.5096 17.1204 25.0306 17.1203C25.5516 17.1204 26.0147 17.323 26.42 17.7281C26.8252 18.0755 27.0278 18.5097 27.0278 19.0306C27.0278 19.6096 26.8252 20.1016 26.42 20.5068C26.0147 20.8542 25.5227 21.0279 24.9438 21.0278C24.4228 21.0279 23.9597 20.8542 23.5545 20.5068C23.2071 20.1016 23.0335 19.6096 23.0335 19.0306C23.0335 18.5097 23.2361 18.0755 23.6413 17.7281ZM25.0306 20.3331C25.378 20.3332 25.6674 20.2174 25.899 19.9858C26.1884 19.7543 26.3331 19.4649 26.3331 19.1175C26.3331 18.7123 26.1884 18.3939 25.899 18.1623C25.6674 17.8729 25.349 17.7282 24.9438 17.7281C24.5965 17.7282 24.307 17.8729 24.0755 18.1623C23.8439 18.3939 23.7281 18.6834 23.7281 19.0306C23.7281 19.4359 23.8439 19.7543 24.0755 19.9858C24.3649 20.2174 24.6833 20.3332 25.0306 20.3331ZM25.7253 19.0306C25.7253 19.4938 25.4937 19.7254 25.0306 19.7253C24.6254 19.7254 24.4228 19.4938 24.4228 19.0306C24.4228 18.6255 24.6254 18.4229 25.0306 18.4228C25.4937 18.4229 25.7253 18.6255 25.7253 19.0306ZM34.1481 38.3944C34.1481 40.9995 33.2508 43.1703 31.4563 44.9069C29.6617 46.6436 27.5198 47.5119 25.0306 47.5119C22.4835 47.5119 20.3416 46.6436 18.605 44.9069C16.8683 43.1124 16 40.9705 16 38.4813C16 35.9342 16.8683 33.7923 18.605 32.0556C20.3416 30.2611 22.4835 29.3638 25.0306 29.3638C27.5777 29.3638 29.7196 30.2611 31.4563 32.0556C33.2508 33.7923 34.1481 35.9053 34.1481 38.3944ZM33.4535 38.3944C33.4534 36.0789 32.614 34.1107 30.9353 32.4898C29.3144 30.8111 27.3172 29.9717 24.9438 29.9716C22.6282 29.9717 20.66 30.8111 19.0392 32.4898C17.4183 34.1107 16.6078 36.0789 16.6078 38.3944C16.6078 40.8258 17.4183 42.8519 19.0392 44.4728C20.7179 46.0358 22.7151 46.8173 25.0306 46.8173C27.4041 46.8173 29.4012 46.0068 31.0221 44.3859C32.643 42.7651 33.4534 40.7679 33.4535 38.3944ZM25.0306 31.0136C27.1725 31.0137 28.9381 31.7373 30.3275 33.1844C31.7747 34.6317 32.4983 36.3684 32.4983 38.3944C32.4983 40.5364 31.7747 42.3309 30.3275 43.7781C28.8802 45.1675 27.1146 45.8621 25.0306 45.8621C22.9466 45.8621 21.181 45.1385 19.7338 43.6913C18.2866 42.2441 17.563 40.4785 17.563 38.3944C17.563 36.3105 18.2866 34.5738 19.7338 33.1844C21.2389 31.7373 23.0045 31.0137 25.0306 31.0136ZM20.168 43.3439C21.4994 44.6175 23.0914 45.2543 24.9438 45.2543C26.8541 45.2543 28.475 44.6175 29.8065 43.3439C31.1379 42.0125 31.8036 40.3627 31.8036 38.3944C31.8036 36.542 31.1379 34.9501 29.8065 33.6186C28.5329 32.2872 26.9409 31.6215 25.0306 31.6215C23.1203 31.6215 21.4994 32.2872 20.168 33.6186C18.8944 34.9501 18.2576 36.542 18.2577 38.3944C18.2576 40.3627 18.8944 42.0125 20.168 43.3439ZM29.546 36.5709C30.0669 36.571 30.5011 36.7736 30.8485 37.1788C31.2537 37.5261 31.4563 37.9603 31.4563 38.4813C31.4563 39.0023 31.2826 39.4365 30.9353 39.7838C30.5879 40.1311 30.1248 40.3048 29.546 40.3048H28.2435C28.8802 41.3468 29.1986 42.0415 29.1986 42.3888C29.1986 42.9098 28.996 43.3729 28.5908 43.7781C28.2434 44.1255 27.7803 44.2991 27.2015 44.2991C27.0857 44.2991 26.9409 44.2991 26.7673 44.2991C26.6515 44.2412 26.5068 44.1544 26.3331 44.0386C26.2173 43.9228 26.1016 43.836 25.9858 43.7781C25.9279 43.6623 25.8411 43.5466 25.7253 43.4308C25.6095 43.2571 25.5227 43.1413 25.4648 43.0834C25.4069 42.9677 25.3201 42.823 25.2043 42.6493C25.1464 42.4177 25.0885 42.273 25.0306 42.2151C24.5096 43.1413 24.1044 43.7202 23.815 43.9518C23.5255 44.1255 23.1782 44.2123 22.773 44.2123C22.252 44.2123 21.7889 44.0386 21.3837 43.6913C21.0363 43.344 20.8626 42.9387 20.8627 42.4756C20.8626 42.0704 21.181 41.3468 21.8178 40.3048H20.5153C19.9943 40.3048 19.5312 40.1311 19.126 39.7838C18.7786 39.3786 18.605 38.9155 18.605 38.3944C18.605 37.8156 18.7786 37.3814 19.126 37.0919C19.4733 36.7446 19.9364 36.571 20.5153 36.5709H21.8178C21.181 35.529 20.8626 34.8343 20.8627 34.4869C20.8626 33.966 21.0363 33.5318 21.3837 33.1844C21.7889 32.7793 22.2809 32.5767 22.8598 32.5766C23.0335 32.5767 23.2071 32.6345 23.3808 32.7503C23.5545 32.8082 23.6992 32.8661 23.815 32.924C23.9307 32.9819 24.0465 33.1266 24.1623 33.3581C24.336 33.5318 24.4228 33.6476 24.4228 33.7054C24.4807 33.7634 24.5675 33.937 24.6833 34.2264C24.857 34.5159 24.9727 34.6896 25.0306 34.7474C25.6095 33.7055 26.0147 33.0977 26.2463 32.924C26.5357 32.7503 26.8831 32.6635 27.2883 32.6634C27.8093 32.6635 28.2434 32.8372 28.5908 33.1844C28.996 33.5318 29.1986 33.966 29.1986 34.4869C29.1986 34.7764 28.8802 35.4711 28.2435 36.5709H29.546ZM27.2015 43.6044C27.5488 43.6045 27.8382 43.4887 28.0698 43.2571C28.3592 43.0256 28.5039 42.7361 28.504 42.3888C28.5039 42.1572 28.4461 41.9546 28.3303 41.7809L27.1146 39.6101H29.546C30.3564 39.6101 30.7616 39.2339 30.7616 38.4813C30.7616 37.6709 30.3564 37.2656 29.546 37.2656H27.1146L28.3303 35.1816C28.4461 34.8922 28.5039 34.6317 28.504 34.4001C28.5039 34.1107 28.3882 33.8502 28.1566 33.6186C27.9251 33.3871 27.6356 33.2713 27.2883 33.2713C26.8252 33.2713 26.4778 33.4739 26.2463 33.8791L25.0306 36.0499L23.815 33.8791C23.5834 33.4739 23.265 33.2713 22.8598 33.2713C22.5125 33.2713 22.1941 33.3871 21.9047 33.6186C21.6731 33.8502 21.5573 34.1397 21.5573 34.4869C21.5573 34.7185 21.6152 34.9501 21.731 35.1816L22.9467 37.2656H20.5153C19.7049 37.2656 19.2996 37.6709 19.2997 38.4813C19.2996 39.2339 19.7049 39.6101 20.5153 39.6101H22.9467L21.731 41.7809C21.5573 42.0125 21.4705 42.2441 21.4705 42.4756C21.4705 42.7651 21.5862 43.0256 21.8178 43.2571C22.1072 43.4887 22.4256 43.6045 22.773 43.6044C23.2361 43.6045 23.5834 43.3729 23.815 42.9098L25.0306 40.9126L26.2463 42.9098C26.4778 43.3729 26.7962 43.6045 27.2015 43.6044ZM23.6413 37.0919C24.0465 36.6868 24.5096 36.4841 25.0306 36.4841C25.5516 36.4841 26.0147 36.6868 26.42 37.0919C26.8252 37.4393 27.0278 37.8735 27.0278 38.3944C27.0278 38.9734 26.8252 39.4654 26.42 39.8706C26.0147 40.218 25.5227 40.3916 24.9438 40.3916C24.4228 40.3916 23.9597 40.218 23.5545 39.8706C23.2071 39.4654 23.0335 38.9734 23.0335 38.3944C23.0335 37.8735 23.2361 37.4393 23.6413 37.0919ZM25.0306 39.6969C25.378 39.697 25.6674 39.5812 25.899 39.3496C26.1884 39.1181 26.3331 38.8286 26.3331 38.4813C26.3331 38.0761 26.1884 37.7577 25.899 37.5261C25.6674 37.2367 25.349 37.092 24.9438 37.0919C24.5965 37.092 24.307 37.2367 24.0755 37.5261C23.8439 37.7577 23.7281 38.0471 23.7281 38.3944C23.7281 38.7997 23.8439 39.1181 24.0755 39.3496C24.3649 39.5812 24.6833 39.697 25.0306 39.6969ZM25.7253 38.3944C25.7253 38.8576 25.4937 39.0891 25.0306 39.0891C24.6254 39.0891 24.4228 38.8576 24.4228 38.3944C24.4228 37.9893 24.6254 37.7866 25.0306 37.7866C25.4937 37.7866 25.7253 37.9893 25.7253 38.3944Z" fill="#006C00"></path>
</g>
<rect x="0.25" y="0.25" width="74.2" height="94.6" rx="7.75" stroke="#003500" stroke-width="0.5"></rect>
<defs>
<clipPath id="clip0_1_915">
<rect width="74.7" height="95.1" rx="8" fill="white"></rect>
</clipPath>
</defs>
</svg>