<svg width="75" height="96" viewBox="0 0 75 96" fill="none" xmlns="http://www.w3.org/2000/svg">
<g clip-path="url(#clip0_1_891)">
<rect width="74.7" height="95.1" rx="8" fill="white"></rect>
<path d="M74.7 87.9C74.6999 92.7 72.4333 95.1 67.9 95.1H6.80002C2.26668 95.1 0 92.7 0 87.9V7.19998C0 2.40005 2.26668 7e-05 6.80002 0H67.9C72.4333 7e-05 74.6999 2.40005 74.7 7.19998V87.9ZM73 87.9V7.19998C73 3.53338 71.2999 1.70005 67.9 1.69998H6.80002C3.40001 1.70005 1.70001 3.53338 1.70001 7.19998V87.9C1.70001 91.6333 3.40001 93.5 6.80002 93.5H67.9C71.2999 93.5 73 91.6333 73 87.9Z" fill="white"></path>
<path d="M48 47.9554C48 51.4052 46.8599 54.29 44.5799 56.6097C42.3568 58.8699 39.6778 60 36.5427 60C33.2936 60 30.5576 58.8401 28.3346 56.5204C26.1115 54.1413 25 51.2863 25 47.9554C25 44.6246 26.1115 41.7993 28.3346 39.4796C30.6146 37.1599 33.3506 36 36.5427 36C39.7918 36 42.4993 37.1896 44.6654 39.5688C46.8884 41.8885 48 44.6841 48 47.9554ZM47.145 47.9554C47.1449 44.8625 46.0904 42.2454 43.9814 40.1041C41.9293 37.9629 39.4213 36.8922 36.4573 36.8922C33.5502 36.8922 31.0421 37.9629 28.9331 40.1041C26.881 42.2454 25.855 44.8625 25.855 47.9554C25.855 51.1078 26.881 53.7547 28.9331 55.8959C31.0421 58.0372 33.5787 59.1078 36.5427 59.1078C39.5068 59.1078 42.0148 58.0372 44.0669 55.8959C46.1189 53.6952 47.1449 51.0484 47.145 47.9554ZM36.5427 38.2305C39.2218 38.2305 41.4448 39.1822 43.2119 41.0855C45.0359 42.9889 45.9479 45.2789 45.9479 47.9554C45.9479 50.751 45.0359 53.1004 43.2119 55.0037C41.3878 56.9071 39.1648 57.8587 36.5427 57.8587C33.8637 57.8587 31.6121 56.9071 29.7881 55.0037C28.0211 53.0409 27.1375 50.6915 27.1375 47.9554C27.1375 45.1599 28.0496 42.8402 29.8736 40.9963C31.6976 39.1525 33.9207 38.2305 36.5427 38.2305ZM30.3866 54.3792C32.0966 56.1041 34.1202 56.9665 36.4573 56.9665C38.8513 56.9665 40.8748 56.1041 42.5279 54.3792C44.2379 52.6543 45.0929 50.513 45.0929 47.9554C45.0929 45.5168 44.2664 43.435 42.6134 41.7101C40.9603 39.9257 38.9368 39.0335 36.5427 39.0335C34.0917 39.0335 32.0396 39.9257 30.3866 41.7101C28.7335 43.435 27.9071 45.5168 27.9071 47.9554C27.9071 50.513 28.7335 52.6543 30.3866 54.3792ZM42.1859 45.5465C42.9269 45.5465 43.5254 45.7844 43.9814 46.2602C44.4374 46.7361 44.6654 47.3309 44.6654 48.0446C44.6654 48.7584 44.4374 49.3532 43.9814 49.829C43.5254 50.2454 42.9269 50.4535 42.1859 50.4535H40.6468C41.3878 51.8216 41.7583 52.7435 41.7584 53.2193C41.7583 53.8736 41.5303 54.4684 41.0743 55.0037C40.6183 55.4796 40.0198 55.7175 39.2788 55.7175C39.1078 55.7175 38.9083 55.7175 38.6803 55.7175C38.5092 55.658 38.3383 55.5688 38.1673 55.4498C38.0533 55.2714 37.9392 55.1524 37.8253 55.0929C37.7112 54.974 37.5687 54.7955 37.3978 54.5576C37.2837 54.3197 37.1697 54.1413 37.0558 54.0223C36.9988 53.9034 36.9132 53.7249 36.7992 53.487C36.6852 53.1896 36.5997 53.0112 36.5427 52.9517C35.8587 54.2602 35.3172 55.0335 34.9182 55.2714C34.5762 55.5688 34.1772 55.7175 33.7212 55.7175C33.0371 55.7175 32.4387 55.4796 31.9257 55.0037C31.4696 54.5279 31.2416 53.9628 31.2416 53.3086C31.2416 52.8327 31.6406 51.8811 32.4387 50.4535H30.8141C30.1301 50.4535 29.5601 50.2156 29.1041 49.7398C28.648 49.264 28.42 48.6692 28.4201 47.9554C28.42 47.2417 28.6196 46.6766 29.0186 46.2602C29.4746 45.7844 30.0731 45.5465 30.8141 45.5465H32.4387C31.6976 44.1785 31.3271 43.2565 31.3272 42.7807C31.3271 42.1264 31.5551 41.5614 32.0112 41.0855C32.4671 40.5502 33.0371 40.2826 33.7212 40.2825C34.0062 40.2826 34.2342 40.342 34.4052 40.461C34.6332 40.5205 34.8042 40.6097 34.9182 40.7286C35.0892 40.7881 35.2602 40.9666 35.4312 41.264C35.6022 41.5019 35.7162 41.6803 35.7733 41.7993C35.8302 41.8588 35.9442 42.0669 36.1152 42.4238C36.3432 42.7807 36.4857 42.9889 36.5427 43.0483C37.2267 41.7398 37.7397 40.9666 38.0818 40.7286C38.4237 40.4908 38.8512 40.3718 39.3643 40.3718C40.0483 40.3718 40.6183 40.6097 41.0743 41.0855C41.5303 41.5614 41.7583 42.1264 41.7584 42.7807C41.7583 43.1971 41.3878 44.119 40.6468 45.5465H42.1859ZM39.2788 54.8253C39.7348 54.8253 40.1053 54.6766 40.3903 54.3792C40.7323 54.0818 40.9033 53.6952 40.9034 53.2193C40.9033 52.922 40.8463 52.6246 40.7323 52.3271L39.1933 49.5613H42.1859C43.2689 49.5614 43.8103 49.0558 43.8104 48.0446C43.8103 46.974 43.2689 46.4387 42.1859 46.4387H39.1933L40.7323 43.6729C40.8463 43.316 40.9033 42.9889 40.9034 42.6914C40.9033 42.2751 40.7608 41.9183 40.4759 41.6208C40.1908 41.3235 39.8203 41.1748 39.3643 41.1747C38.7942 41.1748 38.3667 41.4722 38.0818 42.0669L36.5427 44.8327L35.0037 42.0669C34.6617 41.4722 34.2342 41.1748 33.7212 41.1747C33.2652 41.1748 32.8661 41.3532 32.5241 41.7101C32.2391 42.0075 32.0966 42.3643 32.0966 42.7807C32.0966 43.0781 32.1822 43.3755 32.3532 43.6729L33.8922 46.4387H30.8141C29.7881 46.4387 29.2751 46.974 29.2751 48.0446C29.2751 49.0558 29.7881 49.5614 30.8141 49.5613H33.8922L32.3532 52.3271C32.1822 52.684 32.0966 53.0112 32.0966 53.3086C32.0966 53.7249 32.2391 54.0818 32.5241 54.3792C32.8661 54.6766 33.2367 54.8253 33.6357 54.8253C34.2057 54.8253 34.6617 54.5279 35.0037 53.9331L36.5427 51.2565L38.0818 53.9331C38.3667 54.5279 38.7658 54.8253 39.2788 54.8253ZM34.7472 46.171C35.2602 45.6952 35.8302 45.4573 36.4573 45.4572C37.1412 45.4573 37.7397 45.6952 38.2528 46.171C38.7658 46.6469 39.0223 47.2417 39.0223 47.9554C39.0223 48.7287 38.7658 49.3829 38.2528 49.9182C37.7967 50.3941 37.1982 50.632 36.4573 50.632C35.7732 50.632 35.2032 50.3643 34.7472 49.829C34.2912 49.2937 34.0632 48.6692 34.0632 47.9554C34.0632 47.2417 34.2912 46.6469 34.7472 46.171ZM36.5427 49.7398C36.9987 49.7398 37.3692 49.5614 37.6543 49.2045C37.9962 48.8476 38.1673 48.4313 38.1673 47.9554C38.1673 47.4796 37.9962 47.093 37.6543 46.7955C37.3692 46.4387 36.9702 46.2602 36.4573 46.2602C36.0012 46.2602 35.6022 46.4387 35.2602 46.7955C34.9752 47.093 34.8327 47.4796 34.8327 47.9554C34.8327 48.4907 35.0037 48.9368 35.3457 49.2937C35.6877 49.5911 36.0867 49.7398 36.5427 49.7398ZM37.3123 47.9554C37.3122 48.5502 37.0557 48.8476 36.5427 48.8476C35.9727 48.8476 35.6877 48.5502 35.6877 47.9554C35.6877 47.4201 35.9727 47.1524 36.5427 47.1524C37.0557 47.1524 37.3122 47.4201 37.3123 47.9554Z" fill="#9C0000"></path>
<path d="M35.0437 73.3158C35.0437 76.6624 33.9015 79.432 31.6171 81.6246C29.3898 83.8748 26.7057 85 23.5647 85C20.3095 85 17.5682 83.846 15.3409 81.538C13.1136 79.2877 12 76.547 12 73.3158C12 70.0846 13.1136 67.3439 15.3409 65.0936C17.6253 62.8433 20.3666 61.7181 23.5647 61.7181C26.8199 61.7181 29.5326 62.8721 31.7028 65.1801C33.9301 67.4304 35.0437 70.1423 35.0437 73.3158ZM34.1871 73.3158C34.187 70.3154 33.1305 67.7766 31.0175 65.6994C28.9615 63.6222 26.4487 62.5836 23.479 62.5836C20.5664 62.5836 18.0536 63.6222 15.9406 65.6994C13.8846 67.7766 12.8566 70.3154 12.8566 73.3158C12.8566 76.3739 13.8846 78.9415 15.9406 81.0187C18.0536 83.0959 20.595 84.1345 23.5647 84.1345C26.5344 84.1345 29.0472 83.067 31.1032 80.9322C33.1591 78.8549 34.187 76.3162 34.1871 73.3158ZM23.5647 63.8819C26.2488 63.8819 28.4761 64.8051 30.2465 66.6514C32.074 68.4978 32.9878 70.7193 32.9878 73.3158C32.9878 76.0277 32.074 78.3068 30.2465 80.1532C28.419 81.9996 26.1917 82.9228 23.5647 82.9228C20.8805 82.9228 18.6247 81.9707 16.7972 80.0667C15.0268 78.2203 14.1416 75.97 14.1416 73.3158C14.1416 70.6039 15.0553 68.3536 16.8829 66.5649C18.7103 64.7762 20.9377 63.8819 23.5647 63.8819ZM17.3969 79.5474C19.1101 81.2207 21.1375 82.0573 23.479 82.0573C25.8776 82.0573 27.905 81.2207 29.5612 79.5474C31.2745 77.8741 32.1311 75.7969 32.1312 73.3158C32.1311 70.9501 31.303 68.9306 29.6469 67.2573C27.9907 65.5263 25.9633 64.6608 23.5647 64.6608C21.109 64.6608 19.053 65.5263 17.3969 67.2573C15.7407 68.9306 14.9126 70.9501 14.9126 73.3158C14.9126 75.7969 15.7407 77.8741 17.3969 79.5474ZM29.2185 70.9789C29.9609 70.9789 30.5606 71.2097 31.0175 71.6713C31.4743 72.1329 31.7028 72.7099 31.7028 73.4023C31.7028 74.0947 31.4743 74.6429 31.0175 75.0468C30.5606 75.5084 29.9609 75.7392 29.2185 75.7392H27.6766C28.419 77.0663 28.7902 77.9606 28.7902 78.4222C28.7902 79.0569 28.5618 79.605 28.1049 80.0667C27.648 80.5859 27.0483 80.8456 26.3059 80.8456C26.1346 80.8456 25.9347 80.8168 25.7063 80.7591C25.535 80.7591 25.3636 80.6725 25.1923 80.4994C25.0781 80.384 24.9639 80.2686 24.8497 80.1532C24.7354 80.0955 24.5927 79.9513 24.4214 79.7205C24.3071 79.4896 24.1929 79.3165 24.0787 79.2012C24.0215 79.0858 23.9359 78.8838 23.8217 78.5953C23.7075 78.3645 23.6218 78.2203 23.5647 78.1626C22.8794 79.432 22.3368 80.1821 21.9371 80.4129C21.5944 80.7014 21.1946 80.8456 20.7377 80.8456C20.0524 80.8456 19.4528 80.6148 18.9388 80.1532C18.4819 79.6916 18.2535 79.1435 18.2535 78.5088C18.2535 78.0472 18.6532 77.124 19.4528 75.7392H17.8252C17.1399 75.7392 16.5688 75.5084 16.1119 75.0468C15.655 74.5852 15.4266 74.0082 15.4266 73.3158C15.4266 72.6234 15.6265 72.0752 16.0262 71.6713C16.4831 71.2097 17.0828 70.9789 17.8252 70.9789H19.4528C18.7103 69.6518 18.3391 68.7575 18.3392 68.2959C18.3391 67.6612 18.5676 67.1131 19.0245 66.6514C19.4813 66.1322 20.0524 65.8725 20.7377 65.8725C21.0233 65.8725 21.2518 65.9302 21.4231 66.0456C21.6515 66.1033 21.8228 66.1899 21.9371 66.3053C22.1084 66.363 22.2797 66.5361 22.451 66.8246C22.6223 67.0554 22.7366 67.2285 22.7937 67.3439C22.8508 67.4016 22.965 67.6035 23.1364 67.9497C23.3648 68.2959 23.5076 68.4979 23.5647 68.5556C24.25 67.2862 24.764 66.5361 25.1067 66.3053C25.4493 66.0745 25.8776 65.9591 26.3916 65.9591C27.0769 65.9591 27.648 66.1899 28.1049 66.6514C28.5618 67.1131 28.7902 67.6612 28.7902 68.2959C28.7902 68.6998 28.419 69.5941 27.6766 70.9789H29.2185ZM26.3059 79.9801C26.7628 79.9801 27.134 79.8359 27.4196 79.5474C27.7622 79.2589 27.9336 78.8838 27.9336 78.4222C27.9336 78.1337 27.8764 77.8452 27.7622 77.5567L26.2203 74.8737H29.2185C30.3036 74.8737 30.8462 74.3544 30.8462 73.3158C30.8462 72.3349 30.3036 71.8444 29.2185 71.8444H26.2203L27.7622 69.1614C27.8764 68.8152 27.9336 68.4979 27.9336 68.2094C27.9336 67.8055 27.7908 67.4593 27.5053 67.1708C27.2197 66.8823 26.8485 66.738 26.3916 66.738C25.8205 66.738 25.3922 67.0265 25.1067 67.6035L23.5647 70.2865L22.0227 67.6035C21.68 67.0265 21.2517 66.738 20.7377 66.738C20.2808 66.738 19.8811 66.9111 19.5385 67.2573C19.2529 67.5458 19.1101 67.892 19.1102 68.2959C19.1101 68.5844 19.1958 68.8729 19.3671 69.1614L20.9091 71.8444H17.8252C16.7972 71.8444 16.2832 72.3349 16.2832 73.3158C16.2832 74.3544 16.7972 74.8737 17.8252 74.8737H20.9091L19.3671 77.5567C19.1958 77.9029 19.1101 78.2203 19.1102 78.5088C19.1101 78.9127 19.2529 79.2589 19.5385 79.5474C19.8811 79.8359 20.2523 79.9801 20.6521 79.9801C21.2232 79.9801 21.68 79.6916 22.0227 79.1146L23.5647 76.5181L25.1067 79.1146C25.3922 79.6916 25.7919 79.9801 26.3059 79.9801ZM21.7657 71.5848C22.2797 71.1232 22.8508 70.8924 23.479 70.8924C24.1643 70.8924 24.764 71.1232 25.278 71.5848C25.792 72.0464 26.0489 72.6234 26.049 73.3158C26.0489 74.0659 25.792 74.6717 25.278 75.1333C24.8211 75.6526 24.2214 75.9123 23.479 75.9123C22.7937 75.9123 22.2226 75.6526 21.7657 75.1333C21.3088 74.614 21.0804 74.0082 21.0804 73.3158C21.0804 72.6234 21.3088 72.0464 21.7657 71.5848ZM23.5647 75.0468C24.0216 75.0468 24.3928 74.8737 24.6783 74.5275C25.021 74.1813 25.1923 73.7774 25.1923 73.3158C25.1923 72.8542 25.021 72.4791 24.6783 72.1907C24.3928 71.8445 23.993 71.6713 23.479 71.6713C23.0221 71.6713 22.6224 71.8445 22.2797 72.1907C21.9942 72.4791 21.8514 72.8542 21.8514 73.3158C21.8514 73.8351 22.0227 74.239 22.3654 74.5275C22.708 74.8737 23.1078 75.0468 23.5647 75.0468ZM24.3357 73.3158C24.3356 73.8928 24.0787 74.1813 23.5647 74.1813C22.9936 74.1813 22.7081 73.8928 22.7081 73.3158C22.7081 72.7965 22.9936 72.5368 23.5647 72.5368C24.0787 72.5368 24.3356 72.7965 24.3357 73.3158ZM35.0437 22.5977C35.0437 25.9443 33.9015 28.7427 31.6171 30.993C29.3898 33.1856 26.7057 34.2819 23.5647 34.2819C20.3095 34.2819 17.5682 33.1568 15.3409 30.9064C13.1136 28.5985 12 25.8289 12 22.5977C12 19.3665 13.1136 16.6258 15.3409 14.3754C17.6253 12.1252 20.3666 11.0001 23.5647 11C26.8199 11.0001 29.5326 12.1541 31.7028 14.462C33.9301 16.7123 35.0437 19.4242 35.0437 22.5977ZM34.1871 22.5977C34.187 19.5973 33.1305 17.0585 31.0175 14.9813C28.9615 12.9042 26.4487 11.8656 23.479 11.8655C20.5664 11.8656 18.0536 12.9042 15.9406 14.9813C13.8846 17.0585 12.8566 19.5973 12.8566 22.5977C12.8566 25.6558 13.8846 28.2234 15.9406 30.3006C18.0536 32.3778 20.595 33.4164 23.5647 33.4164C26.5344 33.4164 29.0472 32.3778 31.1032 30.3006C33.1591 28.1657 34.187 25.5981 34.1871 22.5977ZM23.5647 13.1637C26.2488 13.1638 28.4761 14.087 30.2465 15.9333C32.074 17.7798 32.9878 20.0012 32.9878 22.5977C32.9878 25.3096 32.074 27.5887 30.2465 29.4351C28.419 31.2815 26.1917 32.2047 23.5647 32.2047C20.8805 32.2047 18.6247 31.2815 16.7972 29.4351C15.0268 27.531 14.1416 25.2519 14.1416 22.5977C14.1416 19.8858 15.0553 17.6355 16.8829 15.8468C18.7103 14.0582 20.9377 13.1638 23.5647 13.1637ZM17.3969 28.8292C19.1101 30.5026 21.1375 31.3392 23.479 31.3392C25.8776 31.3392 27.905 30.5026 29.5612 28.8292C31.2745 27.156 32.1311 25.0788 32.1312 22.5977C32.1311 20.232 31.303 18.2125 29.6469 16.5392C27.9907 14.8082 25.9633 13.9427 23.5647 13.9427C21.109 13.9427 19.053 14.8082 17.3969 16.5392C15.7407 18.2125 14.9126 20.232 14.9126 22.5977C14.9126 25.0788 15.7407 27.156 17.3969 28.8292ZM29.2185 20.2608C29.9609 20.2609 30.5606 20.4917 31.0175 20.9532C31.4743 21.4149 31.7028 21.9919 31.7028 22.6842C31.7028 23.3767 31.4743 23.9537 31.0175 24.4152C30.5606 24.8191 29.9609 25.0211 29.2185 25.0211H27.6766C28.419 26.3482 28.7902 27.2425 28.7902 27.7041C28.7902 28.3388 28.5618 28.9158 28.1049 29.4351C27.648 29.8967 27.0483 30.1275 26.3059 30.1275C26.1346 30.1275 25.9347 30.1275 25.7063 30.1275C25.535 30.0698 25.3636 29.9833 25.1923 29.8678C25.0781 29.6948 24.9639 29.5794 24.8497 29.5216C24.7354 29.4063 24.5927 29.2332 24.4214 29.0023C24.3071 28.7716 24.1929 28.5985 24.0787 28.4831C24.0215 28.3677 23.9359 28.1946 23.8217 27.9637C23.7075 27.6753 23.6218 27.5022 23.5647 27.4444C22.8794 28.7139 22.3368 29.464 21.9371 29.6947C21.5944 29.9833 21.1946 30.1275 20.7377 30.1275C20.0524 30.1275 19.4528 29.8967 18.9388 29.4351C18.4819 28.9735 18.2535 28.4254 18.2535 27.7906C18.2535 27.3291 18.6532 26.4059 19.4528 25.0211H17.8252C17.1399 25.0211 16.5688 24.7903 16.1119 24.3286C15.655 23.8671 15.4266 23.2901 15.4266 22.5977C15.4266 21.9053 15.6265 21.3572 16.0262 20.9532C16.4831 20.4917 17.0828 20.2609 17.8252 20.2608H19.4528C18.7103 18.9338 18.3391 18.0394 18.3392 17.5778C18.3391 16.9431 18.5676 16.395 19.0245 15.9333C19.4813 15.4141 20.0524 15.1544 20.7377 15.1544C21.0233 15.1544 21.2518 15.2121 21.4231 15.3275C21.6515 15.3852 21.8228 15.4718 21.9371 15.5871C22.1084 15.6449 22.2797 15.818 22.451 16.1064C22.6223 16.3373 22.7366 16.5104 22.7937 16.6257C22.8508 16.6835 22.965 16.8854 23.1364 17.2316C23.3648 17.5778 23.5076 17.7798 23.5647 17.8374C24.25 16.5681 24.764 15.818 25.1067 15.5871C25.4493 15.3564 25.8776 15.241 26.3916 15.2409C27.0769 15.241 27.648 15.4718 28.1049 15.9333C28.5618 16.395 28.7902 16.9431 28.7902 17.5778C28.7902 17.9817 28.419 18.8761 27.6766 20.2608H29.2185ZM26.3059 29.262C26.7628 29.262 27.134 29.1178 27.4196 28.8292C27.7622 28.5408 27.9336 28.1657 27.9336 27.7041C27.9336 27.4156 27.8764 27.1271 27.7622 26.8386L26.2203 24.1556H29.2185C30.3036 24.1556 30.8462 23.6652 30.8462 22.6842C30.8462 21.6457 30.3036 21.1264 29.2185 21.1263H26.2203L27.7622 18.4433C27.8764 18.0971 27.9336 17.7798 27.9336 17.4912C27.9336 17.0874 27.7908 16.7412 27.5053 16.4526C27.2197 16.1642 26.8485 16.0199 26.3916 16.0199C25.8205 16.0199 25.3922 16.3084 25.1067 16.8854L23.5647 19.5684L22.0227 16.8854C21.68 16.3084 21.2517 16.0199 20.7377 16.0199C20.2808 16.0199 19.8811 16.193 19.5385 16.5392C19.2529 16.8277 19.1101 17.1739 19.1102 17.5778C19.1101 17.8663 19.1958 18.1548 19.3671 18.4433L20.9091 21.1263H17.8252C16.7972 21.1264 16.2832 21.6457 16.2832 22.6842C16.2832 23.6652 16.7972 24.1556 17.8252 24.1556H20.9091L19.3671 26.8386C19.1958 27.1848 19.1101 27.5022 19.1102 27.7906C19.1101 28.1946 19.2529 28.5408 19.5385 28.8292C19.8811 29.1178 20.2523 29.262 20.6521 29.262C21.2232 29.262 21.68 28.9735 22.0227 28.3965L23.5647 25.8L25.1067 28.3965C25.3922 28.9735 25.7919 29.262 26.3059 29.262ZM21.7657 20.8667C22.2797 20.4051 22.8508 20.1743 23.479 20.1743C24.1643 20.1743 24.764 20.4051 25.278 20.8667C25.792 21.3283 26.0489 21.9053 26.049 22.5977C26.0489 23.3478 25.792 23.9825 25.278 24.5018C24.8211 24.9634 24.2214 25.1942 23.479 25.1941C22.7937 25.1942 22.2226 24.9345 21.7657 24.4152C21.3088 23.8959 21.0804 23.2901 21.0804 22.5977C21.0804 21.9053 21.3088 21.3283 21.7657 20.8667ZM23.5647 24.3286C24.0216 24.3287 24.3928 24.1556 24.6783 23.8093C25.021 23.4632 25.1923 23.0593 25.1923 22.5977C25.1923 22.1361 25.021 21.7611 24.6783 21.4725C24.3928 21.1264 23.993 20.9533 23.479 20.9532C23.0221 20.9533 22.6224 21.1264 22.2797 21.4725C21.9942 21.7611 21.8514 22.1361 21.8514 22.5977C21.8514 23.117 22.0227 23.5497 22.3654 23.8959C22.708 24.1844 23.1078 24.3287 23.5647 24.3286ZM24.3357 22.5977C24.3356 23.1747 24.0787 23.4632 23.5647 23.4632C22.9936 23.4632 22.7081 23.1747 22.7081 22.5977C22.7081 22.0784 22.9936 21.8188 23.5647 21.8187C24.0787 21.8188 24.3356 22.0784 24.3357 22.5977ZM61 73.3158C60.9999 76.6624 59.8578 79.432 57.5734 81.6246C55.3461 83.8748 52.662 85 49.521 85C46.2657 85 43.5244 83.846 41.2972 81.538C39.0699 79.2877 37.9563 76.547 37.9563 73.3158C37.9563 70.0846 39.0699 67.3439 41.2972 65.0936C43.5815 62.8433 46.3228 61.7181 49.521 61.7181C52.7762 61.7181 55.4889 62.8721 57.6591 65.1801C59.8863 67.4304 60.9999 70.1423 61 73.3158ZM60.1434 73.3158C60.1433 70.3154 59.0868 67.7766 56.9738 65.6994C54.9178 63.6222 52.405 62.5836 49.4353 62.5836C46.5227 62.5836 44.0099 63.6222 41.8969 65.6994C39.8409 67.7766 38.8129 70.3154 38.813 73.3158C38.8129 76.3739 39.8409 78.9415 41.8969 81.0187C44.0099 83.0959 46.5513 84.1345 49.521 84.1345C52.4907 84.1345 55.0035 83.067 57.0595 80.9322C59.1153 78.8549 60.1433 76.3162 60.1434 73.3158ZM49.521 63.8819C52.2051 63.8819 54.4324 64.8051 56.2028 66.6514C58.0303 68.4978 58.944 70.7193 58.9441 73.3158C58.944 76.0277 58.0303 78.3068 56.2028 80.1532C54.3753 81.9996 52.148 82.9228 49.521 82.9228C46.8368 82.9228 44.581 81.9707 42.7535 80.0667C40.9831 78.2203 40.0979 75.97 40.0979 73.3158C40.0979 70.6039 41.0117 68.3536 42.8392 66.5649C44.6667 64.7762 46.8939 63.8819 49.521 63.8819ZM43.3532 79.5474C45.0664 81.2207 47.0938 82.0573 49.4353 82.0573C51.8339 82.0573 53.8613 81.2207 55.5175 79.5474C57.2307 77.8741 58.0874 75.7969 58.0874 73.3158C58.0874 70.9501 57.2593 68.9306 55.6032 67.2573C53.9469 65.5263 51.9196 64.6608 49.521 64.6608C47.0652 64.6608 45.0093 65.5263 43.3532 67.2573C41.6969 68.9306 40.8688 70.9501 40.8689 73.3158C40.8688 75.7969 41.6969 77.8741 43.3532 79.5474ZM55.1748 70.9789C55.9172 70.9789 56.5169 71.2097 56.9738 71.6713C57.4306 72.1329 57.6591 72.7099 57.6591 73.4023C57.6591 74.0947 57.4306 74.6429 56.9738 75.0468C56.5169 75.5084 55.9172 75.7392 55.1748 75.7392H53.6329C54.3753 77.0663 54.7465 77.9606 54.7465 78.4222C54.7465 79.0569 54.518 79.605 54.0612 80.0667C53.6043 80.5859 53.0047 80.8456 52.2623 80.8456C52.0909 80.8456 51.891 80.8168 51.6626 80.7591C51.4912 80.7591 51.3199 80.6725 51.1486 80.4994C51.0343 80.384 50.9201 80.2686 50.806 80.1532C50.6917 80.0955 50.5489 79.9513 50.3776 79.7205C50.2634 79.4896 50.1491 79.3165 50.035 79.2012C49.9778 79.0858 49.8922 78.8838 49.778 78.5953C49.6637 78.3645 49.5781 78.2203 49.521 78.1626C48.8356 79.432 48.2931 80.1821 47.8934 80.4129C47.5507 80.7014 47.1509 80.8456 46.6941 80.8456C46.0087 80.8456 45.4091 80.6148 44.8951 80.1532C44.4382 79.6916 44.2098 79.1435 44.2098 78.5088C44.2098 78.0472 44.6096 77.124 45.4091 75.7392H43.7815C43.0961 75.7392 42.525 75.5084 42.0682 75.0468C41.6113 74.5852 41.3828 74.0082 41.3829 73.3158C41.3828 72.6234 41.5827 72.0752 41.9826 71.6713C42.4394 71.2097 43.039 70.9789 43.7815 70.9789H45.4091C44.6667 69.6518 44.2954 68.7575 44.2954 68.2959C44.2954 67.6612 44.5239 67.1131 44.9808 66.6514C45.4376 66.1322 46.0087 65.8725 46.6941 65.8725C46.9796 65.8725 47.208 65.9302 47.3794 66.0456C47.6078 66.1033 47.7791 66.1899 47.8934 66.3053C48.0646 66.363 48.236 66.5361 48.4074 66.8246C48.5787 67.0554 48.6929 67.2285 48.75 67.3439C48.8071 67.4016 48.9213 67.6035 49.0927 67.9497C49.3211 68.2959 49.4639 68.4979 49.521 68.5556C50.2063 67.2862 50.7202 66.5361 51.063 66.3053C51.4056 66.0745 51.8339 65.9591 52.3479 65.9591C53.0332 65.9591 53.6043 66.1899 54.0612 66.6514C54.518 67.1131 54.7465 67.6612 54.7465 68.2959C54.7465 68.6998 54.3753 69.5941 53.6329 70.9789H55.1748ZM52.2623 79.9801C52.7191 79.9801 53.0903 79.8359 53.3759 79.5474C53.7185 79.2589 53.8898 78.8838 53.8899 78.4222C53.8898 78.1337 53.8327 77.8452 53.7185 77.5567L52.1766 74.8737H55.1748C56.2599 74.8737 56.8024 74.3544 56.8025 73.3158C56.8024 72.3349 56.2599 71.8444 55.1748 71.8444H52.1766L53.7185 69.1614C53.8327 68.8152 53.8898 68.4979 53.8899 68.2094C53.8898 67.8055 53.747 67.4593 53.4615 67.1708C53.1759 66.8823 52.8047 66.738 52.3479 66.738C51.7768 66.738 51.3485 67.0265 51.063 67.6035L49.521 70.2865L47.9791 67.6035C47.6364 67.0265 47.208 66.738 46.6941 66.738C46.2372 66.738 45.8374 66.9111 45.4948 67.2573C45.2092 67.5458 45.0664 67.892 45.0664 68.2959C45.0664 68.5844 45.1521 68.8729 45.3234 69.1614L46.8654 71.8444H43.7815C42.7535 71.8444 42.2395 72.3349 42.2395 73.3158C42.2395 74.3544 42.7535 74.8737 43.7815 74.8737H46.8654L45.3234 77.5567C45.1521 77.9029 45.0664 78.2203 45.0664 78.5088C45.0664 78.9127 45.2092 79.2589 45.4948 79.5474C45.8374 79.8359 46.2086 79.9801 46.6084 79.9801C47.1794 79.9801 47.6364 79.6916 47.9791 79.1146L49.521 76.5181L51.063 79.1146C51.3485 79.6916 51.7482 79.9801 52.2623 79.9801ZM47.722 71.5848C48.236 71.1232 48.8071 70.8924 49.4353 70.8924C50.1206 70.8924 50.7203 71.1232 51.2343 71.5848C51.7482 72.0464 52.0052 72.6234 52.0052 73.3158C52.0052 74.0659 51.7482 74.6717 51.2343 75.1333C50.7774 75.6526 50.1777 75.9123 49.4353 75.9123C48.7499 75.9123 48.1789 75.6526 47.722 75.1333C47.2651 74.614 47.0367 74.0082 47.0367 73.3158C47.0367 72.6234 47.2651 72.0464 47.722 71.5848ZM49.521 75.0468C49.9778 75.0468 50.349 74.8737 50.6346 74.5275C50.9772 74.1813 51.1485 73.7774 51.1486 73.3158C51.1485 72.8542 50.9772 72.4791 50.6346 72.1907C50.349 71.8445 49.9492 71.6713 49.4353 71.6713C48.9784 71.6713 48.5786 71.8445 48.236 72.1907C47.9504 72.4791 47.8077 72.8542 47.8077 73.3158C47.8077 73.8351 47.979 74.239 48.3217 74.5275C48.6643 74.8737 49.0641 75.0468 49.521 75.0468ZM50.292 73.3158C50.2919 73.8928 50.0349 74.1813 49.521 74.1813C48.9499 74.1813 48.6643 73.8928 48.6644 73.3158C48.6643 72.7965 48.9499 72.5368 49.521 72.5368C50.0349 72.5368 50.2919 72.7965 50.292 73.3158ZM61 22.5977C60.9999 25.9443 59.8578 28.7427 57.5734 30.993C55.3461 33.1856 52.662 34.2819 49.521 34.2819C46.2657 34.2819 43.5244 33.1568 41.2972 30.9064C39.0699 28.5985 37.9563 25.8289 37.9563 22.5977C37.9563 19.3665 39.0699 16.6258 41.2972 14.3754C43.5815 12.1252 46.3228 11.0001 49.521 11C52.7762 11.0001 55.4889 12.1541 57.6591 14.462C59.8863 16.7123 60.9999 19.4242 61 22.5977ZM60.1434 22.5977C60.1433 19.5973 59.0868 17.0585 56.9738 14.9813C54.9178 12.9042 52.405 11.8656 49.4353 11.8655C46.5227 11.8656 44.0099 12.9042 41.8969 14.9813C39.8409 17.0585 38.8129 19.5973 38.813 22.5977C38.8129 25.6558 39.8409 28.2234 41.8969 30.3006C44.0099 32.3778 46.5513 33.4164 49.521 33.4164C52.4907 33.4164 55.0035 32.3778 57.0595 30.3006C59.1153 28.1657 60.1433 25.5981 60.1434 22.5977ZM49.521 13.1637C52.2051 13.1638 54.4324 14.087 56.2028 15.9333C58.0303 17.7798 58.944 20.0012 58.9441 22.5977C58.944 25.3096 58.0303 27.5887 56.2028 29.4351C54.3753 31.2815 52.148 32.2047 49.521 32.2047C46.8368 32.2047 44.581 31.2815 42.7535 29.4351C40.9831 27.531 40.0979 25.2519 40.0979 22.5977C40.0979 19.8858 41.0117 17.6355 42.8392 15.8468C44.6667 14.0582 46.8939 13.1638 49.521 13.1637ZM43.3532 28.8292C45.0664 30.5026 47.0938 31.3392 49.4353 31.3392C51.8339 31.3392 53.8613 30.5026 55.5175 28.8292C57.2307 27.156 58.0874 25.0788 58.0874 22.5977C58.0874 20.232 57.2593 18.2125 55.6032 16.5392C53.9469 14.8082 51.9196 13.9427 49.521 13.9427C47.0652 13.9427 45.0093 14.8082 43.3532 16.5392C41.6969 18.2125 40.8688 20.232 40.8689 22.5977C40.8688 25.0788 41.6969 27.156 43.3532 28.8292ZM55.1748 20.2608C55.9172 20.2609 56.5169 20.4917 56.9738 20.9532C57.4306 21.4149 57.6591 21.9919 57.6591 22.6842C57.6591 23.3767 57.4306 23.9537 56.9738 24.4152C56.5169 24.8191 55.9172 25.0211 55.1748 25.0211H53.6329C54.3753 26.3482 54.7465 27.2425 54.7465 27.7041C54.7465 28.3388 54.518 28.9158 54.0612 29.4351C53.6043 29.8967 53.0047 30.1275 52.2623 30.1275C52.0909 30.1275 51.891 30.1275 51.6626 30.1275C51.4912 30.0698 51.3199 29.9833 51.1486 29.8678C51.0343 29.6948 50.9201 29.5794 50.806 29.5216C50.6917 29.4063 50.5489 29.2332 50.3776 29.0023C50.2634 28.7716 50.1491 28.5985 50.035 28.4831C49.9778 28.3677 49.8922 28.1946 49.778 27.9637C49.6637 27.6753 49.5781 27.5022 49.521 27.4444C48.8356 28.7139 48.2931 29.464 47.8934 29.6947C47.5507 29.9833 47.1509 30.1275 46.6941 30.1275C46.0087 30.1275 45.4091 29.8967 44.8951 29.4351C44.4382 28.9735 44.2098 28.4254 44.2098 27.7906C44.2098 27.3291 44.6096 26.4059 45.4091 25.0211H43.7815C43.0961 25.0211 42.525 24.7903 42.0682 24.3286C41.6113 23.8671 41.3828 23.2901 41.3829 22.5977C41.3828 21.9053 41.5827 21.3572 41.9826 20.9532C42.4394 20.4917 43.039 20.2609 43.7815 20.2608H45.4091C44.6667 18.9338 44.2954 18.0394 44.2954 17.5778C44.2954 16.9431 44.5239 16.395 44.9808 15.9333C45.4376 15.4141 46.0087 15.1544 46.6941 15.1544C46.9796 15.1544 47.208 15.2121 47.3794 15.3275C47.6078 15.3852 47.7791 15.4718 47.8934 15.5871C48.0646 15.6449 48.236 15.818 48.4074 16.1064C48.5787 16.3373 48.6929 16.5104 48.75 16.6257C48.8071 16.6835 48.9213 16.8854 49.0927 17.2316C49.3211 17.5778 49.4639 17.7798 49.521 17.8374C50.2063 16.5681 50.7202 15.818 51.063 15.5871C51.4056 15.3564 51.8339 15.241 52.3479 15.2409C53.0332 15.241 53.6043 15.4718 54.0612 15.9333C54.518 16.395 54.7465 16.9431 54.7465 17.5778C54.7465 17.9817 54.3753 18.8761 53.6329 20.2608H55.1748ZM52.2623 29.262C52.7191 29.262 53.0903 29.1178 53.3759 28.8292C53.7185 28.5408 53.8898 28.1657 53.8899 27.7041C53.8898 27.4156 53.8327 27.1271 53.7185 26.8386L52.1766 24.1556H55.1748C56.2599 24.1556 56.8024 23.6652 56.8025 22.6842C56.8024 21.6457 56.2599 21.1264 55.1748 21.1263H52.1766L53.7185 18.4433C53.8327 18.0971 53.8898 17.7798 53.8899 17.4912C53.8898 17.0874 53.747 16.7412 53.4615 16.4526C53.1759 16.1642 52.8047 16.0199 52.3479 16.0199C51.7768 16.0199 51.3485 16.3084 51.063 16.8854L49.521 19.5684L47.9791 16.8854C47.6364 16.3084 47.208 16.0199 46.6941 16.0199C46.2372 16.0199 45.8374 16.193 45.4948 16.5392C45.2092 16.8277 45.0664 17.1739 45.0664 17.5778C45.0664 17.8663 45.1521 18.1548 45.3234 18.4433L46.8654 21.1263H43.7815C42.7535 21.1264 42.2395 21.6457 42.2395 22.6842C42.2395 23.6652 42.7535 24.1556 43.7815 24.1556H46.8654L45.3234 26.8386C45.1521 27.1848 45.0664 27.5022 45.0664 27.7906C45.0664 28.1946 45.2092 28.5408 45.4948 28.8292C45.8374 29.1178 46.2086 29.262 46.6084 29.262C47.1794 29.262 47.6364 28.9735 47.9791 28.3965L49.521 25.8L51.063 28.3965C51.3485 28.9735 51.7482 29.262 52.2623 29.262ZM47.722 20.8667C48.236 20.4051 48.8071 20.1743 49.4353 20.1743C50.1206 20.1743 50.7203 20.4051 51.2343 20.8667C51.7482 21.3283 52.0052 21.9053 52.0052 22.5977C52.0052 23.3478 51.7482 23.9825 51.2343 24.5018C50.7774 24.9634 50.1777 25.1942 49.4353 25.1941C48.7499 25.1942 48.1789 24.9345 47.722 24.4152C47.2651 23.8959 47.0367 23.2901 47.0367 22.5977C47.0367 21.9053 47.2651 21.3283 47.722 20.8667ZM49.521 24.3286C49.9778 24.3287 50.349 24.1556 50.6346 23.8093C50.9772 23.4632 51.1485 23.0593 51.1486 22.5977C51.1485 22.1361 50.9772 21.7611 50.6346 21.4725C50.349 21.1264 49.9492 20.9533 49.4353 20.9532C48.9784 20.9533 48.5786 21.1264 48.236 21.4725C47.9504 21.7611 47.8077 22.1361 47.8077 22.5977C47.8077 23.117 47.979 23.5497 48.3217 23.8959C48.6643 24.1844 49.0641 24.3287 49.521 24.3286ZM50.292 22.5977C50.2919 23.1747 50.0349 23.4632 49.521 23.4632C48.9499 23.4632 48.6643 23.1747 48.6644 22.5977C48.6643 22.0784 48.9499 21.8188 49.521 21.8187C50.0349 21.8188 50.2919 22.0784 50.292 22.5977Z" fill="#006C00"></path>
</g>
<rect x="0.25" y="0.25" width="74.2" height="94.6" rx="7.75" stroke="#003500" stroke-width="0.5"></rect>
<defs>
<clipPath id="clip0_1_891">
<rect width="74.7" height="95.1" rx="8" fill="white"></rect>
</clipPath>
</defs>
</svg>