<svg width="75" height="96" viewBox="0 0 75 96" fill="none" xmlns="http://www.w3.org/2000/svg">
<g clip-path="url(#clip0_1_874)">
<rect width="74.7" height="95.1" rx="8" fill="white"></rect>
<path d="M74.7 87.9C74.6999 92.7 72.4333 95.1 67.9 95.1H6.80002C2.26668 95.1 0 92.7 0 87.9V7.20001C0 2.40009 2.26668 8e-05 6.80002 0H67.9C72.4333 8e-05 74.6999 2.40009 74.7 7.20001V87.9ZM73 87.9V7.20001C72.9999 3.53342 71.2999 1.70009 67.9 1.70001H6.80002C3.40002 1.70009 1.70001 3.53342 1.70001 7.20001V87.9C1.70001 91.6333 3.40002 93.5 6.80002 93.5H67.9C71.2999 93.5 72.9999 91.6333 73 87.9Z" fill="white"></path>
<path d="M62.0236 74.1123C62.0235 77.5601 60.8346 80.4135 58.4569 82.6724C56.1384 84.9908 53.3445 86.15 50.075 86.15C46.6865 86.15 43.8331 84.9611 41.5148 82.5833C39.1964 80.2649 38.0372 77.4412 38.0372 74.1123C38.0372 70.7833 39.1964 67.9596 41.5148 65.6412C43.8926 63.3229 46.746 62.1637 50.075 62.1636C53.4633 62.1637 56.287 63.3526 58.546 65.7304C60.8643 68.0488 62.0235 70.8427 62.0236 74.1123ZM61.1319 74.1123C61.1319 71.0211 60.0321 68.4055 57.8327 66.2654C55.6926 64.1254 53.077 63.0553 49.9858 63.0553C46.9541 63.0553 44.3384 64.1254 42.139 66.2654C39.9989 68.4055 38.9289 71.0211 38.9289 74.1123C38.9289 77.2629 39.9989 79.9082 42.139 82.0483C44.3384 84.1883 46.9838 85.2583 50.075 85.2583C53.1661 85.2583 55.7817 84.1586 57.9218 81.9591C60.0618 79.819 61.1319 77.2034 61.1319 74.1123ZM50.075 64.3929C52.8689 64.3929 55.1873 65.344 57.0301 67.2463C58.9323 69.1485 59.8835 71.4372 59.8835 74.1123C59.8835 76.9062 58.9323 79.2543 57.0301 81.1566C55.1278 83.0589 52.8094 84.0099 50.075 84.01C47.281 84.0099 44.9329 83.0291 43.0307 81.0674C41.1878 79.1651 40.2664 76.8468 40.2664 74.1123C40.2664 71.3183 41.2175 68.9999 43.1198 67.1571C45.0221 65.3143 47.3404 64.3929 50.075 64.3929ZM43.6549 80.5324C45.4382 82.2563 47.5485 83.1183 49.9858 83.1183C52.4825 83.1183 54.5928 82.2563 56.3168 80.5324C58.1001 78.8085 58.9918 76.6684 58.9918 74.1123C58.9918 71.675 58.1299 69.5944 56.406 67.8705C54.682 66.0871 52.5717 65.1954 50.075 65.1954C47.5188 65.1954 45.3787 66.0871 43.6549 67.8705C41.9309 69.5944 41.0689 71.675 41.0689 74.1123C41.0689 76.6684 41.9309 78.8085 43.6549 80.5324ZM55.9601 71.7047C56.7329 71.7047 57.357 71.9425 57.8327 72.418C58.3082 72.8936 58.5459 73.4881 58.546 74.2014C58.5459 74.9148 58.3082 75.4795 57.8327 75.8956C57.357 76.3712 56.7329 76.609 55.9601 76.609H54.3551C55.1278 77.9762 55.5142 78.8977 55.5143 79.3732C55.5142 80.0271 55.2764 80.5918 54.8009 81.0674C54.3253 81.6024 53.7011 81.8699 52.9284 81.8699C52.75 81.8699 52.5419 81.8402 52.3042 81.7807C52.1258 81.7807 51.9475 81.6916 51.7692 81.5132C51.6503 81.3943 51.5314 81.2755 51.4125 81.1566C51.2936 81.0971 51.145 80.9485 50.9667 80.7108C50.8477 80.473 50.7289 80.2946 50.61 80.1757C50.5506 80.0568 50.4613 79.8487 50.3425 79.5515C50.2235 79.3137 50.1344 79.1651 50.075 79.1057C49.3616 80.4135 48.7969 81.1863 48.3808 81.4241C48.0241 81.7213 47.6079 81.8699 47.1324 81.8699C46.419 81.8699 45.7949 81.6322 45.2599 81.1566C44.7843 80.681 44.5465 80.1163 44.5465 79.4624C44.5465 78.9868 44.9626 78.0357 45.7949 76.609H44.1007C43.3873 76.609 42.7929 76.3712 42.3173 75.8956C41.8417 75.4201 41.6039 74.8256 41.604 74.1123C41.6039 73.3989 41.812 72.8342 42.2282 72.418C42.7037 71.9425 43.3279 71.7047 44.1007 71.7047H45.7949C45.0221 70.3374 44.6356 69.4161 44.6357 68.9405C44.6356 68.2866 44.8735 67.7218 45.3491 67.2463C45.8246 66.7113 46.419 66.4438 47.1324 66.4438C47.4296 66.4438 47.6674 66.5032 47.8458 66.6221C48.0835 66.6815 48.2619 66.7707 48.3808 66.8896C48.5591 66.9491 48.7374 67.1274 48.9158 67.4246C49.0941 67.6624 49.213 67.8407 49.2725 67.9596C49.3319 68.0191 49.4508 68.2271 49.6291 68.5838C49.8669 68.9405 50.0155 69.1485 50.075 69.208C50.7883 67.9002 51.3233 67.1274 51.68 66.8896C52.0366 66.6518 52.4825 66.5329 53.0175 66.5329C53.7308 66.5329 54.3253 66.7707 54.8009 67.2463C55.2764 67.7218 55.5142 68.2866 55.5143 68.9405C55.5142 69.3566 55.1278 70.278 54.3551 71.7047H55.9601ZM52.9284 80.9783C53.4039 80.9782 53.7903 80.8296 54.0876 80.5324C54.4442 80.2352 54.6226 79.8488 54.6226 79.3732C54.6226 79.076 54.5631 78.7788 54.4443 78.4815L52.8392 75.7173H55.9601C57.0896 75.7173 57.6543 75.1823 57.6543 74.1123C57.6543 73.1017 57.0896 72.5964 55.9601 72.5964H52.8392L54.4443 69.8322C54.5631 69.4755 54.6226 69.1485 54.6226 68.8513C54.6226 68.4352 54.474 68.0785 54.1768 67.7813C53.8795 67.4841 53.4931 67.3355 53.0175 67.3355C52.423 67.3355 51.9772 67.6327 51.68 68.2272L50.075 70.9914L48.47 68.2272C48.1132 67.6327 47.6674 67.3355 47.1324 67.3355C46.6568 67.3355 46.2407 67.5138 45.884 67.8705C45.5868 68.1677 45.4382 68.5244 45.4382 68.9405C45.4382 69.2377 45.5274 69.535 45.7058 69.8322L47.3108 72.5964H44.1007C43.0306 72.5964 42.4956 73.1017 42.4957 74.1123C42.4956 75.1823 43.0306 75.7173 44.1007 75.7173H47.3108L45.7058 78.4815C45.5274 78.8382 45.4382 79.1651 45.4382 79.4624C45.4382 79.8785 45.5868 80.2352 45.884 80.5324C46.2407 80.8296 46.6271 80.9782 47.0433 80.9783C47.6377 80.9782 48.1132 80.681 48.47 80.0866L50.075 77.4115L51.68 80.0866C51.9772 80.681 52.3933 80.9782 52.9284 80.9783ZM48.2025 72.3289C48.7374 71.8533 49.3319 71.6155 49.9858 71.6155C50.6991 71.6155 51.3233 71.8533 51.8584 72.3289C52.3933 72.8045 52.6609 73.3989 52.6609 74.1123C52.6609 74.8851 52.3933 75.5092 51.8584 75.9848C51.3827 76.5198 50.7586 76.7873 49.9858 76.7873C49.2724 76.7873 48.678 76.5198 48.2025 75.9848C47.7269 75.4498 47.4891 74.8256 47.4891 74.1123C47.4891 73.3989 47.7269 72.8045 48.2025 72.3289ZM50.075 75.8956C50.5505 75.8956 50.9369 75.7173 51.2342 75.3606C51.5908 75.004 51.7692 74.5878 51.7692 74.1123C51.7692 73.6367 51.5908 73.2503 51.2342 72.9531C50.9369 72.5964 50.5208 72.418 49.9858 72.418C49.5102 72.418 49.0941 72.5964 48.7375 72.9531C48.4402 73.2503 48.2916 73.6367 48.2916 74.1123C48.2916 74.6473 48.4699 75.0634 48.8267 75.3606C49.1833 75.7173 49.5994 75.8956 50.075 75.8956ZM50.8775 74.1123C50.8775 74.7067 50.61 75.0039 50.075 75.0039C49.4805 75.0039 49.1833 74.7067 49.1833 74.1123C49.1833 73.5772 49.4805 73.3097 50.075 73.3097C50.61 73.3097 50.8775 73.5772 50.8775 74.1123ZM35.9864 21.9486C35.9863 25.3965 34.7974 28.2796 32.4196 30.598C30.1012 32.857 27.3073 33.9864 24.0378 33.9864C20.6493 33.9864 17.7959 32.8272 15.4776 30.5088C13.1592 28.131 12 25.2776 12 21.9486C12 18.6197 13.1592 15.796 15.4776 13.4776C17.8554 11.1593 20.7088 10.0001 24.0378 10C27.4261 10.0001 30.2498 11.189 32.5088 13.5667C34.8271 15.8852 35.9863 18.6792 35.9864 21.9486ZM35.0947 21.9486C35.0946 18.8575 33.9949 16.2419 31.7954 14.1018C29.6553 11.9618 27.0397 10.8917 23.9486 10.8917C20.9168 10.8917 18.3012 11.9618 16.1017 14.1018C13.9617 16.2419 12.8917 18.8575 12.8917 21.9486C12.8917 25.0993 13.9617 27.7446 16.1017 29.8846C18.3012 32.0247 20.9466 33.0947 24.0378 33.0947C27.1289 33.0947 29.7445 32.0247 31.8846 29.8846C34.0246 27.6852 35.0946 25.0398 35.0947 21.9486ZM24.0378 12.2292C26.8317 12.2293 29.1501 13.1804 30.9929 15.0826C32.8951 16.9849 33.8463 19.2736 33.8463 21.9486C33.8463 24.7426 32.8951 27.0907 30.9929 28.993C29.0906 30.8953 26.7722 31.8464 24.0378 31.8463C21.2438 31.8464 18.8957 30.8953 16.9934 28.993C15.1506 27.0313 14.2292 24.6832 14.2292 21.9486C14.2292 19.1547 15.1803 16.8364 17.0826 14.9935C18.9848 13.1507 21.3032 12.2293 24.0378 12.2292ZM17.6176 28.3688C19.401 30.0927 21.5113 30.9547 23.9486 30.9546C26.4453 30.9547 28.5556 30.0927 30.2796 28.3688C32.0629 26.6449 32.9546 24.5048 32.9546 21.9486C32.9546 19.5114 32.0926 17.4308 30.3687 15.7068C28.6448 13.9235 26.5345 13.0318 24.0378 13.0318C21.4816 13.0318 19.3415 13.9235 17.6176 15.7068C15.8937 17.4308 15.0317 19.5114 15.0317 21.9486C15.0317 24.5048 15.8937 26.6449 17.6176 28.3688ZM29.9229 19.5411C30.6956 19.5411 31.3198 19.7789 31.7954 20.2544C32.271 20.73 32.5088 21.3245 32.5088 22.0378C32.5088 22.7512 32.271 23.3456 31.7954 23.8211C31.3198 24.2373 30.6956 24.4454 29.9229 24.4453H28.3178C29.0906 25.8126 29.477 26.7341 29.477 27.2096C29.477 27.8635 29.2392 28.458 28.7637 28.993C28.2881 29.4686 27.6639 29.7063 26.8911 29.7063C26.7128 29.7063 26.5047 29.7063 26.267 29.7063C26.0886 29.6469 25.9103 29.5577 25.732 29.4388C25.613 29.2605 25.4942 29.1416 25.3753 29.0821C25.2564 28.9633 25.1078 28.7849 24.9294 28.5471C24.8105 28.3094 24.6916 28.131 24.5728 28.0121C24.5133 27.8932 24.4241 27.7149 24.3053 27.4771C24.1863 27.1799 24.0972 27.0015 24.0378 26.942C23.3244 28.2499 22.7596 29.0227 22.3435 29.2605C21.9868 29.5577 21.5707 29.7063 21.0952 29.7063C20.3818 29.7063 19.7576 29.4686 19.2226 28.993C18.7471 28.5174 18.5093 27.9527 18.5093 27.2987C18.5093 26.8232 18.9254 25.8721 19.7577 24.4453H18.0635C17.3501 24.4454 16.7556 24.2076 16.2801 23.732C15.8045 23.2565 15.5667 22.662 15.5667 21.9486C15.5667 21.2353 15.7748 20.6706 16.1909 20.2544C16.6665 19.7789 17.2906 19.5411 18.0635 19.5411H19.7577C18.9848 18.1739 18.5985 17.2525 18.5985 16.7768C18.5985 16.123 18.8362 15.5582 19.3118 15.0826C19.7874 14.5477 20.3818 14.2802 21.0952 14.2801C21.3924 14.2802 21.6302 14.3396 21.8085 14.4584C22.0463 14.5179 22.2246 14.6072 22.3435 14.726C22.5219 14.7855 22.7002 14.9638 22.8786 15.261C23.0569 15.4988 23.1758 15.6771 23.2352 15.796C23.2946 15.8554 23.4136 16.0635 23.5919 16.4202C23.8297 16.7769 23.9783 16.985 24.0378 17.0443C24.7511 15.7366 25.2861 14.9638 25.6428 14.726C25.9994 14.4883 26.4453 14.3693 26.9803 14.3693C27.6936 14.3693 28.2881 14.6071 28.7637 15.0826C29.2392 15.5582 29.477 16.123 29.477 16.7768C29.477 17.193 29.0906 18.1144 28.3178 19.5411H29.9229ZM26.8911 28.8146C27.3667 28.8147 27.7531 28.666 28.0504 28.3688C28.407 28.0716 28.5853 27.6852 28.5853 27.2096C28.5853 26.9124 28.5259 26.6152 28.407 26.3179L26.802 23.5536H29.9229C31.0523 23.5537 31.6171 23.0484 31.6171 22.0378C31.6171 20.9678 31.0523 20.4328 29.9229 20.4327H26.802L28.407 17.6685C28.5259 17.3119 28.5853 16.9849 28.5853 16.6876C28.5853 16.2716 28.4367 15.915 28.1395 15.6177C27.8422 15.3205 27.4559 15.1719 26.9803 15.1718C26.3858 15.1719 25.94 15.4691 25.6428 16.0635L24.0378 18.8277L22.4327 16.0635C22.076 15.4691 21.6302 15.1719 21.0952 15.1718C20.6196 15.1719 20.2035 15.3502 19.8468 15.7068C19.5496 16.0041 19.401 16.3608 19.401 16.7768C19.401 17.0741 19.4901 17.3714 19.6685 17.6685L21.2735 20.4327H18.0635C16.9934 20.4328 16.4584 20.9678 16.4584 22.0378C16.4584 23.0484 16.9934 23.5537 18.0635 23.5536H21.2735L19.6685 26.3179C19.4901 26.6746 19.401 27.0016 19.401 27.2987C19.401 27.7149 19.5496 28.0716 19.8468 28.3688C20.2035 28.666 20.5899 28.8147 21.006 28.8146C21.6005 28.8147 22.076 28.5174 22.4327 27.9229L24.0378 25.2479L25.6428 27.9229C25.94 28.5174 26.3561 28.8147 26.8911 28.8146ZM22.1652 20.1652C22.7002 19.6897 23.2947 19.452 23.9486 19.4519C24.6619 19.452 25.2861 19.6897 25.8211 20.1652C26.3561 20.6409 26.6236 21.2353 26.6236 21.9486C26.6236 22.7215 26.3561 23.3754 25.8211 23.9103C25.3455 24.386 24.7214 24.6237 23.9486 24.6237C23.2352 24.6237 22.6408 24.3562 22.1652 23.8211C21.6896 23.2862 21.4518 22.662 21.4519 21.9486C21.4518 21.2353 21.6896 20.6409 22.1652 20.1652ZM24.0378 23.732C24.5133 23.732 24.8997 23.5537 25.1969 23.197C25.5536 22.8404 25.7319 22.4242 25.732 21.9486C25.7319 21.4731 25.5536 21.0867 25.1969 20.7894C24.8997 20.4328 24.4836 20.2544 23.9486 20.2544C23.473 20.2544 23.0569 20.4328 22.7002 20.7894C22.403 21.0867 22.2544 21.4731 22.2544 21.9486C22.2544 22.4837 22.4327 22.9295 22.7894 23.2861C23.146 23.5834 23.5622 23.732 24.0378 23.732ZM24.8403 21.9486C24.8403 22.5431 24.5728 22.8404 24.0378 22.8403C23.4433 22.8404 23.1461 22.5431 23.1461 21.9486C23.1461 21.4137 23.4433 21.1461 24.0378 21.1461C24.5728 21.1461 24.8403 21.4137 24.8403 21.9486Z" fill="#006C00"></path>
<path d="M49.0049 48.0304C49.0049 51.4783 47.816 54.3614 45.4382 56.6798C43.1197 58.9388 40.3258 60.0682 37.0563 60.0682C33.6679 60.0682 30.8145 58.9091 28.4961 56.5907C26.1777 54.2129 25.0185 51.3594 25.0186 48.0304C25.0185 44.7015 26.1777 41.8778 28.4961 39.5594C30.8739 37.2411 33.7273 36.0819 37.0563 36.0819C40.4447 36.0819 43.2684 37.2708 45.5273 39.6486C47.8457 41.967 49.0049 44.761 49.0049 48.0304ZM48.1132 48.0304C48.1132 44.9393 47.0135 42.3237 44.814 40.1836C42.6739 38.0436 40.0583 36.9736 36.9671 36.9736C33.9354 36.9736 31.3198 38.0436 29.1203 40.1836C26.9802 42.3237 25.9102 44.9393 25.9102 48.0304C25.9102 51.1811 26.9802 53.8264 29.1203 55.9665C31.3198 58.1065 33.9651 59.1765 37.0563 59.1765C40.1475 59.1765 42.7631 58.1065 44.9031 55.9665C47.0431 53.767 48.1132 51.1216 48.1132 48.0304ZM37.0563 38.3111C39.8502 38.3111 42.1686 39.2622 44.0115 41.1644C45.9137 43.0667 46.8648 45.3554 46.8649 48.0304C46.8648 50.8244 45.9137 53.1725 44.0115 55.0748C42.1092 56.9771 39.7908 57.9282 37.0563 57.9282C34.2623 57.9282 31.9142 56.9771 30.012 55.0748C28.1692 53.1131 27.2477 50.765 27.2478 48.0304C27.2477 45.2365 28.1989 42.9181 30.1012 41.0753C32.0034 39.2325 34.3218 38.3111 37.0563 38.3111ZM30.6362 54.4506C32.4195 56.1745 34.5298 57.0365 36.9671 57.0365C39.4638 57.0365 41.5742 56.1745 43.2981 54.4506C45.0814 52.7267 45.9731 50.5866 45.9732 48.0304C45.9731 45.5932 45.1112 43.5126 43.3873 41.7886C41.6633 40.0053 39.553 39.1136 37.0563 39.1136C34.5001 39.1136 32.3601 40.0053 30.6362 41.7886C28.9122 43.5126 28.0503 45.5932 28.0503 48.0304C28.0503 50.5866 28.9122 52.7267 30.6362 54.4506ZM42.9415 45.6229C43.7142 45.6229 44.3384 45.8607 44.814 46.3363C45.2895 46.8119 45.5273 47.4063 45.5273 48.1196C45.5273 48.833 45.2895 49.4275 44.814 49.903C44.3384 50.3192 43.7142 50.5272 42.9415 50.5272H41.3364C42.1092 51.8944 42.4956 52.8159 42.4956 53.2914C42.4956 53.9453 42.2578 54.5398 41.7822 55.0748C41.3066 55.5504 40.6825 55.7881 39.9097 55.7881C39.7314 55.7881 39.5233 55.7881 39.2855 55.7881C39.1072 55.7287 38.9288 55.6395 38.7505 55.5206C38.6316 55.3423 38.5127 55.2234 38.3938 55.1639C38.2749 55.0451 38.1263 54.8667 37.948 54.6289C37.8291 54.3912 37.7102 54.2128 37.5913 54.0939C37.5319 53.975 37.4427 53.7967 37.3238 53.5589C37.2049 53.2617 37.1157 53.0834 37.0563 53.0239C36.3429 54.3317 35.7782 55.1045 35.3621 55.3423C35.0054 55.6395 34.5893 55.7881 34.1138 55.7881C33.4004 55.7881 32.7762 55.5504 32.2412 55.0748C31.7656 54.5992 31.5278 54.0345 31.5279 53.3806C31.5278 52.905 31.944 51.9539 32.7762 50.5272H31.082C30.3686 50.5272 29.7742 50.2894 29.2986 49.8138C28.823 49.3383 28.5853 48.7438 28.5853 48.0304C28.5853 47.3171 28.7933 46.7524 29.2095 46.3363C29.685 45.8607 30.3092 45.6229 31.082 45.6229H32.7762C32.0034 44.2557 31.617 43.3343 31.617 42.8587C31.617 42.2048 31.8548 41.64 32.3304 41.1644C32.8059 40.6295 33.4004 40.362 34.1138 40.362C34.411 40.362 34.6487 40.4214 34.8271 40.5403C35.0649 40.5998 35.2432 40.689 35.3621 40.8078C35.5404 40.8673 35.7188 41.0456 35.8971 41.3428C36.0754 41.5806 36.1943 41.759 36.2538 41.8778C36.3132 41.9373 36.4321 42.1453 36.6105 42.502C36.8482 42.8587 36.9968 43.0668 37.0563 43.1262C37.7696 41.8184 38.3046 41.0456 38.6613 40.8078C39.018 40.5701 39.4638 40.4511 39.9989 40.4511C40.7122 40.4511 41.3066 40.6889 41.7822 41.1644C42.2578 41.64 42.4956 42.2048 42.4956 42.8587C42.4956 43.2748 42.1092 44.1962 41.3364 45.6229H42.9415ZM39.9097 54.8964C40.3853 54.8965 40.7716 54.7478 41.0689 54.4506C41.4255 54.1534 41.6039 53.767 41.6039 53.2914C41.6039 52.9942 41.5444 52.697 41.4256 52.3997L39.8206 49.6355H42.9415C44.0709 49.6355 44.6356 49.1302 44.6357 48.1196C44.6356 47.0496 44.0709 46.5146 42.9415 46.5146H39.8206L41.4256 43.7504C41.5444 43.3937 41.6039 43.0668 41.6039 42.7695C41.6039 42.3534 41.4553 41.9968 41.1581 41.6995C40.8608 41.4023 40.4744 41.2537 39.9989 41.2536C39.4044 41.2537 38.9585 41.5509 38.6613 42.1453L37.0563 44.9095L35.4513 42.1453C35.0946 41.5509 34.6487 41.2537 34.1138 41.2536C33.6382 41.2537 33.222 41.432 32.8654 41.7886C32.5681 42.0859 32.4195 42.4426 32.4195 42.8587C32.4195 43.1559 32.5087 43.4532 32.6871 43.7504L34.2921 46.5146H31.082C30.012 46.5146 29.477 47.0496 29.477 48.1196C29.477 49.1302 30.012 49.6355 31.082 49.6355H34.2921L32.6871 52.3997C32.5087 52.7564 32.4195 53.0834 32.4195 53.3806C32.4195 53.7967 32.5681 54.1534 32.8654 54.4506C33.222 54.7478 33.6084 54.8965 34.0246 54.8964C34.619 54.8965 35.0946 54.5992 35.4513 54.0047L37.0563 51.3297L38.6613 54.0047C38.9585 54.5992 39.3747 54.8965 39.9097 54.8964ZM35.1838 46.2471C35.7187 45.7715 36.3132 45.5338 36.9671 45.5337C37.6805 45.5338 38.3046 45.7715 38.8397 46.2471C39.3747 46.7227 39.6422 47.3171 39.6422 48.0304C39.6422 48.8033 39.3747 49.4572 38.8397 49.9922C38.3641 50.4678 37.7399 50.7055 36.9671 50.7055C36.2538 50.7055 35.6593 50.4381 35.1838 49.903C34.7082 49.368 34.4704 48.7438 34.4704 48.0304C34.4704 47.3171 34.7082 46.7227 35.1838 46.2471ZM37.0563 49.8138C37.5319 49.8138 37.9182 49.6355 38.2155 49.2788C38.5721 48.9222 38.7505 48.506 38.7505 48.0304C38.7505 47.5549 38.5721 47.1685 38.2155 46.8713C37.9182 46.5146 37.5021 46.3363 36.9671 46.3363C36.4915 46.3363 36.0754 46.5146 35.7188 46.8713C35.4215 47.1685 35.2729 47.5549 35.2729 48.0304C35.2729 48.5655 35.4513 49.0113 35.808 49.368C36.1646 49.6652 36.5807 49.8138 37.0563 49.8138ZM37.8588 48.0304C37.8588 48.6249 37.5913 48.9222 37.0563 48.9221C36.4618 48.9222 36.1646 48.6249 36.1646 48.0304C36.1646 47.4955 36.4618 47.228 37.0563 47.228C37.5913 47.228 37.8588 47.4955 37.8588 48.0304Z" fill="#9C0000"></path>
</g>
<rect x="0.25" y="0.25" width="74.2" height="94.6" rx="7.75" stroke="#003500" stroke-width="0.5"></rect>
<defs>
<clipPath id="clip0_1_874">
<rect width="74.7" height="95.1" rx="8" fill="white"></rect>
</clipPath>
</defs>
</svg>