<svg width="75" height="96" viewBox="0 0 75 96" fill="none" xmlns="http://www.w3.org/2000/svg">
<g clip-path="url(#clip0_1_897)">
<rect width="74.7" height="95.1" rx="8" fill="white"></rect>
<path d="M74.7 87.9C74.6999 92.7 72.4333 95.1 67.9 95.1H6.8C2.26666 95.1 -2e-06 92.7 0 87.9V7.20003C-2e-06 2.4001 2.26666 0.000106518 6.8 3.05176e-05H67.9C72.4333 0.000106518 74.6999 2.4001 74.7 7.20003V87.9ZM73 87.9V7.20003C72.9999 3.53344 71.2999 1.70011 67.9 1.70003H6.8C3.4 1.70011 1.7 3.53344 1.7 7.20003V87.9C1.7 91.6333 3.4 93.5 6.8 93.5H67.9C71.2999 93.5 72.9999 91.6333 73 87.9Z" fill="white"></path>
<path d="M35.6729 21.7924C35.6729 25.1953 34.4995 28.0407 32.1528 30.3288C29.8646 32.5582 27.1072 33.6729 23.8804 33.6729C20.5363 33.6729 17.7202 32.5289 15.4321 30.2408C13.144 27.8941 12 25.0779 12 21.7924C12 18.507 13.144 15.7203 15.4321 13.4321C17.7789 11.1441 20.595 10.0001 23.8804 10C27.2245 10.0001 30.0113 11.1734 32.2408 13.5201C34.5288 15.8083 35.6729 18.5657 35.6729 21.7924ZM34.7929 21.7924C34.7928 18.7417 33.7075 16.1603 31.5367 14.0482C29.4246 11.9361 26.8432 10.8801 23.7924 10.88C20.8003 10.8801 18.2189 11.9361 16.0481 14.0482C13.9361 16.1603 12.88 18.7417 12.88 21.7924C12.88 24.9019 13.9361 27.5127 16.0481 29.6247C18.2189 31.7369 20.8296 32.7929 23.8804 32.7929C26.9312 32.7929 29.5126 31.7369 31.6247 29.6247C33.7368 27.454 34.7928 24.8433 34.7929 21.7924ZM23.8804 12.2001C26.6379 12.2001 28.9259 13.1388 30.7447 15.0162C32.6221 16.8936 33.5608 19.1524 33.5608 21.7924C33.5608 24.5499 32.6221 26.8673 30.7447 28.7447C28.8673 30.6222 26.5792 31.5609 23.8804 31.5608C21.123 31.5609 18.8056 30.6222 16.9282 28.7447C15.1094 26.8087 14.2001 24.4913 14.2001 21.7924C14.2001 19.0351 15.1388 16.747 17.0162 14.9282C18.8936 13.1095 21.1817 12.2001 23.8804 12.2001ZM17.5442 28.1287C19.3042 29.8301 21.387 30.6808 23.7924 30.6808C26.2565 30.6808 28.3393 29.8301 30.0407 28.1287C31.8007 26.4273 32.6807 24.3153 32.6808 21.7924C32.6807 19.3871 31.83 17.3337 30.1287 15.6322C28.4273 13.8722 26.3445 12.9922 23.8804 12.9921C21.3577 12.9922 19.2456 13.8722 17.5442 15.6322C15.8428 17.3337 14.9921 19.3871 14.9921 21.7924C14.9921 24.3153 15.8428 26.4273 17.5442 28.1287ZM29.6887 19.4164C30.4513 19.4164 31.0674 19.6511 31.5367 20.1204C32.0061 20.5898 32.2407 21.1765 32.2408 21.8804C32.2407 22.5845 32.0061 23.1712 31.5367 23.6405C31.0674 24.0512 30.4513 24.2566 29.6887 24.2565H28.1046C28.8673 25.606 29.2486 26.5153 29.2486 26.9846C29.2486 27.63 29.0139 28.2167 28.5446 28.7447C28.0752 29.2141 27.4592 29.4488 26.6966 29.4487C26.5205 29.4488 26.3152 29.4488 26.0805 29.4487C25.9045 29.3901 25.7285 29.3021 25.5525 29.1847C25.4351 29.0088 25.3178 28.8914 25.2005 28.8327C25.0831 28.7154 24.9365 28.5394 24.7605 28.3047C24.6431 28.0701 24.5258 27.8941 24.4085 27.7767C24.3498 27.6594 24.2618 27.4834 24.1444 27.2486C24.0271 26.9553 23.9391 26.7793 23.8804 26.7206C23.1764 28.0114 22.619 28.7741 22.2084 29.0087C21.8563 29.3021 21.4457 29.4488 20.9763 29.4487C20.2723 29.4488 19.6563 29.2141 19.1283 28.7447C18.6589 28.2754 18.4242 27.718 18.4242 27.0726C18.4242 26.6033 18.8349 25.6646 19.6563 24.2565H17.9842C17.2802 24.2566 16.6935 24.0219 16.2241 23.5525C15.7548 23.0832 15.5201 22.4965 15.5201 21.7924C15.5201 21.0885 15.7255 20.5311 16.1362 20.1204C16.6055 19.6511 17.2215 19.4164 17.9842 19.4164H19.6563C18.8936 18.067 18.5122 17.1577 18.5122 16.6883C18.5122 16.0429 18.7469 15.4856 19.2163 15.0162C19.6856 14.4882 20.2723 14.2242 20.9763 14.2242C21.2697 14.2242 21.5043 14.2829 21.6804 14.4002C21.915 14.4589 22.091 14.5469 22.2084 14.6642C22.3844 14.7229 22.5604 14.8989 22.7364 15.1922C22.9124 15.4269 23.0297 15.6029 23.0884 15.7202C23.147 15.7789 23.2644 15.9843 23.4404 16.3362C23.6751 16.6883 23.8218 16.8936 23.8804 16.9523C24.5844 15.6616 25.1125 14.8989 25.4645 14.6642C25.8165 14.4296 26.2565 14.3122 26.7845 14.3122C27.4885 14.3122 28.0752 14.5469 28.5446 15.0162C29.0139 15.4856 29.2486 16.0429 29.2486 16.6883C29.2486 17.099 28.8673 18.0084 28.1046 19.4164H29.6887ZM26.6966 28.5687C27.1659 28.5687 27.5472 28.4221 27.8406 28.1287C28.1926 27.8354 28.3686 27.454 28.3686 26.9846C28.3686 26.6913 28.3099 26.398 28.1926 26.1046L26.6085 23.3765H29.6887C30.8033 23.3766 31.3607 22.8779 31.3607 21.8804C31.3607 20.8245 30.8033 20.2964 29.6887 20.2964H26.6085L28.1926 17.5683C28.3099 17.2163 28.3686 16.8936 28.3686 16.6002C28.3686 16.1896 28.2219 15.8376 27.9286 15.5442C27.6352 15.2509 27.2539 15.1042 26.7845 15.1042C26.1978 15.1042 25.7578 15.3976 25.4645 15.9842L23.8804 18.7123L22.2964 15.9842C21.9444 15.3976 21.5043 15.1042 20.9763 15.1042C20.507 15.1042 20.0963 15.2803 19.7443 15.6322C19.4509 15.9256 19.3042 16.2776 19.3043 16.6883C19.3042 16.9817 19.3923 17.275 19.5683 17.5683L21.1523 20.2964H17.9842C16.9282 20.2964 16.4001 20.8245 16.4002 21.8804C16.4001 22.8779 16.9282 23.3766 17.9842 23.3765H21.1523L19.5683 26.1046C19.3923 26.4567 19.3042 26.7793 19.3043 27.0726C19.3042 27.4834 19.4509 27.8354 19.7443 28.1287C20.0963 28.4221 20.4776 28.5687 20.8883 28.5687C21.475 28.5687 21.9444 28.2754 22.2964 27.6887L23.8804 25.0486L25.4645 27.6887C25.7578 28.2754 26.1685 28.5687 26.6966 28.5687ZM22.0324 20.0324C22.5604 19.5631 23.1471 19.3284 23.7924 19.3283C24.4964 19.3284 25.1125 19.5631 25.6405 20.0324C26.1685 20.5018 26.4325 21.0885 26.4325 21.7924C26.4325 22.5552 26.1685 23.2005 25.6405 23.7285C25.1711 24.1979 24.5551 24.4326 23.7924 24.4325C23.0884 24.4326 22.5017 24.1686 22.0324 23.6405C21.563 23.1125 21.3283 22.4965 21.3283 21.7924C21.3283 21.0885 21.563 20.5018 22.0324 20.0324ZM23.8804 23.5525C24.3498 23.5526 24.7311 23.3766 25.0245 23.0245C25.3765 22.6725 25.5525 22.2618 25.5525 21.7924C25.5525 21.3231 25.3765 20.9418 25.0245 20.6484C24.7311 20.2964 24.3204 20.1204 23.7924 20.1204C23.3231 20.1204 22.9124 20.2964 22.5604 20.6484C22.267 20.9418 22.1204 21.3231 22.1204 21.7924C22.1204 22.3205 22.2964 22.7605 22.6484 23.1125C23.0004 23.4059 23.4111 23.5526 23.8804 23.5525ZM24.6725 21.7924C24.6724 22.3792 24.4084 22.6725 23.8804 22.6725C23.2937 22.6725 23.0004 22.3792 23.0004 21.7924C23.0004 21.2645 23.2937 21.0005 23.8804 21.0004C24.4084 21.0005 24.6724 21.2645 24.6725 21.7924ZM61.9859 21.7924C61.9858 25.1953 60.8124 28.0407 58.4657 30.3288C56.1776 32.5582 53.4202 33.6729 50.1934 33.6729C46.8493 33.6729 44.0332 32.5289 41.7451 30.2408C39.457 27.8941 38.313 25.0779 38.313 21.7924C38.313 18.507 39.457 15.7203 41.7451 13.4321C44.0918 11.1441 46.9079 10.0001 50.1934 10C53.5375 10.0001 56.3243 11.1734 58.5538 13.5201C60.8418 15.8083 61.9858 18.5657 61.9859 21.7924ZM61.1058 21.7924C61.1058 18.7417 60.0204 16.1603 57.8497 14.0482C55.7376 11.9361 53.1562 10.8801 50.1054 10.88C47.1133 10.8801 44.5319 11.9361 42.3611 14.0482C40.249 16.1603 39.193 18.7417 39.193 21.7924C39.193 24.9019 40.249 27.5127 42.3611 29.6247C44.5319 31.7369 47.1426 32.7929 50.1934 32.7929C53.2442 32.7929 55.8256 31.7369 57.9377 29.6247C60.0498 27.454 61.1058 24.8433 61.1058 21.7924ZM50.1934 12.2001C52.9508 12.2001 55.2389 13.1388 57.0577 15.0162C58.935 16.8936 59.8737 19.1524 59.8738 21.7924C59.8737 24.5499 58.935 26.8673 57.0577 28.7447C55.1802 30.6222 52.8922 31.5609 50.1934 31.5608C47.4359 31.5609 45.1185 30.6222 43.2412 28.7447C41.4224 26.8087 40.513 24.4913 40.5131 21.7924C40.513 19.0351 41.4517 16.747 43.3292 14.9282C45.2065 13.1095 47.4946 12.2001 50.1934 12.2001ZM43.8572 28.1287C45.6172 29.8301 47.7 30.6808 50.1054 30.6808C52.5695 30.6808 54.6522 29.8301 56.3537 28.1287C58.1137 26.4273 58.9937 24.3153 58.9938 21.7924C58.9937 19.3871 58.143 17.3337 56.4417 15.6322C54.7402 13.8722 52.6575 12.9922 50.1934 12.9921C47.6706 12.9922 45.5585 13.8722 43.8572 15.6322C42.1558 17.3337 41.3051 19.3871 41.3051 21.7924C41.3051 24.3153 42.1558 26.4273 43.8572 28.1287ZM56.0017 19.4164C56.7643 19.4164 57.3803 19.6511 57.8497 20.1204C58.319 20.5898 58.5537 21.1765 58.5538 21.8804C58.5537 22.5845 58.319 23.1712 57.8497 23.6405C57.3803 24.0512 56.7643 24.2566 56.0017 24.2565H54.4176C55.1802 25.606 55.5616 26.5153 55.5616 26.9846C55.5616 27.63 55.3269 28.2167 54.8576 28.7447C54.3882 29.2141 53.7722 29.4488 53.0095 29.4487C52.8335 29.4488 52.6281 29.4488 52.3935 29.4487C52.2175 29.3901 52.0415 29.3021 51.8655 29.1847C51.7481 29.0088 51.6308 28.8914 51.5135 28.8327C51.3961 28.7154 51.2494 28.5394 51.0735 28.3047C50.9561 28.0701 50.8388 27.8941 50.7215 27.7767C50.6628 27.6594 50.5747 27.4834 50.4574 27.2486C50.3401 26.9553 50.2521 26.7793 50.1934 26.7206C49.4894 28.0114 48.932 28.7741 48.5214 29.0087C48.1693 29.3021 47.7586 29.4488 47.2893 29.4487C46.5853 29.4488 45.9692 29.2141 45.4413 28.7447C44.9719 28.2754 44.7372 27.718 44.7372 27.0726C44.7372 26.6033 45.1479 25.6646 45.9693 24.2565H44.2972C43.5931 24.2566 43.0065 24.0219 42.5371 23.5525C42.0678 23.0832 41.8331 22.4965 41.8331 21.7924C41.8331 21.0885 42.0384 20.5311 42.4491 20.1204C42.9185 19.6511 43.5345 19.4164 44.2972 19.4164H45.9693C45.2065 18.067 44.8252 17.1577 44.8252 16.6883C44.8252 16.0429 45.0599 15.4856 45.5293 15.0162C45.9986 14.4882 46.5853 14.2242 47.2893 14.2242C47.5826 14.2242 47.8173 14.2829 47.9934 14.4002C48.228 14.4589 48.404 14.5469 48.5214 14.6642C48.6973 14.7229 48.8733 14.8989 49.0494 15.1922C49.2254 15.4269 49.3427 15.6029 49.4014 15.7202C49.46 15.7789 49.5774 15.9843 49.7534 16.3362C49.9881 16.6883 50.1347 16.8936 50.1934 16.9523C50.8974 15.6616 51.4254 14.8989 51.7775 14.6642C52.1295 14.4296 52.5695 14.3122 53.0975 14.3122C53.8015 14.3122 54.3882 14.5469 54.8576 15.0162C55.3269 15.4856 55.5616 16.0429 55.5616 16.6883C55.5616 17.099 55.1802 18.0084 54.4176 19.4164H56.0017ZM53.0095 28.5687C53.4788 28.5687 53.8602 28.4221 54.1536 28.1287C54.5055 27.8354 54.6816 27.454 54.6816 26.9846C54.6816 26.6913 54.6229 26.398 54.5056 26.1046L52.9215 23.3765H56.0017C57.1163 23.3766 57.6737 22.8779 57.6737 21.8804C57.6737 20.8245 57.1163 20.2964 56.0017 20.2964H52.9215L54.5056 17.5683C54.6229 17.2163 54.6816 16.8936 54.6816 16.6002C54.6816 16.1896 54.5349 15.8376 54.2416 15.5442C53.9482 15.2509 53.5669 15.1042 53.0975 15.1042C52.5108 15.1042 52.0708 15.3976 51.7775 15.9842L50.1934 18.7123L48.6094 15.9842C48.2573 15.3976 47.8173 15.1042 47.2893 15.1042C46.8199 15.1042 46.4093 15.2803 46.0573 15.6322C45.7639 15.9256 45.6172 16.2776 45.6173 16.6883C45.6172 16.9817 45.7053 17.275 45.8813 17.5683L47.4653 20.2964H44.2972C43.2411 20.2964 42.7131 20.8245 42.7132 21.8804C42.7131 22.8779 43.2411 23.3766 44.2972 23.3765H47.4653L45.8813 26.1046C45.7052 26.4567 45.6172 26.7793 45.6173 27.0726C45.6172 27.4834 45.7639 27.8354 46.0573 28.1287C46.4093 28.4221 46.7906 28.5687 47.2013 28.5687C47.788 28.5687 48.2573 28.2754 48.6094 27.6887L50.1934 25.0486L51.7775 27.6887C52.0708 28.2754 52.4815 28.5687 53.0095 28.5687ZM48.3454 20.0324C48.8733 19.5631 49.46 19.3284 50.1054 19.3283C50.8094 19.3284 51.4254 19.5631 51.9535 20.0324C52.4815 20.5018 52.7455 21.0885 52.7455 21.7924C52.7455 22.5552 52.4815 23.2005 51.9535 23.7285C51.4841 24.1979 50.8681 24.4326 50.1054 24.4325C49.4014 24.4326 48.8147 24.1686 48.3454 23.6405C47.876 23.1125 47.6413 22.4965 47.6413 21.7924C47.6413 21.0885 47.876 20.5018 48.3454 20.0324ZM50.1934 23.5525C50.6627 23.5526 51.0441 23.3766 51.3375 23.0245C51.6895 22.6725 51.8654 22.2618 51.8655 21.7924C51.8654 21.3231 51.6895 20.9418 51.3375 20.6484C51.0441 20.2964 50.6334 20.1204 50.1054 20.1204C49.636 20.1204 49.2254 20.2964 48.8734 20.6484C48.58 20.9418 48.4333 21.3231 48.4334 21.7924C48.4333 22.3205 48.6093 22.7605 48.9614 23.1125C49.3134 23.4059 49.724 23.5526 50.1934 23.5525ZM50.9855 21.7924C50.9854 22.3792 50.7214 22.6725 50.1934 22.6725C49.6067 22.6725 49.3134 22.3792 49.3134 21.7924C49.3134 21.2645 49.6067 21.0005 50.1934 21.0004C50.7214 21.0005 50.9854 21.2645 50.9855 21.7924Z" fill="#006C00"></path>
<path d="M35.6729 47.8917C35.6729 51.2945 34.4995 54.14 32.1528 56.428C29.8646 58.6575 27.1072 59.7722 23.8804 59.7721C20.5363 59.7722 17.7202 58.6281 15.4321 56.34C13.144 53.9933 12 51.1772 12 47.8917C12 44.6063 13.144 41.8195 15.4321 39.5314C17.7789 37.2433 20.595 36.0993 23.8804 36.0993C27.2245 36.0993 30.0113 37.2727 32.2408 39.6194C34.5288 41.9075 35.6729 44.6649 35.6729 47.8917ZM34.7929 47.8917C34.7928 44.8409 33.7074 42.2595 31.5367 40.1474C29.4246 38.0354 26.8432 36.9793 23.7924 36.9793C20.8003 36.9793 18.2189 38.0354 16.0482 40.1474C13.9361 42.2595 12.88 44.8409 12.88 47.8917C12.88 51.0012 13.9361 53.6119 16.0482 55.724C18.2189 57.8361 20.8296 58.8921 23.8804 58.8921C26.9312 58.8921 29.5126 57.8361 31.6247 55.724C33.7368 53.5533 34.7928 50.9425 34.7929 47.8917ZM23.8804 38.2993C26.6379 38.2994 28.9259 39.2381 30.7447 41.1154C32.6221 42.9929 33.5608 45.2516 33.5608 47.8917C33.5608 50.6492 32.6221 52.9666 30.7447 54.844C28.8673 56.7214 26.5792 57.6601 23.8804 57.6601C21.123 57.6601 18.8056 56.7214 16.9282 54.844C15.1094 52.9079 14.2001 50.5905 14.2001 47.8917C14.2001 45.1343 15.1388 42.8462 17.0162 41.0274C18.8936 39.2087 21.1817 38.2994 23.8804 38.2993ZM17.5442 54.2279C19.3042 55.9294 21.387 56.7801 23.7924 56.78C26.2565 56.7801 28.3393 55.9294 30.0407 54.2279C31.8007 52.5266 32.6807 50.4145 32.6808 47.8917C32.6807 45.4863 31.8301 43.4329 30.1287 41.7315C28.4273 39.9714 26.3445 39.0914 23.8804 39.0914C21.3577 39.0914 19.2456 39.9714 17.5442 41.7315C15.8428 43.4329 14.9921 45.4863 14.9921 47.8917C14.9921 50.4145 15.8428 52.5266 17.5442 54.2279ZM29.6887 45.5156C30.4513 45.5156 31.0673 45.7503 31.5367 46.2196C32.006 46.689 32.2407 47.2757 32.2408 47.9797C32.2407 48.6838 32.006 49.2704 31.5367 49.7398C31.0673 50.1505 30.4513 50.3558 29.6887 50.3558H28.1046C28.8673 51.7052 29.2486 52.6146 29.2487 53.0839C29.2486 53.7293 29.0139 54.316 28.5446 54.844C28.0752 55.3133 27.4592 55.548 26.6965 55.548C26.5205 55.548 26.3152 55.548 26.0805 55.548C25.9045 55.4893 25.7285 55.4013 25.5525 55.284C25.4351 55.108 25.3178 54.9907 25.2005 54.932C25.0831 54.8146 24.9365 54.6386 24.7605 54.4039C24.6431 54.1693 24.5258 53.9933 24.4085 53.8759C24.3498 53.7586 24.2618 53.5826 24.1444 53.3479C24.0271 53.0546 23.9391 52.8786 23.8804 52.8199C23.1764 54.1106 22.619 54.8733 22.2084 55.108C21.8564 55.4013 21.4457 55.548 20.9763 55.548C20.2723 55.548 19.6563 55.3133 19.1283 54.844C18.6589 54.3746 18.4242 53.8173 18.4242 53.1719C18.4242 52.7026 18.8349 51.7639 19.6563 50.3558H17.9842C17.2802 50.3558 16.6935 50.1211 16.2241 49.6518C15.7548 49.1824 15.5201 48.5958 15.5201 47.8917C15.5201 47.1877 15.7254 46.6303 16.1361 46.2196C16.6055 45.7503 17.2215 45.5156 17.9842 45.5156H19.6563C18.8936 44.1663 18.5122 43.2569 18.5122 42.7875C18.5122 42.1422 18.7469 41.5848 19.2163 41.1154C19.6856 40.5875 20.2723 40.3234 20.9763 40.3234C21.2696 40.3234 21.5043 40.3821 21.6804 40.4994C21.915 40.5581 22.091 40.6461 22.2084 40.7634C22.3844 40.8221 22.5604 40.9981 22.7364 41.2915C22.9124 41.5262 23.0297 41.7022 23.0884 41.8195C23.147 41.8782 23.2644 42.0835 23.4404 42.4355C23.6751 42.7875 23.8218 42.9929 23.8804 43.0515C24.5844 41.7608 25.1125 40.9981 25.4645 40.7634C25.8165 40.5288 26.2565 40.4115 26.7845 40.4114C27.4885 40.4115 28.0752 40.6461 28.5446 41.1154C29.0139 41.5848 29.2486 42.1422 29.2487 42.7875C29.2486 43.1982 28.8673 44.1076 28.1046 45.5156H29.6887ZM26.6965 54.668C27.1659 54.668 27.5472 54.5213 27.8406 54.2279C28.1926 53.9346 28.3686 53.5533 28.3686 53.0839C28.3686 52.7906 28.3099 52.4972 28.1926 52.2039L26.6086 49.4758H29.6887C30.8033 49.4758 31.3607 48.9771 31.3607 47.9797C31.3607 46.9237 30.8033 46.3957 29.6887 46.3956H26.6086L28.1926 43.6675C28.3099 43.3156 28.3686 42.9929 28.3686 42.6995C28.3686 42.2889 28.2219 41.9368 27.9286 41.6435C27.6352 41.3502 27.2539 41.2035 26.7845 41.2035C26.1978 41.2035 25.7578 41.4968 25.4645 42.0835L23.8804 44.8116L22.2964 42.0835C21.9443 41.4968 21.5043 41.2035 20.9763 41.2035C20.5069 41.2035 20.0963 41.3795 19.7443 41.7315C19.4509 42.0248 19.3042 42.3769 19.3043 42.7875C19.3042 43.0809 19.3923 43.3742 19.5683 43.6675L21.1523 46.3956H17.9842C16.9282 46.3957 16.4001 46.9237 16.4002 47.9797C16.4001 48.9771 16.9282 49.4758 17.9842 49.4758H21.1523L19.5683 52.2039C19.3923 52.5559 19.3042 52.8786 19.3043 53.1719C19.3042 53.5826 19.4509 53.9346 19.7443 54.2279C20.0963 54.5213 20.4776 54.668 20.8883 54.668C21.475 54.668 21.9443 54.3746 22.2964 53.7879L23.8804 51.1478L25.4645 53.7879C25.7578 54.3746 26.1685 54.668 26.6965 54.668ZM22.0324 46.1316C22.5604 45.6623 23.1471 45.4276 23.7924 45.4276C24.4964 45.4276 25.1125 45.6623 25.6405 46.1316C26.1685 46.601 26.4325 47.1877 26.4325 47.8917C26.4325 48.6544 26.1685 49.2998 25.6405 49.8278C25.1711 50.2971 24.5551 50.5318 23.7924 50.5318C23.0884 50.5318 22.5017 50.2678 22.0324 49.7398C21.563 49.2118 21.3283 48.5958 21.3284 47.8917C21.3283 47.1877 21.563 46.601 22.0324 46.1316ZM23.8804 49.6518C24.3498 49.6518 24.7311 49.4758 25.0245 49.1237C25.3765 48.7718 25.5525 48.3611 25.5525 47.8917C25.5525 47.4224 25.3765 47.041 25.0245 46.7477C24.7311 46.3957 24.3204 46.2197 23.7924 46.2196C23.3231 46.2197 22.9124 46.3957 22.5604 46.7477C22.267 47.041 22.1204 47.4224 22.1204 47.8917C22.1204 48.4197 22.2964 48.8598 22.6484 49.2118C23.0004 49.5051 23.4111 49.6518 23.8804 49.6518ZM24.6725 47.8917C24.6724 48.4784 24.4084 48.7718 23.8804 48.7717C23.2937 48.7718 23.0004 48.4784 23.0004 47.8917C23.0004 47.3637 23.2937 47.0997 23.8804 47.0997C24.4084 47.0997 24.6724 47.3637 24.6725 47.8917ZM61.9859 47.8917C61.9858 51.2945 60.8124 54.14 58.4657 56.428C56.1776 58.6575 53.4202 59.7722 50.1934 59.7721C46.8493 59.7722 44.0332 58.6281 41.7451 56.34C39.457 53.9933 38.313 51.1772 38.313 47.8917C38.313 44.6063 39.457 41.8195 41.7451 39.5314C44.0918 37.2433 46.9079 36.0993 50.1934 36.0993C53.5375 36.0993 56.3243 37.2727 58.5538 39.6194C60.8418 41.9075 61.9858 44.6649 61.9859 47.8917ZM61.1058 47.8917C61.1058 44.8409 60.0204 42.2595 57.8497 40.1474C55.7376 38.0354 53.1562 36.9793 50.1054 36.9793C47.1133 36.9793 44.5319 38.0354 42.3611 40.1474C40.249 42.2595 39.193 44.8409 39.193 47.8917C39.193 51.0012 40.249 53.6119 42.3611 55.724C44.5319 57.8361 47.1426 58.8921 50.1934 58.8921C53.2442 58.8921 55.8256 57.8361 57.9377 55.724C60.0497 53.5533 61.1058 50.9425 61.1058 47.8917ZM50.1934 38.2993C52.9508 38.2994 55.2389 39.2381 57.0577 41.1154C58.935 42.9929 59.8737 45.2516 59.8738 47.8917C59.8737 50.6492 58.935 52.9666 57.0577 54.844C55.1802 56.7214 52.8922 57.6601 50.1934 57.6601C47.4359 57.6601 45.1185 56.7214 43.2412 54.844C41.4224 52.9079 40.513 50.5905 40.5131 47.8917C40.513 45.1343 41.4517 42.8462 43.3292 41.0274C45.2065 39.2087 47.4946 38.2994 50.1934 38.2993ZM43.8572 54.2279C45.6172 55.9294 47.7 56.7801 50.1054 56.78C52.5695 56.7801 54.6522 55.9294 56.3537 54.2279C58.1137 52.5266 58.9937 50.4145 58.9938 47.8917C58.9937 45.4863 58.143 43.4329 56.4417 41.7315C54.7402 39.9714 52.6575 39.0914 50.1934 39.0914C47.6706 39.0914 45.5585 39.9714 43.8572 41.7315C42.1557 43.4329 41.3051 45.4863 41.3051 47.8917C41.3051 50.4145 42.1557 52.5266 43.8572 54.2279ZM56.0017 45.5156C56.7643 45.5156 57.3803 45.7503 57.8497 46.2196C58.319 46.689 58.5537 47.2757 58.5538 47.9797C58.5537 48.6838 58.319 49.2704 57.8497 49.7398C57.3803 50.1505 56.7643 50.3558 56.0017 50.3558H54.4176C55.1802 51.7052 55.5616 52.6146 55.5616 53.0839C55.5616 53.7293 55.3269 54.316 54.8576 54.844C54.3882 55.3133 53.7722 55.548 53.0096 55.548C52.8335 55.548 52.6281 55.548 52.3935 55.548C52.2175 55.4893 52.0415 55.4013 51.8655 55.284C51.7481 55.108 51.6308 54.9907 51.5135 54.932C51.3961 54.8146 51.2494 54.6386 51.0735 54.4039C50.9561 54.1693 50.8388 53.9933 50.7215 53.8759C50.6628 53.7586 50.5747 53.5826 50.4574 53.3479C50.3401 53.0546 50.2521 52.8786 50.1934 52.8199C49.4894 54.1106 48.932 54.8733 48.5214 55.108C48.1693 55.4013 47.7586 55.548 47.2893 55.548C46.5853 55.548 45.9692 55.3133 45.4413 54.844C44.9719 54.3746 44.7372 53.8173 44.7372 53.1719C44.7372 52.7026 45.1479 51.7639 45.9693 50.3558H44.2972C43.5931 50.3558 43.0064 50.1211 42.5371 49.6518C42.0677 49.1824 41.8331 48.5958 41.8331 47.8917C41.8331 47.1877 42.0384 46.6303 42.4492 46.2196C42.9185 45.7503 43.5345 45.5156 44.2972 45.5156H45.9693C45.2065 44.1663 44.8252 43.2569 44.8252 42.7875C44.8252 42.1422 45.0599 41.5848 45.5293 41.1154C45.9986 40.5875 46.5853 40.3234 47.2893 40.3234C47.5826 40.3234 47.8173 40.3821 47.9934 40.4994C48.228 40.5581 48.404 40.6461 48.5214 40.7634C48.6973 40.8221 48.8734 40.9981 49.0494 41.2915C49.2254 41.5262 49.3427 41.7022 49.4014 41.8195C49.46 41.8782 49.5774 42.0835 49.7534 42.4355C49.9881 42.7875 50.1347 42.9929 50.1934 43.0515C50.8974 41.7608 51.4254 40.9981 51.7775 40.7634C52.1295 40.5288 52.5695 40.4115 53.0975 40.4114C53.8015 40.4115 54.3882 40.6461 54.8576 41.1154C55.3269 41.5848 55.5616 42.1422 55.5616 42.7875C55.5616 43.1982 55.1802 44.1076 54.4176 45.5156H56.0017ZM53.0096 54.668C53.4789 54.668 53.8602 54.5213 54.1536 54.2279C54.5055 53.9346 54.6816 53.5533 54.6816 53.0839C54.6816 52.7906 54.6229 52.4972 54.5056 52.2039L52.9215 49.4758H56.0017C57.1163 49.4758 57.6737 48.9771 57.6737 47.9797C57.6737 46.9237 57.1163 46.3957 56.0017 46.3956H52.9215L54.5056 43.6675C54.6229 43.3156 54.6816 42.9929 54.6816 42.6995C54.6816 42.2889 54.5349 41.9368 54.2416 41.6435C53.9482 41.3502 53.5668 41.2035 53.0975 41.2035C52.5108 41.2035 52.0708 41.4968 51.7775 42.0835L50.1934 44.8116L48.6094 42.0835C48.2573 41.4968 47.8173 41.2035 47.2893 41.2035C46.8199 41.2035 46.4092 41.3795 46.0573 41.7315C45.7639 42.0248 45.6172 42.3769 45.6173 42.7875C45.6172 43.0809 45.7053 43.3742 45.8813 43.6675L47.4653 46.3956H44.2972C43.2411 46.3957 42.7131 46.9237 42.7132 47.9797C42.7131 48.9771 43.2411 49.4758 44.2972 49.4758H47.4653L45.8813 52.2039C45.7052 52.5559 45.6172 52.8786 45.6173 53.1719C45.6172 53.5826 45.7639 53.9346 46.0573 54.2279C46.4092 54.5213 46.7906 54.668 47.2013 54.668C47.788 54.668 48.2573 54.3746 48.6094 53.7879L50.1934 51.1478L51.7775 53.7879C52.0708 54.3746 52.4815 54.668 53.0096 54.668ZM48.3454 46.1316C48.8733 45.6623 49.46 45.4276 50.1054 45.4276C50.8094 45.4276 51.4254 45.6623 51.9535 46.1316C52.4815 46.601 52.7455 47.1877 52.7455 47.8917C52.7455 48.6544 52.4815 49.2998 51.9535 49.8278C51.4841 50.2971 50.8681 50.5318 50.1054 50.5318C49.4014 50.5318 48.8147 50.2678 48.3454 49.7398C47.876 49.2118 47.6413 48.5958 47.6413 47.8917C47.6413 47.1877 47.876 46.601 48.3454 46.1316ZM50.1934 49.6518C50.6627 49.6518 51.0441 49.4758 51.3375 49.1237C51.6894 48.7718 51.8654 48.3611 51.8655 47.8917C51.8654 47.4224 51.6894 47.041 51.3375 46.7477C51.0441 46.3957 50.6334 46.2197 50.1054 46.2196C49.636 46.2197 49.2254 46.3957 48.8734 46.7477C48.58 47.041 48.4333 47.4224 48.4334 47.8917C48.4333 48.4197 48.6093 48.8598 48.9614 49.2118C49.3134 49.5051 49.724 49.6518 50.1934 49.6518ZM50.9855 47.8917C50.9854 48.4784 50.7214 48.7718 50.1934 48.7717C49.6067 48.7718 49.3134 48.4784 49.3134 47.8917C49.3134 47.3637 49.6067 47.0997 50.1934 47.0997C50.7214 47.0997 50.9854 47.3637 50.9855 47.8917ZM35.6729 73.6767C35.6729 77.0795 34.4995 79.8956 32.1528 82.125C29.8646 84.4131 27.1072 85.5571 23.8804 85.5571C20.5363 85.5571 17.7202 84.3837 15.4321 82.037C13.144 79.7489 12 76.9621 12 73.6767C12 70.3912 13.144 67.6045 15.4321 65.3164C17.7789 63.0283 20.595 61.8842 23.8804 61.8842C27.2245 61.8842 30.0113 63.0576 32.2408 65.4044C34.5288 67.6925 35.6729 70.4499 35.6729 73.6767ZM34.7929 73.6767C34.7928 70.6259 33.7074 68.0445 31.5367 65.9324C29.4246 63.8203 26.8432 62.7643 23.7924 62.7643C20.8003 62.7643 18.2189 63.8203 16.0482 65.9324C13.9361 68.0445 12.88 70.6259 12.88 73.6767C12.88 76.7861 13.9361 79.3969 16.0482 81.509C18.2189 83.621 20.8296 84.6771 23.8804 84.6771C26.9312 84.6771 29.5126 83.5917 31.6247 81.421C33.7368 79.3089 34.7928 76.7275 34.7929 73.6767ZM23.8804 64.0843C26.6379 64.0843 28.9259 65.023 30.7447 66.9004C32.6221 68.7778 33.5608 71.0366 33.5608 73.6767C33.5608 76.4341 32.6221 78.7515 30.7447 80.6289C28.8673 82.5063 26.5792 83.445 23.8804 83.445C21.123 83.445 18.8056 82.477 16.9282 80.5409C15.1094 78.6635 14.2001 76.3754 14.2001 73.6767C14.2001 70.9192 15.1388 68.6312 17.0162 66.8124C18.8936 64.9937 21.1817 64.0843 23.8804 64.0843ZM17.5442 80.0129C19.3042 81.7143 21.387 82.565 23.7924 82.565C26.2565 82.565 28.3393 81.7143 30.0407 80.0129C31.8007 78.3115 32.6807 76.1994 32.6808 73.6767C32.6807 71.2713 31.8301 69.2178 30.1287 67.5164C28.4273 65.7564 26.3445 64.8764 23.8804 64.8763C21.3577 64.8764 19.2456 65.7564 17.5442 67.5164C15.8428 69.2178 14.9921 71.2713 14.9921 73.6767C14.9921 76.1994 15.8428 78.3115 17.5442 80.0129ZM29.6887 71.3006C30.4513 71.3006 31.0673 71.5353 31.5367 72.0046C32.006 72.474 32.2407 73.0607 32.2408 73.7647C32.2407 74.4687 32.006 75.0261 31.5367 75.4367C31.0673 75.9061 30.4513 76.1408 29.6887 76.1408H28.1046C28.8673 77.4901 29.2486 78.3995 29.2487 78.8689C29.2486 79.5142 29.0139 80.0716 28.5446 80.5409C28.0752 81.0689 27.4592 81.333 26.6965 81.333C26.5205 81.333 26.3152 81.3036 26.0805 81.245C25.9045 81.245 25.7285 81.157 25.5525 80.981C25.4351 80.8636 25.3178 80.7463 25.2005 80.6289C25.0831 80.5703 24.9365 80.4236 24.7605 80.1889C24.6431 79.9542 24.5258 79.7782 24.4085 79.6609C24.3498 79.5436 24.2618 79.3382 24.1444 79.0449C24.0271 78.8102 23.9391 78.6635 23.8804 78.6049C23.1764 79.8956 22.619 80.6583 22.2084 80.8929C21.8564 81.1863 21.4457 81.333 20.9763 81.333C20.2723 81.333 19.6563 81.0983 19.1283 80.6289C18.6589 80.1596 18.4242 79.6022 18.4242 78.9569C18.4242 78.4875 18.8349 77.5488 19.6563 76.1408H17.9842C17.2802 76.1408 16.6935 75.9061 16.2241 75.4367C15.7548 74.9674 15.5201 74.3807 15.5201 73.6767C15.5201 72.9726 15.7254 72.4153 16.1361 72.0046C16.6055 71.5353 17.2215 71.3006 17.9842 71.3006H19.6563C18.8936 69.9512 18.5122 69.0418 18.5122 68.5725C18.5122 67.9271 18.7469 67.3698 19.2163 66.9004C19.6856 66.3724 20.2723 66.1084 20.9763 66.1084C21.2696 66.1084 21.5043 66.1671 21.6804 66.2844C21.915 66.3431 22.091 66.4311 22.2084 66.5484C22.3844 66.6071 22.5604 66.7831 22.7364 67.0764C22.9124 67.3111 23.0297 67.4871 23.0884 67.6044C23.147 67.6631 23.2644 67.8685 23.4404 68.2205C23.6751 68.5725 23.8218 68.7778 23.8804 68.8365C24.5844 67.5458 25.1125 66.7831 25.4645 66.5484C25.8165 66.3137 26.2565 66.1964 26.7845 66.1964C27.4885 66.1964 28.0752 66.4311 28.5446 66.9004C29.0139 67.3698 29.2486 67.9271 29.2487 68.5725C29.2486 68.9832 28.8673 69.8925 28.1046 71.3006H29.6887ZM26.6965 80.4529C27.1659 80.4529 27.5472 80.3063 27.8406 80.0129C28.1926 79.7196 28.3686 79.3382 28.3686 78.8689C28.3686 78.5755 28.3099 78.2822 28.1926 77.9888L26.6086 75.2607H29.6887C30.8033 75.2607 31.3607 74.7327 31.3607 73.6767C31.3607 72.6793 30.8033 72.1806 29.6887 72.1806H26.6086L28.1926 69.4525C28.3099 69.1005 28.3686 68.7778 28.3686 68.4845C28.3686 68.0738 28.2219 67.7218 27.9286 67.4284C27.6352 67.1351 27.2539 66.9884 26.7845 66.9884C26.1978 66.9884 25.7578 67.2818 25.4645 67.8685L23.8804 70.5966L22.2964 67.8685C21.9443 67.2818 21.5043 66.9884 20.9763 66.9884C20.5069 66.9884 20.0963 67.1644 19.7443 67.5164C19.4509 67.8098 19.3042 68.1618 19.3043 68.5725C19.3042 68.8658 19.3923 69.1592 19.5683 69.4525L21.1523 72.1806H17.9842C16.9282 72.1806 16.4001 72.6793 16.4002 73.6767C16.4001 74.7327 16.9282 75.2607 17.9842 75.2607H21.1523L19.5683 77.9888C19.3923 78.3408 19.3042 78.6635 19.3043 78.9569C19.3042 79.3676 19.4509 79.7196 19.7443 80.0129C20.0963 80.3063 20.4776 80.4529 20.8883 80.4529C21.475 80.4529 21.9443 80.1596 22.2964 79.5729L23.8804 76.9328L25.4645 79.5729C25.7578 80.1596 26.1685 80.4529 26.6965 80.4529ZM22.0324 71.9166C22.5604 71.4473 23.1471 71.2126 23.7924 71.2126C24.4964 71.2126 25.1125 71.4473 25.6405 71.9166C26.1685 72.386 26.4325 72.9726 26.4325 73.6767C26.4325 74.4394 26.1685 75.0554 25.6405 75.5247C25.1711 76.0528 24.5551 76.3168 23.7924 76.3168C23.0884 76.3168 22.5017 76.0528 22.0324 75.5247C21.563 74.9967 21.3283 74.3807 21.3284 73.6767C21.3283 72.9726 21.563 72.386 22.0324 71.9166ZM23.8804 75.4367C24.3498 75.4367 24.7311 75.2607 25.0245 74.9087C25.3765 74.5567 25.5525 74.146 25.5525 73.6767C25.5525 73.2073 25.3765 72.826 25.0245 72.5326C24.7311 72.1806 24.3204 72.0046 23.7924 72.0046C23.3231 72.0046 22.9124 72.1806 22.5604 72.5326C22.267 72.826 22.1204 73.2073 22.1204 73.6767C22.1204 74.2047 22.2964 74.6154 22.6484 74.9087C23.0004 75.2607 23.4111 75.4367 23.8804 75.4367ZM24.6725 73.6767C24.6724 74.2634 24.4084 74.5567 23.8804 74.5567C23.2937 74.5567 23.0004 74.2634 23.0004 73.6767C23.0004 73.1487 23.2937 72.8846 23.8804 72.8846C24.4084 72.8846 24.6724 73.1487 24.6725 73.6767ZM61.9859 73.6767C61.9858 77.0795 60.8124 79.8956 58.4657 82.125C56.1776 84.4131 53.4202 85.5571 50.1934 85.5571C46.8493 85.5571 44.0332 84.3837 41.7451 82.037C39.457 79.7489 38.313 76.9621 38.313 73.6767C38.313 70.3912 39.457 67.6045 41.7451 65.3164C44.0918 63.0283 46.9079 61.8842 50.1934 61.8842C53.5375 61.8842 56.3243 63.0576 58.5538 65.4044C60.8418 67.6925 61.9858 70.4499 61.9859 73.6767ZM61.1058 73.6767C61.1058 70.6259 60.0204 68.0445 57.8497 65.9324C55.7376 63.8203 53.1562 62.7643 50.1054 62.7643C47.1133 62.7643 44.5319 63.8203 42.3611 65.9324C40.249 68.0445 39.193 70.6259 39.193 73.6767C39.193 76.7861 40.249 79.3969 42.3611 81.509C44.5319 83.621 47.1426 84.6771 50.1934 84.6771C53.2442 84.6771 55.8256 83.5917 57.9377 81.421C60.0497 79.3089 61.1058 76.7275 61.1058 73.6767ZM50.1934 64.0843C52.9508 64.0843 55.2389 65.023 57.0577 66.9004C58.935 68.7778 59.8737 71.0366 59.8738 73.6767C59.8737 76.4341 58.935 78.7515 57.0577 80.6289C55.1802 82.5063 52.8922 83.445 50.1934 83.445C47.4359 83.445 45.1185 82.477 43.2412 80.5409C41.4224 78.6635 40.513 76.3754 40.5131 73.6767C40.513 70.9192 41.4517 68.6312 43.3292 66.8124C45.2065 64.9937 47.4946 64.0843 50.1934 64.0843ZM43.8572 80.0129C45.6172 81.7143 47.7 82.565 50.1054 82.565C52.5695 82.565 54.6522 81.7143 56.3537 80.0129C58.1137 78.3115 58.9937 76.1994 58.9938 73.6767C58.9937 71.2713 58.143 69.2178 56.4417 67.5164C54.7402 65.7564 52.6575 64.8764 50.1934 64.8763C47.6706 64.8764 45.5585 65.7564 43.8572 67.5164C42.1557 69.2178 41.3051 71.2713 41.3051 73.6767C41.3051 76.1994 42.1557 78.3115 43.8572 80.0129ZM56.0017 71.3006C56.7643 71.3006 57.3803 71.5353 57.8497 72.0046C58.319 72.474 58.5537 73.0607 58.5538 73.7647C58.5537 74.4687 58.319 75.0261 57.8497 75.4367C57.3803 75.9061 56.7643 76.1408 56.0017 76.1408H54.4176C55.1802 77.4901 55.5616 78.3995 55.5616 78.8689C55.5616 79.5142 55.3269 80.0716 54.8576 80.5409C54.3882 81.0689 53.7722 81.333 53.0096 81.333C52.8335 81.333 52.6281 81.3036 52.3935 81.245C52.2175 81.245 52.0415 81.157 51.8655 80.981C51.7481 80.8636 51.6308 80.7463 51.5135 80.6289C51.3961 80.5703 51.2494 80.4236 51.0735 80.1889C50.9561 79.9542 50.8388 79.7782 50.7215 79.6609C50.6628 79.5436 50.5747 79.3382 50.4574 79.0449C50.3401 78.8102 50.2521 78.6635 50.1934 78.6049C49.4894 79.8956 48.932 80.6583 48.5214 80.8929C48.1693 81.1863 47.7586 81.333 47.2893 81.333C46.5853 81.333 45.9692 81.0983 45.4413 80.6289C44.9719 80.1596 44.7372 79.6022 44.7372 78.9569C44.7372 78.4875 45.1479 77.5488 45.9693 76.1408H44.2972C43.5931 76.1408 43.0064 75.9061 42.5371 75.4367C42.0677 74.9674 41.8331 74.3807 41.8331 73.6767C41.8331 72.9726 42.0384 72.4153 42.4492 72.0046C42.9185 71.5353 43.5345 71.3006 44.2972 71.3006H45.9693C45.2065 69.9512 44.8252 69.0418 44.8252 68.5725C44.8252 67.9271 45.0599 67.3698 45.5293 66.9004C45.9986 66.3724 46.5853 66.1084 47.2893 66.1084C47.5826 66.1084 47.8173 66.1671 47.9934 66.2844C48.228 66.3431 48.404 66.4311 48.5214 66.5484C48.6973 66.6071 48.8734 66.7831 49.0494 67.0764C49.2254 67.3111 49.3427 67.4871 49.4014 67.6044C49.46 67.6631 49.5774 67.8685 49.7534 68.2205C49.9881 68.5725 50.1347 68.7778 50.1934 68.8365C50.8974 67.5458 51.4254 66.7831 51.7775 66.5484C52.1295 66.3137 52.5695 66.1964 53.0975 66.1964C53.8015 66.1964 54.3882 66.4311 54.8576 66.9004C55.3269 67.3698 55.5616 67.9271 55.5616 68.5725C55.5616 68.9832 55.1802 69.8925 54.4176 71.3006H56.0017ZM53.0096 80.4529C53.4789 80.4529 53.8602 80.3063 54.1536 80.0129C54.5055 79.7196 54.6816 79.3382 54.6816 78.8689C54.6816 78.5755 54.6229 78.2822 54.5056 77.9888L52.9215 75.2607H56.0017C57.1163 75.2607 57.6737 74.7327 57.6737 73.6767C57.6737 72.6793 57.1163 72.1806 56.0017 72.1806H52.9215L54.5056 69.4525C54.6229 69.1005 54.6816 68.7778 54.6816 68.4845C54.6816 68.0738 54.5349 67.7218 54.2416 67.4284C53.9482 67.1351 53.5668 66.9884 53.0975 66.9884C52.5108 66.9884 52.0708 67.2818 51.7775 67.8685L50.1934 70.5966L48.6094 67.8685C48.2573 67.2818 47.8173 66.9884 47.2893 66.9884C46.8199 66.9884 46.4092 67.1644 46.0573 67.5164C45.7639 67.8098 45.6172 68.1618 45.6173 68.5725C45.6172 68.8658 45.7053 69.1592 45.8813 69.4525L47.4653 72.1806H44.2972C43.2411 72.1806 42.7131 72.6793 42.7132 73.6767C42.7131 74.7327 43.2411 75.2607 44.2972 75.2607H47.4653L45.8813 77.9888C45.7052 78.3408 45.6172 78.6635 45.6173 78.9569C45.6172 79.3676 45.7639 79.7196 46.0573 80.0129C46.4092 80.3063 46.7906 80.4529 47.2013 80.4529C47.788 80.4529 48.2573 80.1596 48.6094 79.5729L50.1934 76.9328L51.7775 79.5729C52.0708 80.1596 52.4815 80.4529 53.0096 80.4529ZM48.3454 71.9166C48.8733 71.4473 49.46 71.2126 50.1054 71.2126C50.8094 71.2126 51.4254 71.4473 51.9535 71.9166C52.4815 72.386 52.7455 72.9726 52.7455 73.6767C52.7455 74.4394 52.4815 75.0554 51.9535 75.5247C51.4841 76.0528 50.8681 76.3168 50.1054 76.3168C49.4014 76.3168 48.8147 76.0528 48.3454 75.5247C47.876 74.9967 47.6413 74.3807 47.6413 73.6767C47.6413 72.9726 47.876 72.386 48.3454 71.9166ZM50.1934 75.4367C50.6627 75.4367 51.0441 75.2607 51.3375 74.9087C51.6894 74.5567 51.8654 74.146 51.8655 73.6767C51.8654 73.2073 51.6894 72.826 51.3375 72.5326C51.0441 72.1806 50.6334 72.0046 50.1054 72.0046C49.636 72.0046 49.2254 72.1806 48.8734 72.5326C48.58 72.826 48.4333 73.2073 48.4334 73.6767C48.4333 74.2047 48.6093 74.6154 48.9614 74.9087C49.3134 75.2607 49.724 75.4367 50.1934 75.4367ZM50.9855 73.6767C50.9854 74.2634 50.7214 74.5567 50.1934 74.5567C49.6067 74.5567 49.3134 74.2634 49.3134 73.6767C49.3134 73.1487 49.6067 72.8846 50.1934 72.8846C50.7214 72.8846 50.9854 73.1487 50.9855 73.6767Z" fill="#9C0000"></path>
</g>
<rect x="0.25" y="0.25" width="74.2" height="94.6" rx="7.75" stroke="#003500" stroke-width="0.5"></rect>
<defs>
<clipPath id="clip0_1_897">
<rect width="74.7" height="95.1" rx="8" fill="white"></rect>
</clipPath>
</defs>
</svg>