<svg width="75" height="96" viewBox="0 0 75 96" fill="none" xmlns="http://www.w3.org/2000/svg">
<g clip-path="url(#clip0_1_906)">
<rect width="74.7" height="95.1" rx="8" fill="white"></rect>
<path d="M67.8394 32.3286C67.8394 35.1059 66.8828 37.4511 64.9696 39.3643C63.0564 41.2158 60.742 42.1415 58.0266 42.1415C55.2493 42.1415 52.9041 41.1849 50.991 39.2717C49.1394 37.3585 48.2137 35.0442 48.2137 32.3286C48.2137 29.6132 49.1703 27.2988 51.0835 25.3856C52.9967 23.4725 55.311 22.5159 58.0266 22.5158C60.8037 22.5159 63.1181 23.4725 64.9696 25.3856C66.8828 27.2988 67.8394 29.6132 67.8394 32.3286ZM67.0988 32.3286C67.0988 29.7983 66.2039 27.6691 64.4142 25.941C62.6861 24.1513 60.5569 23.2564 58.0266 23.2564C55.4962 23.2564 53.3361 24.1513 51.5464 25.941C49.8183 27.6691 48.9543 29.7983 48.9543 32.3286C48.9543 34.9208 49.8183 37.0808 51.5464 38.8088C53.3361 40.5369 55.4962 41.4009 58.0266 41.4009C60.6186 41.4009 62.7787 40.5369 64.5068 38.8088C66.2347 37.0191 67.0988 34.859 67.0988 32.3286ZM58.0266 24.2747C60.31 24.2748 62.2232 25.0771 63.7662 26.6816C65.309 28.2863 66.0805 30.1686 66.0805 32.3286C66.0805 34.6122 65.2781 36.5254 63.6736 38.0682C62.1306 39.6112 60.2483 40.3826 58.0266 40.3826C55.743 40.3826 53.8298 39.6112 52.287 38.0682C50.7441 36.4637 49.9726 34.5505 49.9727 32.3286C49.9726 30.0452 50.7441 28.132 52.287 26.5891C53.8916 25.0462 55.8048 24.2748 58.0266 24.2747ZM52.8424 37.6054C54.2619 38.9632 55.9899 39.642 58.0266 39.642C60.0632 39.642 61.7912 38.9632 63.2107 37.6054C64.6301 36.1859 65.3399 34.427 65.3399 32.3286C65.3399 30.2921 64.6301 28.564 63.2107 27.1445C61.7912 25.7251 60.0632 25.0154 58.0266 25.0153C55.9282 25.0154 54.1693 25.7251 52.7499 27.1445C51.3921 28.564 50.7132 30.2921 50.7132 32.3286C50.7132 34.427 51.4229 36.1859 52.8424 37.6054ZM62.8404 30.3846C63.4575 30.3846 63.9513 30.5698 64.3216 30.94C64.7536 31.3104 64.9696 31.8041 64.9696 32.4212C64.9696 32.9767 64.7844 33.4396 64.4142 33.8098C64.0438 34.1802 63.5192 34.3653 62.8404 34.3653H61.5444C62.1615 35.4762 62.4701 36.2168 62.4701 36.5871C62.4701 37.1425 62.2541 37.6363 61.8221 38.0682C61.4518 38.4386 60.9889 38.6237 60.4335 38.6237C60.2483 38.6237 60.0632 38.6237 59.8781 38.6237C59.7546 38.562 59.6003 38.5003 59.4152 38.4385C59.2917 38.3151 59.1683 38.2226 59.0449 38.1608C58.9831 38.0374 58.8906 37.8831 58.7672 37.6979C58.6437 37.5128 58.5511 37.3894 58.4895 37.3276C58.4277 37.2043 58.3351 37.05 58.2117 36.8648C58.15 36.6179 58.0882 36.4637 58.0266 36.4019C57.4094 37.4511 56.9465 38.0683 56.638 38.2534C56.3911 38.5003 56.0516 38.6237 55.6197 38.6237C55.0642 38.6237 54.5704 38.4386 54.1385 38.0682C53.7064 37.6363 53.4904 37.1734 53.4905 36.6796C53.4904 36.3094 53.8298 35.5379 54.5088 34.3653H53.2127C52.5955 34.3653 52.0709 34.1802 51.639 33.8098C51.2686 33.3779 51.0835 32.8841 51.0835 32.3286C51.0835 31.7115 51.2686 31.2487 51.639 30.94C52.0092 30.5698 52.5338 30.3846 53.2127 30.3846H54.5088C53.8916 29.212 53.583 28.4406 53.583 28.0702C53.583 27.5148 53.7681 27.052 54.1385 26.6816C54.5704 26.2497 55.0642 26.0337 55.6197 26.0336C55.8665 26.0337 56.0825 26.0954 56.2677 26.2188C56.4528 26.2805 56.5762 26.3422 56.638 26.4039C56.7614 26.4657 56.8848 26.62 57.0083 26.8668C57.1934 27.052 57.3168 27.1754 57.3786 27.2371C57.4402 27.2988 57.5328 27.484 57.6563 27.7925C57.8414 28.1011 57.9648 28.2863 58.0266 28.348C58.6437 27.2371 59.1066 26.5891 59.4152 26.4039C59.662 26.2188 60.0014 26.1262 60.4335 26.1262C60.9889 26.1262 61.4826 26.3114 61.9147 26.6816C62.3466 27.052 62.5627 27.5148 62.5627 28.0702C62.5627 28.3789 62.2232 29.1503 61.5444 30.3846H62.8404ZM60.4335 37.8831C60.8037 37.8831 61.1123 37.7597 61.3592 37.5128C61.6061 37.266 61.7295 36.9574 61.7295 36.5871C61.7295 36.3402 61.6678 36.1242 61.5444 35.939L60.2484 33.6247H62.8404C63.7661 33.6247 64.229 33.1927 64.229 32.3286C64.229 31.4647 63.7661 31.0327 62.8404 31.0326H60.2484L61.5444 28.8108C61.7295 28.564 61.8221 28.2863 61.8221 27.9777C61.8221 27.6691 61.6678 27.3914 61.3592 27.1445C61.1123 26.8977 60.8037 26.7743 60.4335 26.7742C60.0014 26.7743 59.6311 26.9903 59.3226 27.4222L58.0266 29.7366L56.7305 27.4222C56.4219 26.9903 56.0516 26.7743 55.6197 26.7742C55.2493 26.7743 54.9099 26.8977 54.6014 27.1445C54.3544 27.3914 54.231 27.7 54.2311 28.0702C54.231 28.3172 54.3236 28.564 54.5088 28.8108L55.8048 31.0326H53.2127C52.2869 31.0327 51.8241 31.4647 51.8241 32.3286C51.8241 33.1927 52.2869 33.6247 53.2127 33.6247H55.8048L54.5088 35.939C54.3236 36.1859 54.231 36.4328 54.2311 36.6796C54.231 36.9882 54.3544 37.266 54.6014 37.5128C54.9099 37.7597 55.2493 37.8831 55.6197 37.8831C56.0516 37.8831 56.4219 37.6671 56.7305 37.2351L58.0266 34.9207L59.3226 37.2351C59.6311 37.6671 60.0014 37.8831 60.4335 37.8831ZM56.4528 30.8475C56.8848 30.4155 57.3785 30.1995 57.934 30.1994C58.5511 30.1995 59.0757 30.4155 59.5078 30.8475C59.9397 31.2178 60.1557 31.7115 60.1558 32.3286C60.1557 32.9459 59.9397 33.4704 59.5078 33.9024C59.1374 34.2727 58.6437 34.4579 58.0266 34.4579C57.4094 34.4579 56.8848 34.2419 56.4528 33.8098C56.0825 33.3779 55.8973 32.8841 55.8974 32.3286C55.8973 31.7115 56.0825 31.2178 56.4528 30.8475ZM58.0266 33.7173C58.3968 33.7173 58.7054 33.5939 58.9523 33.347C59.2608 33.0384 59.4151 32.699 59.4152 32.3286C59.4151 31.9584 59.2608 31.6498 58.9523 31.4029C58.7054 31.0944 58.366 30.9401 57.934 30.94C57.5637 30.9401 57.2551 31.0944 57.0083 31.4029C56.7614 31.6498 56.6379 31.9584 56.638 32.3286C56.6379 32.7607 56.7614 33.1001 57.0083 33.347C57.3168 33.5939 57.6562 33.7173 58.0266 33.7173ZM58.7672 32.3286C58.7671 32.8224 58.5203 33.0693 58.0266 33.0692C57.5328 33.0693 57.2859 32.8224 57.286 32.3286C57.2859 31.8967 57.5328 31.6807 58.0266 31.6806C58.5203 31.6807 58.7671 31.8967 58.7672 32.3286ZM46.7326 25.5707C46.7325 28.348 45.7759 30.6932 43.8628 32.6064C41.9495 34.4579 39.6352 35.3836 36.9197 35.3836C34.1425 35.3836 31.7973 34.427 29.8841 32.5138C28.0326 30.6006 27.1068 28.2863 27.1069 25.5707C27.1068 22.8553 28.0634 20.5409 29.9767 18.6277C31.8898 16.7146 34.2042 15.758 36.9197 15.7579C39.6969 15.758 42.0112 16.7146 43.8628 18.6277C45.7759 20.5409 46.7325 22.8553 46.7326 25.5707ZM45.992 25.5707C45.9919 23.0404 45.097 20.9112 43.3073 19.1831C41.5792 17.3934 39.45 16.4986 36.9197 16.4985C34.3893 16.4986 32.2293 17.3934 30.4395 19.1831C28.7115 20.9112 27.8474 23.0404 27.8475 25.5707C27.8474 28.1629 28.7115 30.3229 30.4395 32.0509C32.2293 33.779 34.3893 34.643 36.9197 34.643C39.5117 34.643 41.6718 33.779 43.3999 32.0509C45.1279 30.2612 45.9919 28.1011 45.992 25.5707ZM36.9197 17.5168C39.2032 17.5169 41.1164 18.3192 42.6593 19.9237C44.2022 21.5284 44.9736 23.4107 44.9737 25.5707C44.9736 27.8543 44.1713 29.7675 42.5667 31.3103C41.0238 32.8533 39.1414 33.6247 36.9197 33.6247C34.6362 33.6247 32.723 32.8533 31.1801 31.3103C29.6372 29.7058 28.8657 27.7926 28.8658 25.5707C28.8657 23.2873 29.6372 21.3741 31.1801 19.8312C32.7847 18.2883 34.6979 17.5169 36.9197 17.5168ZM31.7356 30.8475C33.155 32.2053 34.883 32.8841 36.9197 32.8841C38.9563 32.8841 40.6844 32.2053 42.1039 30.8475C43.5233 29.428 44.233 27.6691 44.2331 25.5707C44.233 23.5342 43.5233 21.8061 42.1039 20.3866C40.6844 18.9672 38.9563 18.2575 36.9197 18.2574C34.8213 18.2575 33.0624 18.9672 31.643 20.3866C30.2852 21.8061 29.6063 23.5342 29.6064 25.5707C29.6063 27.6691 30.3161 29.428 31.7356 30.8475ZM41.7336 23.6267C42.3507 23.6267 42.8444 23.8119 43.2147 24.1821C43.6467 24.5525 43.8627 25.0462 43.8628 25.6633C43.8627 26.2188 43.6776 26.6817 43.3073 27.0519C42.937 27.4223 42.4124 27.6074 41.7336 27.6074H40.4375C41.0546 28.7183 41.3632 29.4589 41.3633 29.8292C41.3632 30.3846 41.1472 30.8784 40.7153 31.3103C40.3449 31.6807 39.882 31.8658 39.3266 31.8658C39.1415 31.8658 38.9563 31.8658 38.7712 31.8658C38.6477 31.8041 38.4934 31.7424 38.3083 31.6806C38.1849 31.5572 38.0614 31.4647 37.938 31.4029C37.8763 31.2795 37.7837 31.1252 37.6603 30.94C37.5368 30.7549 37.4443 30.6315 37.3826 30.5697C37.3208 30.4464 37.2283 30.2921 37.1049 30.1069C37.0431 29.8601 36.9814 29.7058 36.9197 29.644C36.3025 30.6932 35.8396 31.3104 35.5311 31.4955C35.2842 31.7424 34.9448 31.8658 34.5128 31.8658C33.9573 31.8658 33.4636 31.6807 33.0316 31.3103C32.5996 30.8784 32.3836 30.4155 32.3836 29.9217C32.3836 29.5515 32.723 28.78 33.4019 27.6074H32.1059C31.4887 27.6074 30.9641 27.4223 30.5321 27.0519C30.1618 26.62 29.9766 26.1262 29.9767 25.5707C29.9766 24.9536 30.1618 24.4908 30.5321 24.1821C30.9024 23.8119 31.427 23.6267 32.1059 23.6267H33.4019C32.7847 22.4541 32.4761 21.6827 32.4762 21.3123C32.4761 20.757 32.6613 20.2941 33.0316 19.9237C33.4636 19.4918 33.9573 19.2758 34.5128 19.2757C34.7596 19.2758 34.9756 19.3375 35.1608 19.4609C35.3459 19.5226 35.4694 19.5843 35.5311 19.646C35.6545 19.7078 35.7779 19.8621 35.9014 20.1089C36.0865 20.2941 36.2099 20.4175 36.2717 20.4792C36.3334 20.5409 36.426 20.7261 36.5494 21.0346C36.7345 21.3433 36.858 21.5284 36.9197 21.5901C37.5368 20.4792 37.9997 19.8312 38.3083 19.646C38.5551 19.4609 38.8946 19.3683 39.3266 19.3683C39.882 19.3683 40.3758 19.5535 40.8078 19.9237C41.2398 20.2941 41.4558 20.757 41.4558 21.3123C41.4558 21.621 41.1164 22.3924 40.4375 23.6267H41.7336ZM39.3266 31.1252C39.6969 31.1252 40.0055 31.0018 40.2524 30.7549C40.4992 30.5081 40.6226 30.1995 40.6227 29.8292C40.6226 29.5823 40.5609 29.3663 40.4375 29.1811L39.1415 26.8668H41.7336C42.6593 26.8668 43.1221 26.4348 43.1222 25.5707C43.1221 24.7068 42.6593 24.2748 41.7336 24.2747H39.1415L40.4375 22.0529C40.6226 21.8061 40.7152 21.5284 40.7153 21.2198C40.7152 20.9112 40.5609 20.6335 40.2524 20.3866C40.0055 20.1398 39.6969 20.0164 39.3266 20.0163C38.8946 20.0164 38.5243 20.2324 38.2157 20.6643L36.9197 22.9787L35.6237 20.6643C35.3151 20.2324 34.9448 20.0164 34.5128 20.0163C34.1425 20.0164 33.803 20.1398 33.4945 20.3866C33.2476 20.6335 33.1241 20.9421 33.1242 21.3123C33.1241 21.5593 33.2167 21.8061 33.4019 22.0529L34.6979 24.2747H32.1059C31.1801 24.2748 30.7172 24.7068 30.7173 25.5707C30.7172 26.4348 31.1801 26.8668 32.1059 26.8668H34.6979L33.4019 29.1811C33.2167 29.428 33.1241 29.6749 33.1242 29.9217C33.1241 30.2303 33.2476 30.5081 33.4945 30.7549C33.803 31.0018 34.1425 31.1252 34.5128 31.1252C34.9448 31.1252 35.3151 30.9092 35.6237 30.4772L36.9197 28.1628L38.2157 30.4772C38.5243 30.9092 38.8946 31.1252 39.3266 31.1252ZM35.346 24.0896C35.7779 23.6576 36.2717 23.4416 36.8271 23.4415C37.4443 23.4416 37.9689 23.6576 38.4009 24.0896C38.8329 24.4599 39.0489 24.9536 39.0489 25.5707C39.0489 26.188 38.8329 26.7125 38.4009 27.1445C38.0306 27.5148 37.5368 27.7 36.9197 27.6999C36.3025 27.7 35.7779 27.484 35.346 27.0519C34.9756 26.62 34.7905 26.1262 34.7905 25.5707C34.7905 24.9536 34.9756 24.4599 35.346 24.0896ZM36.9197 26.9594C37.29 26.9594 37.5986 26.836 37.8455 26.5891C38.154 26.2805 38.3083 25.9411 38.3083 25.5707C38.3083 25.2005 38.154 24.8919 37.8455 24.645C37.5986 24.3365 37.2591 24.1822 36.8271 24.1821C36.4568 24.1822 36.1482 24.3365 35.9014 24.645C35.6545 24.8919 35.5311 25.2005 35.5311 25.5707C35.5311 26.0028 35.6545 26.3422 35.9014 26.5891C36.2099 26.836 36.5494 26.9594 36.9197 26.9594ZM37.6603 25.5707C37.6603 26.0645 37.4134 26.3114 36.9197 26.3113C36.4259 26.3114 36.1791 26.0645 36.1791 25.5707C36.1791 25.1388 36.4259 24.9228 36.9197 24.9227C37.4134 24.9228 37.6603 25.1388 37.6603 25.5707ZM25.6257 18.8128C25.6257 21.5901 24.6691 23.9353 22.7559 25.8485C20.8427 27.7 18.5283 28.6257 15.8128 28.6257C13.0356 28.6257 10.6904 27.6691 8.77722 25.7559C6.92573 23.8427 5.99999 21.5284 6 18.8128C5.99999 16.0974 6.95659 13.7831 8.8698 11.8698C10.783 9.95666 13.0973 9.00007 15.8128 9C18.59 9.00007 20.9044 9.95666 22.7559 11.8698C24.6691 13.7831 25.6257 16.0974 25.6257 18.8128ZM24.8851 18.8128C24.8851 16.2825 23.9902 14.1533 22.2004 12.4252C20.4724 10.6355 18.3432 9.74066 15.8128 9.74059C13.2825 9.74066 11.1224 10.6355 9.33267 12.4252C7.60461 14.1533 6.74058 16.2825 6.74059 18.8128C6.74058 21.405 7.60461 23.565 9.33267 25.293C11.1224 27.0211 13.2825 27.8851 15.8128 27.8851C18.4049 27.8851 20.565 27.0211 22.293 25.293C24.021 23.5033 24.8851 21.3433 24.8851 18.8128ZM15.8128 10.7589C18.0963 10.759 20.0095 11.5613 21.5524 13.1658C23.0953 14.7705 23.8668 16.6528 23.8668 18.8128C23.8668 21.0964 23.0645 23.0096 21.4599 24.5524C19.9169 26.0954 18.0346 26.8668 15.8128 26.8668C13.5293 26.8668 11.6161 26.0954 10.0733 24.5524C8.53035 22.9479 7.7589 21.0347 7.75891 18.8128C7.7589 16.5294 8.53035 14.6162 10.0733 13.0733C11.6779 11.5304 13.5911 10.759 15.8128 10.7589ZM10.6287 24.0896C12.0482 25.4474 13.7762 26.1262 15.8128 26.1262C17.8495 26.1262 19.5775 25.4474 20.997 24.0896C22.4164 22.6701 23.1262 20.9112 23.1262 18.8128C23.1262 16.7763 22.4164 15.0482 20.997 13.6287C19.5775 12.2093 17.8495 11.4996 15.8128 11.4995C13.7145 11.4996 11.9556 12.2093 10.5361 13.6287C9.17837 15.0482 8.49949 16.7763 8.4995 18.8128C8.49949 20.9112 9.20922 22.6701 10.6287 24.0896ZM20.6267 16.8688C21.2438 16.8688 21.7376 17.054 22.1079 17.4242C22.5399 17.7946 22.7559 18.2883 22.7559 18.9054C22.7559 19.4609 22.5707 19.9238 22.2004 20.294C21.8301 20.6644 21.3055 20.8495 20.6267 20.8495H19.3307C19.9478 21.9604 20.2564 22.701 20.2564 23.0712C20.2564 23.6267 20.0404 24.1205 19.6084 24.5524C19.2381 24.9228 18.7752 25.1079 18.2198 25.1079C18.0346 25.1079 17.8495 25.1079 17.6643 25.1079C17.5409 25.0462 17.3866 24.9845 17.2015 24.9227C17.078 24.7993 16.9546 24.7068 16.8312 24.645C16.7694 24.5216 16.6769 24.3673 16.5534 24.1821C16.43 23.997 16.3374 23.8736 16.2757 23.8118C16.214 23.6885 16.1214 23.5342 15.998 23.349C15.9363 23.1022 15.8745 22.9479 15.8128 22.8861C15.1957 23.9353 14.7328 24.5525 14.4242 24.7376C14.1774 24.9845 13.8379 25.1079 13.4059 25.1079C12.8505 25.1079 12.3567 24.9228 11.9247 24.5524C11.4927 24.1205 11.2767 23.6576 11.2767 23.1638C11.2767 22.7936 11.6161 22.0221 12.295 20.8495H10.999C10.3818 20.8495 9.85724 20.6644 9.42524 20.294C9.05493 19.8621 8.86979 19.3683 8.8698 18.8128C8.86979 18.1957 9.05493 17.7329 9.42524 17.4242C9.79553 17.054 10.3201 16.8688 10.999 16.8688H12.295C11.6779 15.6962 11.3693 14.9248 11.3693 14.5544C11.3693 13.9991 11.5544 13.5362 11.9247 13.1658C12.3567 12.7339 12.8505 12.5179 13.4059 12.5178C13.6528 12.5179 13.8688 12.5796 14.0539 12.703C14.2391 12.7647 14.3625 12.8265 14.4242 12.8881C14.5477 12.9499 14.6711 13.1042 14.7945 13.351C14.9797 13.5362 15.1031 13.6596 15.1648 13.7213C15.2265 13.7831 15.3191 13.9682 15.4425 14.2767C15.6277 14.5854 15.7511 14.7705 15.8128 14.8322C16.43 13.7213 16.8929 13.0733 17.2015 12.8881C17.4483 12.703 17.7877 12.6104 18.2198 12.6104C18.7752 12.6104 19.2689 12.7956 19.701 13.1658C20.1329 13.5362 20.3489 13.9991 20.349 14.5544C20.3489 14.8631 20.0095 15.6345 19.3307 16.8688H20.6267ZM18.2198 24.3673C18.59 24.3673 18.8986 24.2439 19.1455 23.997C19.3924 23.7502 19.5158 23.4416 19.5158 23.0712C19.5158 22.8244 19.4541 22.6084 19.3307 22.4232L18.0346 20.1089H20.6267C21.5524 20.1089 22.0153 19.6769 22.0153 18.8128C22.0153 17.9489 21.5524 17.5169 20.6267 17.5168H18.0346L19.3307 15.295C19.5158 15.0482 19.6084 14.7705 19.6084 14.4619C19.6084 14.1533 19.4541 13.8756 19.1455 13.6287C18.8986 13.3819 18.59 13.2585 18.2198 13.2584C17.7877 13.2585 17.4174 13.4745 17.1089 13.9064L15.8128 16.2208L14.5168 13.9064C14.2082 13.4745 13.8379 13.2585 13.4059 13.2584C13.0356 13.2585 12.6962 13.3819 12.3876 13.6287C12.1407 13.8756 12.0173 14.1842 12.0173 14.5544C12.0173 14.8014 12.1099 15.0482 12.295 15.295L13.5911 17.5168H10.999C10.0732 17.5169 9.61038 17.9489 9.61039 18.8128C9.61038 19.6769 10.0732 20.1089 10.999 20.1089H13.5911L12.295 22.4232C12.1099 22.6701 12.0173 22.917 12.0173 23.1638C12.0173 23.4725 12.1407 23.7502 12.3876 23.997C12.6962 24.2439 13.0356 24.3673 13.4059 24.3673C13.8379 24.3673 14.2082 24.1513 14.5168 23.7193L15.8128 21.4049L17.1089 23.7193C17.4174 24.1513 17.7877 24.3673 18.2198 24.3673ZM14.2391 17.3317C14.6711 16.8997 15.1648 16.6837 15.7203 16.6836C16.3374 16.6837 16.862 16.8997 17.294 17.3317C17.726 17.702 17.942 18.1957 17.942 18.8128C17.942 19.4301 17.726 19.9546 17.294 20.3866C16.9237 20.757 16.43 20.9421 15.8128 20.942C15.1957 20.9421 14.6711 20.7261 14.2391 20.294C13.8688 19.8621 13.6836 19.3683 13.6836 18.8128C13.6836 18.1957 13.8688 17.702 14.2391 17.3317ZM15.8128 20.2015C16.1831 20.2015 16.4917 20.0781 16.7386 19.8312C17.0471 19.5226 17.2014 19.1832 17.2015 18.8128C17.2014 18.4426 17.0471 18.134 16.7386 17.8871C16.4917 17.5786 16.1523 17.4243 15.7203 17.4242C15.35 17.4243 15.0414 17.5786 14.7945 17.8871C14.5477 18.134 14.4242 18.4426 14.4242 18.8128C14.4242 19.2449 14.5477 19.5843 14.7945 19.8312C15.1031 20.0781 15.4425 20.2015 15.8128 20.2015ZM16.5534 18.8128C16.5534 19.3066 16.3066 19.5535 15.8128 19.5534C15.3191 19.5535 15.0722 19.3066 15.0723 18.8128C15.0722 18.3809 15.3191 18.1649 15.8128 18.1648C16.3066 18.1649 16.5534 18.3809 16.5534 18.8128Z" fill="#006C00"></path>
<path d="M33.2445 78.0055C33.2444 80.7828 32.2878 83.0971 30.3747 84.9486C28.4614 86.8618 26.1471 87.8184 23.4316 87.8184C20.6544 87.8184 18.3092 86.8618 16.396 84.9486C14.5445 83.0354 13.6188 80.721 13.6188 78.0055C13.6188 75.29 14.5754 72.9757 16.4886 71.0625C18.4018 69.1493 20.7161 68.1927 23.4316 68.1927C26.2088 68.1927 28.5232 69.1493 30.3747 71.0625C32.2878 72.9757 33.2444 75.29 33.2445 78.0055ZM32.5039 78.0055C32.5038 75.4752 31.609 73.346 29.8192 71.6179C28.0911 69.8282 25.9619 68.9333 23.4316 68.9333C20.9012 68.9333 18.7412 69.8282 16.9514 71.6179C15.2234 73.346 14.3593 75.4752 14.3594 78.0055C14.3593 80.5976 15.2234 82.7577 16.9514 84.4857C18.7412 86.2138 20.9012 87.0778 23.4316 87.0778C26.0237 87.0778 28.1837 86.1829 29.9118 84.3932C31.6398 82.6651 32.5038 80.5359 32.5039 78.0055ZM23.4316 69.9516C25.7151 69.9516 27.6283 70.7539 29.1712 72.3585C30.7141 73.9632 31.4855 75.8455 31.4855 78.0055C31.4855 80.289 30.6832 82.2022 29.0786 83.7451C27.5357 85.288 25.6534 86.0595 23.4316 86.0595C21.1481 86.0595 19.2349 85.2572 17.692 83.6526C16.1491 82.1097 15.3777 80.2273 15.3777 78.0055C15.3777 75.7221 16.1491 73.8089 17.692 72.266C19.2966 70.7231 21.2098 69.9516 23.4316 69.9516ZM18.2475 83.1897C19.6669 84.6091 21.395 85.3189 23.4316 85.3189C25.4682 85.3189 27.1963 84.6091 28.6158 83.1897C30.0352 81.8319 30.7449 80.1039 30.745 78.0055C30.7449 75.9689 30.0352 74.2409 28.6158 72.8214C27.1963 71.4019 25.4682 70.6922 23.4316 70.6922C21.3333 70.6922 19.5743 71.4019 18.1549 72.8214C16.7971 74.2409 16.1183 75.9689 16.1183 78.0055C16.1183 80.1039 16.828 81.8319 18.2475 83.1897ZM28.2455 76.0615C28.8626 76.0615 29.3563 76.2466 29.7266 76.6169C30.1586 76.9872 30.3746 77.481 30.3747 78.0981C30.3746 78.6536 30.1895 79.1164 29.8192 79.4867C29.4489 79.857 28.9243 80.0422 28.2455 80.0422H26.9494C27.5666 81.1531 27.8751 81.8936 27.8752 82.2639C27.8751 82.8194 27.6592 83.2823 27.2272 83.6526C26.8568 84.0846 26.394 84.3006 25.8386 84.3006C25.6534 84.3006 25.4682 84.2697 25.2831 84.208C25.1596 84.208 25.0054 84.1463 24.8202 84.0229C24.6968 83.9611 24.5734 83.8686 24.4499 83.7451C24.3882 83.6834 24.2956 83.56 24.1722 83.3748C24.0487 83.1897 23.9562 83.0354 23.8945 82.912C23.8327 82.8502 23.7402 82.696 23.6168 82.4491C23.555 82.2639 23.4933 82.1405 23.4316 82.0788C22.8144 83.128 22.3516 83.7451 22.043 83.9303C21.7961 84.1771 21.4567 84.3006 21.0247 84.3006C20.4692 84.3006 19.9755 84.0846 19.5435 83.6526C19.1115 83.2823 18.8955 82.8502 18.8955 82.3565C18.8955 81.9862 19.2349 81.2148 19.9138 80.0422H18.6178C18.0006 80.0422 17.476 79.8262 17.044 79.3942C16.6737 79.0239 16.4886 78.561 16.4886 78.0055C16.4886 77.3884 16.6737 76.8947 17.044 76.5244C17.4143 76.2158 17.9389 76.0615 18.6178 76.0615H19.9138C19.2966 74.8889 18.988 74.1174 18.9881 73.7471C18.988 73.1917 19.1732 72.7288 19.5435 72.3585C19.9755 71.9265 20.4692 71.7105 21.0247 71.7105C21.2715 71.7105 21.4876 71.7722 21.6727 71.8957C21.8579 71.9574 21.9813 72.0191 22.043 72.0808C22.1664 72.1425 22.2898 72.2968 22.4133 72.5437C22.5984 72.7288 22.7219 72.8523 22.7836 72.914C22.8452 72.9757 22.9379 73.1608 23.0613 73.4694C23.2465 73.778 23.3699 73.9631 23.4316 74.0249C24.0488 72.914 24.5116 72.266 24.8202 72.0808C25.0671 71.8957 25.4065 71.8031 25.8386 71.8031C26.394 71.8031 26.8877 71.9882 27.3197 72.3585C27.7517 72.7288 27.9677 73.1917 27.9677 73.7471C27.9677 74.0557 27.6283 74.8272 26.9494 76.0615H28.2455ZM25.8386 83.56C26.2088 83.56 26.5174 83.4365 26.7643 83.1897C27.0111 82.9428 27.1346 82.6342 27.1346 82.2639C27.1346 82.0171 27.0728 81.8011 26.9494 81.6159L25.6534 79.3016H28.2455C29.1712 79.3016 29.634 78.8696 29.6341 78.0055C29.634 77.1415 29.1712 76.7095 28.2455 76.7095H25.6534L26.9494 74.4877C27.1345 74.2409 27.2271 73.9631 27.2272 73.6546C27.2271 73.346 27.0728 73.0683 26.7643 72.8214C26.5174 72.5745 26.2088 72.4511 25.8386 72.4511C25.4065 72.4511 25.0362 72.6671 24.7277 73.0991L23.4316 75.4135L22.1356 73.0991C21.827 72.6671 21.4567 72.4511 21.0247 72.4511C20.6544 72.4511 20.3149 72.5745 20.0064 72.8214C19.7595 73.0683 19.6361 73.3768 19.6361 73.7471C19.6361 73.994 19.7286 74.2409 19.9138 74.4877L21.2099 76.7095H18.6178C17.692 76.7095 17.2291 77.1415 17.2292 78.0055C17.2291 78.8696 17.692 79.3016 18.6178 79.3016H21.2099L19.9138 81.6159C19.7286 81.8628 19.6361 82.1097 19.6361 82.3565C19.6361 82.6651 19.7595 82.9428 20.0064 83.1897C20.3149 83.4365 20.6544 83.56 21.0247 83.56C21.4567 83.56 21.827 83.344 22.1356 82.912L23.4316 80.5976L24.7277 82.912C25.0362 83.344 25.4065 83.56 25.8386 83.56ZM21.8579 76.4318C22.2898 76.0615 22.7836 75.8763 23.339 75.8763C23.9562 75.8763 24.4808 76.0615 24.9128 76.4318C25.3448 76.8638 25.5608 77.3884 25.5608 78.0055C25.5608 78.6227 25.3448 79.1164 24.9128 79.4867C24.5425 79.9187 24.0488 80.1347 23.4316 80.1347C22.8144 80.1347 22.2898 79.9187 21.8579 79.4867C21.4875 79.0547 21.3024 78.561 21.3024 78.0055C21.3024 77.3884 21.4875 76.8638 21.8579 76.4318ZM23.4316 79.3942C23.8019 79.3942 24.1105 79.2399 24.3574 78.9313C24.6659 78.6844 24.8202 78.3758 24.8202 78.0055C24.8202 77.6352 24.6659 77.2958 24.3574 76.9872C24.1105 76.7404 23.771 76.6169 23.339 76.6169C22.9687 76.6169 22.6601 76.7404 22.4133 76.9872C22.1664 77.2958 22.043 77.6352 22.043 78.0055C22.043 78.4376 22.1664 78.777 22.4133 79.0239C22.7219 79.2707 23.0613 79.3942 23.4316 79.3942ZM24.1722 78.0055C24.1722 78.4993 23.9253 78.7461 23.4316 78.7461C22.9379 78.7461 22.691 78.4993 22.691 78.0055C22.691 77.5735 22.9379 77.3575 23.4316 77.3575C23.9253 77.3575 24.1722 77.5735 24.1722 78.0055ZM60.3686 55.5101C60.3686 58.2873 59.412 60.6325 57.4988 62.5457C55.5856 64.3972 53.2712 65.3229 50.5558 65.3229C47.7785 65.3229 45.4333 64.3663 43.5202 62.4531C41.6686 60.5399 40.7429 58.2256 40.7429 55.5101C40.7429 52.7946 41.6995 50.4802 43.6127 48.567C45.5259 46.6538 47.8402 45.6972 50.5558 45.6972C53.333 45.6972 55.6473 46.6538 57.4988 48.567C59.412 50.4802 60.3686 52.7946 60.3686 55.5101ZM59.6281 55.5101C59.628 52.9797 58.7331 50.8505 56.9434 49.1225C55.2153 47.3327 53.0861 46.4378 50.5558 46.4378C48.0254 46.4378 45.8653 47.3327 44.0756 49.1225C42.3475 50.8505 41.4835 52.9797 41.4836 55.5101C41.4835 58.1022 42.3475 60.2622 44.0756 61.9902C45.8653 63.7183 48.0254 64.5823 50.5558 64.5823C53.1478 64.5823 55.3079 63.7183 57.036 61.9902C58.764 60.2005 59.628 58.0404 59.6281 55.5101ZM50.5558 47.4561C52.8392 47.4562 54.7524 48.2585 56.2954 49.863C57.8382 51.4677 58.6097 53.35 58.6097 55.5101C58.6097 57.7936 57.8074 59.7068 56.2028 61.2497C54.6599 62.7926 52.7775 63.564 50.5558 63.564C48.2723 63.564 46.3591 62.7926 44.8162 61.2497C43.2733 59.6451 42.5018 57.7319 42.5019 55.5101C42.5018 53.2266 43.2733 51.3134 44.8162 49.7705C46.4208 48.2276 48.334 47.4562 50.5558 47.4561ZM45.3716 60.7868C46.7911 62.1445 48.5191 62.8234 50.5558 62.8234C52.5924 62.8234 54.3204 62.1445 55.7399 60.7868C57.1594 59.3673 57.8691 57.6084 57.8691 55.5101C57.8691 53.4735 57.1594 51.7454 55.7399 50.3259C54.3204 48.9065 52.5924 48.1967 50.5558 48.1967C48.4574 48.1967 46.6985 48.9065 45.2791 50.3259C43.9213 51.7454 43.2424 53.4735 43.2425 55.5101C43.2424 57.6084 43.9521 59.3673 45.3716 60.7868ZM55.3697 53.566C55.9868 53.566 56.4805 53.7512 56.8508 54.1215C57.2828 54.4918 57.4988 54.9855 57.4988 55.6026C57.4988 56.1581 57.3136 56.621 56.9434 56.9912C56.573 57.3616 56.0485 57.5467 55.3697 57.5467H54.0736C54.6907 58.6576 54.9993 59.3982 54.9994 59.7685C54.9993 60.3239 54.7833 60.8177 54.3513 61.2497C53.981 61.62 53.5181 61.8051 52.9627 61.8051C52.7775 61.8051 52.5924 61.8051 52.4073 61.8051C52.2838 61.7434 52.1295 61.6817 51.9444 61.6199C51.8209 61.4965 51.6975 61.404 51.5741 61.3422C51.5124 61.2188 51.4198 61.0645 51.2964 60.8794C51.1729 60.6942 51.0803 60.5708 51.0187 60.5091C50.9569 60.3856 50.8643 60.2314 50.741 60.0462C50.6792 59.7993 50.6175 59.6451 50.5558 59.5833C49.9386 60.6325 49.4757 61.2497 49.1672 61.4348C48.9203 61.6817 48.5808 61.8051 48.1489 61.8051C47.5934 61.8051 47.0997 61.62 46.6677 61.2497C46.2356 60.8177 46.0196 60.3548 46.0197 59.861C46.0196 59.4908 46.3591 58.7193 47.038 57.5467H45.742C45.1248 57.5467 44.6002 57.3616 44.1682 56.9912C43.7979 56.5593 43.6127 56.0655 43.6127 55.5101C43.6127 54.8929 43.7979 54.4301 44.1682 54.1215C44.5384 53.7512 45.063 53.566 45.742 53.566H47.038C46.4208 52.3934 46.1122 51.622 46.1123 51.2517C46.1122 50.6962 46.2974 50.2334 46.6677 49.863C47.0997 49.4311 47.5934 49.2151 48.1489 49.215C48.3957 49.2151 48.6117 49.2768 48.7969 49.4002C48.982 49.4619 49.1054 49.5236 49.1672 49.5853C49.2906 49.6471 49.414 49.8014 49.5375 50.0482C49.7226 50.2334 49.846 50.3568 49.9078 50.4185C49.9694 50.4802 50.062 50.6654 50.1855 50.9739C50.3706 51.2825 50.494 51.4677 50.5558 51.5294C51.1729 50.4185 51.6358 49.7705 51.9444 49.5853C52.1912 49.4002 52.5307 49.3076 52.9627 49.3076C53.5181 49.3076 54.0118 49.4928 54.4439 49.863C54.8759 50.2334 55.0919 50.6962 55.0919 51.2517C55.0919 51.5603 54.7524 52.3317 54.0736 53.566H55.3697ZM52.9627 61.0645C53.333 61.0645 53.6415 60.9411 53.8885 60.6942C54.1353 60.4474 54.2587 60.1388 54.2588 59.7685C54.2587 59.5216 54.197 59.3056 54.0736 59.1205L52.7776 56.8061H55.3697C56.2953 56.8061 56.7582 56.3741 56.7583 55.5101C56.7582 54.6461 56.2953 54.214 55.3697 54.214H52.7776L54.0736 51.9923C54.2587 51.7454 54.3513 51.4677 54.3513 51.1591C54.3513 50.8505 54.197 50.5728 53.8885 50.3259C53.6415 50.0791 53.333 49.9557 52.9627 49.9556C52.5307 49.9557 52.1604 50.1717 51.8518 50.6036L50.5558 52.918L49.2598 50.6036C48.9511 50.1717 48.5808 49.9557 48.1489 49.9556C47.7785 49.9557 47.4391 50.0791 47.1306 50.3259C46.8837 50.5728 46.7602 50.8814 46.7603 51.2517C46.7602 51.4985 46.8528 51.7454 47.038 51.9923L48.334 54.214H45.742C44.8162 54.214 44.3533 54.6461 44.3534 55.5101C44.3533 56.3741 44.8162 56.8061 45.742 56.8061H48.334L47.038 59.1205C46.8528 59.3673 46.7602 59.6142 46.7603 59.861C46.7602 60.1696 46.8837 60.4474 47.1306 60.6942C47.4391 60.9411 47.7785 61.0645 48.1489 61.0645C48.5808 61.0645 48.9511 60.8485 49.2598 60.4165L50.5558 58.1021L51.8518 60.4165C52.1604 60.8485 52.5307 61.0645 52.9627 61.0645ZM48.9821 54.0289C49.414 53.5969 49.9077 53.3809 50.4632 53.3809C51.0803 53.3809 51.6049 53.5969 52.037 54.0289C52.4689 54.3992 52.685 54.8929 52.685 55.5101C52.685 56.1272 52.4689 56.6518 52.037 57.0838C51.6666 57.4541 51.1729 57.6393 50.5558 57.6393C49.9386 57.6393 49.414 57.4233 48.9821 56.9912C48.6117 56.5593 48.4266 56.0655 48.4266 55.5101C48.4266 54.8929 48.6117 54.3992 48.9821 54.0289ZM50.5558 56.8987C50.926 56.8987 51.2346 56.7753 51.4815 56.5284C51.7901 56.2198 51.9443 55.8804 51.9444 55.5101C51.9443 55.1398 51.7901 54.8312 51.4815 54.5843C51.2346 54.2758 50.8952 54.1215 50.4632 54.1215C50.0929 54.1215 49.7843 54.2758 49.5375 54.5843C49.2906 54.8312 49.1671 55.1398 49.1672 55.5101C49.1671 55.9421 49.2906 56.2815 49.5375 56.5284C49.846 56.7753 50.1855 56.8987 50.5558 56.8987ZM51.2964 55.5101C51.2963 56.0038 51.0495 56.2507 50.5558 56.2507C50.062 56.2507 49.8152 56.0038 49.8152 55.5101C49.8152 55.0781 50.062 54.8621 50.5558 54.862C51.0495 54.8621 51.2963 55.0781 51.2964 55.5101ZM60.3686 78.0055C60.3686 80.7828 59.412 83.0971 57.4988 84.9486C55.5856 86.8618 53.2712 87.8184 50.5558 87.8184C47.7785 87.8184 45.4333 86.8618 43.5202 84.9486C41.6686 83.0354 40.7429 80.721 40.7429 78.0055C40.7429 75.29 41.6995 72.9757 43.6127 71.0625C45.5259 69.1493 47.8402 68.1927 50.5558 68.1927C53.333 68.1927 55.6473 69.1493 57.4988 71.0625C59.412 72.9757 60.3686 75.29 60.3686 78.0055ZM59.6281 78.0055C59.628 75.4752 58.7331 73.346 56.9434 71.6179C55.2153 69.8282 53.0861 68.9333 50.5558 68.9333C48.0254 68.9333 45.8653 69.8282 44.0756 71.6179C42.3475 73.346 41.4835 75.4752 41.4836 78.0055C41.4835 80.5976 42.3475 82.7577 44.0756 84.4857C45.8653 86.2138 48.0254 87.0778 50.5558 87.0778C53.1478 87.0778 55.3079 86.1829 57.036 84.3932C58.764 82.6651 59.628 80.5359 59.6281 78.0055ZM50.5558 69.9516C52.8392 69.9516 54.7524 70.7539 56.2954 72.3585C57.8382 73.9632 58.6097 75.8455 58.6097 78.0055C58.6097 80.289 57.8074 82.2022 56.2028 83.7451C54.6599 85.288 52.7775 86.0595 50.5558 86.0595C48.2723 86.0595 46.3591 85.2572 44.8162 83.6526C43.2733 82.1097 42.5018 80.2273 42.5019 78.0055C42.5018 75.7221 43.2733 73.8089 44.8162 72.266C46.4208 70.7231 48.334 69.9516 50.5558 69.9516ZM45.3716 83.1897C46.7911 84.6091 48.5191 85.3189 50.5558 85.3189C52.5924 85.3189 54.3204 84.6091 55.7399 83.1897C57.1594 81.8319 57.8691 80.1039 57.8691 78.0055C57.8691 75.9689 57.1594 74.2409 55.7399 72.8214C54.3204 71.4019 52.5924 70.6922 50.5558 70.6922C48.4574 70.6922 46.6985 71.4019 45.2791 72.8214C43.9213 74.2409 43.2424 75.9689 43.2425 78.0055C43.2424 80.1039 43.9521 81.8319 45.3716 83.1897ZM55.3697 76.0615C55.9868 76.0615 56.4805 76.2466 56.8508 76.6169C57.2828 76.9872 57.4988 77.481 57.4988 78.0981C57.4988 78.6536 57.3136 79.1164 56.9434 79.4867C56.573 79.857 56.0485 80.0422 55.3697 80.0422H54.0736C54.6907 81.1531 54.9993 81.8936 54.9994 82.2639C54.9993 82.8194 54.7833 83.2823 54.3513 83.6526C53.981 84.0846 53.5181 84.3006 52.9627 84.3006C52.7775 84.3006 52.5924 84.2697 52.4073 84.208C52.2838 84.208 52.1295 84.1463 51.9444 84.0229C51.8209 83.9611 51.6975 83.8686 51.5741 83.7451C51.5124 83.6834 51.4198 83.56 51.2964 83.3748C51.1729 83.1897 51.0803 83.0354 51.0187 82.912C50.9569 82.8502 50.8643 82.696 50.741 82.4491C50.6792 82.2639 50.6175 82.1405 50.5558 82.0788C49.9386 83.128 49.4757 83.7451 49.1672 83.9303C48.9203 84.1771 48.5808 84.3006 48.1489 84.3006C47.5934 84.3006 47.0997 84.0846 46.6677 83.6526C46.2356 83.2823 46.0196 82.8502 46.0197 82.3565C46.0196 81.9862 46.3591 81.2148 47.038 80.0422H45.742C45.1248 80.0422 44.6002 79.8262 44.1682 79.3942C43.7979 79.0239 43.6127 78.561 43.6127 78.0055C43.6127 77.3884 43.7979 76.8947 44.1682 76.5244C44.5384 76.2158 45.063 76.0615 45.742 76.0615H47.038C46.4208 74.8889 46.1122 74.1174 46.1123 73.7471C46.1122 73.1917 46.2974 72.7288 46.6677 72.3585C47.0997 71.9265 47.5934 71.7105 48.1489 71.7105C48.3957 71.7105 48.6117 71.7722 48.7969 71.8957C48.982 71.9574 49.1054 72.0191 49.1672 72.0808C49.2906 72.1425 49.414 72.2968 49.5375 72.5437C49.7226 72.7288 49.846 72.8523 49.9078 72.914C49.9694 72.9757 50.062 73.1608 50.1855 73.4694C50.3706 73.778 50.494 73.9631 50.5558 74.0249C51.1729 72.914 51.6358 72.266 51.9444 72.0808C52.1912 71.8957 52.5307 71.8031 52.9627 71.8031C53.5181 71.8031 54.0118 71.9882 54.4439 72.3585C54.8759 72.7288 55.0919 73.1917 55.0919 73.7471C55.0919 74.0557 54.7524 74.8272 54.0736 76.0615H55.3697ZM52.9627 83.56C53.333 83.56 53.6415 83.4365 53.8885 83.1897C54.1353 82.9428 54.2587 82.6342 54.2588 82.2639C54.2587 82.0171 54.197 81.8011 54.0736 81.6159L52.7776 79.3016H55.3697C56.2953 79.3016 56.7582 78.8696 56.7583 78.0055C56.7582 77.1415 56.2953 76.7095 55.3697 76.7095H52.7776L54.0736 74.4877C54.2587 74.2409 54.3513 73.9631 54.3513 73.6546C54.3513 73.346 54.197 73.0683 53.8885 72.8214C53.6415 72.5745 53.333 72.4511 52.9627 72.4511C52.5307 72.4511 52.1604 72.6671 51.8518 73.0991L50.5558 75.4135L49.2598 73.0991C48.9511 72.6671 48.5808 72.4511 48.1489 72.4511C47.7785 72.4511 47.4391 72.5745 47.1306 72.8214C46.8837 73.0683 46.7602 73.3768 46.7603 73.7471C46.7602 73.994 46.8528 74.2409 47.038 74.4877L48.334 76.7095H45.742C44.8162 76.7095 44.3533 77.1415 44.3534 78.0055C44.3533 78.8696 44.8162 79.3016 45.742 79.3016H48.334L47.038 81.6159C46.8528 81.8628 46.7602 82.1097 46.7603 82.3565C46.7602 82.6651 46.8837 82.9428 47.1306 83.1897C47.4391 83.4365 47.7785 83.56 48.1489 83.56C48.5808 83.56 48.9511 83.344 49.2598 82.912L50.5558 80.5976L51.8518 82.912C52.1604 83.344 52.5307 83.56 52.9627 83.56ZM48.9821 76.4318C49.414 76.0615 49.9077 75.8763 50.4632 75.8763C51.0803 75.8763 51.6049 76.0615 52.037 76.4318C52.4689 76.8638 52.685 77.3884 52.685 78.0055C52.685 78.6227 52.4689 79.1164 52.037 79.4867C51.6666 79.9187 51.1729 80.1347 50.5558 80.1347C49.9386 80.1347 49.414 79.9187 48.9821 79.4867C48.6117 79.0547 48.4266 78.561 48.4266 78.0055C48.4266 77.3884 48.6117 76.8638 48.9821 76.4318ZM50.5558 79.3942C50.926 79.3942 51.2346 79.2399 51.4815 78.9313C51.7901 78.6844 51.9443 78.3758 51.9444 78.0055C51.9443 77.6352 51.7901 77.2958 51.4815 76.9872C51.2346 76.7404 50.8952 76.6169 50.4632 76.6169C50.0929 76.6169 49.7843 76.7404 49.5375 76.9872C49.2906 77.2958 49.1671 77.6352 49.1672 78.0055C49.1671 78.4376 49.2906 78.777 49.5375 79.0239C49.846 79.2707 50.1855 79.3942 50.5558 79.3942ZM51.2964 78.0055C51.2963 78.4993 51.0495 78.7461 50.5558 78.7461C50.062 78.7461 49.8152 78.4993 49.8152 78.0055C49.8152 77.5735 50.062 77.3575 50.5558 77.3575C51.0495 77.3575 51.2963 77.5735 51.2964 78.0055ZM33.337 55.5101C33.337 58.2873 32.3804 60.6325 30.4673 62.5457C28.554 64.3972 26.2397 65.3229 23.5242 65.3229C20.747 65.3229 18.4018 64.3663 16.4886 62.4531C14.6371 60.5399 13.7113 58.2256 13.7114 55.5101C13.7113 52.7946 14.6679 50.4802 16.5812 48.567C18.4943 46.6538 20.8087 45.6972 23.5242 45.6972C26.3014 45.6972 28.6157 46.6538 30.4673 48.567C32.3804 50.4802 33.337 52.7946 33.337 55.5101ZM32.5964 55.5101C32.5964 52.9797 31.7015 50.8505 29.9118 49.1225C28.1837 47.3327 26.0545 46.4378 23.5242 46.4378C20.9938 46.4378 18.8338 47.3327 17.044 49.1225C15.316 50.8505 14.4519 52.9797 14.4519 55.5101C14.4519 58.1022 15.316 60.2622 17.044 61.9902C18.8338 63.7183 20.9938 64.5823 23.5242 64.5823C26.1162 64.5823 28.2763 63.7183 30.0044 61.9902C31.7324 60.2005 32.5964 58.0404 32.5964 55.5101ZM23.5242 47.4561C25.8077 47.4562 27.7208 48.2585 29.2638 49.863C30.8066 51.4677 31.5781 53.35 31.5781 55.5101C31.5781 57.7936 30.7758 59.7068 29.1712 61.2497C27.6283 62.7926 25.746 63.564 23.5242 63.564C21.2407 63.564 19.3275 62.7926 17.7846 61.2497C16.2417 59.6451 15.4702 57.7319 15.4703 55.5101C15.4702 53.2266 16.2417 51.3134 17.7846 49.7705C19.3892 48.2276 21.3024 47.4562 23.5242 47.4561ZM18.3401 60.7868C19.7595 62.1445 21.4876 62.8234 23.5242 62.8234C25.5608 62.8234 27.2888 62.1445 28.7083 60.7868C30.1278 59.3673 30.8375 57.6084 30.8375 55.5101C30.8375 53.4735 30.1278 51.7454 28.7083 50.3259C27.2888 48.9065 25.5608 48.1967 23.5242 48.1967C21.4258 48.1967 19.6669 48.9065 18.2475 50.3259C16.8897 51.7454 16.2108 53.4735 16.2108 55.5101C16.2108 57.6084 16.9206 59.3673 18.3401 60.7868ZM28.338 53.566C28.9552 53.566 29.4489 53.7512 29.8192 54.1215C30.2512 54.4918 30.4672 54.9855 30.4673 55.6026C30.4672 56.1581 30.2821 56.621 29.9118 56.9912C29.5415 57.3616 29.0169 57.5467 28.338 57.5467H27.042C27.6591 58.6576 27.9677 59.3982 27.9677 59.7685C27.9677 60.3239 27.7517 60.8177 27.3197 61.2497C26.9494 61.62 26.4865 61.8051 25.9311 61.8051C25.7459 61.8051 25.5608 61.8051 25.3757 61.8051C25.2522 61.7434 25.0979 61.6817 24.9128 61.6199C24.7894 61.4965 24.6659 61.404 24.5425 61.3422C24.4807 61.2188 24.3882 61.0645 24.2648 60.8794C24.1413 60.6942 24.0488 60.5708 23.9871 60.5091C23.9253 60.3856 23.8327 60.2314 23.7093 60.0462C23.6476 59.7993 23.5859 59.6451 23.5242 59.5833C22.907 60.6325 22.4442 61.2497 22.1356 61.4348C21.8887 61.6817 21.5493 61.8051 21.1173 61.8051C20.5618 61.8051 20.0681 61.62 19.6361 61.2497C19.2041 60.8177 18.988 60.3548 18.9881 59.861C18.988 59.4908 19.3275 58.7193 20.0064 57.5467H18.7103C18.0932 57.5467 17.5686 57.3616 17.1366 56.9912C16.7663 56.5593 16.5811 56.0655 16.5812 55.5101C16.5811 54.8929 16.7663 54.4301 17.1366 54.1215C17.5069 53.7512 18.0315 53.566 18.7103 53.566H20.0064C19.3892 52.3934 19.0806 51.622 19.0806 51.2517C19.0806 50.6962 19.2658 50.2334 19.6361 49.863C20.0681 49.4311 20.5618 49.2151 21.1173 49.215C21.3641 49.2151 21.5801 49.2768 21.7653 49.4002C21.9504 49.4619 22.0739 49.5236 22.1356 49.5853C22.259 49.6471 22.3824 49.8014 22.5059 50.0482C22.691 50.2334 22.8144 50.3568 22.8762 50.4185C22.9378 50.4802 23.0304 50.6654 23.1539 50.9739C23.339 51.2825 23.4625 51.4677 23.5242 51.5294C24.1413 50.4185 24.6042 49.7705 24.9128 49.5853C25.1597 49.4002 25.4991 49.3076 25.9311 49.3076C26.4865 49.3076 26.9803 49.4928 27.4123 49.863C27.8443 50.2334 28.0603 50.6962 28.0603 51.2517C28.0603 51.5603 27.7208 52.3317 27.042 53.566H28.338ZM25.9311 61.0645C26.3014 61.0645 26.6099 60.9411 26.8568 60.6942C27.1037 60.4474 27.2271 60.1388 27.2272 59.7685C27.2271 59.5216 27.1654 59.3056 27.042 59.1205L25.746 56.8061H28.338C29.2637 56.8061 29.7266 56.3741 29.7266 55.5101C29.7266 54.6461 29.2637 54.214 28.338 54.214H25.746L27.042 51.9923C27.2271 51.7454 27.3197 51.4677 27.3197 51.1591C27.3197 50.8505 27.1654 50.5728 26.8568 50.3259C26.6099 50.0791 26.3014 49.9557 25.9311 49.9556C25.4991 49.9557 25.1288 50.1717 24.8202 50.6036L23.5242 52.918L22.2281 50.6036C21.9195 50.1717 21.5493 49.9557 21.1173 49.9556C20.747 49.9557 20.4075 50.0791 20.099 50.3259C19.8521 50.5728 19.7286 50.8814 19.7287 51.2517C19.7286 51.4985 19.8212 51.7454 20.0064 51.9923L21.3024 54.214H18.7103C17.7846 54.214 17.3217 54.6461 17.3217 55.5101C17.3217 56.3741 17.7846 56.8061 18.7103 56.8061H21.3024L20.0064 59.1205C19.8212 59.3673 19.7286 59.6142 19.7287 59.861C19.7286 60.1696 19.8521 60.4474 20.099 60.6942C20.4075 60.9411 20.747 61.0645 21.1173 61.0645C21.5493 61.0645 21.9195 60.8485 22.2281 60.4165L23.5242 58.1021L24.8202 60.4165C25.1288 60.8485 25.4991 61.0645 25.9311 61.0645ZM21.9504 54.0289C22.3824 53.5969 22.8762 53.3809 23.4316 53.3809C24.0488 53.3809 24.5733 53.5969 25.0054 54.0289C25.4374 54.3992 25.6534 54.8929 25.6534 55.5101C25.6534 56.1272 25.4374 56.6518 25.0054 57.0838C24.635 57.4541 24.1413 57.6393 23.5242 57.6393C22.907 57.6393 22.3824 57.4233 21.9504 56.9912C21.5801 56.5593 21.395 56.0655 21.395 55.5101C21.395 54.8929 21.5801 54.3992 21.9504 54.0289ZM23.5242 56.8987C23.8945 56.8987 24.2031 56.7753 24.4499 56.5284C24.7585 56.2198 24.9128 55.8804 24.9128 55.5101C24.9128 55.1398 24.7585 54.8312 24.4499 54.5843C24.2031 54.2758 23.8636 54.1215 23.4316 54.1215C23.0613 54.1215 22.7527 54.2758 22.5059 54.5843C22.259 54.8312 22.1356 55.1398 22.1356 55.5101C22.1356 55.9421 22.259 56.2815 22.5059 56.5284C22.8144 56.7753 23.1539 56.8987 23.5242 56.8987ZM24.2648 55.5101C24.2648 56.0038 24.0179 56.2507 23.5242 56.2507C23.0305 56.2507 22.7836 56.0038 22.7836 55.5101C22.7836 55.0781 23.0305 54.8621 23.5242 54.862C24.0179 54.8621 24.2648 55.0781 24.2648 55.5101Z" fill="#9C0000"></path>
<path d="M74.7 87.9C74.6999 92.7 72.4333 95.1 67.9 95.1H6.8C2.26666 95.1 -2e-06 92.7 0 87.9V7.2C-2e-06 2.40007 2.26666 7.6e-05 6.8 0H67.9C72.4333 7.6e-05 74.6999 2.40007 74.7 7.2V87.9ZM73 87.9V7.2C72.9999 3.53341 71.2999 1.70007 67.9 1.7H6.8C3.4 1.70007 1.7 3.53341 1.7 7.2V87.9C1.7 91.6333 3.4 93.5 6.8 93.5H67.9C71.2999 93.5 72.9999 91.6333 73 87.9Z" fill="white"></path>
</g>
<rect x="0.25" y="0.25" width="74.2" height="94.6" rx="7.75" stroke="#003500" stroke-width="0.5"></rect>
<defs>
<clipPath id="clip0_1_906">
<rect width="74.7" height="95.1" rx="8" fill="white"></rect>
</clipPath>
</defs>
</svg>