<svg width="75" height="96" viewBox="0 0 75 96" fill="none" xmlns="http://www.w3.org/2000/svg">
<rect x="0.25" y="0.25" width="74.2" height="94.6" rx="7.75" fill="white"></rect>
<rect x="0.25" y="0.25" width="74.2" height="94.6" rx="7.75" stroke="#003500" stroke-width="0.5"></rect>
<path d="M42.8852 51.6546C42.5921 50.8928 42.3578 50.4533 42.182 50.3361C42.0062 50.2189 41.5667 50.1604 40.8635 50.1604C40.5119 50.1604 38.8418 50.3948 35.8534 50.8635L35.5897 51.1272C36.5858 52.0648 37.6113 52.9438 38.6661 53.7641C39.7208 54.5845 40.6877 55.317 41.5667 55.9616C42.5042 56.5476 43.5004 57.1336 44.5552 57.7195C45.6099 58.2469 46.4889 58.7157 47.1921 59.1259C47.9539 59.4775 48.8622 59.8584 49.917 60.2686C51.0303 60.6202 51.8214 60.9132 52.2902 61.1476C52.8176 61.3234 53.6086 61.5284 54.6634 61.7628C55.7182 61.9972 56.392 62.173 56.6851 62.2902C56.978 62.3488 57.6226 62.4953 58.6188 62.7297C59.6735 62.9055 60.2302 62.9934 60.2889 62.9934C60.6404 63.052 60.9627 63.345 61.2558 63.8724C57.1538 64.9271 54.2532 65.4545 52.5539 65.4545C52.4367 65.4545 52.2609 65.4545 52.0265 65.4545C51.8507 65.4545 51.7042 65.4545 51.587 65.4545C50.8838 65.4545 50.0927 65.2787 49.2138 64.9271C48.3348 64.517 46.7526 63.3743 44.4673 61.4991C42.1819 59.5654 39.3106 56.8406 35.8534 53.3247C35.6775 53.5005 35.5896 53.6177 35.5897 53.6763V62.7297C35.5896 63.0227 35.6482 63.7259 35.7655 64.8392C35.8826 65.894 35.9412 66.5679 35.9413 66.8609C35.9412 68.7947 35.4138 70.7577 34.3591 72.75C32.6597 71.6366 31.81 70.3475 31.8101 68.8825C31.81 68.7653 31.8393 68.5602 31.898 68.2672C32.0151 67.9157 32.1616 67.2711 32.3375 66.3335C32.5718 65.3959 32.8062 64.224 33.0406 62.8176L32.9528 55.1705C32.3081 55.6979 31.3413 56.489 30.0521 57.5437C28.7629 58.5399 27.7375 59.331 26.9757 59.917C26.2139 60.503 25.2763 61.2354 24.163 62.1144C23.0496 62.9348 22.112 63.6087 21.3503 64.136C20.6471 64.6048 19.856 65.1029 18.977 65.6303C18.1566 66.0991 17.4242 66.4507 16.7796 66.6851C16.1936 66.9195 15.6955 67.0367 15.2853 67.0367H13C13.9376 66.3921 15.1974 65.5131 16.7796 64.3997C18.4203 63.2864 19.563 62.5246 20.2076 62.1144C20.8522 61.6456 21.7311 61.001 22.8445 60.1807C24.0165 59.3603 24.8368 58.7743 25.3057 58.4227C25.7744 58.0125 26.3897 57.4852 27.1515 56.8406C27.9719 56.1374 28.5871 55.5514 28.9974 55.0826C29.4075 54.6138 29.847 54.0865 30.3158 53.5005C30.7846 52.8559 31.2241 52.2113 31.6343 51.5667C31.5171 51.4495 31.2241 51.3909 30.7553 51.3909C29.5833 51.3909 28.675 51.5081 28.0305 51.7425C27.3859 51.9183 27.005 52.0941 26.8878 52.2699C26.8292 52.4457 26.7413 52.7387 26.6241 53.1489C25.9209 53.1489 25.2763 52.5043 24.6904 51.2151C24.163 49.926 23.4598 48.2266 22.5808 46.117C21.7018 43.9489 20.6764 42.191 19.5044 40.8432V39.4369H21.8777L23.1082 40.0521C23.1668 40.1108 23.4891 40.1401 24.0751 40.14C25.247 40.1401 28.3235 39.4076 33.3043 37.9426V34.5146C32.9527 34.5146 32.1031 34.6318 30.7553 34.8662C29.4075 35.042 28.5578 35.1299 28.2063 35.1299C27.3859 35.1299 26.2139 34.749 24.6904 33.9872L33.3043 32.3171V28.8012L31.5464 23C33.4801 23.4688 35.2966 24.2306 36.996 25.2853L35.9413 30.1197C35.9412 30.4713 36.1463 30.7643 36.5565 30.9987L42.3578 29.7681C43.2953 29.8268 44.3501 30.2076 45.5221 30.9108C43.9985 31.7312 41.0979 32.6981 36.8202 33.8114C36.3514 33.9286 35.9412 34.2509 35.5897 34.7783V37.4152C35.6482 37.5325 35.8533 37.591 36.205 37.591C36.4393 37.591 37.9043 37.3273 40.5998 36.7999C43.3539 36.214 44.8482 35.921 45.0826 35.921C45.5514 35.921 46.5475 36.2726 48.0711 36.9757C49.6532 37.6203 50.4443 38.3235 50.4444 39.0852C50.4443 39.3783 50.2392 39.8764 49.8291 40.5795C49.4188 41.2827 48.95 42.0445 48.4227 42.8648C47.8953 43.6266 47.573 44.1247 47.4559 44.3591L44.3794 51.6546H42.8852ZM35.5897 42.4253C36.2928 42.6012 36.8788 42.6891 37.3476 42.6891C37.6406 42.6891 37.9043 42.6598 38.1387 42.6011C38.4317 42.484 38.6075 42.4254 38.6661 42.4253C40.424 42.4254 41.4202 42.8356 41.6546 43.6559C40.7756 44.1247 38.754 44.7693 35.5897 45.5897V48.1387C35.8826 48.4903 36.5565 48.6661 37.6113 48.6661L42.8852 48.1387C43.8813 44.2126 44.3794 41.8394 44.3794 41.019C44.3794 39.9643 44.2329 39.3197 43.94 39.0852H38.5782C38.168 39.0853 37.1718 39.349 35.5897 39.8763V42.4253ZM33.2164 43.5681V40.3158H31.9859L24.0751 41.8101L26.7999 50.1604L31.6343 49.3693C32.0445 49.4865 32.5425 49.6916 33.1285 49.9846V46.3807C33.1285 46.205 33.0406 46.1171 32.8649 46.117C31.2827 46.2929 30.3451 46.3808 30.0521 46.3807C29.9935 46.3808 29.8763 46.3808 29.7005 46.3807C29.5833 46.3808 29.5247 46.3808 29.5247 46.3807C28.8801 46.3808 28.4113 46.3222 28.1184 46.205C27.8254 46.0292 27.4738 45.6776 27.0636 45.1502L33.2164 43.5681Z" fill="#006C00"></path>
</svg>