<svg width="75" height="96" viewBox="0 0 75 96" fill="none" xmlns="http://www.w3.org/2000/svg">
<rect x="0.25" y="0.25" width="74.2" height="94.6" rx="7.75" fill="white"></rect>
<rect x="0.25" y="0.25" width="74.2" height="94.6" rx="7.75" stroke="#003500" stroke-width="0.5"></rect>
<path d="M43.0501 35.3794C44.2777 34.7098 45.4217 33.6775 46.482 32.2823C47.598 30.8873 48.2677 29.6596 48.4909 28.5993C49.8302 29.269 51.1137 29.9944 52.3414 30.7756C52.1739 31.1105 51.9507 31.4174 51.6717 31.6964C51.3927 31.9755 51.1137 32.2266 50.8347 32.4497C50.5556 32.673 50.1371 32.9799 49.5791 33.3705C49.021 33.7054 48.5467 33.9844 48.1561 34.2076C47.8213 34.375 47.2353 34.7098 46.3983 35.212C45.5612 35.6585 44.8916 36.0212 44.3894 36.3002C48.3514 41.2109 54.1549 44.6986 61.8001 46.7633L58.6193 47.5167C56.4987 48.0189 55.0757 48.27 54.3503 48.27C53.1784 48.27 52.3692 48.1026 51.9229 47.7678C50.7509 46.8191 47.8492 43.8337 43.2175 38.8113L38.7812 33.789C36.9954 31.836 35.4608 30.3572 34.1774 29.3527C34.6796 29.0179 35.126 28.8505 35.5167 28.8504C36.7443 28.8505 37.7209 29.4364 38.4463 30.6082C40.1204 29.548 40.9575 27.6786 40.9575 25C43.4128 25 44.9195 25.5023 45.4776 26.5067L39.6182 31.529C40.7342 32.9241 41.8782 34.2076 43.0501 35.3794ZM37.4419 41.9921C37.8325 42.2154 38.0836 42.327 38.1952 42.3269C38.3068 42.327 39.0043 42.048 40.2878 41.4899C41.5713 40.8761 42.2688 40.5692 42.3805 40.5691C42.6036 40.5692 43.6081 41.0714 45.3939 42.0758C44.1661 44.9218 43.5523 46.7633 43.5523 47.6004C43.5523 48.0468 43.7755 48.3816 44.222 48.6048C44.6684 48.7723 45.7844 48.9676 47.5702 49.1908C49.021 49.3582 49.7465 49.6093 49.7465 49.9441C49.7465 50.2231 49.2163 50.5859 48.1561 51.0323C47.0958 51.4229 46.2867 51.6182 45.7287 51.6182C43.1617 51.6182 41.8782 50.5022 41.8782 48.27C41.8782 48.0468 41.9061 47.5167 41.9619 46.6796C42.0177 45.8426 42.0457 45.3125 42.0457 45.0892C42.0456 44.0848 41.8782 43.3035 41.5434 42.7455C40.0925 43.0803 39.088 43.4988 38.53 44.001C38.4742 44.1685 38.3905 44.587 38.2789 45.2566C38.1673 45.9263 38.0836 46.3727 38.0278 46.5959C38.0278 46.7633 37.972 47.1261 37.8604 47.6841C37.7488 48.2421 37.6372 48.6327 37.5256 48.8559C37.4698 49.0234 37.3581 49.3582 37.1908 49.8604C37.0233 50.3068 36.8559 50.6417 36.6885 50.8649C36.5211 51.0323 36.2979 51.3113 36.0189 51.7019C35.7956 52.0367 35.5445 52.3158 35.2655 52.539C34.9865 52.7064 34.6517 52.9296 34.2611 53.2086C33.9262 53.4318 33.5356 53.6271 33.0892 53.7945C35.0423 51.1718 36.0189 48.4095 36.0189 45.5077C36.0189 44.2243 35.7956 42.9129 35.3492 41.5736H36.8559C36.9117 41.5736 37.107 41.7131 37.4419 41.9921ZM47.3191 56.1383C47.319 56.3057 47.0958 56.78 46.6494 57.5613C46.203 58.2867 45.6728 59.1238 45.059 60.0724C44.501 60.9653 44.1382 61.5791 43.9709 61.9139L47.7376 64.5925C49.3559 66.0434 50.165 67.299 50.165 68.3592L49.7465 70.0333C48.2956 69.3637 45.7286 67.4385 42.0457 64.2577C39.1438 66.8804 35.9631 68.1918 32.5033 68.1918H31.5825C33.0892 67.5222 34.7912 66.5735 36.6885 65.3458C38.6416 64.0624 39.6182 63.2532 39.6182 62.9184C39.6182 62.5836 38.8927 61.8581 37.4419 60.7421L34.2611 58.3983C35.6561 58.7889 37.8604 59.5423 40.8738 60.6583C41.3202 60.4909 41.7387 59.9608 42.1294 59.068C42.5758 58.1193 42.799 57.3939 42.799 56.8916C42.799 56.222 42.4083 55.8872 41.6271 55.8872C41.4597 55.8872 40.7621 56.0825 39.5345 56.4731C38.3068 56.8637 37.6372 57.059 37.5256 57.059C37.2465 57.059 36.8001 56.9195 36.1863 56.6405C35.5724 56.3615 35.1818 56.0825 35.0144 55.8035L43.8872 53.2923C46.1751 54.2968 47.319 55.2454 47.3191 56.1383ZM25.7232 43.164C25.8906 43.164 26.6997 42.9129 28.1506 42.4106C29.6573 41.8526 30.4943 41.5736 30.6618 41.5736C31.443 41.5736 32.4753 42.2154 33.7589 43.4988L30.1595 48.0189C30.3269 48.1305 30.8013 48.8281 31.5825 50.1115C29.1271 50.2789 27.3414 50.4743 26.2254 50.6974C25.1093 50.9207 24.5234 51.0881 24.4676 51.1997C24.4118 51.2555 24.2723 51.4787 24.0491 51.8693C23.9374 51.9809 23.6305 52.9575 23.1283 54.799C23.4073 54.799 24.0769 54.7432 25.1372 54.6316C26.1975 54.52 26.7555 54.4642 26.8113 54.4642C27.3693 54.4642 28.0948 54.7153 28.9877 55.2175C29.9363 55.664 30.4106 56.0825 30.4107 56.4731C30.4106 56.5847 30.2711 57.0311 29.9921 57.8124C29.7131 58.5936 29.5736 59.0401 29.5736 59.1517C29.3504 60.8258 28.6807 63.3927 27.5647 66.8525C26.895 68.4708 25.8906 69.5311 24.5513 70.0333C23.9932 69.4753 22.4587 67.6059 19.9475 64.4251L24.1328 65.4295C25.0256 65.4295 25.751 64.6762 26.3091 63.1695C26.9229 61.6628 27.2298 60.0445 27.2299 58.3146C27.2298 56.9195 26.5881 56.222 25.3046 56.222C24.3002 56.222 22.5145 57.1707 19.9475 59.068C19.3895 58.9006 19.1105 58.5378 19.1105 57.9798C19.1105 57.924 19.2779 57.6171 19.6127 57.059C20.0033 56.4452 20.4218 55.664 20.8683 54.7153C21.3705 53.7667 21.7332 52.9575 21.9564 52.2878C22.1238 51.8414 22.2075 50.5301 22.2076 48.3537C23.77 49.2466 24.9698 49.693 25.8069 49.693C26.5323 49.693 27.2577 49.3582 27.9832 48.6885C28.7086 48.0189 29.0713 47.3772 29.0714 46.7633V44.587L24.7187 43.4151C21.0357 47.6004 17.1294 50.5022 13 52.1204L23.212 41.5736C22.0401 40.4018 20.6171 38.7277 18.9431 36.5513H21.2031C21.6495 36.5513 22.1796 36.942 22.7935 37.7232L24.1328 39.3973C25.472 38.1696 26.7555 35.4911 27.9832 31.3616C27.76 31.25 27.5367 31.1942 27.3136 31.1942L23.7142 31.7801C23.3236 31.7801 22.4587 31.4732 21.1194 30.8594C26.1417 29.0179 28.7086 28.0971 28.8203 28.0971C29.0434 28.0971 30.3269 28.7668 32.6707 30.106L25.0535 42.8292C25.2767 43.0524 25.4999 43.164 25.7232 43.164Z" fill="#006C00"></path>
</svg>