<svg width="75" height="96" viewBox="0 0 75 96" fill="none" xmlns="http://www.w3.org/2000/svg">
<rect x="0.25" y="0.25" width="74.2" height="94.6" rx="7.75" fill="white"></rect>
<rect x="0.25" y="0.25" width="74.2" height="94.6" rx="7.75" stroke="#003500" stroke-width="0.5"></rect>
<path d="M27.6866 13.4369C27.8041 13.4958 27.9509 13.5251 28.1272 13.5251C28.4797 13.5251 29.0966 13.4664 29.9779 13.3488C30.8591 13.1726 31.3879 13.0845 31.5642 13.0844C32.3279 13.0845 33.0035 13.3489 33.5911 13.8776C33.6498 14.1126 33.6204 14.377 33.503 14.6707H27.3341L24.8665 17.4908C25.0428 17.0796 25.219 16.1983 25.3953 14.847C23.9852 15.0233 22.6046 15.1408 21.2533 15.1995C21.1358 15.552 20.9889 16.0514 20.8127 16.6976C20.2252 16.1689 19.8139 15.7283 19.5789 15.3757C19.3439 15.3758 18.5801 15.5227 17.2876 15.8164C16.0538 16.1102 15.3194 16.2571 15.0844 16.257C14.5557 16.2571 13.9388 15.9046 13.2338 15.1995C14.5851 15.082 16.612 14.7883 19.3145 14.3182L17.8164 11.7625H19.2264C19.8139 11.8801 20.1958 12.1151 20.372 12.4676C20.607 12.7614 20.7833 13.3195 20.9008 14.142C21.2533 14.3183 21.5177 14.4064 21.694 14.4063C21.9289 14.4064 23.2802 14.2595 25.7478 13.9657L26.0122 13.7013C26.0709 12.9376 26.1884 11.7038 26.3647 10H27.3341C27.5103 10.0001 27.7747 10.1763 28.1272 10.5288C28.5384 10.8226 28.7441 11.087 28.7441 11.3219C28.7441 11.4982 28.3916 12.2032 27.6866 13.4369ZM26.6291 22.1615C25.7478 22.6316 24.4259 23.2778 22.6634 24.1003C24.0146 22.0441 24.8077 21.0159 25.0428 21.0159C25.3365 21.0159 25.8653 21.3978 26.6291 22.1615ZM20.372 20.399C20.1958 20.399 19.8139 20.3109 19.2264 20.1346C18.6389 19.9584 18.3157 19.8703 18.257 19.8702C18.022 19.8703 16.8763 20.634 14.8201 22.1615C16.0538 20.5753 17.1701 18.9596 18.1689 17.3145C18.5801 17.4321 19.1089 17.6377 19.7552 17.9314C19.5789 18.3427 19.3145 18.7834 18.962 19.2533C19.0795 19.3121 19.4614 19.3415 20.1077 19.3414C20.2252 19.3415 21.6939 19.1065 24.514 18.6364C27.3928 18.1665 28.8616 17.9315 28.9204 17.9314C29.4491 17.9315 30.1247 18.1371 30.9473 18.5483C31.8285 18.9009 32.2691 19.3121 32.2692 19.7821C32.2691 19.8409 32.1516 20.1053 31.9167 20.5752C31.7404 20.9865 31.6523 21.2509 31.6523 21.3684V32.208C31.6523 32.6193 31.2998 33.4124 30.5948 34.5874C29.9485 35.7624 29.3316 36.35 28.7441 36.3499C28.4503 36.35 27.5103 35.2043 25.924 32.913C26.5703 33.0893 27.2165 33.1774 27.8628 33.1774C29.3903 33.1774 30.1541 30.563 30.1541 25.3341C30.1541 21.339 29.4491 19.3415 28.0391 19.3414L20.372 20.399ZM23.4565 27.8016C23.6915 27.8017 23.9852 27.8604 24.3378 27.9779C24.749 28.0954 25.1896 28.4186 25.6597 28.9473C26.1884 29.4173 26.4528 30.0342 26.4528 30.7979C26.2765 31.033 26.1003 31.1505 25.924 31.1504C25.2778 31.1505 23.9559 30.0342 21.9583 27.8016H23.4565ZM18.4333 24.8934C17.6695 24.8935 17.1113 24.7466 16.7589 24.4528C16.4063 24.1003 15.9951 23.4541 15.5251 22.514C17.4639 22.5141 18.4333 23.3072 18.4333 24.8934ZM21.7821 25.2459C22.0171 25.246 22.6633 25.1872 23.7209 25.0697L25.3072 24.8053C26.0709 24.8054 26.7759 24.9522 27.4222 25.2459C27.4222 25.5397 27.2459 25.8335 26.8934 26.1272L21.694 26.3916L21.4296 33.2655C21.4296 33.5593 21.1652 33.9412 20.6364 34.4111C20.0489 34.1174 19.7552 33.5887 19.7552 32.8249C19.7552 32.4136 19.8433 31.9143 20.0195 31.3267C20.1958 30.7392 20.2839 30.4161 20.2839 30.3573V27.6254C19.9314 27.9192 19.4027 28.3892 18.6976 29.0354C18.0514 29.623 17.5814 30.0342 17.2876 30.2692C17.0526 30.4455 16.6707 30.7392 16.142 31.1504C15.6719 31.503 15.2901 31.7674 14.9963 31.9436C14.7026 32.0611 14.35 32.1786 13.9388 32.2961C13.5863 32.4136 13.2044 32.4724 12.7931 32.4723C17.0232 29.2411 19.3733 27.3023 19.8433 26.656C19.3145 26.656 18.3451 26.7735 16.9351 27.0085C15.5838 27.2435 14.7026 27.361 14.2913 27.361C13.7038 27.361 12.94 27.0673 12 26.4797C14.7613 26.3623 17.5226 26.0391 20.2839 25.5103C20.2839 24.3353 20.0783 22.9253 19.667 21.2802C19.902 21.1628 20.1077 21.104 20.2839 21.104C20.6952 21.104 21.2239 21.3097 21.8702 21.7209L21.7821 25.2459Z" fill="#006C00"></path>
<path d="M53.0905 43.7718C54.148 43.7718 55.1174 44.2124 55.9987 45.0937C56.9387 45.975 57.4087 46.9737 57.4087 48.09C57.4087 49.0888 56.9387 49.9113 55.9987 50.5575L42.0747 59.7227L41.4578 59.1058L50.623 45.1818C51.2692 44.2418 52.0917 43.7718 53.0905 43.7718ZM46.5691 39.6298C47.6854 39.6299 48.6841 40.0117 49.5654 40.7755C50.5054 41.4805 50.9754 42.3324 50.9755 43.3311C50.9754 43.9187 50.7992 44.4768 50.4467 45.0056L41.1053 58.8415L40.3121 58.489L43.3966 42.0974C43.8078 40.4524 44.8653 39.6299 46.5691 39.6298ZM57.8494 50.205C58.8481 50.2051 59.7 50.6751 60.405 51.6151C61.1688 52.4964 61.5506 53.4951 61.5507 54.6114C61.5506 56.3152 60.7281 57.3727 59.0831 57.7839L42.6916 60.8684L42.339 60.0752L56.175 50.7338C56.7037 50.3813 57.2618 50.2051 57.8494 50.205ZM43.2203 41.3042C43.2203 41.5393 43.1909 41.7743 43.1322 42.0092L39.7834 58.4008H38.9902L35.5533 42.0092V41.3042C35.5532 39.248 36.8164 38.2198 39.3427 38.2198C41.9277 38.2198 43.2203 39.248 43.2203 41.3042ZM62.9607 61.8378C62.9607 64.3641 61.9325 65.6272 59.8763 65.6272H59.1713L42.7797 62.1903V61.3971L59.1713 58.0483C59.4062 57.9896 59.6412 57.9602 59.8763 57.9602C61.9325 57.9602 62.9607 59.2527 62.9607 61.8378ZM27.7981 43.3311C27.7981 42.3324 28.2387 41.4805 29.12 40.7755C30.06 40.0117 31.0882 39.6299 32.2045 39.6298C33.967 39.6299 35.0245 40.4524 35.377 42.0974L38.4615 58.489L37.6683 58.8415L28.3269 45.0056C27.9743 44.4768 27.7981 43.9187 27.7981 43.3311ZM61.5507 68.9761C61.5506 70.0923 61.1688 71.1205 60.405 72.0605C59.7 72.9418 58.8481 73.3824 57.8494 73.3824C57.2618 73.3824 56.7037 73.2061 56.175 72.8536L42.339 63.5122L42.6916 62.719L59.0831 65.8035C60.7281 66.156 61.5506 67.2135 61.5507 68.9761ZM42.2509 61.8378C42.2509 63.7178 41.2815 64.6578 39.3427 64.6578C37.4627 64.6578 36.5226 63.7178 36.5227 61.8378C36.5226 59.899 37.4627 58.9296 39.3427 58.9296C41.2815 58.9296 42.2509 59.899 42.2509 61.8378ZM21.3649 48.09C21.3648 47.0325 21.8055 46.0631 22.6868 45.1818C23.568 44.2418 24.5668 43.7718 25.6831 43.7718C26.6818 43.7718 27.5043 44.2418 28.1506 45.1818L37.3158 59.1058L36.6989 59.7227L22.6868 50.5575C21.8055 49.9113 21.3648 49.0888 21.3649 48.09ZM57.4087 75.4974C57.4087 76.555 56.968 77.5244 56.0868 78.4056C55.2055 79.3456 54.2067 79.8156 53.0905 79.8157C52.0917 79.8156 51.2692 79.3456 50.623 78.4056L41.4578 64.4816L42.0747 63.8647L55.9987 73.0299C56.9387 73.6762 57.4087 74.4987 57.4087 75.4974ZM50.9755 80.2563C50.9754 81.2551 50.5054 82.1069 49.5654 82.812C48.6841 83.5757 47.6854 83.9576 46.5691 83.9576C44.8066 83.9576 43.749 83.1351 43.3966 81.4901L40.3121 65.0985L41.1053 64.746L50.4467 78.5819C50.7992 79.1106 50.9754 79.6688 50.9755 80.2563ZM17.2229 54.6114C17.2229 53.4951 17.5754 52.4964 18.2804 51.6151C19.0442 50.6751 19.9254 50.2051 20.9242 50.205C21.5117 50.2051 22.0699 50.3813 22.5986 50.7338L36.4345 60.0752L36.082 60.8684L19.6904 57.7839C18.0454 57.4315 17.2229 56.3739 17.2229 54.6114ZM35.9939 62.1903L19.6023 65.6272H18.8973C16.841 65.6272 15.8129 64.3641 15.8129 61.8378C15.8129 59.2527 16.841 57.9602 18.8973 57.9602C19.0735 57.9602 19.3085 57.9896 19.6023 58.0483L35.9939 61.3971V62.1903ZM43.2203 82.2832C43.2203 84.3395 41.9277 85.3676 39.3427 85.3676C36.8164 85.3676 35.5532 84.3395 35.5533 82.2832V81.5782L38.9902 65.1866H39.7834L43.1322 81.5782C43.1909 81.8719 43.2203 82.1069 43.2203 82.2832ZM32.2045 83.9576C31.0882 83.9576 30.06 83.5757 29.12 82.812C28.2387 82.1069 27.7981 81.2551 27.7981 80.2563C27.7981 79.6688 27.9743 79.1106 28.3269 78.5819L37.6683 64.746L38.4615 65.0985L35.377 81.4901C35.0245 83.1351 33.967 83.9576 32.2045 83.9576ZM20.9242 73.3824C19.9254 73.3824 19.0442 72.9418 18.2804 72.0605C17.5754 71.1205 17.2229 70.0923 17.2229 68.9761C17.2229 67.2135 18.0454 66.156 19.6904 65.8035L36.082 62.719L36.4345 63.5122L22.5986 72.8536C22.0699 73.2061 21.5117 73.3824 20.9242 73.3824ZM25.6831 79.8157C24.6255 79.8156 23.6268 79.375 22.6868 78.4938C21.8055 77.6125 21.3648 76.6137 21.3649 75.4974C21.3648 74.4987 21.8055 73.6762 22.6868 73.0299L36.6989 63.8647L37.3158 64.4816L28.1506 78.4056C27.5043 79.3456 26.6818 79.8156 25.6831 79.8157ZM56.9681 48.09C56.968 47.15 56.5568 46.2687 55.7343 45.4462C54.9118 44.6237 54.0305 44.2124 53.0905 44.2124C52.268 44.2124 51.5923 44.6237 51.0636 45.4462L41.8103 59.3702L55.7343 50.1169C56.5568 49.5882 56.968 48.9125 56.9681 48.09ZM61.1101 54.6114C61.11 53.6126 60.7869 52.702 60.1407 51.8794C59.4943 51.057 58.7306 50.6457 57.8494 50.6457C57.4381 50.6457 56.968 50.7926 56.4393 51.0863L42.6034 60.4278L58.995 57.3433C60.405 57.0496 61.11 56.1389 61.1101 54.6114ZM50.5348 43.3311C50.5348 42.3912 50.1235 41.6274 49.3011 41.0398C48.4785 40.3936 47.5679 40.0705 46.5691 40.0705C45.0416 40.0705 44.1309 40.7755 43.8372 42.1855L40.7528 58.5771L50.0942 44.7412C50.3879 44.2124 50.5348 43.7424 50.5348 43.3311ZM42.8678 41.3042C42.8678 39.5417 41.6927 38.6605 39.3427 38.6604C37.0514 38.6605 35.9058 39.5417 35.9058 41.3042C35.9058 41.4805 35.9351 41.6861 35.9939 41.9211L39.3427 58.3127L42.7797 41.9211C42.8384 41.6861 42.8678 41.4805 42.8678 41.3042ZM62.5201 61.8378C62.52 59.4877 61.6388 58.3127 59.8763 58.3127C59.7 58.3127 59.4943 58.3421 59.2594 58.4008L42.8678 61.8378L59.2594 65.1866C59.4943 65.2454 59.7 65.2747 59.8763 65.2747C61.6388 65.2747 62.52 64.1291 62.5201 61.8378ZM32.2045 40.0705C31.2057 40.0705 30.295 40.3936 29.4725 41.0398C28.65 41.6861 28.2387 42.4499 28.2388 43.3311C28.2387 43.7424 28.3856 44.2124 28.6794 44.7412L38.0208 58.5771L34.9364 42.1855C34.6426 40.7755 33.732 40.0705 32.2045 40.0705ZM57.8494 72.9418C58.7893 72.9418 59.5531 72.5305 60.1407 71.708C60.7869 70.8855 61.11 69.9748 61.1101 68.9761C61.11 67.4485 60.405 66.5379 58.995 66.2441L42.6034 63.1597L56.4393 72.5011C56.968 72.7949 57.4381 72.9418 57.8494 72.9418ZM25.6831 44.2124C24.743 44.2124 23.8618 44.6237 23.0393 45.4462C22.2167 46.2687 21.8055 47.15 21.8055 48.09C21.8055 48.9125 22.1874 49.5882 22.9511 50.1169L36.9633 59.3702L27.71 45.4462C27.1812 44.6237 26.5056 44.2124 25.6831 44.2124ZM41.8103 61.8378C41.8102 60.1928 40.9877 59.3702 39.3427 59.3702C37.7564 59.3702 36.9633 60.1928 36.9633 61.8378C36.9633 63.4241 37.7564 64.2172 39.3427 64.2172C40.9877 64.2172 41.8102 63.4241 41.8103 61.8378ZM53.0905 79.375C54.0305 79.375 54.9118 78.9638 55.7343 78.1412C56.5568 77.3187 56.968 76.4375 56.9681 75.4974C56.968 74.6749 56.5568 73.9993 55.7343 73.4705L41.8103 64.2172L51.0636 78.2294C51.5923 78.9931 52.268 79.375 53.0905 79.375ZM46.5691 83.517C47.5679 83.517 48.4785 83.1938 49.3011 82.5476C50.1235 81.9013 50.5348 81.1376 50.5348 80.2563C50.5348 79.845 50.3879 79.375 50.0942 78.8463L40.7528 65.0103L43.8372 81.4019C44.1309 82.812 45.0416 83.517 46.5691 83.517ZM20.9242 50.6457C19.9842 50.6457 19.191 51.057 18.5448 51.8794C17.9573 52.702 17.6635 53.6126 17.6635 54.6114C17.6635 56.1389 18.3685 57.0496 19.7786 57.3433L36.1702 60.4278L22.3343 51.0863C21.8055 50.7926 21.3355 50.6457 20.9242 50.6457ZM35.9058 61.8378L19.5142 58.4008C19.2204 58.3421 19.0148 58.3127 18.8973 58.3127C17.1348 58.3127 16.2535 59.4877 16.2535 61.8378C16.2535 64.1291 17.1348 65.2747 18.8973 65.2747C19.0148 65.2747 19.2204 65.2454 19.5142 65.1866L35.9058 61.8378ZM42.8678 82.2832C42.8678 82.1657 42.8384 81.9601 42.7797 81.6663L39.3427 65.2747L35.9939 81.6663C35.9351 81.9601 35.9058 82.1657 35.9058 82.2832C35.9058 84.0457 37.0514 84.927 39.3427 84.927C41.6927 84.927 42.8678 84.0457 42.8678 82.2832ZM28.2388 80.2563C28.2387 81.1963 28.65 81.9601 29.4725 82.5476C30.295 83.1938 31.2057 83.517 32.2045 83.517C33.732 83.517 34.6426 82.812 34.9364 81.4019L38.0208 65.0103L28.6794 78.8463C28.3856 79.375 28.2387 79.845 28.2388 80.2563ZM17.6635 68.9761C17.6635 69.9748 17.9866 70.8855 18.6329 71.708C19.2792 72.5305 20.0429 72.9418 20.9242 72.9418C21.3355 72.9418 21.8055 72.7949 22.3343 72.5011L36.1702 63.1597L19.7786 66.2441C18.3685 66.5379 17.6635 67.4485 17.6635 68.9761ZM21.8055 75.4974C21.8055 76.4375 22.2167 77.3187 23.0393 78.1412C23.8618 78.9638 24.743 79.375 25.6831 79.375C26.5056 79.375 27.1812 78.9931 27.71 78.2294L36.9633 64.2172L22.9511 73.4705C22.1874 73.9993 21.8055 74.6749 21.8055 75.4974Z" fill="#9C0000"></path>
</svg>