<svg width="75" height="95" viewBox="0 0 75 95" fill="none" xmlns="http://www.w3.org/2000/svg">
<rect x="0.25" y="0.25" width="74.5" height="94.5" rx="7.75" fill="white"></rect>
<rect x="0.25" y="0.25" width="74.5" height="94.5" rx="7.75" stroke="#003500" stroke-width="0.5"></rect>
<path d="M60.5823 10H14.6835C12.0969 10 10 12.0969 10 14.6835V79.3165C10 81.9031 12.0969 84 14.6835 84H60.5823C63.1689 84 65.2658 81.9031 65.2658 79.3165V14.6835C65.2658 12.0969 63.1689 10 60.5823 10Z" stroke="#006C00" stroke-width="1.5"></path>
<path d="M41.863 18.2955C42.0752 18.1661 42.3473 18.3188 42.3473 18.5674V29.4838C42.3473 29.7109 42.2264 29.9208 42.0299 30.0347L22.4782 41.3738C22.2659 41.4969 22 41.3438 22 41.0984V31.8464C22 30.9584 22.4624 30.1345 23.2205 29.6719L41.863 18.2955ZM31.2162 48.7909C31.4285 48.6676 31.6945 48.8207 31.6945 49.0662V59.3809C31.6945 59.6079 31.5738 59.8176 31.3776 59.9316L22.4784 65.101C22.2661 65.2243 22 65.0712 22 64.8257V55.4274C22 54.6332 22.4226 53.8989 23.1094 53.5L31.2162 48.7909ZM44.104 77.26C43.3138 77.7177 42.3391 77.7174 41.5492 77.2593L22.9541 66.475C22.7425 66.3523 22.7425 66.0468 22.9541 65.9241L30.4827 61.5586L31.8571 60.7766C32.0532 60.665 32.2938 60.6655 32.4894 60.778L35.8655 62.7188L52.0729 72.0932C52.2848 72.2157 52.2849 72.5216 52.073 72.6443L44.104 77.26ZM51.7306 59.549C52.5163 60.0047 53 60.8443 53 61.7526V70.9669C53 71.2123 52.7341 71.3654 52.5218 71.2423L32.9701 59.9033C32.7736 59.7893 32.6527 59.5794 32.6527 59.3523V49.0375C32.6527 48.7921 32.9186 48.6389 33.1309 48.762L51.7306 59.549ZM32.9728 47.6404C32.4786 47.9266 31.8689 47.9262 31.3751 47.6393L22.9544 42.7479C22.7428 42.625 22.7431 42.3192 22.955 42.1968L42.5359 30.8837C42.733 30.7698 42.976 30.7699 43.1732 30.8838L52.0726 36.0273C52.2846 36.1499 52.2847 36.4559 52.0728 36.5786L32.9728 47.6404ZM51.8325 23.4952C52.5603 23.9642 53 24.7707 53 25.6365V34.9289C53 35.1744 52.7339 35.3275 52.5216 35.2042L43.6224 30.0348C43.4262 29.9208 43.3055 29.711 43.3055 29.4841V18.584C43.3055 18.3319 43.5845 18.1798 43.7964 18.3164L51.8325 23.4952Z" fill="#006C00"></path>
</svg>