<svg width="75" height="96" viewBox="0 0 75 96" fill="none" xmlns="http://www.w3.org/2000/svg">
<rect x="0.25" y="0.25" width="74.2" height="94.6" rx="7.75" fill="white"></rect>
<rect x="0.25" y="0.25" width="74.2" height="94.6" rx="7.75" stroke="#003500" stroke-width="0.5"></rect>
<path d="M24.7069 30.2586C24.9184 30.2587 25.8172 30.0736 27.4035 29.7034C29.0425 29.2805 29.9678 29.069 30.1793 29.069C30.4437 29.069 31.2632 29.4391 32.6379 30.1793L29.1483 34.4621C30.9988 36.3656 34.7528 37.7667 40.4103 38.6655C40.6747 38.7184 40.9655 38.877 41.2828 39.1414C39.0092 39.9874 37.185 40.4104 35.8103 40.4103C35.123 40.4104 34.1448 40.0138 32.8759 39.2207C31.6597 38.3747 30.5494 37.5552 29.5448 36.7621C28.5931 35.969 28.0908 35.5725 28.0379 35.5724C27.5092 36.1541 26.2931 36.8679 24.3897 37.7138C22.4862 38.5069 21.323 38.9035 20.9 38.9035C20.7942 38.9035 20.5034 38.8506 20.0276 38.7448C19.6046 38.5862 19.2345 38.5069 18.9172 38.5069C21.9839 37.8724 24.654 36.6035 26.9276 34.7C26.9276 34.5414 26.346 34.0656 25.1828 33.2724C24.0724 32.4265 23.3057 32.0035 22.8828 32.0035C22.7241 32.0035 22.4333 32.2414 22.0103 32.7172C21.5873 33.1931 20.8736 33.8541 19.869 34.7C18.9172 35.546 17.8069 36.2862 16.5379 36.9207C15.3747 37.5023 14.7138 37.7931 14.5552 37.7931H14C18.6529 34.8322 21.746 31.6862 23.2793 28.3552V28.0379C23.1207 27.8794 23.0149 27.8 22.9621 27.8L21.931 27.9586V22.169C21.931 21.8518 21.6931 21.0058 21.2172 19.631C21.323 19.6311 21.5873 19.6575 22.0103 19.7103C22.4333 19.7633 22.6713 19.7897 22.7241 19.7897C22.8827 19.7897 23.0414 19.7633 23.2 19.7103C23.3586 19.6575 23.4908 19.6046 23.5966 19.5517C23.7023 19.4989 23.808 19.4196 23.9138 19.3138C24.0195 19.1552 24.0988 19.0495 24.1517 18.9966C24.2575 18.8909 24.3368 18.7322 24.3897 18.5207C24.4954 18.3092 24.5747 18.1771 24.6276 18.1241C24.6805 18.0184 24.7333 17.8598 24.7862 17.6483C24.8919 17.384 24.9713 17.2253 25.0241 17.1724V16.7759C24.9713 16.723 24.7069 16.6966 24.231 16.6966C23.9667 16.6966 23.1471 16.8288 21.7724 17.0931C20.3977 17.3047 19.5782 17.4104 19.3138 17.4103C19.1552 17.4104 18.785 17.2782 18.2035 17.0138C17.6747 16.6966 17.3575 16.3794 17.2517 16.0621L34.7793 14C36.2597 14.0001 37.1586 14.4495 37.4759 15.3483L26.531 16.5379C26.6896 16.5909 26.8747 16.723 27.0862 16.9345C26.6103 17.5161 25.8701 18.2828 24.8655 19.2345C24.9184 19.2874 24.9977 19.3138 25.1035 19.3138C25.5264 19.3138 26.5839 19.1552 28.2759 18.8379C29.9678 18.5207 30.8931 18.3621 31.0517 18.3621C31.7391 18.3621 32.5586 18.7587 33.5103 19.5517C33.0873 20.292 32.7437 21.746 32.4793 23.9138C32.2149 26.0817 31.8448 27.4299 31.369 27.9586C30.4701 27.3771 29.9149 27.0863 29.7034 27.0862C29.5448 27.0863 28.7781 27.192 27.4035 27.4034C26.0816 27.615 25.1299 27.7472 24.5483 27.8L24.3103 28.0379L25.1828 28.831L24.231 30.1793C24.231 30.2322 24.3896 30.2587 24.7069 30.2586ZM47.231 55.3207C46.1735 55.3207 45.6448 54.792 45.6448 53.7345C45.6448 53.2058 45.8034 52.8357 46.1207 52.6241L51.1966 49.769L48.2621 54.7655C48.0505 55.0828 47.7069 55.2678 47.231 55.3207ZM40.7276 50.9586C40.7276 51.9632 40.1988 52.4655 39.1414 52.4655C38.1368 52.4655 37.6345 51.9632 37.6345 50.9586V50.8L39.1414 40.9655L40.7276 50.9586ZM60 61.7448L49.9276 63.2517C48.9758 63.2517 48.5 62.7494 48.5 61.7448C48.5 60.6874 48.9758 60.1586 49.9276 60.1586H50.1655L60 61.7448ZM51.1966 73.7207L46.1207 70.7862C45.8034 70.5747 45.6448 70.2046 45.6448 69.6759C45.6448 68.6184 46.1735 68.0897 47.231 68.0897C47.7069 68.1425 48.0505 68.3276 48.2621 68.6448L51.1966 73.7207ZM32.7966 53.7345C32.7965 54.792 32.2678 55.3207 31.2103 55.3207C30.6816 55.2678 30.3115 55.0828 30.1 54.7655L27.2448 49.769L32.2414 52.6241C32.5586 52.8357 32.7437 53.2058 32.7966 53.7345ZM39.1414 53.1793C41.5735 53.1793 43.6092 54.0253 45.2483 55.7172C46.8873 57.3563 47.7069 59.3655 47.7069 61.7448C47.7069 64.0713 46.8873 66.0805 45.2483 67.7724C43.6092 69.4115 41.5735 70.231 39.1414 70.231C36.8149 70.231 34.8057 69.4115 33.1138 67.7724C31.4747 66.1333 30.6552 64.1241 30.6552 61.7448C30.6552 59.3127 31.4747 57.277 33.1138 55.6379C34.8057 53.9989 36.8149 53.1793 39.1414 53.1793ZM29.8621 61.7448C29.8621 62.7494 29.3598 63.2517 28.3552 63.2517L18.3621 61.7448L28.4345 60.1586C29.3862 60.1586 29.8621 60.6874 29.8621 61.7448ZM40.7276 72.6897L39.1414 82.5241L37.6345 72.531C37.6345 71.5264 38.1368 71.0241 39.1414 71.0241C40.1988 71.0241 40.7276 71.5264 40.7276 72.531V72.6897ZM31.2103 68.0897C32.2678 68.0897 32.7965 68.6184 32.7966 69.6759C32.7437 70.2046 32.5586 70.5747 32.2414 70.7862L27.2448 73.7207L30.1 68.6448C30.3115 68.3276 30.6816 68.1425 31.2103 68.0897ZM24.1517 27.2448C24.2046 27.2449 24.4954 27.192 25.0241 27.0862C25.6057 26.9276 26.3724 26.7954 27.3241 26.6897C28.3287 26.5311 29.3333 26.4518 30.3379 26.4517C30.8138 25.2357 31.0517 24.4954 31.0517 24.231V19.7897C30.523 19.5782 30.1 19.4725 29.7828 19.4724L23.3586 20.4241C23.3586 21.0058 23.385 21.5874 23.4379 22.169C25.8172 21.5345 27.377 21.2173 28.1172 21.2172C28.646 21.2173 29.0161 21.4288 29.2276 21.8517L29.069 22.0897C27.1655 22.5656 25.2885 22.8035 23.4379 22.8034V24.7862L28.3552 23.6759C28.5666 23.7288 28.8575 23.8081 29.2276 23.9138V24.3897C28.8046 24.6012 28.3552 24.7863 27.8793 24.9448C27.4034 25.0506 26.9804 25.1299 26.6104 25.1828C26.2931 25.2357 25.7644 25.2886 25.0241 25.3414C24.2839 25.3943 23.6494 25.4472 23.1207 25.5V27.2448H24.1517ZM27.8 33.669C28.1701 33.669 28.5667 33.2989 28.9897 32.5586C29.4655 31.7656 29.7034 31.2104 29.7034 30.8931C29.7034 30.7345 29.677 30.5759 29.6241 30.4172C29.5712 30.2587 29.5448 30.1529 29.5448 30.1C27.9057 30.6817 26.6103 30.9725 25.6586 30.9724C25.5529 30.9725 25.3149 30.946 24.9448 30.8931C24.5747 30.8403 24.3368 30.8138 24.231 30.8138C23.808 30.8138 23.385 31.0253 22.9621 31.4483C23.385 31.6069 23.9667 31.8977 24.7069 32.3207C25.5 32.6908 26.1873 33.0081 26.769 33.2724C27.3506 33.5368 27.6942 33.669 27.8 33.669ZM39.1414 68.2483C41.0448 68.2483 42.6046 67.6138 43.8207 66.3448C45.0896 65.0759 45.7241 63.5425 45.7241 61.7448C45.7241 59.9471 45.0896 58.4138 43.8207 57.1448C42.6046 55.8759 41.0448 55.2414 39.1414 55.2414C37.2908 55.2414 35.731 55.8759 34.4621 57.1448C33.246 58.4138 32.6379 59.9471 32.6379 61.7448C32.6379 63.5954 33.2724 65.1552 34.5414 66.4241C35.8103 67.6402 37.3437 68.2483 39.1414 68.2483Z" fill="#9C0000"></path>
</svg>