<svg width="75" height="96" viewBox="0 0 75 96" fill="none" xmlns="http://www.w3.org/2000/svg">
<g clip-path="url(#clip0_1_843)">
<rect width="74.7" height="95.1" rx="8" fill="white"></rect>
<path d="M74.7 87.9C74.6999 92.7 72.4333 95.1 67.9 95.1H6.8C2.26666 95.1 -3e-06 92.7 0 87.9V7.2C-3e-06 2.40007 2.26666 7.6e-05 6.8 0H67.9C72.4333 7.6e-05 74.6999 2.40007 74.7 7.2V87.9ZM73 87.9V7.2C72.9999 3.53341 71.2999 1.70007 67.9 1.7H6.8C3.39999 1.70007 1.7 3.53341 1.7 7.2V87.9C1.7 91.6333 3.39999 93.5 6.8 93.5H67.9C71.2999 93.5 72.9999 91.6333 73 87.9Z" fill="white"></path>
<path d="M58.3761 44.418C56.9037 44.3002 55.4313 44.2413 53.959 44.2413C52.4866 44.2413 51.0142 44.3002 49.5419 44.418V43.7113L48.8351 44.2413L36.6439 26.6612L24.541 44.2413L23.8342 43.7113V44.418C22.3618 44.3002 20.8895 44.2413 19.4171 44.2413C17.9447 44.2413 16.4724 44.3002 15 44.418C15.1178 39.4709 15.1767 34.5531 15.1767 29.6648C15.1767 24.7766 15.1178 19.8883 15 15C16.4724 15.1178 17.9447 15.1767 19.4171 15.1767C20.8895 15.1767 22.3618 15.1178 23.8342 15C23.7164 20.065 23.6575 25.2183 23.6576 30.4599L34.1703 15.0883C34.9359 15.7362 35.7604 16.3841 36.6439 17.0319C37.5862 16.3841 38.4401 15.7362 39.2058 15.0883L49.7185 30.4599C49.7185 25.0416 49.6596 19.8883 49.5419 15C51.0142 15.1178 52.4866 15.1767 53.959 15.1767C55.4313 15.1767 56.9037 15.1178 58.3761 15C58.2582 19.8883 58.1993 24.7766 58.1994 29.6648C58.1993 34.5531 58.2582 39.4709 58.3761 44.418ZM58.3761 80.55C56.9037 80.4322 55.4313 80.3733 53.959 80.3733C52.4866 80.3733 51.0142 80.4322 49.5419 80.55C49.6596 75.4262 49.7185 70.2729 49.7185 65.0901L39.2058 80.3733L36.6439 78.4298L34.1703 80.3733L23.6576 65.0901C23.6575 70.4495 23.7164 75.6028 23.8342 80.55C22.3618 80.4322 20.8895 80.3733 19.4171 80.3733C17.9447 80.3733 16.4724 80.4322 15 80.55C15.1178 75.6617 15.1767 70.7735 15.1767 65.8852C15.1767 60.938 15.1178 56.0203 15 51.132C16.4724 51.2498 17.9447 51.3087 19.4171 51.3087C20.8895 51.3087 22.3618 51.2498 23.8342 51.132V51.8388L24.541 51.2204L36.6439 68.8888C40.7076 63.2938 44.7713 57.4043 48.8351 51.2204L49.5419 51.8388V51.132C51.0142 51.2498 52.4866 51.3087 53.959 51.3087C55.4313 51.3087 56.9037 51.2498 58.3761 51.132C58.2582 56.0203 58.1993 60.938 58.1994 65.8852C58.1993 70.7735 58.2582 75.6617 58.3761 80.55ZM56.6092 16.8552C55.7258 16.8552 54.8423 16.8552 53.959 16.8552H51.3087C51.3675 20.3889 51.397 23.8343 51.397 27.1912H56.4326C56.4325 23.8343 56.4914 20.3889 56.6092 16.8552ZM56.4326 30.5483V28.7814H51.397V30.5483H56.4326ZM39.8242 19.2404L38.7641 17.6503L38.234 18.092L39.8242 19.2404ZM56.6092 42.5628C56.4914 38.9114 56.4325 35.466 56.4326 32.2268H51.397C51.397 34.8771 51.3675 38.3224 51.3087 42.5628C52.1921 42.5039 53.0755 42.4745 53.959 42.4745L56.6092 42.5628ZM44.5947 26.2195L40.8843 20.8306L37.704 25.1594L40.5309 29.0464L44.5947 26.2195ZM46.5382 28.9581L45.5665 27.5446L41.5027 30.4599L42.4745 31.8734L46.5382 28.9581ZM49.7185 33.3752L47.51 30.2832L43.4462 33.1985L49.2768 41.6794L49.5419 41.5027L49.7185 33.3752ZM38.8524 20.6539C37.38 19.7116 35.9665 18.7104 34.612 17.6503L28.7814 26.2195L32.8451 29.0464L38.8524 20.6539ZM31.8734 30.4599L27.8096 27.5446L26.8379 28.9581L30.9016 31.8734L31.8734 30.4599ZM22.0674 16.8552C21.1839 16.8552 20.3005 16.8552 19.4171 16.8552H16.7668C16.8846 20.3889 16.9435 23.8343 16.9435 27.1912H21.8907C21.8907 23.8343 21.9495 20.3889 22.0674 16.8552ZM56.6092 52.9872C55.7258 53.0461 54.8423 53.0756 53.959 53.0755L51.3087 52.9872C51.3675 56.7565 51.397 60.2018 51.397 63.3233H56.4326C56.4325 60.0252 56.4914 56.5798 56.6092 52.9872ZM29.9298 33.1985L25.8661 30.2832L23.6576 33.3752C23.6575 34.4942 23.687 37.2034 23.7459 41.5027L24.0993 41.6794L29.9298 33.1985ZM21.8907 30.5483V28.7814H16.9435V30.5483H21.8907ZM56.4326 66.6803V65.0018H51.397V66.6803H56.4326ZM49.7185 62.0865C49.7185 60.9675 49.6596 58.2878 49.5419 54.0473L49.2768 53.7823L43.4462 62.3515L47.51 65.2668L49.7185 62.0865ZM22.0674 42.5628C21.9496 38.7936 21.8907 35.3482 21.8907 32.2268H16.9435C16.9435 35.466 16.8846 38.9114 16.7668 42.5628C17.6503 42.5039 18.5337 42.4745 19.4171 42.4745L22.0674 42.5628ZM56.6092 78.6948C56.4914 75.1022 56.4325 71.6569 56.4326 68.3588H51.397C51.397 71.6569 51.3675 75.1022 51.3087 78.6948C52.1921 78.6359 53.0755 78.6065 53.959 78.6065L56.6092 78.6948ZM46.5382 66.5919L42.4745 63.6766L41.5027 65.0901L45.5665 68.0054L46.5382 66.5919ZM44.5947 69.3305L40.5309 66.4152L34.5237 74.8078C35.996 75.809 37.4095 76.8396 38.7641 77.8997L44.5947 69.3305ZM29.9298 62.3515L24.0993 53.7823L23.7459 54.0473L23.6576 62.0865L25.8661 65.2668L29.9298 62.3515ZM31.8734 65.0901L30.9016 63.6766L26.8379 66.5919L27.8096 68.0054L31.8734 65.0901ZM35.6721 70.3906L32.8451 66.4152L28.7814 69.3305L32.4918 74.7194L35.6721 70.3906ZM22.0674 52.9872C21.1839 53.0461 20.3005 53.0756 19.4171 53.0755L16.7668 52.9872C16.8846 56.5798 16.9435 60.0252 16.9435 63.3233H21.8907C21.8907 60.673 21.9495 57.2277 22.0674 52.9872ZM35.1421 77.3697C34.6709 77.0163 34.1408 76.6629 33.5519 76.3096L34.612 77.8997L35.1421 77.3697ZM21.8907 66.6803V65.0018H16.9435V66.6803H21.8907ZM22.0674 78.6948C21.9496 75.1022 21.8907 71.6569 21.8907 68.3588H16.9435C16.9435 71.6569 16.8846 75.1022 16.7668 78.6948C17.6503 78.6359 18.5337 78.6065 19.4171 78.6065L22.0674 78.6948Z" fill="#006C00"></path>
</g>
<rect x="0.25" y="0.25" width="74.2" height="94.6" rx="7.75" stroke="#003500" stroke-width="0.5"></rect>
<defs>
<clipPath id="clip0_1_843">
<rect width="74.7" height="95.1" rx="8" fill="white"></rect>
</clipPath>
</defs>
</svg>