<svg width="75" height="96" viewBox="0 0 75 96" fill="none" xmlns="http://www.w3.org/2000/svg">
<g clip-path="url(#clip0_1_819)">
<rect width="74.7" height="95.1" rx="8" fill="white"></rect>
<path d="M74.7 87.9C74.6999 92.7 72.4333 95.1 67.9 95.1H6.8C2.26666 95.1 -2e-06 92.7 0 87.9V7.2C-2e-06 2.40007 2.26666 7.6e-05 6.8 0H67.9C72.4333 7.6e-05 74.6999 2.40007 74.7 7.2V87.9ZM73 87.9V7.2C72.9999 3.53341 71.2999 1.70007 67.9 1.7H6.8C3.39999 1.70007 1.7 3.53341 1.7 7.2V87.9C1.7 91.6333 3.39999 93.5 6.8 93.5H67.9C71.2999 93.5 72.9999 91.6333 73 87.9Z" fill="white"></path>
<path d="M57.0674 78.55C55.7073 78.4412 54.3473 78.3868 52.9873 78.3868C51.6271 78.3868 50.2943 78.4412 48.9887 78.55C49.0974 73.9802 49.1518 69.4376 49.1519 64.9222C49.1518 60.4068 49.0975 55.8914 48.9887 51.3759C50.3487 51.4848 51.6816 51.5392 52.9873 51.5391C54.3473 51.5392 55.7073 51.4848 57.0674 51.3759C56.9586 55.8914 56.9042 60.4068 56.9042 64.9222C56.9042 69.492 56.9586 74.0346 57.0674 78.55ZM55.4354 53.0896C54.6193 53.0896 53.8032 53.0896 52.9873 53.0896C52.2256 53.0896 51.4367 53.0896 50.6207 53.0896C50.6751 56.3538 50.7023 59.5363 50.7024 62.6373H55.3538C55.3537 59.5363 55.3809 56.3538 55.4354 53.0896ZM55.3538 65.7382V64.1061H50.7024V65.7382H55.3538ZM55.4354 76.8363C55.3809 73.3545 55.3537 70.172 55.3538 67.2887H50.7024C50.7023 70.2808 50.6751 73.4634 50.6207 76.8363C51.4367 76.7819 52.2256 76.7547 52.9873 76.7547C53.8032 76.7547 54.6193 76.7819 55.4354 76.8363ZM57.0674 45.1741C55.7073 45.0653 54.3473 45.0109 52.9873 45.0108C51.6271 45.0109 50.2943 45.0653 48.9887 45.1741C49.0974 40.6043 49.1518 36.0617 49.1519 31.5462C49.1518 27.0309 49.0975 22.5155 48.9887 18C50.3487 18.1089 51.6816 18.1633 52.9873 18.1632C54.3473 18.1633 55.7073 18.1089 57.0674 18C56.9586 22.5155 56.9042 27.0309 56.9042 31.5462C56.9042 36.1161 56.9586 40.6587 57.0674 45.1741ZM55.4354 19.7137C54.6193 19.7137 53.8032 19.7137 52.9873 19.7137C52.2256 19.7137 51.4367 19.7137 50.6207 19.7137C50.6751 22.9779 50.7023 26.1604 50.7024 29.2613H55.3538C55.3537 26.1604 55.3809 22.9779 55.4354 19.7137ZM55.3538 32.3623V30.7302H50.7024V32.3623H55.3538ZM55.4354 43.4604C55.3809 39.9786 55.3537 36.7961 55.3538 33.9127H50.7024C50.7023 36.9049 50.6751 40.0874 50.6207 43.4604C51.4367 43.406 52.2256 43.3788 52.9873 43.3788C53.8032 43.3788 54.6193 43.406 55.4354 43.4604ZM25.0788 78.55C23.7187 78.4412 22.3586 78.3868 20.9986 78.3868C19.6385 78.3868 18.3057 78.4412 17 78.55C17.1088 73.9802 17.1632 69.4376 17.1632 64.9222C17.1632 60.4068 17.1088 55.8914 17 51.3759C18.36 51.4848 19.6929 51.5392 20.9986 51.5391C22.3586 51.5392 23.7187 51.4848 25.0788 51.3759C24.9699 55.8914 24.9155 60.4068 24.9156 64.9222C24.9155 69.492 24.9699 74.0346 25.0788 78.55ZM23.4467 53.0896C22.6306 53.0896 21.8146 53.0896 20.9986 53.0896C20.2369 53.0896 19.4481 53.0896 18.6321 53.0896C18.6865 56.3538 18.7137 59.5363 18.7137 62.6373H23.3651C23.3651 59.5363 23.3923 56.3538 23.4467 53.0896ZM23.3651 65.7382V64.1061H18.7137V65.7382H23.3651ZM23.4467 76.8363C23.3923 73.3545 23.3651 70.172 23.3651 67.2887H18.7137C18.7137 70.2808 18.6865 73.4634 18.6321 76.8363C19.4481 76.7819 20.2369 76.7547 20.9986 76.7547C21.8146 76.7547 22.6306 76.7819 23.4467 76.8363ZM25.0788 45.1741C23.7187 45.0653 22.3586 45.0109 20.9986 45.0108C19.6385 45.0109 18.3057 45.0653 17 45.1741C17.1088 40.6043 17.1632 36.0617 17.1632 31.5462C17.1632 27.0309 17.1088 22.5155 17 18C18.36 18.1089 19.6929 18.1633 20.9986 18.1632C22.3586 18.1633 23.7187 18.1089 25.0788 18C24.9699 22.5155 24.9155 27.0309 24.9156 31.5462C24.9155 36.1161 24.9699 40.6587 25.0788 45.1741ZM23.4467 19.7137C22.6306 19.7137 21.8146 19.7137 20.9986 19.7137C20.2369 19.7137 19.4481 19.7137 18.6321 19.7137C18.6865 22.9779 18.7137 26.1604 18.7137 29.2613H23.3651C23.3651 26.1604 23.3923 22.9779 23.4467 19.7137ZM23.3651 32.3623V30.7302H18.7137V32.3623H23.3651ZM23.4467 43.4604C23.3923 39.9786 23.3651 36.7961 23.3651 33.9127H18.7137C18.7137 36.9049 18.6865 40.0874 18.6321 43.4604C19.4481 43.406 20.2369 43.3788 20.9986 43.3788C21.8146 43.3788 22.6306 43.406 23.4467 43.4604Z" fill="#006C00"></path>
</g>
<rect x="0.25" y="0.25" width="74.2" height="94.6" rx="7.75" stroke="#003500" stroke-width="0.5"></rect>
<defs>
<clipPath id="clip0_1_819">
<rect width="74.7" height="95.1" rx="8" fill="white"></rect>
</clipPath>
</defs>
</svg>