<svg width="75" height="96" viewBox="0 0 75 96" fill="none" xmlns="http://www.w3.org/2000/svg">
<g clip-path="url(#clip0_1_827)">
<rect width="74.7" height="95.1" rx="8" fill="white"></rect>
<path d="M74.7 87.9C74.6999 92.7 72.4333 95.1 67.9 95.1H6.8C2.26666 95.1 -2e-06 92.7 0 87.9V7.2C-2e-06 2.40007 2.26666 7.6e-05 6.8 0H67.9C72.4333 7.6e-05 74.6999 2.40007 74.7 7.2V87.9ZM73 87.9V7.2C72.9999 3.5334 71.2999 1.70008 67.9 1.7H6.8C3.39999 1.70008 1.7 3.5334 1.7 7.2V87.9C1.7 91.6333 3.39999 93.5 6.8 93.5H67.9C71.2999 93.5 72.9999 91.6333 73 87.9Z" fill="white"></path>
<path d="M41.6125 62.9692C40.1625 62.8532 38.7126 62.7952 37.2627 62.7952C35.8128 62.7952 34.3919 62.8532 33 62.9692C33.116 58.0975 33.174 53.2548 33.174 48.4411C33.174 43.6274 33.116 38.8137 33 34C34.4499 34.116 35.8708 34.174 37.2627 34.174C38.7126 34.174 40.1625 34.116 41.6125 34C41.4964 38.8137 41.4384 43.6274 41.4385 48.4411C41.4384 53.3128 41.4964 58.1555 41.6125 62.9692ZM39.8726 35.8269C39.0026 35.8269 38.1326 35.8269 37.2627 35.8269C36.4507 35.8269 35.6098 35.8269 34.7399 35.8269C34.7978 39.3067 34.8269 42.6995 34.8269 46.0053H39.7856C39.7855 42.6995 39.8145 39.3067 39.8726 35.8269ZM39.7856 49.3111V47.5712H34.8269V49.3111H39.7856ZM39.8726 61.1423C39.8145 57.4306 39.7855 54.0378 39.7856 50.9639H34.8269C34.8269 54.1538 34.7978 57.5466 34.7399 61.1423C35.6098 61.0843 36.4507 61.0553 37.2627 61.0553C38.1326 61.0553 39.0026 61.0843 39.8726 61.1423Z" fill="#9C0000"></path>
<path d="M58 81C56.5403 80.8832 55.0807 80.8248 53.6212 80.8248C52.1615 80.8248 50.7311 80.8832 49.3299 81C49.4466 76.0943 49.505 71.2179 49.5051 66.3706C49.505 61.5234 49.4467 56.6761 49.3299 51.8288C50.7895 51.9457 52.2199 52.0041 53.6212 52.0041C55.0807 52.0041 56.5403 51.9457 58 51.8288C57.8832 56.6761 57.8248 61.5234 57.8248 66.3706C57.8248 71.2763 57.8832 76.1527 58 81ZM56.2485 53.6684C55.3727 53.6685 54.4969 53.6685 53.6212 53.6684C52.8038 53.6685 51.9572 53.6685 51.0815 53.6684C51.1398 57.1725 51.169 60.589 51.1691 63.9178H56.1609C56.1608 60.589 56.1901 57.1725 56.2485 53.6684ZM56.1609 67.2466V65.4946H51.1691V67.2466H56.1609ZM56.2485 79.1604C56.1901 75.4227 56.1608 72.0063 56.1609 68.9111H51.1691C51.169 72.1231 51.1398 75.5395 51.0815 79.1604C51.9572 79.102 52.8038 79.0728 53.6212 79.0728C54.4969 79.0728 55.3727 79.102 56.2485 79.1604ZM58 45.1712C56.5403 45.0544 55.0807 44.996 53.6212 44.996C52.1615 44.996 50.7311 45.0544 49.3299 45.1712C49.4466 40.2656 49.505 35.3891 49.5051 30.5418C49.505 25.6946 49.4467 20.8473 49.3299 16C50.7895 16.1169 52.2199 16.1752 53.6212 16.1752C55.0807 16.1752 56.5403 16.1169 58 16C57.8832 20.8473 57.8248 25.6946 57.8248 30.5418C57.8248 35.4475 57.8832 40.324 58 45.1712ZM56.2485 17.8396C55.3727 17.8397 54.4969 17.8397 53.6212 17.8396C52.8038 17.8397 51.9572 17.8397 51.0815 17.8396C51.1398 21.3437 51.169 24.7601 51.1691 28.0889H56.1609C56.1608 24.7601 56.1901 21.3437 56.2485 17.8396ZM56.1609 31.4178V29.6658H51.1691V31.4178H56.1609ZM56.2485 43.3315C56.1901 39.5939 56.1608 36.1775 56.1609 33.0822H51.1691C51.169 36.2943 51.1398 39.7107 51.0815 43.3315C51.9572 43.2732 52.8038 43.2439 53.6212 43.2439C54.4969 43.244 55.3727 43.2732 56.2485 43.3315ZM23.6701 81C22.2105 80.8832 20.7509 80.8248 19.2913 80.8248C17.8316 80.8248 16.4012 80.8832 15 81C15.1168 76.0943 15.1752 71.2179 15.1752 66.3706C15.1752 61.5234 15.1167 56.6761 15 51.8288C16.4596 51.9457 17.89 52.0041 19.2913 52.0041C20.7509 52.0041 22.2105 51.9457 23.6701 51.8288C23.5533 56.6761 23.4949 61.5234 23.4949 66.3706C23.4949 71.2763 23.5532 76.1527 23.6701 81ZM21.9186 53.6684C21.0428 53.6685 20.167 53.6685 19.2913 53.6684C18.4739 53.6685 17.6273 53.6685 16.7515 53.6684C16.8099 57.1725 16.8391 60.589 16.8391 63.9178H21.831C21.831 60.589 21.8601 57.1725 21.9186 53.6684ZM21.831 67.2466V65.4946H16.8391V67.2466H21.831ZM21.9186 79.1604C21.8601 75.4227 21.831 72.0063 21.831 68.9111H16.8391C16.8391 72.1231 16.8099 75.5395 16.7515 79.1604C17.6273 79.102 18.4739 79.0728 19.2913 79.0728C20.167 79.0728 21.0428 79.102 21.9186 79.1604ZM23.6701 45.1712C22.2105 45.0544 20.7509 44.996 19.2913 44.996C17.8316 44.996 16.4012 45.0544 15 45.1712C15.1168 40.2656 15.1752 35.3891 15.1752 30.5418C15.1752 25.6946 15.1167 20.8473 15 16C16.4596 16.1169 17.89 16.1752 19.2913 16.1752C20.7509 16.1752 22.2105 16.1169 23.6701 16C23.5533 20.8473 23.4949 25.6946 23.4949 30.5418C23.4949 35.4475 23.5532 40.324 23.6701 45.1712ZM21.9186 17.8396C21.0428 17.8397 20.167 17.8397 19.2913 17.8396C18.4739 17.8397 17.6273 17.8397 16.7515 17.8396C16.8099 21.3437 16.8391 24.7601 16.8391 28.0889H21.831C21.831 24.7601 21.8601 21.3437 21.9186 17.8396ZM21.831 31.4178V29.6658H16.8391V31.4178H21.831ZM21.9186 43.3315C21.8601 39.5939 21.831 36.1775 21.831 33.0822H16.8391C16.8391 36.2943 16.8099 39.7107 16.7515 43.3315C17.6273 43.2732 18.4739 43.2439 19.2913 43.2439C20.167 43.244 21.0428 43.2732 21.9186 43.3315Z" fill="#006C00"></path>
</g>
<rect x="0.25" y="0.25" width="74.2" height="94.6" rx="7.75" stroke="#003500" stroke-width="0.5"></rect>
<defs>
<clipPath id="clip0_1_827">
<rect width="74.7" height="95.1" rx="8" fill="white"></rect>
</clipPath>
</defs>
</svg>