<svg width="75" height="96" viewBox="0 0 75 96" fill="none" xmlns="http://www.w3.org/2000/svg">
<g clip-path="url(#clip0_1_960)">
<rect width="74.7" height="95.1" rx="8" fill="white"></rect>
<path d="M45.363 18.7175C45.363 19.0038 45.2199 19.2041 44.9337 19.3186C44.7046 19.3759 43.9604 19.519 42.701 19.7479C41.098 20.0342 39.6668 20.2919 38.4073 20.5208C34.9724 21.0361 32.5107 21.2937 31.0222 21.2937C29.591 21.2937 28.1025 20.6926 26.5568 19.4903L42.1857 17C42.2429 17.0001 42.3002 17.0001 42.3575 17C43.6742 17.0001 44.676 17.5725 45.363 18.7175ZM48.8839 32.2854C49.7425 32.2855 50.8589 32.5717 52.2329 33.1441C53.6068 33.6594 54.2938 34.3178 54.2938 35.1192C54.2938 35.9207 53.9503 36.3215 53.2634 36.3215C45.0195 35.749 40.4682 35.4628 39.6096 35.4627C37.5486 35.4628 35.1727 35.6059 32.4821 35.8921C29.7914 36.1784 27.5014 36.4646 25.6122 36.7508C23.723 37.0371 22.7211 37.1802 22.6067 37.1802C20.8892 37.1802 19.687 36.4932 19 35.1192C19.7442 34.833 22.2918 34.6899 26.6427 34.6899L48.8839 32.2854Z" fill="#006C00"></path>
<path d="M47.4925 46.935C47.8932 46.935 48.4371 47.164 49.1241 47.6219C49.8683 48.0227 50.2977 48.3089 50.4122 48.4807V49.1677C50.1259 49.4539 49.7252 49.597 49.21 49.597C48.9237 49.597 48.2081 49.5684 47.0632 49.5112C45.9181 49.3967 45.2025 49.3394 44.9163 49.3394C42.9126 49.3394 41.5672 49.597 40.8803 50.1123L37.9606 53.1178C38.0751 52.8888 38.3899 51.9442 38.9052 50.284C38.7334 50.1123 38.1896 50.0264 37.2736 50.0264C36.7583 50.0264 35.413 50.1123 33.2376 50.284C33.2375 51.0855 33.0085 52.2591 32.5506 53.8048L32.293 53.0319C32.0639 52.4595 31.8063 51.9442 31.5201 51.4862C31.2911 51.0283 31.0621 50.7993 30.8331 50.7992C30.3179 50.7993 29.2015 50.971 27.4841 51.3145C25.8238 51.658 24.7361 51.8297 24.2209 51.8297C23.2476 51.8297 22.303 51.3431 21.3871 50.3699L30.8331 49.3394L28.9439 45.6469H31.0908C31.1479 45.6469 31.606 45.8473 32.4647 46.248C32.4647 46.935 32.6651 47.9655 33.0658 49.3394C33.5238 49.2822 35.5847 48.9673 39.2487 48.3948C39.8211 46.5056 40.1646 44.7882 40.2792 43.2424C42.3973 44.4447 43.4564 45.1889 43.4565 45.4751L42.0825 47.6219C42.2542 47.7937 42.5691 47.8796 43.0271 47.8796C43.3133 47.8796 44.0576 47.7365 45.2598 47.4502C46.462 47.1067 47.2062 46.935 47.4925 46.935ZM26.2819 55.007C29.6595 54.8353 32.4647 54.549 34.6974 54.1483C36.9301 53.7476 38.5331 53.4041 39.5063 53.1178C40.4795 52.8316 41.2237 52.6885 41.739 52.6885C42.5977 52.6885 43.7427 53.4041 45.1739 54.8353C44.4297 56.2093 43.8286 57.3829 43.3706 58.3561C42.9126 59.2721 42.5977 59.8732 42.426 60.1594C42.3115 60.4457 42.1111 60.8178 41.8249 61.2758C41.5386 61.7338 41.1092 62.4207 40.5368 63.3367C39.907 62.7642 39.3059 62.478 38.7335 62.478C37.8747 62.478 36.8728 62.707 35.7279 63.165V65.0542C35.8424 65.1115 36.1572 65.1401 36.6725 65.1401C36.7297 65.1401 38.5044 64.9683 41.9966 64.6248C45.4888 64.2241 47.2921 64.0237 47.4066 64.0237C47.9791 64.0237 49.1813 64.6248 51.0133 65.827C50.6125 66.6285 50.2977 67.9166 50.0687 69.6913C49.8397 71.466 49.4676 73.1549 48.9524 74.7578C48.4943 76.4181 47.6356 77.792 46.3762 78.8798C45.6891 78.021 44.3152 76.4753 42.2543 74.2426C43.9717 74.5289 44.9449 74.672 45.1739 74.672C46.1471 74.672 46.7482 74.1567 46.9773 73.1263C47.2062 72.153 47.3207 70.1207 47.3208 67.0293C46.8627 66.3995 46.0899 66.0847 45.0022 66.0847C41.2237 66.0847 38.0464 66.4568 35.4703 67.201V69.5196C35.8137 69.8631 36.1286 70.0348 36.4149 70.0348C37.2163 70.0348 38.1323 69.7772 39.1628 69.262C38.8765 69.033 38.7334 68.575 38.7335 67.888C39.4204 67.9453 40.2505 68.346 41.2238 69.0902C42.197 69.7772 42.6836 70.4642 42.6836 71.1512C42.6836 72.0672 42.3401 72.5251 41.6532 72.5252C41.3669 72.5251 40.8803 72.153 40.1933 71.4088C39.5635 70.7218 39.1914 70.3497 39.077 70.2924C33.2375 72.0099 30.2606 72.8686 30.1461 72.8686C29.8026 72.8686 29.4305 72.6969 29.0298 72.3534C28.6863 72.0099 28.4573 71.6378 28.3428 71.2371C29.6023 71.0653 31.4342 70.7218 33.8387 70.2066V68.1456C33.7814 67.6304 33.4093 67.3728 32.7223 67.3728C29.8026 67.3728 27.5413 67.6018 25.9384 68.0597C25.9383 69.6627 25.9383 70.9222 25.9384 71.8382C25.9956 72.8114 26.0242 73.4125 26.0242 73.6415C26.0814 73.8705 26.1101 74.0709 26.1101 74.2426C26.1673 74.4716 26.196 74.7292 26.196 75.0155C26.196 75.13 26.1101 75.4734 25.9384 76.0459C25.8238 76.6184 25.7666 76.9905 25.7666 77.1623C25.7666 77.3913 25.8238 77.563 25.9384 77.6775H24.9938C24.6502 77.6775 24.4499 77.4772 24.3926 77.0764C24.0491 72.3248 23.5625 68.804 22.9328 66.514C23.448 66.5713 24.2495 66.7144 25.3373 66.9434L33.9246 65.6553L34.0104 65.4835V63.5943C33.8387 63.4226 33.4952 63.3367 32.98 63.3367C31.5487 63.3367 30.6327 63.5657 30.232 64.0237C29.6595 63.5085 28.9725 62.0486 28.1711 59.6442C27.3696 57.1825 26.7398 55.6368 26.2819 55.007ZM38.4758 61.2758C39.22 61.2758 39.8498 60.7319 40.3651 59.6442C40.9375 58.5565 41.2237 57.4687 41.2238 56.381C41.2237 55.9803 41.1092 55.465 40.8803 54.8353H35.8138V56.9821C36.1572 57.1539 36.4435 57.2397 36.6725 57.2397C36.8442 57.2397 37.016 57.2111 37.1878 57.1539C37.4167 57.0966 37.5884 57.068 37.703 57.068C38.3899 57.068 38.8765 57.4115 39.1628 58.0985C38.4758 58.6137 37.3595 59.0431 35.8138 59.3866V61.2758H38.4758ZM33.9246 55.4364C33.6955 55.4364 33.1517 55.5223 32.293 55.694C31.4342 55.8658 30.8904 55.9516 30.6614 55.9516C30.4896 55.9516 30.1175 55.8085 29.545 55.5223L30.5755 62.2204C32.0067 62.0486 33.1517 61.8196 34.0104 61.5334V59.5583C33.6097 59.501 33.2089 59.4724 32.8082 59.4724C32.4647 59.4724 32.1498 59.501 31.8636 59.5583C31.6918 59.3866 31.4628 59.129 31.1766 58.7855C31.2338 58.7282 32.1784 58.4133 34.0104 57.8408C33.9532 56.3524 33.9245 55.5509 33.9246 55.4364Z" fill="#BA0000"></path>
</g>
<rect x="0.25" y="0.25" width="74.2" height="94.6" rx="7.75" stroke="#003500" stroke-width="0.5"></rect>
<defs>
<clipPath id="clip0_1_960">
<rect width="74.7" height="95.1" rx="8" fill="white"></rect>
</clipPath>
</defs>
</svg>