<svg width="75" height="96" viewBox="0 0 75 96" fill="none" xmlns="http://www.w3.org/2000/svg">
<rect x="0.25" y="0.25" width="74.2" height="94.6" rx="7.75" fill="white"></rect>
<rect x="0.25" y="0.25" width="74.2" height="94.6" rx="7.75" stroke="#003500" stroke-width="0.5"></rect>
<path d="M48.2857 20C48.9473 20 49.8847 20.3099 51.0978 20.9296C52.3659 21.493 53 22.0846 53 22.7042C53 23.324 52.2556 23.6339 50.7669 23.6338C50.4912 23.6339 49.7468 23.5493 48.5338 23.3803C47.3759 23.155 46.6591 23.0423 46.3835 23.0423C41.9724 23.0423 34.4185 24.0282 23.7218 26C23.2255 26 22.4812 25.7465 21.4887 25.2394C20.4962 24.7324 20 24.1972 20 23.6338C20 23.1831 20.4962 22.9578 21.4887 22.9577L23.3083 23.0423H25.1278C27.6641 23.0423 29.9799 22.9015 32.0752 22.6197C34.1704 22.3381 39.5739 21.4648 48.2857 20Z" fill="#006C00"></path>
<path d="M47.5536 43.6265C47.9459 43.6265 48.4783 43.8514 49.1508 44.3012C49.8792 44.6948 50.2995 44.9759 50.4116 45.1446V45.8192C50.1314 46.1004 49.7391 46.2409 49.2348 46.2409C48.9546 46.2409 48.2541 46.2129 47.1334 46.1566C46.0125 46.0442 45.3121 45.9879 45.0319 45.9879C43.0705 45.9879 41.7536 46.241 41.0812 46.747L38.2232 49.6988C38.3352 49.4739 38.6435 48.5462 39.1478 46.9157C38.9797 46.747 38.4473 46.6626 37.5507 46.6626C37.0464 46.6626 35.7294 46.747 33.6 46.9157C33.6 47.7028 33.3758 48.8554 32.9275 50.3735L32.6754 49.6144C32.4512 49.0522 32.199 48.5462 31.9188 48.0964C31.6947 47.6466 31.4705 47.4217 31.2464 47.4217C30.742 47.4217 29.6492 47.5903 27.9681 47.9277C26.343 48.265 25.2782 48.4338 24.7739 48.4337C23.8212 48.4338 22.8966 47.9558 22 47L31.2464 45.9879L29.3971 42.3614H31.4985C31.5545 42.3615 32.0029 42.5583 32.8435 42.9518C32.8435 43.6265 33.0396 44.6386 33.4319 45.9879C33.8802 45.9318 35.8976 45.6225 39.4841 45.0602C40.0444 43.2048 40.3807 41.5181 40.4928 40C42.5662 41.1807 43.6029 41.9116 43.6029 42.1928L42.258 44.3012C42.4261 44.4699 42.7343 44.5542 43.1826 44.5542C43.4628 44.5542 44.1913 44.4136 45.3682 44.1325C46.5449 43.7952 47.2734 43.6265 47.5536 43.6265ZM26.7913 51.5542C30.0975 51.3856 32.8435 51.1044 35.029 50.7109C37.2145 50.3173 38.7835 49.9799 39.7362 49.6988C40.6888 49.4177 41.4174 49.2771 41.9217 49.2771C42.7623 49.2771 43.8831 49.9799 45.2841 51.3855C44.5555 52.7349 43.9671 53.8875 43.5189 54.8434C43.0705 55.743 42.7623 56.3334 42.5942 56.6145C42.4821 56.8956 42.286 57.261 42.0058 57.7108C41.7256 58.1606 41.3053 58.8353 40.7449 59.7349C40.1285 59.1727 39.5401 58.8915 38.9797 58.8915C38.1391 58.8915 37.1584 59.1165 36.0377 59.5663V61.4217C36.1497 61.4779 36.4579 61.506 36.9623 61.506C37.0183 61.506 38.7555 61.3373 42.1739 61C45.5923 60.6064 47.3575 60.4096 47.4696 60.4096C48.03 60.4096 49.2067 61 51 62.1807C50.6077 62.9679 50.2995 64.2329 50.0754 65.9759C49.8512 67.7189 49.4869 69.3775 48.9826 70.9518C48.5343 72.5823 47.6937 73.9317 46.4609 75C45.7884 74.1566 44.4434 72.6385 42.4261 70.4458C44.1072 70.7269 45.0599 70.8674 45.2841 70.8674C46.2367 70.8674 46.8251 70.3614 47.0493 69.3494C47.2734 68.3936 47.3855 66.3976 47.3855 63.3615C46.9372 62.743 46.1806 62.4337 45.1159 62.4337C41.4173 62.4337 38.3072 62.7992 35.7855 63.5301V65.8072C36.1217 66.1446 36.4299 66.3133 36.7102 66.3133C37.4947 66.3133 38.3913 66.0602 39.4 65.5542C39.1198 65.3293 38.9797 64.8795 38.9797 64.2048C39.6521 64.2611 40.4647 64.6546 41.4174 65.3855C42.37 66.0602 42.8464 66.7349 42.8464 67.4096C42.8464 68.3092 42.5101 68.759 41.8377 68.759C41.5574 68.759 41.0811 68.3936 40.4087 67.6626C39.7923 66.9879 39.428 66.6225 39.3159 66.5663C33.6 68.253 30.686 69.0964 30.5739 69.0964C30.2376 69.0964 29.8734 68.9277 29.4812 68.5903C29.1449 68.253 28.9207 67.8875 28.8087 67.494C30.0415 67.3253 31.8348 66.9879 34.1884 66.4819V64.4578C34.1324 63.9518 33.7681 63.6988 33.0956 63.6988C30.2376 63.6988 28.0241 63.9237 26.4551 64.3735C26.455 65.9478 26.455 67.1847 26.4551 68.0843C26.511 69.0401 26.5391 69.6305 26.5391 69.8554C26.5951 70.0803 26.6232 70.2771 26.6232 70.4458C26.6792 70.6707 26.7072 70.9237 26.7072 71.2048C26.7072 71.3173 26.6232 71.6546 26.4551 72.2169C26.343 72.7791 26.2869 73.1446 26.2869 73.3133C26.2869 73.5381 26.3429 73.7068 26.4551 73.8193H25.5304C25.1942 73.8192 24.998 73.6224 24.942 73.2289C24.6058 68.5622 24.1294 65.1044 23.513 62.8554C24.0174 62.9117 24.8019 63.0522 25.8666 63.2771L34.2725 62.012L34.3565 61.8433V59.988C34.1884 59.8193 33.8522 59.7349 33.3478 59.7349C31.9468 59.7349 31.0502 59.9599 30.658 60.4096C30.0976 59.9036 29.4251 58.4699 28.6406 56.1084C27.856 53.6908 27.2396 52.1727 26.7913 51.5542ZM38.7275 57.7108C39.456 57.7109 40.0724 57.1767 40.5768 56.1084C41.1372 55.0401 41.4174 53.9719 41.4174 52.9036C41.4174 52.51 41.3053 52.004 41.0812 51.3855H36.1217V53.494C36.4579 53.6627 36.7381 53.747 36.9623 53.747C37.1304 53.747 37.2985 53.7189 37.4667 53.6627C37.6908 53.6065 37.8589 53.5783 37.971 53.5783C38.6435 53.5783 39.1198 53.9157 39.4 54.5904C38.7275 55.0964 37.6348 55.5181 36.1217 55.8554V57.7108H38.7275ZM34.2725 51.9759C34.0483 51.9759 33.5159 52.0602 32.6754 52.2289C31.8348 52.3976 31.3024 52.4819 31.0783 52.4819C30.9101 52.4819 30.5459 52.3414 29.9855 52.0602L30.9942 58.6385C32.3951 58.4699 33.5159 58.245 34.3565 57.9638V56.0241C33.9642 55.9679 33.5719 55.9397 33.1797 55.9397C32.8435 55.9397 32.5352 55.9678 32.2551 56.0241C32.0869 55.8554 31.8628 55.6024 31.5826 55.265C31.6386 55.2089 32.5633 54.8996 34.3565 54.3373C34.3005 52.8755 34.2724 52.0884 34.2725 51.9759Z" fill="#BA0000"></path>
</svg>