<svg width="75" height="96" viewBox="0 0 75 96" fill="none" xmlns="http://www.w3.org/2000/svg">
<rect x="0.25" y="0.25" width="74.2" height="94.6" rx="7.75" fill="white"></rect>
<rect x="0.25" y="0.25" width="74.2" height="94.6" rx="7.75" stroke="#003500" stroke-width="0.5"></rect>
<path d="M46.6955 17.6241C45.5557 18.479 43.1908 19.1913 39.6007 19.7611C36.0675 20.274 33.7025 20.5305 32.5058 20.5304C30.7962 20.5305 29.343 20.1316 28.1463 19.3337L44.1311 16C44.7009 16.114 45.5557 16.3135 46.6955 16.5983V17.6241ZM43.8747 28.7365C41.5382 28.8505 39.5152 29.0215 37.8056 29.2494C36.153 29.4204 34.8992 29.5913 34.0445 29.7623C33.2466 29.9333 32.7622 30.0187 32.5913 30.0187C31.9074 30.0187 30.7107 29.5913 29.0011 28.7365L41.3103 26.3431C43.1908 26.4571 44.5015 26.97 45.2423 27.8817C44.6724 28.4516 44.2166 28.7365 43.8747 28.7365ZM49.7728 36.0023C51.3684 36.0023 52.6221 36.3443 53.5339 37.0281C54.5026 37.6549 54.987 38.3103 54.9871 38.9941C54.987 39.621 54.4741 39.9629 53.4484 40.0199L50.884 39.5925C49.1744 39.2506 46.9234 39.0796 44.1311 39.0796C41.6806 39.0796 39.1732 39.1651 36.6089 39.336C34.1014 39.507 32.2209 39.678 30.9672 39.8489C29.7705 40.0199 28.0893 40.2763 25.9239 40.6182C23.7584 40.9602 22.6471 41.1311 22.5901 41.1311C21.2224 41.1311 20.0257 40.5328 19 39.336L49.7728 36.0023Z" fill="#006C00"></path>
<path d="M48.2536 48.6693C48.6458 48.6694 49.1782 48.8943 49.8507 49.344C50.5791 49.7376 50.9994 50.0187 51.1115 50.1874V50.8621C50.8313 51.1433 50.439 51.2838 49.9347 51.2838C49.6545 51.2838 48.954 51.2557 47.8333 51.1995C46.7125 51.087 46.012 51.0308 45.7318 51.0308C43.7704 51.0308 42.4535 51.2838 41.7811 51.7898L38.9231 54.7416C39.0352 54.5168 39.3434 53.589 39.8478 51.9585C39.6796 51.7898 39.1473 51.7055 38.2507 51.7055C37.7463 51.7055 36.4294 51.7898 34.3 51.9585C34.2999 52.7457 34.0758 53.8983 33.6275 55.4163L33.3753 54.6573C33.1511 54.0951 32.899 53.589 32.6188 53.1392C32.3946 52.6894 32.1705 52.4645 31.9463 52.4645C31.4419 52.4645 30.3492 52.6332 28.6681 52.9706C27.0429 53.3079 25.9782 53.4766 25.4739 53.4766C24.5212 53.4766 23.5965 52.9987 22.7 52.0428L31.9463 51.0308L30.0971 47.4043H32.1985C32.2545 47.4043 32.7028 47.6011 33.5434 47.9947C33.5434 48.6694 33.7395 49.6814 34.1318 51.0308C34.5801 50.9745 36.5975 50.6654 40.184 50.1031C40.7444 48.2477 41.0806 46.5609 41.1927 45.0428C43.2661 46.2236 44.3028 46.9545 44.3028 47.2356L42.9579 49.344C43.126 49.5127 43.4342 49.5971 43.8826 49.5971C44.1627 49.5971 44.8912 49.4565 46.0681 49.1754C47.2448 48.838 47.9733 48.6694 48.2536 48.6693ZM27.4913 56.597C30.7975 56.4284 33.5434 56.1473 35.7289 55.7537C37.9144 55.3601 39.4835 55.0228 40.4362 54.7416C41.3888 54.4605 42.1173 54.32 42.6217 54.32C43.4622 54.32 44.583 55.0228 45.984 56.4284C45.2555 57.7778 44.6671 58.9304 44.2188 59.8862C43.7704 60.7858 43.4622 61.3762 43.2942 61.6573C43.182 61.9384 42.9859 62.3039 42.7058 62.7537C42.4255 63.2035 42.0052 63.8782 41.4449 64.7778C40.8284 64.2155 40.24 63.9344 39.6797 63.9344C38.839 63.9344 37.8584 64.1593 36.7376 64.6091V66.4645C36.8497 66.5208 37.1579 66.5489 37.6623 66.5489C37.7183 66.5489 39.4555 66.3802 42.8739 66.0428C46.2922 65.6493 48.0574 65.4525 48.1695 65.4525C48.7299 65.4525 49.9067 66.0428 51.7 67.2236C51.3076 68.0107 50.9994 69.2758 50.7753 71.0187C50.5511 72.7617 50.1869 74.4203 49.6826 75.9946C49.2342 77.6251 48.3936 78.9746 47.1608 80.0428C46.4883 79.1995 45.1434 77.6814 43.126 75.4886C44.8072 75.7697 45.7598 75.9103 45.984 75.9103C46.9366 75.9103 47.525 75.4043 47.7492 74.3922C47.9733 73.4364 48.0854 71.4404 48.0855 68.4043C47.6371 67.7858 46.8806 67.4766 45.8159 67.4766C42.1173 67.4766 39.0072 67.842 36.4855 68.573V70.8501C36.8217 71.1874 37.1299 71.3561 37.4101 71.3561C38.1946 71.3561 39.0912 71.1031 40.0999 70.5971C39.8197 70.3722 39.6796 69.9223 39.6797 69.2477C40.3521 69.3039 41.1647 69.6974 42.1173 70.4284C43.07 71.1031 43.5463 71.7778 43.5463 72.4525C43.5463 73.3521 43.2101 73.8019 42.5376 73.8019C42.2574 73.8019 41.7811 73.4364 41.1086 72.7055C40.4922 72.0308 40.1279 71.6653 40.0159 71.6091C34.2999 73.2958 31.3859 74.1392 31.2739 74.1392C30.9376 74.1392 30.5733 73.9705 30.1811 73.6332C29.8448 73.2958 29.6207 72.9304 29.5087 72.5368C30.7415 72.3681 32.5347 72.0308 34.8884 71.5248V69.5007C34.8323 68.9947 34.468 68.7416 33.7956 68.7416C30.9376 68.7416 28.7241 68.9665 27.155 69.4163C27.155 70.9906 27.155 72.2276 27.155 73.1272C27.211 74.083 27.2391 74.6734 27.2391 74.8983C27.2951 75.1232 27.3231 75.3199 27.3231 75.4886C27.3791 75.7135 27.4072 75.9665 27.4072 76.2477C27.4072 76.3601 27.3231 76.6974 27.155 77.2597C27.0429 77.8219 26.9869 78.1874 26.9869 78.3561C26.9869 78.581 27.0429 78.7496 27.155 78.8621H26.2304C25.8941 78.8621 25.698 78.6653 25.642 78.2718C25.3057 73.6051 24.8294 70.1472 24.213 67.8982C24.7173 67.9545 25.5019 68.095 26.5666 68.3199L34.9724 67.0549L35.0565 66.8862V65.0308C34.8883 64.8621 34.5521 64.7778 34.0478 64.7778C32.6468 64.7778 31.7502 65.0027 31.3579 65.4525C30.7975 64.9464 30.125 63.5127 29.3405 61.1513C28.556 58.7336 27.9395 57.2155 27.4913 56.597ZM39.4275 62.7537C40.1559 62.7537 40.7724 62.2195 41.2768 61.1513C41.8371 60.083 42.1173 59.0147 42.1173 57.9465C42.1173 57.5529 42.0052 57.0469 41.7811 56.4284H36.8217V58.5368C37.1579 58.7055 37.4381 58.7898 37.6623 58.7898C37.8304 58.7898 37.9985 58.7617 38.1666 58.7055C38.3907 58.6492 38.5588 58.6211 38.671 58.6211C39.3434 58.6211 39.8197 58.9585 40.0999 59.6332C39.4274 60.1392 38.3347 60.5609 36.8217 60.8983V62.7537H39.4275ZM34.9724 57.0187C34.7482 57.0187 34.2159 57.1031 33.3753 57.2718C32.5347 57.4404 32.0023 57.5248 31.7782 57.5248C31.6101 57.5248 31.2458 57.3842 30.6855 57.1031L31.6942 63.6814C33.0951 63.5127 34.2159 63.2878 35.0565 63.0067V61.0669C34.6642 61.0107 34.2719 60.9826 33.8797 60.9826C33.5434 60.9826 33.2352 61.0107 32.955 61.0669C32.7869 60.8983 32.5627 60.6452 32.2826 60.3079C32.3385 60.2516 33.2632 59.9425 35.0565 59.3802C35.0004 57.9184 34.9724 57.1312 34.9724 57.0187Z" fill="#BA0000"></path>
</svg>