<svg width="75" height="96" viewBox="0 0 75 96" fill="none" xmlns="http://www.w3.org/2000/svg">
<rect x="0.25" y="0.25" width="74.2" height="94.6" rx="7.75" fill="white"></rect>
<rect x="0.25" y="0.25" width="74.2" height="94.6" rx="7.75" stroke="#003500" stroke-width="0.5"></rect>
<path d="M46.7771 38.3864C47.5305 38.3865 48.4869 38.3285 49.6461 38.2126C50.8632 38.0967 51.5008 38.0387 51.5588 38.0387C53.7612 38.0387 55.3551 38.8791 56.3405 40.5599C55.9347 40.6179 55.4131 40.7338 54.7756 40.9077L40.6044 41.0816C39.9088 41.1975 38.7206 41.3714 37.0398 41.6032C35.4169 41.8351 34.0838 42.0379 33.0406 42.2118C32.0552 42.3857 31.5336 42.4726 31.4757 42.4726C31.012 42.4726 30.5193 42.2698 29.9977 41.864C29.476 41.4583 29.1862 41.0526 29.1283 40.6469L35.5619 40.1252C35.8516 39.8934 36.3733 38.4444 37.1268 35.7782C37.9382 33.0542 38.3439 31.4023 38.3439 30.8227C38.3439 30.417 38.199 30.2141 37.9092 30.2141C37.7353 30.2141 37.3006 30.3011 36.6051 30.4749C35.9675 30.6488 35.5618 30.7358 35.388 30.7357C34.5765 30.7358 33.823 30.5329 33.1275 30.1272C33.1275 29.8374 33.1855 29.6635 33.3014 29.6055C34.4606 29.4896 36.1124 29.1998 38.257 28.7361C38.6627 28.6202 39.0394 27.8378 39.3872 26.3887C39.7349 24.9398 39.9088 23.4039 39.9088 21.7809L35.5619 20.4768V19.9552L48.1681 17.0862C48.9216 17.2601 49.704 17.5499 50.5155 17.9556V18.738C49.2403 19.2597 47.5595 19.7814 45.473 20.3029C43.3864 20.7667 42.2272 21.0275 41.9954 21.0854C42.6909 22.1287 43.0386 22.6794 43.0387 22.7373C43.0386 22.7953 42.9227 23.1141 42.6909 23.6936C42.517 24.2733 42.2562 24.9977 41.9085 25.8671C41.6186 26.7365 41.3868 27.4321 41.2129 27.9537C42.0243 27.9537 43.1835 27.7219 44.6905 27.2581L46.864 26.6496C47.1538 26.6496 47.8203 26.9974 48.8637 27.6928C49.9648 28.3304 50.5155 28.8231 50.5155 29.1708C50.5155 29.2868 50.3416 29.5476 49.9939 29.9533C49.6461 30.359 49.1534 31.2864 48.5159 32.7353C47.8783 34.1264 47.2987 36.0101 46.7771 38.3864ZM18 31.8659C21.2457 28.3304 23.738 25.2296 25.4768 22.5634C27.2736 19.8393 28.2879 18.0426 28.5197 17.1731C28.7515 16.2458 28.9544 15.0866 29.1283 13.6955C29.1283 13.4058 29.3311 13.1739 29.7369 13C31.8814 13.9854 32.9536 14.9127 32.9537 15.7821C32.9536 16.3038 32.2871 17.434 30.954 19.1727L28.172 22.8242C28.2299 22.8243 28.3168 22.9981 28.4328 23.3458C28.5487 23.6937 28.6646 24.1284 28.7805 24.6499C28.8964 25.1137 28.9544 25.5484 28.9544 25.954L28.7805 32.5615C28.7805 32.6774 28.5197 35.8942 27.9981 42.2118C27.8242 45.0519 27.3895 46.4719 26.694 46.4718C26.2882 46.4719 25.9115 46.0662 25.5638 45.2547C25.2739 44.3853 25.129 43.6318 25.1291 42.9942L26.9548 26.9973C26.9548 26.5337 26.8678 25.9831 26.694 25.3455L22.5209 29.3447C20.7821 30.9676 19.2751 31.808 18 31.8659ZM46.1685 30.1272C46.1685 29.7794 46.1105 29.5186 45.9946 29.3447H42.604C42.4301 29.3447 42.1113 29.4607 41.6476 29.6925C41.1839 29.9243 40.9231 30.0982 40.8652 30.2141L38.4309 39.6905C39.2423 39.6906 40.3145 39.6036 41.6476 39.4297C43.0386 39.1979 43.8791 39.082 44.1689 39.082C44.5746 38.1546 44.8644 37.3142 45.0383 36.5607C45.2121 35.7493 45.357 34.8799 45.473 33.9525C45.5889 33.0252 45.7338 32.2427 45.9077 31.6051C46.0815 30.6778 46.1685 30.1852 46.1685 30.1272Z" fill="#006C00"></path>
<path d="M48.6028 50.2103C49.0085 50.2103 49.5591 50.4421 50.2547 50.9058C51.0081 51.3115 51.4428 51.6013 51.5588 51.7752V52.4707C51.2689 52.7605 50.8632 52.9054 50.3416 52.9054C50.0518 52.9054 49.3273 52.8764 48.1681 52.8185C47.0089 52.7026 46.2844 52.6446 45.9946 52.6446C43.966 52.6446 42.6039 52.9054 41.9084 53.427L38.9525 56.4699C39.0684 56.2381 39.3871 55.2818 39.9088 53.6009C39.7349 53.427 39.1843 53.3401 38.257 53.3401C37.7353 53.3401 36.3732 53.427 34.1708 53.6009C34.1708 54.4124 33.9389 55.6005 33.4753 57.1654L33.2145 56.383C32.9826 55.8034 32.7218 55.2818 32.432 54.8181C32.2001 54.3544 31.9683 54.1226 31.7365 54.1226C31.2148 54.1226 30.0846 54.2965 28.3458 54.6442C26.665 54.992 25.5637 55.1658 25.0421 55.1658C24.0568 55.1658 23.1004 54.6732 22.1731 53.6879L31.7365 52.6446L29.8238 48.9062H31.9973C32.0552 48.9062 32.5189 49.109 33.3883 49.5147C33.3883 50.2103 33.5912 51.2536 33.9969 52.6446C34.4606 52.5866 36.5471 52.2679 40.2566 51.6882C40.8361 49.7756 41.1839 48.0368 41.2999 46.4718C43.4443 47.689 44.5166 48.4425 44.5166 48.7323L43.1256 50.9058C43.2994 51.0797 43.6182 51.1666 44.0819 51.1666C44.3717 51.1666 45.1252 51.0217 46.3424 50.7319C47.5595 50.3842 48.313 50.2103 48.6028 50.2103ZM27.1287 58.3826C30.5483 58.2087 33.3883 57.9189 35.6488 57.5132C37.9092 57.1075 39.532 56.7597 40.5174 56.4699C41.5027 56.1801 42.2562 56.0352 42.7778 56.0352C43.6472 56.0352 44.8064 56.7597 46.2554 58.2087C45.5019 59.5998 44.8933 60.788 44.4297 61.7733C43.966 62.7006 43.6472 63.3092 43.4734 63.599C43.3574 63.8888 43.1545 64.2655 42.8648 64.7292C42.5749 65.1929 42.1402 65.8884 41.5607 66.8158C40.9231 66.2362 40.3145 65.9464 39.7349 65.9464C38.8655 65.9464 37.8512 66.1782 36.692 66.6419V68.5546C36.8079 68.6125 37.1267 68.6415 37.6484 68.6415C37.7063 68.6415 39.5031 68.4676 43.0387 68.1199C46.5742 67.7142 48.3999 67.5113 48.5159 67.5113C49.0954 67.5113 50.3126 68.1199 52.1673 69.337C51.7616 70.1485 51.4428 71.4526 51.211 73.2493C50.9791 75.0461 50.6024 76.7559 50.0808 78.3788C49.6171 80.0596 48.7477 81.4506 47.4726 82.5519C46.777 81.6825 45.386 80.1176 43.2995 77.8571C45.0382 78.1469 46.0235 78.2918 46.2554 78.2918C47.2407 78.2918 47.8493 77.7702 48.0812 76.7269C48.313 75.7416 48.4289 73.684 48.4289 70.5542C47.9652 69.9166 47.1827 69.5979 46.0816 69.5978C42.2562 69.5979 39.0394 69.9746 36.4312 70.7281V73.0754C36.779 73.4232 37.0977 73.5971 37.3876 73.5971C38.199 73.5971 39.1263 73.3363 40.1696 72.8146C39.8798 72.5828 39.7349 72.1191 39.7349 71.4236C40.4304 71.4815 41.2708 71.8873 42.2562 72.6407C43.2415 73.3363 43.7341 74.0318 43.7342 74.7273C43.7341 75.6547 43.3864 76.1183 42.6909 76.1183C42.4011 76.1183 41.9084 75.7416 41.2129 74.9881C40.5753 74.2926 40.1986 73.9159 40.0827 73.8579C34.1708 75.5967 31.1568 76.4661 31.041 76.4661C30.6932 76.4661 30.3164 76.2922 29.9107 75.9445C29.563 75.5967 29.3311 75.22 29.2152 74.8142C30.4903 74.6404 32.345 74.2926 34.7794 73.771V71.6844C34.7214 71.1628 34.3446 70.9019 33.6492 70.9019C30.6932 70.9019 28.4038 71.1338 26.7809 71.5975C26.7809 73.2203 26.7809 74.4955 26.7809 75.4228C26.8388 76.4081 26.8678 77.0167 26.8678 77.2486C26.9257 77.4804 26.9548 77.6832 26.9548 77.8571C27.0127 78.089 27.0417 78.3498 27.0417 78.6396C27.0417 78.7555 26.9548 79.1033 26.7809 79.6829C26.665 80.2625 26.607 80.6392 26.607 80.8131C26.607 81.0449 26.6649 81.2188 26.7809 81.3347H25.8246C25.4768 81.3347 25.2739 81.1319 25.216 80.7261C24.8682 75.9155 24.3755 72.3509 23.738 70.0325C24.2596 70.0905 25.0711 70.2354 26.1723 70.4672L34.8663 69.1631L34.9533 68.9893V67.0766C34.7793 66.9027 34.4316 66.8158 33.91 66.8158C32.461 66.8158 31.5336 67.0476 31.1279 67.5113C30.5483 66.9897 29.8527 65.5117 29.0413 63.0774C28.2299 60.5851 27.5923 59.0202 27.1287 58.3826ZM39.4741 64.7292C40.2276 64.7292 40.8651 64.1786 41.3868 63.0774C41.9664 61.9761 42.2562 60.8749 42.2562 59.7736C42.2562 59.3679 42.1402 58.8463 41.9084 58.2087H36.779V60.3822C37.1267 60.5561 37.4165 60.6431 37.6484 60.643C37.8222 60.6431 37.9961 60.6141 38.17 60.5561C38.4018 60.4982 38.5757 60.4692 38.6917 60.4692C39.3872 60.4692 39.8798 60.8169 40.1696 61.5124C39.4741 62.0341 38.3439 62.4688 36.779 62.8165V64.7292H39.4741ZM34.8663 58.8173C34.6344 58.8173 34.0838 58.9043 33.2145 59.0781C32.345 59.252 31.7944 59.339 31.5626 59.3389C31.3887 59.339 31.0119 59.1941 30.4324 58.9042L31.4757 65.6856C32.9246 65.5117 34.0838 65.2798 34.9533 64.99V62.9904C34.5475 62.9325 34.1418 62.9035 33.7361 62.9035C33.3883 62.9035 33.0695 62.9325 32.7798 62.9904C32.6058 62.8165 32.374 62.5557 32.0842 62.208C32.1421 62.15 33.0985 61.8312 34.9533 61.2516C34.8953 59.7447 34.8663 58.9332 34.8663 58.8173Z" fill="#BA0000"></path>
</svg>