<svg width="75" height="96" viewBox="0 0 75 96" fill="none" xmlns="http://www.w3.org/2000/svg">
<rect x="0.25" y="0.25" width="74.2" height="94.6" rx="7.75" fill="white"></rect>
<rect x="0.25" y="0.25" width="74.2" height="94.6" rx="7.75" stroke="#003500" stroke-width="0.5"></rect>
<path d="M24.7896 24.6168C23.5639 25.9066 21.586 27.2804 18.8559 28.7383C16.1815 30.1963 14.0643 30.9253 12.5043 30.9252C12.4486 30.9253 12.365 30.9253 12.2536 30.9252C12.1979 30.9253 12.0586 30.9253 11.8357 30.9252C11.6129 30.9253 11.3343 30.9253 11 30.9252C11.1671 30.8692 11.7522 30.6169 12.755 30.1682C13.8136 29.7197 14.5379 29.4113 14.928 29.243C15.3179 29.0187 15.9865 28.6542 16.9337 28.1495C17.8809 27.6449 18.633 27.2243 19.1902 26.8879C19.7473 26.4954 20.3881 25.9907 21.1124 25.3738C21.8367 24.7571 22.5053 24.1402 23.1182 23.5234C21.3352 21.6169 20.0816 20.6636 19.3573 20.6636L16.1816 22.514L20.3602 17.5514C22.0317 15.3645 22.8674 13.5141 22.8674 12C24.0374 12.3926 24.9846 12.8131 25.7089 13.2617V14.1869C24.3717 15.4206 23.4246 16.458 22.8674 17.2991C22.8674 17.3552 23.0067 17.3832 23.2853 17.3832L28.4669 15.785C29.1354 15.7851 29.8597 16.486 30.6398 17.8879L25.5418 23.4393C25.5418 23.6075 25.8761 23.9159 26.5447 24.3645C27.2132 24.8131 28.1325 25.3178 29.3026 25.8785C30.5283 26.4393 31.6983 26.9159 32.8127 27.3084L40 29.3271C37.437 30.0561 35.682 30.4206 34.7349 30.4206C33.2862 30.4206 31.5591 29.6916 29.5533 28.2336L24.7896 24.6168ZM26.9625 32.271C26.6282 32.3832 26.4054 32.4393 26.2939 32.4393C25.6811 32.4393 24.7896 31.9066 23.6196 30.8411L21.196 28.7383C21.8088 28.7384 22.3103 28.7384 22.7003 28.7383C23.0903 28.7384 23.341 28.7384 23.4525 28.7383C23.6196 28.7384 23.731 28.7384 23.7867 28.7383C24.3439 28.7384 25.0125 29.1028 25.7925 29.8318C26.5725 30.5047 26.9625 31.0094 26.9625 31.3458V32.271ZM27.7147 38.4953C27.4361 38.8318 27.0461 39 26.5447 39C25.8761 39 24.6782 38.2991 22.951 36.8972L19.9424 34.3738C20.6109 34.3739 21.1402 34.3739 21.5303 34.3738C21.976 34.3739 22.2824 34.3739 22.4496 34.3738C22.6167 34.3739 22.7003 34.3739 22.7003 34.3738C23.536 34.3739 24.7617 34.9066 26.3775 35.972C27.1018 36.5327 27.5475 37.3739 27.7147 38.4953ZM26.9625 17.972C25.5139 18.1402 24.5946 18.2244 24.2046 18.2243C23.4246 18.2244 22.756 18.0842 22.1988 17.8037C21.4745 18.4767 20.7781 19.2617 20.1095 20.1589C20.9452 20.5515 21.6138 20.9159 22.1153 21.2523L24.0375 22.4299C24.8732 21.4767 25.8482 19.9907 26.9625 17.972Z" fill="#9C0000"></path>
<path d="M57 70.9248L55.4367 73.2406L49.3481 69.6015L49.5949 76.3007L47.7025 75.6391L47.1266 68.1955L38.5696 63.0677V73.2406L45.0696 77.5413L44.2468 79.4436L38.5696 75.6391L38.6519 83H36.2658L36.3481 75.6391L30.6709 79.4436L29.8481 77.5413L36.3481 73.2406V63.0677L27.7911 68.1955L27.2152 75.6391L25.3228 76.3007L25.5696 69.6015L19.481 73.2406L18 70.9248L24.2532 67.3684L18.2468 64.4737L19.481 62.7368L26.3924 66.1278L35.5253 61L26.3924 55.9549L19.481 59.2632L18.2468 57.5263L24.2532 54.7143L18 51.0752L19.481 48.8421L25.5696 52.4812L25.3228 45.6992L27.2152 46.2782L27.7911 53.8872L36.3481 59.015V48.8421L29.8481 44.3759L30.6709 42.5564L36.3481 46.2782L36.2658 39H38.6519L38.5696 46.2782L44.2468 42.5564L45.0696 44.3759L38.5696 48.8421V59.015L47.1266 53.8872L47.7025 46.2782L49.5949 45.6992L49.3481 52.4812L55.4367 48.8421L57 51.0752L50.7468 54.7143L56.6709 57.5263L55.4367 59.2632L48.443 55.9549L39.3924 61L48.443 66.1278L55.4367 62.7368L56.6709 64.4737L50.7468 67.3684L57 70.9248Z" fill="#006C00"></path>
</svg>