<svg width="75" height="96" viewBox="0 0 75 96" fill="none" xmlns="http://www.w3.org/2000/svg">
<rect x="0.25" y="0.25" width="74.2" height="94.6" rx="7.75" fill="white"></rect>
<rect x="0.25" y="0.25" width="74.2" height="94.6" rx="7.75" stroke="#003500" stroke-width="0.5"></rect>
<path d="M37.3569 20.7524C34.6651 22.3676 33.1846 23.1751 32.9154 23.1751H32.3501C34.2344 20.6986 35.1765 19.1912 35.1765 18.6528C36.6301 19.5681 37.3569 20.2679 37.3569 20.7524ZM22.3366 34.8844C27.3433 31.8158 29.8467 26.1092 29.8467 17.7645C29.8467 15.2343 29.5775 13.6461 29.0392 13H30.3313C30.7081 13.0001 31.1119 13.1346 31.5426 13.4038C31.9732 13.673 32.1886 14.0229 32.1886 14.4536C32.1886 14.5075 32.1886 14.5613 32.1886 14.6151L30.5735 25.0324C31.1657 26.8629 32.4308 28.7741 34.369 30.766C36.3071 32.758 38.1106 33.9962 39.7795 34.4807C39.9948 34.6422 40.3179 34.8306 40.7486 35.046C39.941 35.369 39.1335 35.5305 38.326 35.5305C36.6032 35.5305 35.4188 35.2344 34.7727 34.6422C34.1267 33.9962 33.4806 32.8387 32.8346 31.1697C32.2424 29.5009 31.4618 28.0473 30.4928 26.809C29.9005 28.5856 28.77 30.3892 27.1011 32.2196C25.486 34.05 23.9516 35.046 22.4981 35.2075C22.3904 35.0998 22.3365 34.9922 22.3366 34.8844ZM27.3433 25.1939C26.8588 25.1401 26.3474 24.7633 25.809 24.0634C25.3245 23.3097 25.0822 22.7444 25.0822 22.3675C25.0822 22.1522 25.2168 22.0445 25.486 22.0445C25.9167 22.0445 26.4012 22.2599 26.9396 22.6905C27.4779 23.1213 27.7471 23.552 27.7471 23.9826C27.6394 24.198 27.5048 24.6018 27.3433 25.1939ZM18.8641 23.0135C18.7026 23.0136 17.9489 23.2289 16.603 23.6596C15.3109 24.0365 14.5841 24.2249 14.4226 24.2249C13.8843 24.2249 13.2113 23.8481 12.4038 23.0943L19.9947 21.8022V17.6838C19.9408 17.63 19.7793 17.6031 19.5102 17.603L16.3607 18.4913L19.6717 16.2302C20.9637 15.315 21.7713 14.3729 22.0943 13.4038C22.7942 13.673 23.7094 14.1575 24.84 14.8574L20.6407 17.1185C20.856 17.3339 21.2867 17.63 21.9328 18.0068C21.6098 19.8911 21.4213 20.8332 21.3675 20.8332C21.3675 20.9409 21.4483 21.0755 21.6098 21.237H21.9328C22.0405 21.237 22.2827 21.1293 22.6596 20.9139C23.0903 20.6448 23.3864 20.5102 23.5479 20.5102C23.7094 20.6179 23.9786 20.7794 24.3554 20.9947C24.1939 21.3178 23.6017 21.6408 22.5788 21.9637C21.6098 22.233 21.1252 22.9059 21.1253 23.9826L21.206 25.6784C21.2599 25.7323 21.5828 25.84 22.1751 26.0015C22.8211 26.1092 23.3863 26.2976 23.8709 26.5667C24.4092 26.7821 24.6784 27.1321 24.6784 27.6166C24.6784 27.9396 24.5169 28.2626 24.1939 28.5856C23.2248 27.9396 22.3096 27.2397 21.4483 26.486C21.1791 26.9706 21.0445 27.5628 21.0445 28.2626V34.2384C21.0445 34.723 20.7215 35.9881 20.0754 38.0339C19.3756 37.7647 19.0256 37.011 19.0256 35.7727C19.0256 35.719 19.1871 34.6153 19.5102 32.4618C19.887 30.3084 20.0754 28.6126 20.0754 27.3743C20.0754 26.2976 19.9947 25.4362 19.8332 24.7901C19.564 25.4362 19.0256 26.4053 18.2181 27.6973C17.5182 28.5049 16.4953 29.447 15.1494 30.5237C13.8035 31.6005 12.996 32.1388 12.7268 32.1388H12C16.3607 28.6933 18.8103 25.6785 19.3487 23.0943C19.3486 23.0405 19.1871 23.0136 18.8641 23.0135Z" fill="#9C0000"></path>
<path d="M48.4087 44.1262C49.8623 45.5798 50.5891 47.0334 50.5891 48.4869C50.5891 48.8638 50.1853 50.3443 49.3778 52.9284C49.4854 53.0899 49.5662 53.1707 49.62 53.1707C50.4276 53.1707 54.3038 51.098 61.2487 46.9526V48.8099C60.3873 49.1868 59.499 49.6444 58.5838 50.1827C57.6685 50.7211 56.5649 51.421 55.2729 52.2824C53.9807 53.0899 52.9309 53.736 52.1234 54.2205L53.9 55.028C54.223 55.1357 54.4384 55.2434 54.5461 55.351C54.6537 55.4049 54.8152 55.5395 55.0306 55.7548C55.2459 55.9702 55.4343 56.2663 55.5959 56.6431C55.7573 57.02 55.9188 57.5583 56.0804 58.2582C56.2957 58.9042 56.538 59.7387 56.8072 60.7616C56.4303 60.7616 56.188 60.8154 56.0804 60.9231C56.4572 61.623 56.6456 62.5113 56.6457 63.588C56.6456 63.6957 56.6456 63.8841 56.6457 64.1533C56.6456 64.3686 56.6456 64.5301 56.6457 64.6378C56.6456 65.1762 56.6995 65.5799 56.8072 65.8491H55.9997C55.9458 66.1183 55.9188 66.3875 55.9189 66.6567C55.9188 66.872 55.9458 67.2489 55.9997 67.7872C55.7843 67.8949 55.5958 68.0833 55.4344 68.3525C55.2728 68.6217 55.1651 68.8639 55.1114 69.0793C55.0575 69.2946 55.0036 69.5638 54.9498 69.8868C54.896 70.2098 54.869 70.4252 54.8691 70.5329C54.223 70.0483 53.2001 69.4292 51.8004 68.6755C51.8004 69.16 51.585 69.833 51.1544 70.6944C50.7775 71.5558 50.5891 72.3095 50.5891 72.9555L49.8623 72.2287C49.3777 72.8209 48.8663 73.5208 48.328 74.3283C47.7896 75.1359 47.4127 75.6473 47.1974 75.8627C47.0359 75.8627 46.659 75.6742 46.0669 75.2974C45.9053 75.5666 45.6361 75.9434 45.2593 76.4279C45.2055 76.4279 44.8824 76.4818 44.2903 76.5895L42.6752 78.366L42.3522 77.9623L36.6993 82C37.6145 79.685 38.0721 78.2045 38.0722 77.5585C38.0721 77.5047 37.9375 77.4239 37.6684 77.3162C37.6684 76.6702 37.7492 76.1588 37.9107 75.7819C37.9106 75.7281 37.8299 75.6473 37.6684 75.5396C37.5607 75.432 37.5069 75.3512 37.5069 75.2974C37.5069 75.1897 37.5877 74.9205 37.7492 74.4898C37.9645 74.113 38.0721 73.8707 38.0722 73.763C38.0721 73.2785 37.803 73.0363 37.2646 73.0363C36.8877 72.6594 36.4571 71.7442 35.9726 70.2906L33.6307 72.148C33.6845 71.6634 33.6845 71.3135 33.6307 71.0981C32.9308 71.5288 32.5001 71.7442 32.3386 71.7442C32.2309 71.7442 32.1232 71.6903 32.0156 71.5827C31.9079 71.475 31.8002 71.4212 31.6926 71.4212C31.5849 71.4212 31.3426 71.5288 30.9658 71.7442C30.5889 72.0134 30.3466 72.148 30.239 72.148C30.1313 72.148 29.9967 72.0941 29.8352 71.9864C29.7275 71.8788 29.6199 71.8249 29.5122 71.8249C29.5122 71.8788 28.4085 72.148 26.2013 72.6325C26.5243 71.7173 26.7127 71.2597 26.7666 71.2597C26.7665 71.0443 26.605 70.7751 26.282 70.4521C25.7437 70.7213 25.1784 70.8559 24.5862 70.8559C24.5323 70.8559 24.3439 70.802 24.0209 70.6944C23.6979 70.5867 23.5094 70.5329 23.4556 70.5329C23.2941 70.6405 22.7019 70.829 21.679 71.0981C21.679 70.5598 21.6252 70.2906 21.5175 70.2906C21.4637 70.2906 21.0868 70.3444 20.387 70.4521C19.7409 70.5598 19.3102 70.6136 19.0949 70.6136C19.041 70.6136 18.9064 70.6675 18.6911 70.7751C18.4758 70.9366 18.3143 71.0174 18.2066 71.0174C18.0989 71.0174 17.9643 70.9905 17.8028 70.9366C17.6413 70.8828 17.5067 70.8559 17.399 70.8559C17.3452 70.8559 16.3492 71.1251 14.4111 71.6634C15.111 71.0174 15.8109 70.2637 16.5107 69.4023C17.2644 68.4871 18.395 67.2758 19.9024 65.7684C19.9024 65.23 20.1178 64.5301 20.5485 63.6687C21.033 62.8074 21.4906 62.269 21.9213 62.0537C21.6521 61.6768 21.0061 61.4884 19.9832 61.4884C20.4677 60.4117 21.1137 59.4964 21.9213 58.7427C21.9213 58.4736 22.1635 58.1775 22.6481 57.8544C23.1326 57.5314 23.4018 57.2892 23.4556 57.1276C23.4556 57.0738 23.4018 56.9931 23.2941 56.8854C24.8015 55.2165 26.0128 54.1128 26.9281 53.5744C26.1743 52.6592 24.9092 51.3941 23.1326 49.779C23.3479 49.6713 23.644 49.4829 24.0209 49.2137C23.8055 48.9984 22.9442 48.4062 21.4368 47.4371L21.5983 47.2756C19.9293 46.4142 18.4488 45.7682 17.1568 45.3375H20.387C20.5484 45.3375 21.033 45.2298 21.8405 45.0145C22.6481 44.7991 23.644 44.6915 24.8285 44.6914C25.0438 44.4223 25.1514 44.1531 25.1515 43.8839C25.8513 43.8839 26.4166 43.9109 26.8473 43.9647C26.8473 43.857 26.7935 43.7493 26.6858 43.6416H29.2699C29.1622 43.3187 29.0277 42.7265 28.8662 41.865C29.9429 42.0804 30.6697 42.1881 31.0465 42.1881C31.1542 42.1881 31.2888 42.1612 31.4503 42.1073C31.6656 41.9997 31.8271 41.9458 31.9348 41.9458C32.0963 41.9458 32.527 42.0535 33.2269 42.2688C33.3884 42.215 33.5768 41.9458 33.7922 41.4613L34.842 42.0266C34.8958 42.0266 35.0035 42.0266 35.165 42.0266C35.3265 41.9727 35.4611 41.9458 35.5688 41.9458L36.8609 42.3496C36.8608 41.8112 36.7532 40.6807 36.5378 38.9579H38.2337C38.3952 38.9579 38.7451 39.1194 39.2835 39.4424C39.8218 39.7116 40.1718 39.8462 40.3333 39.8462C40.3871 39.8462 40.4409 39.8193 40.4948 39.7654C40.6024 39.7116 40.6832 39.6847 40.7371 39.6847L41.3831 40.0884C41.7599 40.3577 42.0022 40.4922 42.1099 40.4922C42.2175 40.4922 42.2983 40.4653 42.3522 40.4115C42.4059 40.3577 42.4867 40.3307 42.5944 40.3307C42.6482 40.3307 42.9174 40.6268 43.402 41.219V40.25C43.9941 40.6807 44.8017 41.3267 45.8246 42.1881C45.8784 42.2958 45.9592 42.5111 46.0669 42.8341C46.1207 42.888 46.3629 42.9149 46.7937 42.9149L47.7627 45.0952C47.978 44.8799 48.1934 44.5569 48.4087 44.1262ZM50.0238 69.7253C50.616 68.9716 50.9121 68.2717 50.9121 67.6257C51.0198 67.4642 51.262 67.3834 51.6389 67.3834C52.2849 67.3834 53.0924 67.7603 54.0615 68.514C54.223 68.191 54.4384 67.7065 54.7076 67.0604C54.7075 66.4682 54.7614 65.6069 54.8691 64.4763H55.5959C55.5958 63.5072 55.4074 62.6189 55.0306 61.8114C54.6537 61.0039 54.4653 60.5193 54.4653 60.3578C54.4653 60.0348 54.7614 59.7118 55.3536 59.3888C54.9767 58.4197 54.7345 57.8275 54.6268 57.6122C54.573 57.343 54.3307 56.9931 53.9 56.5624C53.4693 56.1317 52.9579 55.8356 52.3657 55.6741C51.8273 55.5126 50.939 55.2703 49.7008 54.9473C49.6469 54.7858 49.5662 54.5973 49.4585 54.382C48.5433 54.1128 48.0857 53.6552 48.0857 53.0092C48.0857 52.9553 48.301 52.3362 48.7318 51.1518C49.1624 49.9674 49.3778 49.106 49.3778 48.5677C49.3778 48.1908 49.2432 47.7332 48.974 47.1948C48.7586 46.6027 48.5702 46.2796 48.4087 46.2258C47.978 46.5488 47.6281 46.7911 47.3589 46.9526C47.1435 46.3604 46.7129 45.5259 46.0669 44.4492C45.7976 44.3415 45.4477 44.0993 45.0171 43.7224C44.9632 43.4532 44.8017 43.1302 44.5325 42.7533C44.2633 43.0226 44.021 43.1571 43.8057 43.1571C43.5904 43.1571 43.1058 42.7265 42.3522 41.865C42.0291 41.8651 41.733 41.8112 41.4639 41.7035C41.2485 41.5421 41.06 41.4075 40.8986 41.2998C40.7909 41.1383 40.7101 41.0575 40.6563 41.0575C40.6025 41.0575 40.5486 41.0844 40.4948 41.1383C40.4409 41.1921 40.3871 41.219 40.3333 41.219C39.9564 41.219 39.2027 40.9768 38.0722 40.4922C38.2336 41.6228 38.3144 42.4304 38.3144 42.9149C38.3144 43.3994 38.2336 43.7493 38.0722 43.9647H37.1839C37.13 43.9647 36.8608 43.8301 36.3763 43.5609C35.8918 43.2917 35.5957 43.1571 35.488 43.1571C35.3265 43.1571 34.9766 43.211 34.4382 43.3186C33.8998 43.4263 33.5768 43.4802 33.4692 43.4801C33.4153 43.4802 33.3615 43.4802 33.3077 43.4801C33.2538 43.4802 33.173 43.4802 33.0654 43.4801C33.0115 43.4263 32.9039 43.3994 32.7424 43.3994C32.6347 43.3456 32.3924 43.3186 32.0156 43.3186C31.6925 43.3187 31.2619 43.3187 30.7235 43.3186C30.8312 43.6417 30.8581 43.8839 30.8043 44.0454C30.5889 44.3146 29.1084 44.7453 26.3628 45.3375C26.3089 45.4452 26.1743 45.6874 25.959 46.0643C25.4206 45.9028 24.963 45.822 24.5862 45.822C23.3479 45.822 22.7288 46.0374 22.7288 46.468C23.2672 46.6296 23.6709 46.8988 23.9401 47.2756C23.9401 47.4371 24.0209 47.5986 24.1824 47.7601C24.3977 47.9216 24.6669 48.137 24.99 48.4062C25.3129 48.6754 25.5821 48.9445 25.7975 49.2137C25.4206 49.5906 25.2322 49.8328 25.2322 49.9405C26.0397 50.8019 27.1703 52.094 28.6239 53.8167C26.3628 55.5933 25.2322 56.8585 25.2322 57.6122C23.6171 58.5274 22.5673 59.4964 22.0828 60.5193C22.5135 60.7347 23.1057 61.0577 23.8594 61.4884C23.321 61.9729 22.8365 62.5113 22.4058 63.1035C21.9751 63.6957 21.679 64.1533 21.5175 64.4763C21.356 64.7455 21.2752 64.907 21.2753 64.9608C21.2752 65.23 21.3829 65.553 21.5983 65.9299L19.3371 67.9487C19.1756 68.3794 18.8795 68.8639 18.4489 69.4023C18.7719 69.2408 19.041 69.16 19.2564 69.16C19.3641 69.16 19.4717 69.2139 19.5794 69.3216C19.6871 69.4292 19.7947 69.4831 19.9024 69.4831C20.0639 69.4831 20.4408 69.3754 21.033 69.16C21.679 68.8909 22.0828 68.7563 22.2443 68.7563C22.352 68.7563 22.4866 68.9985 22.6481 69.4831L23.7786 69.16C23.8324 69.16 23.994 69.2408 24.2632 69.4023C24.5323 69.5638 24.6938 69.6446 24.7477 69.6446C25.1245 69.6446 25.4745 69.4831 25.7975 69.16C26.1205 68.7832 26.3358 68.5678 26.4435 68.514L28.3816 71.2597C28.92 70.8828 29.3507 70.6944 29.6737 70.6944C29.7814 70.6944 29.8621 70.7213 29.916 70.7751C30.0236 70.829 30.1313 70.8559 30.239 70.8559C30.4005 70.8559 30.9927 70.3444 32.0156 69.3216C32.1771 69.4831 32.3655 69.8061 32.5809 70.2906C32.9039 70.0753 33.4691 69.7522 34.2767 69.3216C34.492 69.5907 34.6805 69.7253 34.842 69.7253C35.5957 69.0255 36.1879 68.514 36.6186 68.191C36.8877 69.0524 37.3184 70.3175 37.9107 71.9864H38.9605C39.0681 72.3633 39.122 72.794 39.122 73.2785C39.122 73.4939 39.0681 74.0591 38.9605 74.9744C39.0681 76.2126 39.122 77.1816 39.122 77.8815C39.122 78.366 39.095 78.716 39.0412 78.9313C40.1718 77.9623 41.2216 77.1816 42.1907 76.5895C42.3521 76.5894 42.5406 76.5625 42.7559 76.5087L44.1288 74.7321L44.5325 75.2166C44.9632 74.6244 45.4746 74.113 46.0669 73.6823C46.2283 73.8438 46.5244 74.0591 46.9552 74.3283C47.4396 73.6285 47.8973 72.9824 48.328 72.3902C48.7586 71.8519 49.0547 71.475 49.2163 71.2597C49.4316 71.0443 49.5931 70.829 49.7008 70.6136C49.8623 70.3983 49.943 70.2637 49.9431 70.2099C49.9969 70.1022 50.0237 69.9407 50.0238 69.7253ZM45.5823 56.1586C44.2364 58.0429 42.729 59.4157 41.0601 60.2771C39.445 61.0846 37.6145 61.7306 35.5688 62.2152C33.523 62.6459 31.9079 63.1573 30.7235 63.7495C30.5082 63.5342 30.4005 63.3188 30.4005 63.1035C31.208 62.8343 32.2847 62.4574 33.6307 61.9729C35.0304 61.4884 35.9725 61.1654 36.4571 61.0038C36.9954 60.8423 37.7222 60.5732 38.6375 60.1963C39.5526 59.8195 40.1987 59.5234 40.5756 59.308C41.0062 59.0927 41.5177 58.7966 42.1099 58.4197C42.7559 58.0429 43.2943 57.666 43.725 57.2891C44.1556 56.8585 44.6133 56.3739 45.0978 55.8356C45.3131 56.0509 45.4746 56.1586 45.5823 56.1586Z" fill="#006C00"></path>
</svg>