<svg width="75" height="95" viewBox="0 0 75 95" fill="none" xmlns="http://www.w3.org/2000/svg">
<rect x="0.25" y="0.25" width="74.5" height="94.5" rx="7.75" fill="white"></rect>
<rect x="0.25" y="0.25" width="74.5" height="94.5" rx="7.75" stroke="#003500" stroke-width="0.5"></rect>
<path d="M12.18 19.425C11.7667 19.425 11.3703 19.5892 11.0781 19.8814C10.7859 20.1737 10.6217 20.5701 10.6217 20.9833C10.6217 21.3966 10.7859 21.793 11.0781 22.0853C11.3703 22.3775 11.7667 22.5417 12.18 22.5417H14.2883L13.2342 24.375C13.0505 24.7308 13.0109 25.1437 13.1235 25.5279C13.2361 25.9122 13.4923 26.2383 13.8389 26.4388C14.1855 26.6392 14.596 26.6985 14.9852 26.6044C15.3744 26.5103 15.7124 26.27 15.9292 25.9334L16.9834 24.1L18.0375 25.9334C18.2543 26.27 18.5923 26.5103 18.9815 26.6044C19.3707 26.6985 19.7812 26.6392 20.1278 26.4388C20.4744 26.2383 20.7306 25.9122 20.8432 25.5279C20.9558 25.1437 20.9162 24.7308 20.7325 24.375L19.6784 22.5417H21.7867C22.2 22.5417 22.5964 22.3775 22.8886 22.0853C23.1808 21.793 23.345 21.3966 23.345 20.9833C23.345 20.5701 23.1808 20.1737 22.8886 19.8814C22.5964 19.5892 22.2 19.425 21.7867 19.425H19.6784L20.7325 17.5917C20.9162 17.2359 20.9558 16.823 20.8432 16.4388C20.7306 16.0545 20.4744 15.7284 20.1278 15.5279C19.7812 15.3275 19.3707 15.2682 18.9815 15.3623C18.5923 15.4564 18.2543 15.6967 18.0375 16.0333L16.9834 17.8667L15.9292 16.0333C15.7124 15.6967 15.3744 15.4564 14.9852 15.3623C14.596 15.2682 14.1855 15.3275 13.8389 15.5279C13.4923 15.7284 13.2361 16.0545 13.1235 16.4388C13.0109 16.823 13.0505 17.2359 13.2342 17.5917L14.2883 19.425H12.18ZM16.9375 12C14.559 12.0121 12.2824 12.9671 10.6069 14.6554C8.93145 16.3437 7.99396 18.6276 8.00003 21.0061C8.0061 23.3847 8.95523 25.6638 10.6393 27.3435C12.3233 29.0233 14.6048 29.9666 16.9834 29.9666C19.3619 29.9666 21.6434 29.0233 23.3274 27.3435C25.0115 25.6638 25.9606 23.3847 25.9667 21.0061C25.9727 18.6276 25.0352 16.3437 23.3598 14.6554C21.6843 12.9671 19.4077 12.0121 17.0292 12H16.9375ZM16.9375 13.65C14.9966 13.6621 13.1397 14.4432 11.7736 15.8221C10.4076 17.201 9.64397 19.0652 9.65004 21.0061C9.6561 22.9471 10.4314 24.8064 11.806 26.1768C13.1806 27.5471 15.0424 28.3166 16.9834 28.3166C18.9243 28.3166 20.7861 27.5471 22.1607 26.1768C23.5353 24.8064 24.3106 22.9471 24.3167 21.0061C24.3227 19.0652 23.5591 17.201 22.1931 15.8221C20.827 14.4432 18.9701 13.6621 17.0292 13.65H16.9375ZM16.9375 19.15C16.4554 19.1621 15.9975 19.3636 15.6629 19.7109C15.3283 20.0583 15.1441 20.5235 15.1502 21.0057C15.1562 21.4879 15.352 21.9483 15.6951 22.2872C16.0382 22.6261 16.5011 22.8161 16.9834 22.8161C17.4656 22.8161 17.9285 22.6261 18.2716 22.2872C18.6147 21.9483 18.8105 21.4879 18.8165 21.0057C18.8226 20.5235 18.6384 20.0583 18.3038 19.7109C17.9692 19.3636 17.5113 19.1621 17.0292 19.15H16.9375ZM16.9375 20.6625C16.8572 20.6741 16.7843 20.7157 16.7335 20.7788C16.6826 20.842 16.6575 20.9221 16.6633 21.003C16.6691 21.0839 16.7054 21.1596 16.7648 21.2149C16.8241 21.2702 16.9022 21.3009 16.9834 21.3009C17.0645 21.3009 17.1426 21.2702 17.2019 21.2149C17.2613 21.1596 17.2976 21.0839 17.3034 21.003C17.3092 20.9221 17.2841 20.842 17.2332 20.7788C17.1824 20.7157 17.1095 20.6741 17.0292 20.6625H16.9375Z" stroke="#006C00" stroke-width="0.7"></path>
<path d="M12.18 45.0917C11.7667 45.0917 11.3703 45.2559 11.0781 45.5482C10.7859 45.8404 10.6217 46.2368 10.6217 46.6501C10.6217 47.0634 10.7859 47.4597 11.0781 47.752C11.3703 48.0442 11.7667 48.2084 12.18 48.2084H14.2883L13.2342 50.0417C13.0505 50.3975 13.0109 50.8104 13.1235 51.1946C13.2361 51.5789 13.4923 51.9051 13.8389 52.1055C14.1855 52.3059 14.596 52.3652 14.9852 52.2711C15.3744 52.177 15.7124 51.9367 15.9292 51.6001L16.9834 49.7667L18.0375 51.6001C18.2543 51.9367 18.5923 52.177 18.9815 52.2711C19.3707 52.3652 19.7812 52.3059 20.1278 52.1055C20.4744 51.9051 20.7306 51.5789 20.8432 51.1946C20.9558 50.8104 20.9162 50.3975 20.7325 50.0417L19.6784 48.2084H21.7867C22.2 48.2084 22.5964 48.0442 22.8886 47.752C23.1808 47.4597 23.345 47.0634 23.345 46.6501C23.345 46.2368 23.1808 45.8404 22.8886 45.5482C22.5964 45.2559 22.2 45.0917 21.7867 45.0917H19.6784L20.7325 43.2584C20.9162 42.9026 20.9558 42.4897 20.8432 42.1055C20.7306 41.7212 20.4744 41.3951 20.1278 41.1947C19.7812 40.9942 19.3707 40.9349 18.9815 41.029C18.5923 41.1231 18.2543 41.3634 18.0375 41.7001L16.9834 43.5334L15.9292 41.7001C15.7124 41.3634 15.3744 41.1231 14.9852 41.029C14.596 40.9349 14.1855 40.9942 13.8389 41.1947C13.4923 41.3951 13.2361 41.7212 13.1235 42.1055C13.0109 42.4897 13.0505 42.9026 13.2342 43.2584L14.2883 45.0917H12.18ZM16.9375 37.6667C14.559 37.6789 12.2824 38.6338 10.6069 40.3221C8.93145 42.0104 7.99396 44.2943 8.00003 46.6729C8.0061 49.0514 8.95523 51.3305 10.6393 53.0102C12.3233 54.69 14.6048 55.6333 16.9834 55.6333C19.3619 55.6333 21.6434 54.69 23.3274 53.0102C25.0115 51.3305 25.9606 49.0514 25.9667 46.6729C25.9727 44.2943 25.0352 42.0104 23.3598 40.3221C21.6843 38.6338 19.4077 37.6789 17.0292 37.6667H16.9375ZM16.9375 39.3167C14.9966 39.3289 13.1397 40.1099 11.7736 41.4888C10.4076 42.8677 9.64397 44.7319 9.65004 46.6728C9.6561 48.6138 10.4314 50.4732 11.806 51.8435C13.1806 53.2138 15.0424 53.9833 16.9834 53.9833C18.9243 53.9833 20.7861 53.2138 22.1607 51.8435C23.5353 50.4732 24.3106 48.6138 24.3167 46.6728C24.3227 44.7319 23.5591 42.8677 22.1931 41.4888C20.827 40.1099 18.9701 39.3289 17.0292 39.3167H16.9375ZM16.9375 44.8167C16.4554 44.8288 15.9975 45.0303 15.6629 45.3777C15.3283 45.725 15.1441 46.1902 15.1502 46.6724C15.1562 47.1546 15.352 47.6151 15.6951 47.9539C16.0382 48.2928 16.5011 48.4828 16.9834 48.4828C17.4656 48.4828 17.9285 48.2928 18.2716 47.9539C18.6147 47.6151 18.8105 47.1546 18.8165 46.6724C18.8226 46.1902 18.6384 45.725 18.3038 45.3777C17.9692 45.0303 17.5113 44.8288 17.0292 44.8167H16.9375ZM16.9375 46.3292C16.8572 46.3408 16.7843 46.3824 16.7335 46.4456C16.6826 46.5087 16.6575 46.5888 16.6633 46.6697C16.6691 46.7507 16.7054 46.8264 16.7648 46.8816C16.8241 46.9369 16.9022 46.9676 16.9834 46.9676C17.0645 46.9676 17.1426 46.9369 17.2019 46.8816C17.2613 46.8264 17.2976 46.7507 17.3034 46.6697C17.3092 46.5888 17.2841 46.5087 17.2332 46.4456C17.1824 46.3824 17.1095 46.3408 17.0292 46.3292H16.9375Z" stroke="#BA0000" stroke-width="0.7"></path>
<path d="M12.18 70.7584C11.7667 70.7584 11.3703 70.9226 11.0781 71.2149C10.7859 71.5071 10.6217 71.9035 10.6217 72.3168C10.6217 72.7301 10.7859 73.1264 11.0781 73.4187C11.3703 73.7109 11.7667 73.8751 12.18 73.8751H14.2883L13.2342 75.7084C13.0505 76.0643 13.0109 76.4771 13.1235 76.8613C13.2361 77.2456 13.4923 77.5718 13.8389 77.7722C14.1855 77.9726 14.596 78.0319 14.9852 77.9378C15.3744 77.8437 15.7124 77.6034 15.9292 77.2668L16.9834 75.4334L18.0375 77.2668C18.2543 77.6034 18.5923 77.8437 18.9815 77.9378C19.3707 78.0319 19.7812 77.9726 20.1278 77.7722C20.4744 77.5718 20.7306 77.2456 20.8432 76.8613C20.9558 76.4771 20.9162 76.0643 20.7325 75.7084L19.6784 73.8751H21.7867C22.2 73.8751 22.5964 73.7109 22.8886 73.4187C23.1808 73.1264 23.345 72.7301 23.345 72.3168C23.345 71.9035 23.1808 71.5071 22.8886 71.2149C22.5964 70.9226 22.2 70.7584 21.7867 70.7584H19.6784L20.7325 68.9251C20.9162 68.5693 20.9558 68.1564 20.8432 67.7722C20.7306 67.3879 20.4744 67.0618 20.1278 66.8614C19.7812 66.6609 19.3707 66.6016 18.9815 66.6957C18.5923 66.7898 18.2543 67.0301 18.0375 67.3668L16.9834 69.2001L15.9292 67.3668C15.7124 67.0301 15.3744 66.7898 14.9852 66.6957C14.596 66.6016 14.1855 66.6609 13.8389 66.8614C13.4923 67.0618 13.2361 67.3879 13.1235 67.7722C13.0109 68.1564 13.0505 68.5693 13.2342 68.9251L14.2883 70.7584H12.18ZM16.9375 63.3334C14.559 63.3456 12.2824 64.3005 10.6069 65.9888C8.93145 67.6771 7.99396 69.961 8.00003 72.3396C8.0061 74.7181 8.95523 76.9972 10.6393 78.6769C12.3233 80.3567 14.6048 81.3 16.9834 81.3C19.3619 81.3 21.6434 80.3567 23.3274 78.6769C25.0115 76.9972 25.9606 74.7181 25.9667 72.3396C25.9727 69.961 25.0352 67.6771 23.3598 65.9888C21.6843 64.3005 19.4077 63.3456 17.0292 63.3334H16.9375ZM16.9375 64.9834C14.9966 64.9956 13.1397 65.7767 11.7736 67.1555C10.4076 68.5344 9.64397 70.3986 9.65004 72.3395C9.6561 74.2805 10.4314 76.1399 11.806 77.5102C13.1806 78.8805 15.0424 79.65 16.9834 79.65C18.9243 79.65 20.7861 78.8805 22.1607 77.5102C23.5353 76.1399 24.3106 74.2805 24.3167 72.3395C24.3227 70.3986 23.5591 68.5344 22.1931 67.1555C20.827 65.7767 18.9701 64.9956 17.0292 64.9834H16.9375ZM16.9375 70.4834C16.4554 70.4955 15.9975 70.697 15.6629 71.0444C15.3283 71.3917 15.1441 71.8569 15.1502 72.3391C15.1562 72.8213 15.352 73.2818 15.6951 73.6206C16.0382 73.9595 16.5011 74.1495 16.9834 74.1495C17.4656 74.1495 17.9285 73.9595 18.2716 73.6206C18.6147 73.2818 18.8105 72.8213 18.8165 72.3391C18.8226 71.8569 18.6384 71.3917 18.3038 71.0444C17.9692 70.697 17.5113 70.4955 17.0292 70.4834H16.9375ZM16.9375 71.9959C16.8572 72.0075 16.7843 72.0491 16.7335 72.1123C16.6826 72.1754 16.6575 72.2555 16.6633 72.3365C16.6691 72.4174 16.7054 72.4931 16.7648 72.5483C16.8241 72.6036 16.9022 72.6343 16.9834 72.6343C17.0645 72.6343 17.1426 72.6036 17.2019 72.5483C17.2613 72.4931 17.2976 72.4174 17.3034 72.3365C17.3092 72.2555 17.2841 72.1754 17.2332 72.1123C17.1824 72.0491 17.1095 72.0075 17.0292 71.9959H16.9375Z" stroke="#006C00" stroke-width="0.7"></path>
<path d="M33.2634 19.425C32.8501 19.425 32.4537 19.5892 32.1615 19.8814C31.8692 20.1737 31.705 20.5701 31.705 20.9833C31.705 21.3966 31.8692 21.793 32.1615 22.0853C32.4537 22.3775 32.8501 22.5417 33.2634 22.5417H35.3717L34.3176 24.375C34.1339 24.7308 34.0943 25.1437 34.2069 25.5279C34.3195 25.9122 34.5756 26.2383 34.9223 26.4388C35.2689 26.6392 35.6794 26.6985 36.0686 26.6044C36.4578 26.5103 36.7958 26.27 37.0126 25.9334L38.0667 24.1L39.1209 25.9334C39.3377 26.27 39.6757 26.5103 40.0649 26.6044C40.4541 26.6985 40.8645 26.6392 41.2112 26.4388C41.5578 26.2383 41.814 25.9122 41.9266 25.5279C42.0392 25.1437 41.9995 24.7308 41.8159 24.375L40.7617 22.5417H42.8701C43.2834 22.5417 43.6797 22.3775 43.972 22.0853C44.2642 21.793 44.4284 21.3966 44.4284 20.9833C44.4284 20.5701 44.2642 20.1737 43.972 19.8814C43.6797 19.5892 43.2834 19.425 42.8701 19.425H40.7617L41.8159 17.5917C41.9995 17.2359 42.0392 16.823 41.9266 16.4388C41.814 16.0545 41.5578 15.7284 41.2112 15.5279C40.8645 15.3275 40.4541 15.2682 40.0649 15.3623C39.6757 15.4564 39.3377 15.6967 39.1209 16.0333L38.0667 17.8667L37.0126 16.0333C36.7958 15.6967 36.4578 15.4564 36.0686 15.3623C35.6794 15.2682 35.2689 15.3275 34.9223 15.5279C34.5756 15.7284 34.3195 16.0545 34.2069 16.4388C34.0943 16.823 34.1339 17.2359 34.3176 17.5917L35.3717 19.425H33.2634ZM38.0209 12C35.6424 12.0121 33.3657 12.9671 31.6903 14.6554C30.0148 16.3437 29.0773 18.6276 29.0834 21.0061C29.0895 23.3847 30.0386 25.6638 31.7226 27.3435C33.4067 29.0233 35.6882 29.9666 38.0667 29.9666C40.4453 29.9666 42.7268 29.0233 44.4108 27.3435C46.0948 25.6638 47.044 23.3847 47.05 21.0061C47.0561 18.6276 46.1186 16.3437 44.4432 14.6554C42.7677 12.9671 40.4911 12.0121 38.1126 12H38.0209ZM38.0209 13.65C36.08 13.6621 34.223 14.4432 32.857 15.8221C31.491 17.201 30.7273 19.0652 30.7334 21.0061C30.7395 22.9471 31.5148 24.8064 32.8894 26.1768C34.264 27.5471 36.1258 28.3166 38.0667 28.3166C40.0077 28.3166 41.8695 27.5471 43.2441 26.1768C44.6187 24.8064 45.394 22.9471 45.4 21.0061C45.4061 19.0652 44.6424 17.201 43.2764 15.8221C41.9104 14.4432 40.0535 13.6621 38.1126 13.65H38.0209ZM38.0209 19.15C37.5388 19.1621 37.0808 19.3636 36.7463 19.7109C36.4117 20.0583 36.2275 20.5235 36.2335 21.0057C36.2396 21.4879 36.4354 21.9483 36.7785 22.2872C37.1216 22.6261 37.5845 22.8161 38.0667 22.8161C38.549 22.8161 39.0118 22.6261 39.355 22.2872C39.6981 21.9483 39.8939 21.4879 39.8999 21.0057C39.9059 20.5235 39.7217 20.0583 39.3872 19.7109C39.0526 19.3636 38.5947 19.1621 38.1126 19.15H38.0209ZM38.0209 20.6625C37.9406 20.6741 37.8677 20.7157 37.8168 20.7788C37.766 20.842 37.7409 20.9221 37.7467 21.003C37.7525 21.0839 37.7888 21.1596 37.8481 21.2149C37.9075 21.2702 37.9856 21.3009 38.0667 21.3009C38.1478 21.3009 38.2259 21.2702 38.2853 21.2149C38.3447 21.1596 38.3809 21.0839 38.3867 21.003C38.3925 20.9221 38.3675 20.842 38.3166 20.7788C38.2658 20.7157 38.1928 20.6741 38.1126 20.6625H38.0209Z" stroke="#006C00" stroke-width="0.7"></path>
<path d="M33.2634 45.0917C32.8501 45.0917 32.4537 45.2559 32.1615 45.5482C31.8692 45.8404 31.705 46.2368 31.705 46.6501C31.705 47.0634 31.8692 47.4597 32.1615 47.752C32.4537 48.0442 32.8501 48.2084 33.2634 48.2084H35.3717L34.3176 50.0417C34.1339 50.3975 34.0943 50.8104 34.2069 51.1946C34.3195 51.5789 34.5756 51.9051 34.9223 52.1055C35.2689 52.3059 35.6794 52.3652 36.0686 52.2711C36.4578 52.177 36.7958 51.9367 37.0126 51.6001L38.0667 49.7667L39.1209 51.6001C39.3377 51.9367 39.6757 52.177 40.0649 52.2711C40.4541 52.3652 40.8645 52.3059 41.2112 52.1055C41.5578 51.9051 41.814 51.5789 41.9266 51.1946C42.0392 50.8104 41.9995 50.3975 41.8159 50.0417L40.7617 48.2084H42.8701C43.2834 48.2084 43.6797 48.0442 43.972 47.752C44.2642 47.4597 44.4284 47.0634 44.4284 46.6501C44.4284 46.2368 44.2642 45.8404 43.972 45.5482C43.6797 45.2559 43.2834 45.0917 42.8701 45.0917H40.7617L41.8159 43.2584C41.9995 42.9026 42.0392 42.4897 41.9266 42.1055C41.814 41.7212 41.5578 41.3951 41.2112 41.1947C40.8645 40.9942 40.4541 40.9349 40.0649 41.029C39.6757 41.1231 39.3377 41.3634 39.1209 41.7001L38.0667 43.5334L37.0126 41.7001C36.7958 41.3634 36.4578 41.1231 36.0686 41.029C35.6794 40.9349 35.2689 40.9942 34.9223 41.1947C34.5756 41.3951 34.3195 41.7212 34.2069 42.1055C34.0943 42.4897 34.1339 42.9026 34.3176 43.2584L35.3717 45.0917H33.2634ZM38.0209 37.6667C35.6424 37.6789 33.3657 38.6338 31.6903 40.3221C30.0148 42.0104 29.0773 44.2943 29.0834 46.6729C29.0895 49.0514 30.0386 51.3305 31.7226 53.0102C33.4067 54.69 35.6882 55.6333 38.0667 55.6333C40.4453 55.6333 42.7268 54.69 44.4108 53.0102C46.0948 51.3305 47.044 49.0514 47.05 46.6729C47.0561 44.2943 46.1186 42.0104 44.4432 40.3221C42.7677 38.6338 40.4911 37.6789 38.1126 37.6667H38.0209ZM38.0209 39.3167C36.08 39.3289 34.223 40.1099 32.857 41.4888C31.491 42.8677 30.7273 44.7319 30.7334 46.6728C30.7395 48.6138 31.5148 50.4732 32.8894 51.8435C34.264 53.2138 36.1258 53.9833 38.0667 53.9833C40.0077 53.9833 41.8695 53.2138 43.2441 51.8435C44.6187 50.4732 45.394 48.6138 45.4 46.6728C45.4061 44.7319 44.6424 42.8677 43.2764 41.4888C41.9104 40.1099 40.0535 39.3289 38.1126 39.3167H38.0209ZM38.0209 44.8167C37.5388 44.8288 37.0808 45.0303 36.7463 45.3777C36.4117 45.725 36.2275 46.1902 36.2335 46.6724C36.2396 47.1546 36.4354 47.6151 36.7785 47.9539C37.1216 48.2928 37.5845 48.4828 38.0667 48.4828C38.549 48.4828 39.0118 48.2928 39.355 47.9539C39.6981 47.6151 39.8939 47.1546 39.8999 46.6724C39.9059 46.1902 39.7217 45.725 39.3872 45.3777C39.0526 45.0303 38.5947 44.8288 38.1126 44.8167H38.0209ZM38.0209 46.3292C37.9406 46.3408 37.8677 46.3824 37.8168 46.4456C37.766 46.5087 37.7409 46.5888 37.7467 46.6697C37.7525 46.7507 37.7888 46.8264 37.8481 46.8816C37.9075 46.9369 37.9856 46.9676 38.0667 46.9676C38.1478 46.9676 38.2259 46.9369 38.2853 46.8816C38.3447 46.8264 38.3809 46.7507 38.3867 46.6697C38.3925 46.5888 38.3675 46.5087 38.3166 46.4456C38.2658 46.3824 38.1928 46.3408 38.1126 46.3292H38.0209Z" stroke="#BA0000" stroke-width="0.7"></path>
<path d="M33.2634 70.7584C32.8501 70.7584 32.4537 70.9226 32.1615 71.2149C31.8692 71.5071 31.705 71.9035 31.705 72.3168C31.705 72.7301 31.8692 73.1264 32.1615 73.4187C32.4537 73.7109 32.8501 73.8751 33.2634 73.8751H35.3717L34.3176 75.7084C34.1339 76.0643 34.0943 76.4771 34.2069 76.8613C34.3195 77.2456 34.5756 77.5718 34.9223 77.7722C35.2689 77.9726 35.6794 78.0319 36.0686 77.9378C36.4578 77.8437 36.7958 77.6034 37.0126 77.2668L38.0667 75.4334L39.1209 77.2668C39.3377 77.6034 39.6757 77.8437 40.0649 77.9378C40.4541 78.0319 40.8645 77.9726 41.2112 77.7722C41.5578 77.5718 41.814 77.2456 41.9266 76.8613C42.0392 76.4771 41.9995 76.0643 41.8159 75.7084L40.7617 73.8751H42.8701C43.2834 73.8751 43.6797 73.7109 43.972 73.4187C44.2642 73.1264 44.4284 72.7301 44.4284 72.3168C44.4284 71.9035 44.2642 71.5071 43.972 71.2149C43.6797 70.9226 43.2834 70.7584 42.8701 70.7584H40.7617L41.8159 68.9251C41.9995 68.5693 42.0392 68.1564 41.9266 67.7722C41.814 67.3879 41.5578 67.0618 41.2112 66.8614C40.8645 66.6609 40.4541 66.6016 40.0649 66.6957C39.6757 66.7898 39.3377 67.0301 39.1209 67.3668L38.0667 69.2001L37.0126 67.3668C36.7958 67.0301 36.4578 66.7898 36.0686 66.6957C35.6794 66.6016 35.2689 66.6609 34.9223 66.8614C34.5756 67.0618 34.3195 67.3879 34.2069 67.7722C34.0943 68.1564 34.1339 68.5693 34.3176 68.9251L35.3717 70.7584H33.2634ZM38.0209 63.3334C35.6424 63.3456 33.3657 64.3005 31.6903 65.9888C30.0148 67.6771 29.0773 69.961 29.0834 72.3396C29.0895 74.7181 30.0386 76.9972 31.7226 78.6769C33.4067 80.3567 35.6882 81.3 38.0667 81.3C40.4453 81.3 42.7268 80.3567 44.4108 78.6769C46.0948 76.9972 47.044 74.7181 47.05 72.3396C47.0561 69.961 46.1186 67.6771 44.4432 65.9888C42.7677 64.3005 40.4911 63.3456 38.1126 63.3334H38.0209ZM38.0209 64.9834C36.08 64.9956 34.223 65.7767 32.857 67.1555C31.491 68.5344 30.7273 70.3986 30.7334 72.3395C30.7395 74.2805 31.5148 76.1399 32.8894 77.5102C34.264 78.8805 36.1258 79.65 38.0667 79.65C40.0077 79.65 41.8695 78.8805 43.2441 77.5102C44.6187 76.1399 45.394 74.2805 45.4 72.3395C45.4061 70.3986 44.6424 68.5344 43.2764 67.1555C41.9104 65.7767 40.0535 64.9956 38.1126 64.9834H38.0209ZM38.0209 70.4834C37.5388 70.4955 37.0808 70.697 36.7463 71.0444C36.4117 71.3917 36.2275 71.8569 36.2335 72.3391C36.2396 72.8213 36.4354 73.2818 36.7785 73.6206C37.1216 73.9595 37.5845 74.1495 38.0667 74.1495C38.549 74.1495 39.0118 73.9595 39.355 73.6206C39.6981 73.2818 39.8939 72.8213 39.8999 72.3391C39.9059 71.8569 39.7217 71.3917 39.3872 71.0444C39.0526 70.697 38.5947 70.4955 38.1126 70.4834H38.0209ZM38.0209 71.9959C37.9406 72.0075 37.8677 72.0491 37.8168 72.1123C37.766 72.1754 37.7409 72.2555 37.7467 72.3365C37.7525 72.4174 37.7888 72.4931 37.8481 72.5483C37.9075 72.6036 37.9856 72.6343 38.0667 72.6343C38.1478 72.6343 38.2259 72.6036 38.2853 72.5483C38.3447 72.4931 38.3809 72.4174 38.3867 72.3365C38.3925 72.2555 38.3675 72.1754 38.3166 72.1123C38.2658 72.0491 38.1928 72.0075 38.1126 71.9959H38.0209Z" stroke="#006C00" stroke-width="0.7"></path>
<path d="M54.3468 19.425C53.9335 19.425 53.5371 19.5892 53.2448 19.8814C52.9526 20.1737 52.7884 20.5701 52.7884 20.9833C52.7884 21.3966 52.9526 21.793 53.2448 22.0853C53.5371 22.3775 53.9335 22.5417 54.3468 22.5417H56.4551L55.4009 24.375C55.2173 24.7308 55.1777 25.1437 55.2902 25.5279C55.4028 25.9122 55.659 26.2383 56.0056 26.4388C56.3523 26.6392 56.7628 26.6985 57.1519 26.6044C57.5411 26.5103 57.8792 26.27 58.0959 25.9334L59.1501 24.1L60.2043 25.9334C60.421 26.27 60.7591 26.5103 61.1483 26.6044C61.5374 26.6985 61.9479 26.6392 62.2946 26.4388C62.6412 26.2383 62.8974 25.9122 63.0099 25.5279C63.1225 25.1437 63.0829 24.7308 62.8993 24.375L61.8451 22.5417H63.9534C64.3667 22.5417 64.7631 22.3775 65.0553 22.0853C65.3476 21.793 65.5118 21.3966 65.5118 20.9833C65.5118 20.5701 65.3476 20.1737 65.0553 19.8814C64.7631 19.5892 64.3667 19.425 63.9534 19.425H61.8451L62.8993 17.5917C63.0829 17.2359 63.1225 16.823 63.0099 16.4388C62.8974 16.0545 62.6412 15.7284 62.2946 15.5279C61.9479 15.3275 61.5374 15.2682 61.1483 15.3623C60.7591 15.4564 60.421 15.6967 60.2043 16.0333L59.1501 17.8667L58.0959 16.0333C57.8792 15.6967 57.5411 15.4564 57.1519 15.3623C56.7628 15.2682 56.3523 15.3275 56.0056 15.5279C55.659 15.7284 55.4028 16.0545 55.2902 16.4388C55.1777 16.823 55.2173 17.2359 55.4009 17.5917L56.4551 19.425H54.3468ZM59.1043 12C56.7257 12.0121 54.4491 12.9671 52.7737 14.6554C51.0982 16.3437 50.1607 18.6276 50.1668 21.0061C50.1728 23.3847 51.122 25.6638 52.806 27.3435C54.4901 29.0233 56.7715 29.9666 59.1501 29.9666C61.5287 29.9666 63.8101 29.0233 65.4942 27.3435C67.1782 25.6638 68.1274 23.3847 68.1334 21.0061C68.1395 18.6276 67.202 16.3437 65.5265 14.6554C63.8511 12.9671 61.5745 12.0121 59.1959 12H59.1043ZM59.1043 13.65C57.1633 13.6621 55.3064 14.4432 53.9404 15.8221C52.5744 17.201 51.8107 19.0652 51.8168 21.0061C51.8229 22.9471 52.5981 24.8064 53.9727 26.1768C55.3474 27.5471 57.2091 28.3166 59.1501 28.3166C61.0911 28.3166 62.9528 27.5471 64.3274 26.1768C65.7021 24.8064 66.4773 22.9471 66.4834 21.0061C66.4895 19.0652 65.7258 17.201 64.3598 15.8221C62.9938 14.4432 61.1368 13.6621 59.1959 13.65H59.1043ZM59.1043 19.15C58.6222 19.1621 58.1642 19.3636 57.8297 19.7109C57.4951 20.0583 57.3109 20.5235 57.3169 21.0057C57.3229 21.4879 57.5187 21.9483 57.8619 22.2872C58.205 22.6261 58.6678 22.8161 59.1501 22.8161C59.6324 22.8161 60.0952 22.6261 60.4383 22.2872C60.7815 21.9483 60.9773 21.4879 60.9833 21.0057C60.9893 20.5235 60.8051 20.0583 60.4705 19.7109C60.136 19.3636 59.678 19.1621 59.1959 19.15H59.1043ZM59.1043 20.6625C59.024 20.6741 58.9511 20.7157 58.9002 20.7788C58.8493 20.842 58.8243 20.9221 58.8301 21.003C58.8359 21.0839 58.8721 21.1596 58.9315 21.2149C58.9909 21.2702 59.069 21.3009 59.1501 21.3009C59.2312 21.3009 59.3093 21.2702 59.3687 21.2149C59.4281 21.1596 59.4643 21.0839 59.4701 21.003C59.4759 20.9221 59.4509 20.842 59.4 20.7788C59.3491 20.7157 59.2762 20.6741 59.1959 20.6625H59.1043Z" stroke="#006C00" stroke-width="0.7"></path>
<path d="M54.3468 45.0917C53.9335 45.0917 53.5371 45.2559 53.2448 45.5482C52.9526 45.8404 52.7884 46.2368 52.7884 46.6501C52.7884 47.0634 52.9526 47.4597 53.2448 47.752C53.5371 48.0442 53.9335 48.2084 54.3468 48.2084H56.4551L55.4009 50.0417C55.2173 50.3975 55.1777 50.8104 55.2902 51.1946C55.4028 51.5789 55.659 51.9051 56.0056 52.1055C56.3523 52.3059 56.7628 52.3652 57.1519 52.2711C57.5411 52.177 57.8792 51.9367 58.0959 51.6001L59.1501 49.7667L60.2043 51.6001C60.421 51.9367 60.7591 52.177 61.1483 52.2711C61.5374 52.3652 61.9479 52.3059 62.2946 52.1055C62.6412 51.9051 62.8974 51.5789 63.0099 51.1946C63.1225 50.8104 63.0829 50.3975 62.8993 50.0417L61.8451 48.2084H63.9534C64.3667 48.2084 64.7631 48.0442 65.0553 47.752C65.3476 47.4597 65.5118 47.0634 65.5118 46.6501C65.5118 46.2368 65.3476 45.8404 65.0553 45.5482C64.7631 45.2559 64.3667 45.0917 63.9534 45.0917H61.8451L62.8993 43.2584C63.0829 42.9026 63.1225 42.4897 63.0099 42.1055C62.8974 41.7212 62.6412 41.3951 62.2946 41.1947C61.9479 40.9942 61.5374 40.9349 61.1483 41.029C60.7591 41.1231 60.421 41.3634 60.2043 41.7001L59.1501 43.5334L58.0959 41.7001C57.8792 41.3634 57.5411 41.1231 57.1519 41.029C56.7628 40.9349 56.3523 40.9942 56.0056 41.1947C55.659 41.3951 55.4028 41.7212 55.2902 42.1055C55.1777 42.4897 55.2173 42.9026 55.4009 43.2584L56.4551 45.0917H54.3468ZM59.1043 37.6667C56.7257 37.6789 54.4491 38.6338 52.7737 40.3221C51.0982 42.0104 50.1607 44.2943 50.1668 46.6729C50.1728 49.0514 51.122 51.3305 52.806 53.0102C54.4901 54.69 56.7715 55.6333 59.1501 55.6333C61.5287 55.6333 63.8101 54.69 65.4942 53.0102C67.1782 51.3305 68.1274 49.0514 68.1334 46.6729C68.1395 44.2943 67.202 42.0104 65.5265 40.3221C63.8511 38.6338 61.5745 37.6789 59.1959 37.6667H59.1043ZM59.1043 39.3167C57.1633 39.3289 55.3064 40.1099 53.9404 41.4888C52.5744 42.8677 51.8107 44.7319 51.8168 46.6728C51.8229 48.6138 52.5981 50.4732 53.9727 51.8435C55.3474 53.2138 57.2091 53.9833 59.1501 53.9833C61.0911 53.9833 62.9528 53.2138 64.3274 51.8435C65.7021 50.4732 66.4773 48.6138 66.4834 46.6728C66.4895 44.7319 65.7258 42.8677 64.3598 41.4888C62.9938 40.1099 61.1368 39.3289 59.1959 39.3167H59.1043ZM59.1043 44.8167C58.6222 44.8288 58.1642 45.0303 57.8297 45.3777C57.4951 45.725 57.3109 46.1902 57.3169 46.6724C57.3229 47.1546 57.5187 47.6151 57.8619 47.9539C58.205 48.2928 58.6678 48.4828 59.1501 48.4828C59.6324 48.4828 60.0952 48.2928 60.4383 47.9539C60.7815 47.6151 60.9773 47.1546 60.9833 46.6724C60.9893 46.1902 60.8051 45.725 60.4705 45.3777C60.136 45.0303 59.678 44.8288 59.1959 44.8167H59.1043ZM59.1043 46.3292C59.024 46.3408 58.9511 46.3824 58.9002 46.4456C58.8493 46.5087 58.8243 46.5888 58.8301 46.6697C58.8359 46.7507 58.8721 46.8264 58.9315 46.8816C58.9909 46.9369 59.069 46.9676 59.1501 46.9676C59.2312 46.9676 59.3093 46.9369 59.3687 46.8816C59.4281 46.8264 59.4643 46.7507 59.4701 46.6697C59.4759 46.5888 59.4509 46.5087 59.4 46.4456C59.3491 46.3824 59.2762 46.3408 59.1959 46.3292H59.1043Z" stroke="#BA0000" stroke-width="0.7"></path>
<path d="M54.3468 70.7584C53.9335 70.7584 53.5371 70.9226 53.2448 71.2149C52.9526 71.5071 52.7884 71.9035 52.7884 72.3168C52.7884 72.7301 52.9526 73.1264 53.2448 73.4187C53.5371 73.7109 53.9335 73.8751 54.3468 73.8751H56.4551L55.4009 75.7084C55.2173 76.0643 55.1777 76.4771 55.2902 76.8613C55.4028 77.2456 55.659 77.5718 56.0056 77.7722C56.3523 77.9726 56.7628 78.0319 57.1519 77.9378C57.5411 77.8437 57.8792 77.6034 58.0959 77.2668L59.1501 75.4334L60.2043 77.2668C60.421 77.6034 60.7591 77.8437 61.1483 77.9378C61.5374 78.0319 61.9479 77.9726 62.2946 77.7722C62.6412 77.5718 62.8974 77.2456 63.0099 76.8613C63.1225 76.4771 63.0829 76.0643 62.8993 75.7084L61.8451 73.8751H63.9534C64.3667 73.8751 64.7631 73.7109 65.0553 73.4187C65.3476 73.1264 65.5118 72.7301 65.5118 72.3168C65.5118 71.9035 65.3476 71.5071 65.0553 71.2149C64.7631 70.9226 64.3667 70.7584 63.9534 70.7584H61.8451L62.8993 68.9251C63.0829 68.5693 63.1225 68.1564 63.0099 67.7722C62.8974 67.3879 62.6412 67.0618 62.2946 66.8614C61.9479 66.6609 61.5374 66.6016 61.1483 66.6957C60.7591 66.7898 60.421 67.0301 60.2043 67.3668L59.1501 69.2001L58.0959 67.3668C57.8792 67.0301 57.5411 66.7898 57.1519 66.6957C56.7628 66.6016 56.3523 66.6609 56.0056 66.8614C55.659 67.0618 55.4028 67.3879 55.2902 67.7722C55.1777 68.1564 55.2173 68.5693 55.4009 68.9251L56.4551 70.7584H54.3468ZM59.1043 63.3334C56.7257 63.3456 54.4491 64.3005 52.7737 65.9888C51.0982 67.6771 50.1607 69.961 50.1668 72.3396C50.1728 74.7181 51.122 76.9972 52.806 78.6769C54.4901 80.3567 56.7715 81.3 59.1501 81.3C61.5287 81.3 63.8101 80.3567 65.4942 78.6769C67.1782 76.9972 68.1274 74.7181 68.1334 72.3396C68.1395 69.961 67.202 67.6771 65.5265 65.9888C63.8511 64.3005 61.5745 63.3456 59.1959 63.3334H59.1043ZM59.1043 64.9834C57.1633 64.9956 55.3064 65.7767 53.9404 67.1555C52.5744 68.5344 51.8107 70.3986 51.8168 72.3395C51.8229 74.2805 52.5981 76.1399 53.9727 77.5102C55.3474 78.8805 57.2091 79.65 59.1501 79.65C61.0911 79.65 62.9528 78.8805 64.3274 77.5102C65.7021 76.1399 66.4773 74.2805 66.4834 72.3395C66.4895 70.3986 65.7258 68.5344 64.3598 67.1555C62.9938 65.7767 61.1368 64.9956 59.1959 64.9834H59.1043ZM59.1043 70.4834C58.6222 70.4955 58.1642 70.697 57.8297 71.0444C57.4951 71.3917 57.3109 71.8569 57.3169 72.3391C57.3229 72.8213 57.5187 73.2818 57.8619 73.6206C58.205 73.9595 58.6678 74.1495 59.1501 74.1495C59.6324 74.1495 60.0952 73.9595 60.4383 73.6206C60.7815 73.2818 60.9773 72.8213 60.9833 72.3391C60.9893 71.8569 60.8051 71.3917 60.4705 71.0444C60.136 70.697 59.678 70.4955 59.1959 70.4834H59.1043ZM59.1043 71.9959C59.024 72.0075 58.9511 72.0491 58.9002 72.1123C58.8493 72.1754 58.8243 72.2555 58.8301 72.3365C58.8359 72.4174 58.8721 72.4931 58.9315 72.5483C58.9909 72.6036 59.069 72.6343 59.1501 72.6343C59.2312 72.6343 59.3093 72.6036 59.3687 72.5483C59.4281 72.4931 59.4643 72.4174 59.4701 72.3365C59.4759 72.2555 59.4509 72.1754 59.4 72.1123C59.3491 72.0491 59.2762 72.0075 59.1959 71.9959H59.1043Z" stroke="#006C00" stroke-width="0.7"></path>
</svg>