<svg width="75" height="96" viewBox="0 0 75 96" fill="none" xmlns="http://www.w3.org/2000/svg">
<g clip-path="url(#clip0_1_868)">
<rect width="74.7" height="95.1" rx="8" fill="white"></rect>
<path d="M74.7 87.9C74.6999 92.7 72.4333 95.1 67.9 95.1H6.8C2.26666 95.1 -3e-06 92.7 0 87.9V7.2C-3e-06 2.40007 2.26666 7.6e-05 6.8 0H67.9C72.4333 7.6e-05 74.6999 2.40007 74.7 7.2V87.9ZM73 87.9V7.2C72.9999 3.53341 71.2999 1.70007 67.9 1.7H6.8C3.39999 1.70007 1.7 3.53341 1.7 7.2V87.9C1.7 91.6333 3.39999 93.5 6.8 93.5H67.9C71.2999 93.5 72.9999 91.6333 73 87.9Z" fill="white"></path>
<path d="M55 68.4545C54.9999 73.7273 53.1818 78.1212 49.5455 81.6364C45.9697 85.2121 41.606 87 36.4545 87C31.2424 87 26.8484 85.1818 23.2727 81.5455C19.7575 77.9697 18 73.6364 18 68.5455C18 63.394 19.7879 59.0303 23.3637 55.4546C26.9394 51.8182 31.303 50 36.4545 50C41.7272 50 46.1211 51.8182 49.6363 55.4546C53.2121 59.0303 54.9999 63.3636 55 68.4545ZM53.6364 68.4545C53.6363 63.6667 51.9696 59.6061 48.6364 56.2727C45.303 52.9394 41.2424 51.2728 36.4545 51.2727C31.6666 51.2728 27.6061 52.9697 24.2727 56.3636C21 59.697 19.3636 63.7273 19.3636 68.4545C19.3636 73.3636 21.0303 77.4545 24.3636 80.7273C27.6969 84 31.7272 85.6364 36.4545 85.6364C41.303 85.6364 45.3636 83.9697 48.6364 80.6364C51.9696 77.303 53.6363 73.2424 53.6364 68.4545ZM36.4545 53.3636C40.8181 53.3636 44.4242 54.8485 47.2727 57.8182C50.1818 60.7879 51.6363 64.3333 51.6364 68.4545C51.6363 72.8182 50.1515 76.4545 47.1818 79.3636C44.2727 82.2727 40.6969 83.7273 36.4545 83.7273C32.1515 83.7273 28.5454 82.2121 25.6364 79.1818C22.7273 76.2121 21.2727 72.6364 21.2728 68.4545C21.2727 64.1515 22.7576 60.5758 25.7273 57.7273C28.7575 54.8182 32.3333 53.3636 36.4545 53.3636ZM26.6364 78.3636C29.3636 81.0303 32.6363 82.3636 36.4545 82.3637C40.2727 82.3636 43.5454 81.0303 46.2728 78.3636C49 75.697 50.3636 72.3939 50.3637 68.4545C50.3636 64.6364 49 61.394 46.2728 58.7273C43.606 56 40.3333 54.6364 36.4545 54.6364C32.5151 54.6364 29.2121 56 26.5455 58.7273C23.9394 61.394 22.6364 64.6364 22.6364 68.4545C22.6364 72.3939 23.9697 75.697 26.6364 78.3636ZM45.6364 64.7273C46.7878 64.7273 47.7272 65.0909 48.4545 65.8182C49.1818 66.5455 49.5454 67.4849 49.5455 68.6364C49.5454 69.7273 49.1818 70.6061 48.4545 71.2727C47.7878 71.9394 46.8484 72.2727 45.6364 72.2727H43.0909C44.303 74.4546 44.9091 75.8788 44.9091 76.5455C44.9091 77.5758 44.5151 78.4848 43.7273 79.2727C42.9999 80.0606 42.0606 80.4546 40.9091 80.4546C40.606 80.4546 40.303 80.3939 40 80.2727C39.6969 80.2121 39.4242 80.0909 39.1818 79.9091C38.9393 79.7273 38.7273 79.5455 38.5455 79.3636C38.3636 79.1818 38.1515 78.9091 37.9091 78.5455C37.7273 78.2424 37.5757 78 37.4546 77.8182C37.3333 77.6364 37.1515 77.3333 36.9091 76.9091C36.6666 76.5455 36.5151 76.2727 36.4545 76.0909C35.3636 78.0909 34.5151 79.303 33.9091 79.7273C33.3636 80.1515 32.6969 80.3636 31.9091 80.3636C30.8181 80.3636 29.8788 80 29.0909 79.2727C28.3636 78.5455 28 77.6667 28 76.6364C28 75.9091 28.6364 74.4546 29.9091 72.2727H27.2727C26.1818 72.2727 25.2727 71.9091 24.5455 71.1818C23.8182 70.4545 23.4545 69.5455 23.4545 68.4545C23.4545 67.303 23.7879 66.3939 24.4546 65.7273C25.1818 65.0606 26.1212 64.7273 27.2727 64.7273H29.9091C28.697 62.6061 28.0909 61.1818 28.0909 60.4546C28.0909 59.4243 28.4545 58.5455 29.1818 57.8182C29.909 57.0303 30.8485 56.6364 32 56.6364C32.4242 56.6364 32.7879 56.697 33.0909 56.8182C33.4545 56.9394 33.7272 57.0909 33.9091 57.2727C34.1515 57.394 34.4242 57.6667 34.7273 58.0909C35.0303 58.4546 35.2121 58.7273 35.2727 58.9091C35.3939 59.0303 35.606 59.394 35.9091 60C36.2121 60.5455 36.3939 60.8485 36.4545 60.9091C37.606 58.8485 38.4545 57.6364 39 57.2727C39.5454 56.9091 40.2121 56.7273 41 56.7273C42.0908 56.7273 43.0303 57.0909 43.8182 57.8182C44.606 58.5455 45 59.394 45 60.3636C45 61.0303 44.3636 62.4849 43.0909 64.7273H45.6364ZM40.9091 79.0909C41.6363 79.0909 42.2424 78.8485 42.7273 78.3636C43.2727 77.8788 43.5454 77.2727 43.5455 76.5455C43.5454 76.0606 43.4242 75.6364 43.1818 75.2727L40.7273 70.9091H45.6364C47.3333 70.9091 48.1818 70.0909 48.1818 68.4545C48.1818 66.8182 47.3333 66 45.6364 66H40.7273L43.1818 61.8182C43.4848 61.3334 43.6363 60.8182 43.6364 60.2727C43.6363 59.6667 43.3636 59.1515 42.8182 58.7273C42.3333 58.2425 41.7576 58 41.0909 58C40.1818 58 39.4848 58.4242 39 59.2727L36.4545 63.5455L34 59.2727C33.5151 58.3636 32.8485 57.9091 32 57.9091C31.2727 57.9091 30.6363 58.1819 30.0909 58.7273C29.606 59.2122 29.3636 59.7879 29.3636 60.4546C29.3636 60.8788 29.4848 61.3334 29.7273 61.8182L32.1818 66H27.2727C25.6363 66 24.8182 66.8182 24.8182 68.4545C24.8182 70.0909 25.6363 70.9091 27.2727 70.9091H32.1818L29.7273 75.2727C29.4242 75.7576 29.2727 76.2121 29.2727 76.6364C29.2727 77.303 29.5151 77.8485 30 78.2727C30.5454 78.7576 31.1818 79 31.9091 79C32.8181 79 33.5151 78.5758 34 77.7273L36.4545 73.4545L39 77.7273C39.4848 78.6364 40.1212 79.0909 40.9091 79.0909ZM33.6364 65.7273C34.4242 64.9394 35.3636 64.5455 36.4545 64.5455C37.5454 64.5455 38.4848 64.9394 39.2727 65.7273C40.0606 66.4546 40.4545 67.3636 40.4545 68.4545C40.4545 69.6667 40.0606 70.6667 39.2727 71.4546C38.5454 72.1818 37.606 72.5455 36.4545 72.5455C35.303 72.5455 34.3333 72.1515 33.5455 71.3637C32.8182 70.5152 32.4545 69.5455 32.4546 68.4545C32.4545 67.3636 32.8485 66.4546 33.6364 65.7273ZM36.4545 71.1818C37.2424 71.1818 37.8788 70.9091 38.3637 70.3636C38.9091 69.8182 39.1818 69.1818 39.1818 68.4545C39.1818 67.7273 38.9091 67.1212 38.3637 66.6364C37.8788 66.0909 37.2424 65.8182 36.4545 65.8182C35.6666 65.8182 35.0303 66.0909 34.5455 66.6364C34.0606 67.1212 33.8182 67.7273 33.8182 68.4545C33.8182 69.2424 34.0606 69.9091 34.5455 70.4546C35.0909 70.9394 35.7272 71.1818 36.4545 71.1818ZM37.8182 68.4545C37.8181 69.3636 37.3636 69.8182 36.4545 69.8182C35.606 69.8182 35.1818 69.3636 35.1818 68.4545C35.1818 67.6061 35.606 67.1818 36.4545 67.1818C37.3636 67.1818 37.8181 67.6061 37.8182 68.4545ZM55 28.4545C54.9999 33.7273 53.1818 38.1516 49.5455 41.7273C45.9697 45.2425 41.606 47 36.4545 47C31.2424 47 26.8484 45.2122 23.2727 41.6364C19.7575 38 18 33.6364 18 28.5455C18 23.394 19.7879 19.0304 23.3637 15.4545C26.9394 11.8182 31.303 10.0001 36.4545 10C41.7272 10.0001 46.1211 11.8182 49.6363 15.4545C53.2121 19.0304 54.9999 23.3637 55 28.4545ZM53.6364 28.4545C53.6363 23.6667 51.9696 19.6061 48.6364 16.2727C45.303 12.9394 41.2424 11.2728 36.4545 11.2727C31.6666 11.2728 27.6061 12.9698 24.2727 16.3636C21 19.697 19.3636 23.7273 19.3636 28.4545C19.3636 33.3637 21.0303 37.4546 24.3636 40.7273C27.6969 44 31.7272 45.6364 36.4545 45.6364C41.303 45.6364 45.3636 43.9697 48.6364 40.6364C51.9696 37.3031 53.6363 33.2425 53.6364 28.4545ZM36.4545 13.3636C40.8181 13.3637 44.4242 14.8486 47.2727 17.8182C50.1818 20.7879 51.6363 24.3334 51.6364 28.4545C51.6363 32.8182 50.1515 36.4546 47.1818 39.3636C44.2727 42.2728 40.6969 43.7273 36.4545 43.7273C32.1515 43.7273 28.5454 42.2424 25.6364 39.2727C22.7273 36.2425 21.2727 32.6364 21.2728 28.4545C21.2727 24.1516 22.7576 20.5758 25.7273 17.7273C28.7575 14.8182 32.3333 13.3637 36.4545 13.3636ZM26.6364 38.3636C29.3636 41.0303 32.6363 42.3637 36.4545 42.3636C40.2727 42.3637 43.5454 41.0303 46.2728 38.3636C49 35.697 50.3636 32.394 50.3637 28.4545C50.3636 24.6364 49 21.394 46.2728 18.7273C43.606 16.0001 40.3333 14.6364 36.4545 14.6364C32.5151 14.6364 29.2121 16.0001 26.5455 18.7273C23.9394 21.394 22.6364 24.6364 22.6364 28.4545C22.6364 32.394 23.9697 35.697 26.6364 38.3636ZM45.6364 24.7273C46.7878 24.7273 47.7272 25.091 48.4545 25.8182C49.1818 26.5455 49.5454 27.4849 49.5455 28.6364C49.5454 29.7273 49.1818 30.6061 48.4545 31.2727C47.7878 31.9394 46.8484 32.2728 45.6364 32.2727H43.0909C44.303 34.4546 44.9091 35.8788 44.9091 36.5454C44.9091 37.5758 44.5151 38.4849 43.7273 39.2727C42.9999 40.0606 42.0606 40.4546 40.9091 40.4546C40.606 40.4546 40.303 40.4243 40 40.3636C39.6969 40.2425 39.4242 40.0909 39.1818 39.9091C38.9393 39.7273 38.7273 39.5455 38.5455 39.3636C38.3636 39.1819 38.1515 38.9394 37.9091 38.6364C37.7273 38.2728 37.5757 38 37.4546 37.8182C37.3333 37.6364 37.1515 37.3637 36.9091 37C36.6666 36.5758 36.5151 36.2728 36.4545 36.0909C35.3636 38.0909 34.5151 39.3031 33.9091 39.7273C33.3636 40.1515 32.6969 40.3637 31.9091 40.3636C30.8181 40.3637 29.8788 40 29.0909 39.2727C28.3636 38.5455 28 37.6667 28 36.6364C28 35.9091 28.6364 34.4546 29.9091 32.2727H27.2727C26.1818 32.2728 25.2727 31.9091 24.5455 31.1818C23.8182 30.4546 23.4545 29.5455 23.4545 28.4545C23.4545 27.3031 23.7879 26.394 24.4546 25.7273C25.1818 25.0606 26.1212 24.7273 27.2727 24.7273H29.9091C28.697 22.6061 28.0909 21.1819 28.0909 20.4545C28.0909 19.4243 28.4545 18.5455 29.1818 17.8182C29.909 17.0304 30.8485 16.6364 32 16.6364C32.4242 16.6364 32.7879 16.697 33.0909 16.8182C33.4545 16.9395 33.7272 17.091 33.9091 17.2727C34.1515 17.394 34.4242 17.6667 34.7273 18.0909C35.0303 18.4546 35.2121 18.7273 35.2727 18.9091C35.3939 19.0303 35.606 19.394 35.9091 20C36.2121 20.5455 36.3939 20.8485 36.4545 20.9091C37.606 18.8485 38.4545 17.6364 39 17.2727C39.5454 16.9091 40.2121 16.7273 41 16.7273C42.0908 16.7273 43.0303 17.091 43.8182 17.8182C44.606 18.5455 45 19.394 45 20.3636C45 21.0304 44.3636 22.4849 43.0909 24.7273H45.6364ZM40.9091 39.0909C41.6363 39.091 42.2424 38.8485 42.7273 38.3636C43.2727 37.8788 43.5454 37.2728 43.5455 36.5454C43.5454 36.0606 43.4242 35.6364 43.1818 35.2727L40.7273 30.9091H45.6364C47.3333 30.9091 48.1818 30.0909 48.1818 28.4545C48.1818 26.8182 47.3333 26.0001 45.6364 26H40.7273L43.1818 21.8182C43.4848 21.3334 43.6363 20.8182 43.6364 20.2727C43.6363 19.6667 43.3636 19.1516 42.8182 18.7273C42.3333 18.2425 41.7576 18 41.0909 18C40.1818 18 39.4848 18.4243 39 19.2727L36.4545 23.5455L34 19.2727C33.5151 18.3637 32.8485 17.9091 32 17.9091C31.2727 17.9091 30.6363 18.1819 30.0909 18.7273C29.606 19.2122 29.3636 19.7879 29.3636 20.4545C29.3636 20.8788 29.4848 21.3334 29.7273 21.8182L32.1818 26H27.2727C25.6363 26.0001 24.8182 26.8182 24.8182 28.4545C24.8182 30.0909 25.6363 30.9091 27.2727 30.9091H32.1818L29.7273 35.2727C29.4242 35.7576 29.2727 36.2121 29.2727 36.6364C29.2727 37.3031 29.5151 37.8788 30 38.3636C30.5454 38.7879 31.1818 39 31.9091 39C32.8181 39 33.5151 38.5758 34 37.7273L36.4545 33.4545L39 37.7273C39.4848 38.6364 40.1212 39.091 40.9091 39.0909ZM33.6364 25.7273C34.4242 24.9394 35.3636 24.5455 36.4545 24.5455C37.5454 24.5455 38.4848 24.9394 39.2727 25.7273C40.0606 26.4546 40.4545 27.3637 40.4545 28.4545C40.4545 29.6667 40.0606 30.6667 39.2727 31.4546C38.5454 32.1819 37.606 32.5455 36.4545 32.5454C35.303 32.5455 34.3333 32.1516 33.5455 31.3636C32.8182 30.5152 32.4545 29.5455 32.4546 28.4545C32.4545 27.3637 32.8485 26.4546 33.6364 25.7273ZM36.4545 31.1818C37.2424 31.1819 37.8788 30.9091 38.3637 30.3636C38.9091 29.8182 39.1818 29.1819 39.1818 28.4545C39.1818 27.7273 38.9091 27.1212 38.3637 26.6364C37.8788 26.0909 37.2424 25.8182 36.4545 25.8182C35.6666 25.8182 35.0303 26.0909 34.5455 26.6364C34.0606 27.1212 33.8182 27.7273 33.8182 28.4545C33.8182 29.2425 34.0606 29.9091 34.5455 30.4546C35.0909 30.9394 35.7272 31.1819 36.4545 31.1818ZM37.8182 28.4545C37.8181 29.3637 37.3636 29.8182 36.4545 29.8182C35.606 29.8182 35.1818 29.3637 35.1818 28.4545C35.1818 27.6061 35.606 27.1819 36.4545 27.1818C37.3636 27.1819 37.8181 27.6061 37.8182 28.4545Z" fill="#006C00"></path>
</g>
<rect x="0.25" y="0.25" width="74.2" height="94.6" rx="7.75" stroke="#003500" stroke-width="0.5"></rect>
<defs>
<clipPath id="clip0_1_868">
<rect width="74.7" height="95.1" rx="8" fill="white"></rect>
</clipPath>
</defs>
</svg>