<svg width="75" height="96" viewBox="0 0 75 96" fill="none" xmlns="http://www.w3.org/2000/svg">
<g clip-path="url(#clip0_1_858)">
<rect width="74.7" height="95.1" rx="8" fill="white"></rect>
<path d="M74.7 87.9C74.6999 92.7 72.4333 95.1 67.9 95.1H6.8C2.26666 95.1 -2e-06 92.7 0 87.9V7.2C-2e-06 2.40007 2.26666 7.6e-05 6.8 0H67.9C72.4333 7.6e-05 74.6999 2.40007 74.7 7.2V87.9ZM73 87.9V7.2C72.9999 3.53341 71.2999 1.70007 67.9 1.7H6.8C3.4 1.70007 1.7 3.53341 1.7 7.2V87.9C1.7 91.6333 3.4 93.5 6.8 93.5H67.9C71.2999 93.5 72.9999 91.6333 73 87.9Z" fill="white"></path>
<path d="M64.5001 47.5C64.5 55.2333 61.8333 61.7 56.5001 66.9C51.2333 72.1 44.8333 74.7 37.3 74.7C29.7 74.7 23.2667 72.0667 18.0001 66.8C12.8 61.4667 10.2001 55.0333 10.2001 47.5C10.2001 39.9667 12.8333 33.5667 18.1 28.3C23.3667 23.0334 29.7667 20.4 37.3 20.4C45.0333 20.4 51.5 23.0667 56.7001 28.4C61.9 33.6667 64.5 40.0334 64.5001 47.5ZM62.5001 47.5C62.5 40.4334 60.0333 34.4667 55.1 29.6C50.2333 24.7334 44.3 22.3 37.3 22.3C30.3 22.3 24.3667 24.7667 19.5001 29.7C14.6334 34.5667 12.2001 40.5 12.2001 47.5C12.2001 54.6334 14.6334 60.6334 19.5001 65.5C24.4334 70.3 30.3667 72.7 37.3 72.7C44.4333 72.7 50.4 70.2667 55.2001 65.4C60.0667 60.4667 62.5 54.5 62.5001 47.5ZM37.3 25.3C43.7 25.3 49 27.5 53.2001 31.9C57.4667 36.2334 59.6 41.4334 59.6 47.5C59.6 53.8334 57.4333 59.1333 53.1 63.4C48.7666 67.6667 43.5 69.8 37.3 69.8C31.0333 69.8 25.7667 67.6333 21.5001 63.3C17.2334 58.9 15.1 53.6334 15.1 47.5C15.1 41.1667 17.2667 35.9 21.6 31.7C26 27.4334 31.2333 25.3 37.3 25.3ZM22.9 62C26.9 65.8667 31.7 67.8 37.3 67.8C42.9 67.8 47.7 65.8667 51.7001 62C55.7 58.0667 57.7 53.2334 57.7001 47.5C57.7 41.9 55.7 37.1334 51.7001 33.2C47.7667 29.2 42.9667 27.2 37.3 27.2C31.5667 27.2 26.7333 29.2 22.8 33.2C18.9334 37.1334 17 41.9 17.0001 47.5C17 53.2334 18.9667 58.0667 22.9 62Z" fill="#006C00"></path>
<path d="M33.2 43.4C34.3333 42.2667 35.6999 41.7 37.3 41.7C38.8999 41.7 40.2666 42.2667 41.4 43.4C42.5999 44.4667 43.2 45.8334 43.2 47.5C43.2 49.2334 42.6333 50.6667 41.5 51.8C40.3666 52.8667 38.9666 53.4 37.3 53.4C35.6333 53.4 34.2333 52.8333 33.1 51.7C32.0333 50.5 31.5 49.1 31.5 47.5C31.5 45.8334 32.0666 44.4667 33.2 43.4ZM37.3 51.4C38.4333 51.4 39.3666 51.0333 40.1 50.3C40.8999 49.5 41.2999 48.5667 41.3 47.5C41.2999 46.4334 40.8999 45.5333 40.1 44.8C39.3666 44 38.4333 43.6 37.3 43.6C36.1666 43.6 35.2333 44 34.5 44.8C33.7666 45.5333 33.3999 46.4334 33.4 47.5C33.3999 48.6334 33.7666 49.5667 34.5 50.3C35.3 51.0333 36.2333 51.4 37.3 51.4Z" fill="#006C00"></path>
<path d="M50.8 42C52.4667 42 53.8333 42.5334 54.9 43.6C55.9666 44.6667 56.5 46.0333 56.5001 47.7C56.5 49.3 55.9666 50.6 54.9 51.6C53.9 52.6 52.5333 53.1 50.8 53.1H47.0001C48.8 56.2334 49.7 58.3 49.7001 59.3C49.7 60.8333 49.1333 62.1667 48.0001 63.3C46.9333 64.4333 45.5666 65 43.9 65C43.4333 65 42.9667 64.9667 42.5001 64.9C42.1 64.7667 41.7 64.5667 41.3 64.3C40.9667 63.9667 40.6666 63.7 40.4 63.5C40.1333 63.2333 39.8334 62.8667 39.5001 62.4C39.1667 61.8667 38.9 61.4667 38.7001 61.2C38.5667 60.9333 38.3334 60.5 38.0001 59.9C37.6667 59.3 37.4333 58.9 37.3 58.7C35.7 61.6333 34.4667 63.4 33.6 64C32.8 64.6 31.8334 64.9 30.7001 64.9C29.1 64.9 27.7333 64.3667 26.6 63.3C25.4667 62.2333 24.9 60.9667 24.9 59.5C24.9 58.4333 25.8334 56.3 27.7001 53.1H23.9C22.2333 53.1 20.8667 52.5667 19.8 51.5C18.7334 50.3667 18.2001 49 18.2001 47.4C18.2001 45.7334 18.7 44.4334 19.7001 43.5C20.7667 42.5 22.1667 42 23.9 42H27.7001C25.9 38.8667 25 36.7667 25.0001 35.7C25 34.1667 25.5333 32.8667 26.6 31.8C27.7333 30.6667 29.1333 30.1001 30.8 30.1C31.4 30.1001 31.9333 30.2 32.4 30.4C32.9333 30.6 33.3333 30.8001 33.6 31C33.9333 31.2 34.3 31.6 34.7001 32.2C35.1667 32.8 35.4667 33.2 35.6 33.4C35.7333 33.6 36.0334 34.1334 36.5001 35C36.9667 35.8 37.2333 36.2667 37.3 36.4C39.0333 33.4 40.3 31.6 41.1 31C41.9 30.4667 42.8667 30.2 44.0001 30.2C45.6 30.2 46.9666 30.7334 48.1 31.8C49.2333 32.8667 49.8 34.1334 49.8 35.6C49.8 36.6 48.8667 38.7334 47.0001 42H50.8ZM43.9 63C44.9666 63 45.8666 62.6667 46.6 62C47.3333 61.2667 47.7 60.3667 47.7001 59.3C47.7 58.6333 47.5334 58 47.2001 57.4L43.6 51.1H50.8C53.2667 51.1 54.5 49.9 54.5001 47.5C54.5 45.1 53.2667 43.9 50.8 43.9H43.6L47.2001 37.7C47.6 36.9667 47.8 36.2334 47.8 35.5C47.8 34.5667 47.4334 33.7667 46.7001 33.1C45.9667 32.4334 45.1 32.1 44.1 32.1C42.7667 32.1 41.7333 32.7334 41.0001 34L37.3 40.3L33.7001 34C32.9667 32.6667 32 32 30.8 32C29.7333 32 28.8 32.3667 28.0001 33.1C27.2667 33.8334 26.9 34.7 26.9 35.7C26.9 36.3667 27.1 37.0334 27.5001 37.7L31.1 43.9H23.9C21.4333 43.9 20.2 45.1 20.2001 47.5C20.2 49.9 21.4333 51.1 23.9 51.1H31.1L27.5001 57.4C27.0334 58.1333 26.8 58.8333 26.8 59.5C26.8 60.4333 27.1667 61.2333 27.9 61.9C28.7 62.5667 29.6 62.9 30.6 62.9C31.9333 62.9 32.9667 62.2667 33.7001 61L37.3 54.8L41.0001 61C41.7333 62.3334 42.7 63 43.9 63Z" fill="#9C0000"></path>
<path d="M39.3 47.5C39.3 48.8334 38.6333 49.5 37.3 49.5C36.0333 49.5 35.4 48.8334 35.4 47.5C35.4 46.2334 36.0333 45.6 37.3 45.6C38.6333 45.6 39.3 46.2334 39.3 47.5Z" fill="#9C0000"></path>
</g>
<rect x="0.25" y="0.25" width="74.2" height="94.6" rx="7.75" stroke="#003500" stroke-width="0.5"></rect>
<defs>
<clipPath id="clip0_1_858">
<rect width="74.7" height="95.1" rx="8" fill="white"></rect>
</clipPath>
</defs>
</svg>