<svg width="75" height="96" viewBox="0 0 75 96" fill="none" xmlns="http://www.w3.org/2000/svg">
<rect x="0.25" y="0.25" width="74.2" height="94.6" rx="7.75" fill="white"></rect>
<rect x="0.25" y="0.25" width="74.2" height="94.6" rx="7.75" stroke="#003500" stroke-width="0.5"></rect>
<path d="M23.3948 18.3272C24.1011 18.3272 25.3075 18.239 27.0143 18.0624C28.721 17.8859 29.6921 17.7976 29.9275 17.7975C29.9275 18.8569 30.0158 21.5053 30.1923 25.7427C30.3689 29.9213 30.4572 32.5402 30.4572 33.5995C30.4572 34.7178 29.9569 35.9831 28.9564 37.3955C28.4856 36.8659 27.3968 35.7477 25.6901 34.0409C26.8083 34.041 27.6617 34.0115 28.2502 33.9527C28.5445 33.0699 28.6916 29.5976 28.6916 23.5357C26.6317 23.5357 25.131 23.7417 24.1894 24.1536C23.6597 22.9178 23.3948 20.9756 23.3948 18.3272ZM22.3355 18.4155C22.6297 17.1796 22.8946 16.3262 23.13 15.8554C22.718 15.8554 21.8646 15.9142 20.5699 16.0319C19.334 16.0908 18.6572 16.1497 18.5395 16.2085V18.3272C18.2452 18.2684 18.0098 18.1213 17.8332 17.8858C17.7155 17.6504 17.5684 17.3856 17.3918 17.0913C17.2741 16.7382 17.1858 16.5028 17.127 16.3851C17.0093 16.3851 16.2148 16.5322 14.7434 16.8264C13.2721 17.1208 12.4187 17.2679 12.1833 17.2678C11.5948 17.2679 10.9768 16.9148 10.3295 16.2085C12.1539 15.9731 13.5075 15.826 14.3903 15.7671C15.2731 15.6494 16.1265 15.5317 16.9504 15.414C16.8327 15.2375 16.2442 14.2664 15.1848 12.5007C16.303 12.5008 17.2447 12.7657 18.0098 13.2953C18.1863 14.3547 18.304 15.0315 18.3629 15.3257C19.128 15.2669 20.8936 15.0315 23.6597 14.6195L24.0128 11C24.6013 11.0001 25.3664 11.3826 26.3081 12.1476L25.0721 14.5312C25.6607 14.4724 26.4846 14.3547 27.544 14.1781C28.6033 14.0016 29.2213 13.9133 29.3978 13.9132C30.8103 13.9133 31.5165 14.443 31.5165 15.5023L24.6308 15.5905C23.4537 17.4739 22.6886 18.4155 22.3355 18.4155ZM21.1879 25.7427C23.1888 25.2719 24.2482 25.0365 24.3659 25.0364C25.0721 25.0365 25.6606 25.3013 26.1315 25.8309L24.1011 30.1567C23.7479 29.9801 22.7474 29.8918 21.0996 29.8918C21.0996 33.5995 20.923 35.7477 20.5699 36.3362C19.9813 35.9243 19.6871 35.3652 19.6871 34.6589C19.6871 34.4824 19.7459 34.0704 19.8637 33.423C19.9814 32.7756 20.0402 32.0105 20.0402 31.1277C18.4512 32.7756 16.715 33.835 14.8317 34.3057C15.6557 33.6584 17.0975 32.3048 19.1574 30.2449C18.922 30.245 18.2158 30.3921 17.0387 30.6863C16.9798 30.5098 16.715 29.9213 16.2442 28.9207C15.8322 27.8614 15.6262 26.9786 15.6262 26.2723L20.1285 26.0075V25.3013C19.7165 25.1247 19.128 24.8305 18.3629 24.4185C19.128 24.2419 19.7165 24.036 20.1285 23.8005C20.1285 22.9766 19.9519 22.2115 19.5988 21.5053C20.5993 21.7996 21.2467 22.035 21.541 22.2115C21.4232 22.6823 21.335 23.212 21.2761 23.8005H21.8058C22.1589 23.8594 22.6003 23.8889 23.13 23.8888C22.9534 23.9477 22.3355 24.3597 21.2761 25.1247C21.2761 25.2425 21.2467 25.4485 21.1879 25.7427ZM25.4253 33.423C24.3659 33.1287 23.0417 32.3343 21.4527 31.0394C22.3943 31.0395 23.0417 31.0983 23.3948 31.216C23.7479 31.3337 24.4247 31.7163 25.4253 32.3636V33.423ZM13.0661 19.3865C13.3015 19.3866 14.0078 19.2983 15.1848 19.1217C16.3619 18.8863 16.9504 18.7686 16.9504 18.7686C17.127 18.7686 17.7449 19.0335 18.8043 19.5631C18.5689 20.034 18.3923 20.4754 18.2746 20.8873C18.2157 21.2405 18.1275 21.829 18.0098 22.6529C17.8921 23.4769 17.7449 24.3008 17.5684 25.1247C15.3908 25.1248 14.0372 25.2719 13.5075 25.5661C13.5075 29.8624 13.125 33.423 12.3599 36.2479C11.5948 35.836 11.2123 35.1298 11.2123 34.1292L11.3005 33.7761C11.3594 33.5407 11.4477 33.217 11.5654 32.805C11.6831 32.3343 11.8008 31.8045 11.9185 31.216C12.0362 30.5686 12.1245 29.7447 12.1833 28.7442C12.2422 27.6848 12.2716 26.5666 12.2716 25.3895C12.2716 22.8001 12.0362 20.7402 11.5654 19.21C11.9773 19.21 12.2716 19.2395 12.4482 19.2983C12.6247 19.3571 12.8307 19.3866 13.0661 19.3865ZM24.8073 18.7686V20.7107L26.5729 20.2693C26.926 20.2694 27.1908 20.5342 27.3674 21.0639C26.308 21.4759 25.4547 21.6819 24.8073 21.6818C24.8073 22.035 24.8367 22.3881 24.8956 22.7412C25.7784 22.6235 27.0143 22.5647 28.6033 22.5646L28.4268 19.7397C28.4267 19.2689 28.1913 19.0041 27.7205 18.9452C27.3085 18.8275 26.3375 18.7686 24.8073 18.7686ZM24.1011 25.9192C23.0417 25.9781 22.1 26.1547 21.2761 26.4489C21.2761 27.626 21.2467 28.4205 21.1879 28.8325C22.4238 28.6559 23.2771 28.5676 23.748 28.5676C23.7479 27.9202 23.8656 27.0375 24.1011 25.9192ZM13.5075 24.5067C15.1554 24.2714 16.1265 23.9477 16.4207 23.5357C16.715 23.1237 16.8621 21.8879 16.8621 19.8279C15.9793 19.828 15.1554 19.8868 14.3903 20.0045C13.6841 20.1222 13.2721 20.1811 13.1544 20.1811C13.1544 20.5342 13.2133 21.1228 13.331 21.9466C14.3315 21.7701 15.0083 21.6819 15.3614 21.6818C16.0676 21.6819 16.4502 21.8584 16.509 22.2115C15.5674 22.6235 14.5374 22.8295 13.4192 22.8294C13.4781 23.2415 13.5075 23.8006 13.5075 24.5067ZM20.2168 29.009L20.1285 26.7137C18.8337 26.8315 17.8627 26.9786 17.2153 27.1551C17.2153 27.6849 17.2447 28.2145 17.3035 28.7442C17.4212 29.2739 17.4801 29.5681 17.4801 29.6269C18.1275 29.5682 18.6866 29.4799 19.1574 29.3621C19.6871 29.1856 20.0402 29.0679 20.2168 29.009ZM23.13 26.8903C22.8357 27.3023 22.3355 27.7731 21.6293 28.3028L22.2472 26.5372C22.4237 26.5372 22.718 26.6549 23.13 26.8903ZM19.2457 28.8325C18.5394 28.8325 18.0686 28.3322 17.8332 27.3317C18.3629 27.3317 18.716 27.42 18.8926 27.5965C19.128 27.7731 19.2457 28.1851 19.2457 28.8325Z" fill="#006C00"></path>
<path d="M36.7597 41.0992C33.9347 41.0992 31.7517 44.0658 30.2215 50.0099C28.3971 47.4792 26.1661 46.2305 23.5178 46.2304C19.6923 46.2305 16.4793 47.8489 13.8898 51.0858C11.3003 54.2639 9.99999 57.9661 10 62.2035C9.99999 65.7935 11.1053 69.1537 13.2829 72.2729C15.5193 75.3921 18.2394 76.9351 21.4763 76.9351C23.0065 76.9351 24.3068 76.2988 25.3661 75.004C26.4843 73.7681 27.2954 72.3961 27.7662 70.8659C28.2959 69.2769 28.9322 67.8534 29.6974 66.6175C30.5213 65.3227 31.4041 64.6864 32.3457 64.6864C33.3462 64.6864 33.8354 65.4459 33.8355 66.9761C32.7172 66.2699 31.9098 65.8046 31.3802 65.5691C31.5567 65.9223 31.6284 66.1411 31.6285 66.2588C31.6284 66.9651 31.3342 67.9711 30.7457 69.2658C30.216 70.5606 29.9732 71.4912 29.9732 72.0798C29.9732 72.1975 29.9732 72.3207 29.9732 72.4384C30.0321 72.4972 30.0799 72.5966 30.1388 72.7143C30.2564 72.7731 30.3557 72.8209 30.4146 72.8798C30.5323 72.9386 30.6279 73.0379 30.7457 73.1557C30.9222 73.2145 31.0693 73.2623 31.1871 73.3212L31.7388 73.5971C31.9742 73.7148 32.1452 73.7865 32.263 73.8453C31.9098 74.0219 31.4923 74.4394 31.0215 75.0868C30.5507 75.793 30.3042 76.4054 30.3043 76.9351C30.3042 77.3471 30.7456 78.377 31.6285 80.0249L33.063 82.425C33.063 82.8958 32.7687 83.1147 32.1802 83.1147C31.2974 83.1147 30.4146 82.2319 29.5318 80.4663C28.7079 78.7007 28.1432 77.0344 27.849 75.4454C27.7312 76.2693 27.6559 76.9057 27.6559 77.3765C27.6559 79.4364 28.0973 81.3013 28.9801 82.9492C29.9217 84.6559 31.1742 85.5148 32.7044 85.5148C33.1752 85.5148 33.9586 85.2205 35.0769 84.632L36.7597 83.832C36.8185 83.832 37.3832 84.1023 38.4425 84.632C39.5607 85.2205 40.3442 85.5148 40.815 85.5148C42.3452 85.5148 43.5462 84.6559 44.429 82.9492C45.3706 81.3013 45.8635 79.4364 45.8635 77.3765C45.8635 76.6703 45.7642 76.0339 45.5877 75.4454C45.4111 76.9756 44.8464 78.6179 43.9048 80.3835C43.022 82.208 42.1631 83.1147 41.3392 83.1147C40.7506 83.1147 40.4564 82.8958 40.4564 82.425L41.891 80.0249C42.7737 78.377 43.2151 77.3471 43.2151 76.9351C43.2151 76.4054 42.9687 75.793 42.4979 75.0868C42.027 74.4394 41.6095 74.0219 41.2564 73.8453C42.7866 73.0214 43.5462 72.4329 43.5462 72.0798C43.5462 71.4912 43.2519 70.5606 42.6634 69.2658C42.1337 67.9711 41.8909 66.9651 41.891 66.2588C41.8909 66.1411 41.9626 65.9223 42.1392 65.5691C41.1976 65.9223 40.3902 66.3876 39.684 66.9761C39.6839 65.4459 40.1732 64.6864 41.1737 64.6864C42.1153 64.6864 42.9742 65.3227 43.7393 66.6175C44.5632 67.8534 45.1996 69.2769 45.6704 70.8659C46.2001 72.3961 47.0111 73.7681 48.0705 75.004C49.1887 76.2988 50.5129 76.9351 52.0431 76.9351C55.28 76.9351 57.9762 75.3921 60.1538 72.2729C62.3901 69.1537 63.5194 65.7935 63.5194 62.2035C63.5194 57.9661 62.2191 54.2639 59.6296 51.0858C57.04 47.8489 53.827 46.2305 50.0016 46.2304C47.3532 46.2305 45.1223 47.4792 43.2979 50.0099C41.7677 44.0658 39.5846 41.0992 36.7597 41.0992ZM36.7597 42.4234C38.3487 42.4234 39.6729 43.4533 40.7323 45.5132C41.8505 47.573 42.4151 49.2908 42.4151 50.6444C42.4151 51.5861 40.8444 54.8469 37.7253 60.4379C37.7252 60.6733 37.8963 60.7965 38.2494 60.7965C39.1322 59.9138 39.9911 58.6374 40.815 56.9895C41.6978 55.2828 42.4335 53.7875 43.022 52.4928C43.6105 51.198 44.4933 50.0449 45.6704 49.0443C46.9063 48.0439 48.3537 47.5546 50.0016 47.5546C53.3562 47.5546 56.2749 49.0499 58.7468 52.0514C61.2774 54.994 62.5262 58.2787 62.5263 61.9276C62.5262 65.2822 61.4963 68.4713 59.4365 71.4728C57.4354 74.4743 55.0096 75.9696 52.1259 75.9696C50.7133 75.9696 49.5124 75.3571 48.5119 74.1212C47.5702 72.8264 46.8585 71.4029 46.3877 69.8728C45.9757 68.2837 45.2878 66.8878 44.3462 65.6519C43.4634 64.3571 42.4096 63.6932 41.1737 63.6932C40.9382 63.6932 40.7433 63.7447 40.5668 63.8036C40.3902 63.8036 40.1915 63.8514 40.015 63.9691C39.8384 64.0868 39.6913 64.21 39.5736 64.3277C39.4559 64.4454 39.3602 64.6165 39.2426 64.8519C39.1248 65.0873 39.0255 65.2822 38.9667 65.4588C38.9078 65.6354 38.8085 65.9296 38.6908 66.3416C38.5731 66.6947 38.5013 66.989 38.4425 67.2244C38.3836 67.4009 38.2604 67.7706 38.0839 68.3003C37.9662 68.83 37.8668 69.2475 37.808 69.5417H35.7114C35.4171 67.423 35.0235 65.9002 34.5527 65.0174C34.1407 64.1346 33.4051 63.6932 32.3457 63.6932C31.1098 63.6932 30.0321 64.3571 29.0904 65.6519C28.2076 66.8878 27.5198 68.2837 27.049 69.8728C26.637 71.4029 25.9252 72.8264 24.9247 74.1212C23.9831 75.3571 22.806 75.9696 21.3936 75.9696C18.5686 75.9696 16.0913 74.4743 13.9726 71.4728C11.9127 68.4125 10.8828 65.2234 10.8828 61.9276C10.8828 58.2787 12.1353 54.994 14.6071 52.0514C17.1377 49.0499 20.1043 47.5546 23.5178 47.5546C25.1657 47.5546 26.5892 48.0439 27.7662 49.0443C29.0021 50.0449 29.9088 51.198 30.4974 52.4928C31.0859 53.7875 31.7976 55.2828 32.6216 56.9895C33.5044 58.6374 34.3872 59.9138 35.27 60.7965C35.6231 60.7965 35.7941 60.6733 35.7942 60.4379C32.6161 54.9057 31.0215 51.6449 31.0215 50.6444C31.0215 49.3497 31.5861 47.6558 32.7044 45.5959C33.8814 43.4772 35.2295 42.4234 36.7597 42.4234ZM32.7871 67.0589C33.0225 67.5297 33.1457 67.9233 33.1458 68.2175C33.1457 68.4529 32.8754 68.9661 32.3457 69.79C31.8749 70.5551 31.6284 71.2908 31.6285 71.997C31.6873 71.9381 31.8859 71.6439 32.1802 71.1142C32.4745 70.5845 32.7687 70.167 33.063 69.8728C33.4161 69.5197 33.7821 69.2769 34.1941 69.1003C33.7232 69.9243 33.5044 70.7317 33.5044 71.5556C33.5044 71.7322 33.5522 71.9786 33.6699 72.2729C33.7876 72.5083 33.8354 72.6793 33.8355 72.797L32.8699 73.2384C32.1048 72.8853 31.6156 72.615 31.3802 72.4384C31.1447 72.203 31.0215 71.9326 31.0215 71.6384C31.0215 71.4618 31.6101 69.9427 32.7871 67.0589ZM40.7323 67.0589C41.8505 69.8249 42.4151 71.3441 42.4151 71.6384C42.4151 72.2269 41.8265 72.7676 40.6495 73.2384L39.7667 72.7143C39.9433 72.42 40.015 72.0264 40.015 71.5556C40.015 70.7317 39.7961 69.9243 39.3253 69.1003C39.7961 69.2769 40.655 70.2075 41.891 71.9142C41.8909 71.3257 41.6206 70.6379 41.0909 69.8728C40.5612 69.0488 40.2909 68.5118 40.2909 68.2175C40.2909 68.041 40.438 67.6474 40.7323 67.0589ZM34.6355 70.2314C34.7532 70.5257 34.8525 70.8438 34.9114 71.197C35.029 71.5501 35.1008 71.8443 35.1596 72.0798C35.2773 72.2563 35.3766 72.4788 35.4355 72.7143C35.5532 72.9497 35.6764 73.1207 35.7942 73.2384C35.9118 73.2973 36.059 73.3212 36.2356 73.3212C35.8236 72.5561 35.601 71.6255 35.601 70.5073H37.9184C37.9183 71.6255 37.6958 72.5561 37.2839 73.3212C37.4015 73.3212 37.5248 73.2973 37.6425 73.2384C37.7602 73.1207 37.8595 72.9497 37.9184 72.7143C38.036 72.4788 38.1078 72.2563 38.1667 72.0798C38.2843 71.8443 38.4076 71.5501 38.5253 71.197C38.643 70.8438 38.7662 70.5257 38.8839 70.2314C38.8839 71.2908 38.6614 72.3207 38.2494 73.3212C39.1322 73.38 39.9911 73.7736 40.815 74.4799C41.6978 75.2449 42.1392 76.0523 42.1392 76.9351C42.1392 77.1705 41.6739 78.1287 40.7323 79.7766C39.7906 81.4833 39.3253 82.414 39.3253 82.5905C39.3253 83.4145 39.9138 83.832 41.0909 83.832C41.856 83.832 42.5916 83.3906 43.2979 82.5078C43.1802 83.8614 42.3452 84.5492 40.815 84.5492C39.7557 84.5492 38.4076 83.9607 36.7597 82.7836C35.1118 83.9607 33.7637 84.5492 32.7044 84.5492C31.1742 84.5492 30.3392 83.8614 30.2215 82.5078C30.9277 83.3906 31.6634 83.832 32.4285 83.832C33.6055 83.832 34.1941 83.4145 34.1941 82.5905C34.1941 82.3551 33.7288 81.4006 32.7871 79.6939C31.8455 78.046 31.3802 77.1117 31.3802 76.9351C31.3802 76.0523 31.7976 75.2449 32.6216 74.4799C33.5044 73.7736 34.3872 73.3801 35.27 73.3212C34.858 72.3207 34.6355 71.2908 34.6355 70.2314Z" fill="#9C0000"></path>
<path d="M31.3779 65.5453C31.5544 65.8984 31.6537 66.1173 31.6537 66.235C31.6537 66.9412 31.3594 67.9472 30.7709 69.242C30.2412 70.5368 29.9709 71.495 29.9709 72.0835C29.9709 72.2012 29.9709 72.2968 29.9709 72.4145C30.0297 72.4734 30.1051 72.5727 30.164 72.6904C30.2817 72.7493 30.3534 72.797 30.4123 72.8559C30.53 72.9148 30.6532 73.0141 30.7709 73.1318C30.9475 73.1907 31.0946 73.2384 31.2123 73.2973L31.7365 73.5732C31.9719 73.6909 32.1429 73.7902 32.2606 73.8491C31.9075 74.0256 31.5176 74.4155 31.0468 75.0629C30.576 75.7691 30.3295 76.4092 30.3295 76.9389C30.3295 77.3508 30.7709 78.3807 31.6537 80.0286L33.0607 82.4011C33.0607 82.872 32.7664 83.1184 32.1779 83.1184C31.2951 83.1184 30.4123 82.2356 29.5295 80.47C28.7055 78.7044 28.1409 77.0106 27.8467 75.4216C27.7289 76.2455 27.6811 76.9094 27.6812 77.3803C27.6811 79.4401 28.1225 81.2774 29.0053 82.9253C29.947 84.632 31.1718 85.4909 32.702 85.4909C33.1728 85.4909 33.9839 85.1967 35.1021 84.6081L36.785 83.8081C36.8438 83.8081 37.3808 84.0784 38.4402 84.6081C39.5584 85.1967 40.3695 85.4909 40.8403 85.4909C42.3704 85.4909 43.5714 84.632 44.4543 82.9253C45.3959 81.2774 45.8612 79.4401 45.8612 77.3803C45.8612 76.674 45.7894 76.0101 45.6129 75.4216C45.4363 76.9517 44.8717 78.5941 43.9301 80.3597C43.0473 82.1841 42.1884 83.1184 41.3645 83.1184C40.7759 83.1184 40.4816 82.872 40.4817 82.4011L41.8886 80.0286C42.7714 78.3807 43.2128 77.3508 43.2128 76.9389C43.2128 76.4092 42.9939 75.7691 42.5231 75.0629C42.0523 74.4155 41.6348 74.0256 41.2817 73.8491C42.8118 73.0251 43.5714 72.4366 43.5715 72.0835C43.5714 71.495 43.2771 70.5368 42.6887 69.242C42.1589 67.9472 41.8886 66.9412 41.8886 66.235C41.8886 66.1173 41.9879 65.8984 42.1645 65.5453C41.2228 65.8984 40.3878 66.3637 39.6816 66.9522H33.8607C32.7425 66.246 31.9075 65.7807 31.3779 65.5453ZM32.8124 67.035C33.0478 67.5058 33.1434 67.8994 33.1434 68.1937C33.1434 68.4291 32.9006 68.9422 32.371 69.7662C31.9001 70.5312 31.6537 71.2669 31.6537 71.9731C31.7125 71.9143 31.8836 71.62 32.1779 71.0903C32.4721 70.5607 32.7664 70.1708 33.0607 69.8765C33.4138 69.5234 33.8073 69.253 34.2193 69.0765C33.7485 69.9004 33.5021 70.7078 33.5021 71.5317C33.5021 71.7083 33.5775 71.9547 33.6952 72.249C33.8129 72.4844 33.8607 72.6555 33.8607 72.7732L32.8952 73.2146C32.13 72.8614 31.6132 72.5911 31.3779 72.4145C31.1424 72.1791 31.0468 71.9364 31.0468 71.6421C31.0468 71.4655 31.6353 69.9188 32.8124 67.035ZM40.7575 67.035C41.8757 69.8011 42.4128 71.3478 42.4128 71.6421C42.4128 72.2306 41.8242 72.7437 40.6472 73.2146L39.7644 72.6904C39.9409 72.3961 40.0402 72.0026 40.0403 71.5317C40.0402 70.7078 39.7938 69.9004 39.323 69.0765C39.7938 69.253 40.6527 70.1836 41.8886 71.8904C41.8886 71.3018 41.6182 70.6416 41.0886 69.8765C40.5589 69.0526 40.3161 68.4879 40.3162 68.1937C40.3161 68.0171 40.4633 67.6235 40.7575 67.035ZM34.6607 70.2075C34.7784 70.5018 34.8502 70.8476 34.909 71.2007C35.0267 71.5538 35.126 71.8481 35.1849 72.0835C35.3026 72.26 35.4019 72.455 35.4608 72.6904C35.5785 72.9258 35.6741 73.0969 35.7918 73.2146C35.9095 73.2734 36.0566 73.2973 36.2332 73.2973C35.8212 72.5322 35.6263 71.6016 35.6263 70.4834H37.9161C37.916 71.6016 37.7211 72.5322 37.3091 73.2973C37.4268 73.2973 37.55 73.2734 37.6678 73.2146C37.7854 73.0969 37.8572 72.9258 37.9161 72.6904C38.0337 72.455 38.133 72.26 38.1919 72.0835C38.3096 71.8481 38.4328 71.5538 38.5506 71.2007C38.6682 70.8476 38.7639 70.5018 38.8816 70.2075C38.8816 71.2669 38.6866 72.2968 38.2747 73.2973C39.1574 73.3562 40.0163 73.7498 40.8403 74.456C41.7231 75.2211 42.1645 76.0561 42.1645 76.9389C42.1645 77.1743 41.6992 78.1049 40.7575 79.7528C39.8159 81.4595 39.323 82.3901 39.323 82.5667C39.323 83.3906 39.9115 83.8081 41.0886 83.8081C41.8536 83.8081 42.5893 83.3667 43.2956 82.4839C43.1778 83.8375 42.3704 84.5254 40.8403 84.5254C39.7809 84.5254 38.4328 83.9368 36.785 82.7598C35.1371 83.9368 33.7614 84.5254 32.702 84.5254C31.1718 84.5254 30.3645 83.8375 30.2468 82.4839C30.953 83.3667 31.6886 83.8081 32.4538 83.8081C33.6308 83.8081 34.2193 83.3906 34.2193 82.5667C34.2193 82.3312 33.754 81.3767 32.8124 79.67C31.8707 78.0221 31.3778 77.1154 31.3779 76.9389C31.3778 76.0561 31.7953 75.2211 32.6193 74.456C33.5021 73.7498 34.3848 73.3562 35.2677 73.2973C34.8557 72.2968 34.6607 71.2669 34.6607 70.2075Z" fill="#006C00"></path>
</svg>