<svg width="75" height="96" viewBox="0 0 75 96" fill="none" xmlns="http://www.w3.org/2000/svg">
<rect x="0.25" y="0.25" width="74.2" height="94.6" rx="7.75" fill="white"></rect>
<rect x="0.25" y="0.25" width="74.2" height="94.6" rx="7.75" stroke="#003500" stroke-width="0.5"></rect>
<path d="M27.9617 17.8184C28.1279 17.8185 29.2639 17.5137 31.3697 16.9041C33.4754 16.2946 34.6113 15.9898 34.7776 15.9898C34.9992 15.9898 35.4425 16.1007 36.1075 16.3223V16.9872L28.3773 18.5665C28.2665 18.5666 28.1002 18.5389 27.8786 18.4834C27.6569 18.428 27.463 18.4003 27.2967 18.4003C26.9088 18.4003 26.4655 18.6497 25.9668 19.1484L24.055 20.977L26.2993 16.821C27.1859 15.1586 27.6292 13.8287 27.6292 12.8312C27.6292 12.4988 27.6015 12.2217 27.5461 12H28.4604C28.9037 12.0001 29.4024 12.4711 29.9566 13.413L27.3799 17.7353C27.4353 17.7908 27.6292 17.8185 27.9617 17.8184ZM35.4426 24.1356C35.6088 24.1357 35.969 24.0526 36.5231 23.8862C37.0772 23.6646 37.4374 23.5538 37.6037 23.5538C38.2132 23.5538 38.9336 24.0248 39.7648 24.9668H34.6945C34.1957 27.2942 33.9464 28.6242 33.9464 28.9566V29.4553C34.2234 29.5662 34.5836 29.7047 35.027 29.8709C35.5257 29.9818 35.8858 30.0926 36.1075 30.2034C36.3846 30.2589 36.6616 30.3697 36.9387 30.5359C37.2158 30.6468 37.4097 30.7853 37.5206 30.9515C37.6868 31.1178 37.7976 31.3117 37.8531 31.5333C37.7422 31.6996 37.5206 31.7827 37.1881 31.7827C37.1327 31.7827 36.9941 31.755 36.7725 31.6996C36.6062 31.6442 36.246 31.5334 35.6919 31.3671C35.1932 31.2009 34.6113 31.0347 33.9464 30.8684L32.949 33.7776C32.5056 34.9967 31.7575 35.8557 30.7047 36.3543L29.2916 33.5282C29.7349 33.6945 30.2059 33.7776 30.7047 33.7776C31.0926 33.7776 31.4528 33.4452 31.7853 32.7802C32.1177 32.1152 32.284 31.5888 32.284 31.2009V30.2865H25.8837L23.2238 31.2009C23.113 31.0901 23.0576 30.8684 23.0576 30.5359C23.0576 30.4251 23.5286 29.7324 24.4706 28.4579L25.5512 26.7955V26.2967L23.9719 26.6292C23.6394 26.6293 23.2515 26.3799 22.8082 25.8811C24.1936 25.7149 25.2187 25.521 25.8837 25.2993C26.2162 24.1357 26.3824 23.1382 26.3824 22.307C26.3824 21.7529 26.2993 21.2819 26.1331 20.8939C27.3521 20.894 28.7098 20.6723 30.206 20.2289C31.7021 19.7857 32.5056 19.564 32.6165 19.564C33.3922 19.564 34.2234 20.0628 35.1101 21.0602C34.7222 21.8914 34.5282 22.7503 34.5282 23.6369C34.9161 23.9694 35.2209 24.1357 35.4426 24.1356ZM20.9796 23.2213C21.1458 23.2213 21.3952 23.1936 21.7277 23.1382C22.1155 23.0274 22.3372 22.972 22.3926 22.9719C22.7805 22.972 23.0853 23.249 23.307 23.8031V24.5512H21.977C21.9216 24.5513 21.5891 24.108 20.9796 23.2213ZM19.4003 21.0602C18.7907 21.0602 17.9872 21.171 16.9898 21.3926C15.9923 21.6143 15.4659 21.7252 15.4105 21.7251C15.1334 21.7252 14.6347 21.5312 13.9143 21.1433C15.2997 20.8108 17.2391 20.0905 19.7328 18.9821V14.3274C19.5665 13.8287 19.2617 13.0529 18.8184 12H19.8159C19.9821 12.0001 20.5363 12.3325 21.4783 12.9974C21.312 14.272 21.035 16.1561 20.6471 18.6497C20.8687 18.8159 21.2566 18.9268 21.8108 18.9821H23.307C23.3069 19.1484 23.2238 19.3147 23.0576 19.4809C22.9468 19.5917 22.8082 19.7026 22.642 19.8133C22.4757 19.8688 22.1987 20.0073 21.8108 20.2289C21.4229 20.3952 21.0904 20.5615 20.8133 20.7277C20.7025 21.2819 20.6471 21.642 20.6471 21.8082V33.6114C20.6471 33.7222 20.37 34.3041 19.8159 35.3569C19.0955 34.8028 18.7353 34.1101 18.7353 33.2789C18.7353 32.5031 18.9016 31.284 19.234 29.6216C19.5665 27.9592 19.7328 26.7401 19.7328 25.9643C19.7328 25.3548 19.6773 24.4127 19.5665 23.1382C17.5162 26.9618 15.3274 29.4 13 30.4528C16.4356 26.2968 18.5691 23.1659 19.4003 21.0602ZM32.949 24.385V21.3095C32.5056 20.9217 32.09 20.7277 31.7021 20.7277C31.3696 20.7277 30.6493 20.8663 29.541 21.1433C28.4327 21.365 27.7677 21.4758 27.5461 21.4758C27.3798 23.0828 27.1859 24.3019 26.9643 25.1331L32.949 24.385ZM32.7827 29.4553V25.2162C31.3973 25.3825 29.4024 25.6595 26.798 26.0474C26.4655 26.8786 26.0499 28.0146 25.5512 29.4553H32.7827ZM30.0397 22.0576C30.2059 22.0576 30.4276 22.1962 30.7047 22.4732C30.9817 22.6949 31.1203 22.8888 31.1203 23.055C31.1203 23.5538 31.0094 23.914 30.7878 24.1356C29.9566 23.914 29.541 23.4984 29.541 22.8888V22.0576H30.0397ZM30.206 27.7929C30.2059 28.07 30.1228 28.4302 29.9566 28.8735C29.6241 28.8735 29.3193 28.7627 29.0423 28.541C28.8206 28.264 28.7098 28.0146 28.7098 27.7929V26.463C29.7072 26.6293 30.2059 27.0726 30.206 27.7929Z" fill="#006C00"></path>
<path d="M52.023 51.8148C54.5166 51.8148 56.6223 52.7014 58.3402 54.4747C60.1134 56.1925 61 58.2982 61 60.7918C61 63.3409 60.1134 65.502 58.3402 67.2752C56.5669 68.9931 54.4612 69.852 52.023 69.852C51.0255 69.852 50.0835 69.7134 49.1969 69.4364C50.3606 71.0434 50.9424 72.8166 50.9425 74.7561C50.9424 77.3051 50.0558 79.4385 48.2826 81.1564C46.5093 82.9296 44.3759 83.8162 41.8823 83.8162C39.3332 83.8162 37.1721 82.9296 35.3989 81.1564C33.681 79.3831 32.8221 77.2497 32.8222 74.7561C30.9935 77.2497 28.5553 78.4965 25.5075 78.4965C22.9585 78.4965 20.7974 77.6099 19.0241 75.8367C17.3063 74.0634 16.4474 71.93 16.4474 69.4364C16.4474 67.3861 17.0292 65.5851 18.1929 64.0335C19.3566 62.4819 20.8528 61.4014 22.6814 60.7918C20.8528 60.2377 19.3566 59.1848 18.1929 57.6332C17.0292 56.0817 16.4474 54.2807 16.4474 52.2304C16.4474 49.6814 17.334 47.548 19.1073 45.8301C20.8805 44.0569 23.0139 43.1703 25.5075 43.1702C28.5553 43.1703 30.9935 44.4171 32.8222 46.9107C32.8221 44.3617 33.7087 42.2282 35.482 40.5104C37.2552 38.7372 39.3886 37.8506 41.8823 37.8505C44.4313 37.8506 46.5647 38.7372 48.2826 40.5104C50.0558 42.2837 50.9424 44.4171 50.9425 46.9107C50.9424 48.8502 50.3606 50.6234 49.1969 52.2304C50.0835 51.9533 51.0255 51.8148 52.023 51.8148ZM52.023 68.6883C54.1841 68.6883 56.0128 67.9402 57.509 66.444C59.0605 64.8924 59.8363 63.0084 59.8364 60.7918C59.8363 58.5753 59.0605 56.7189 57.509 55.2227C56.0128 53.7266 54.1841 52.9785 52.023 52.9785C50.3051 52.9785 48.7536 53.4772 47.3683 54.4747C47.1466 54.0868 46.8418 53.6712 46.4539 53.2278C48.615 51.6763 49.6956 49.5706 49.6956 46.9107C49.6956 44.6941 48.9198 42.8378 47.3683 41.3416C45.8721 39.8455 44.0434 39.0974 41.8823 39.0973C39.6657 39.0974 37.8094 39.8732 36.3132 41.4247C34.817 42.9209 34.0689 44.7496 34.069 46.9107C34.0689 47.7419 34.1798 48.5454 34.4014 49.3212C33.9581 49.432 33.4871 49.5983 32.9884 49.8199C32.4896 48.3237 31.5476 47.0492 30.1623 45.9963C28.7769 44.9435 27.2253 44.4171 25.5075 44.4171C23.291 44.4171 21.4069 45.1929 19.8553 46.7444C18.3592 48.2406 17.6111 50.0693 17.6111 52.2304C17.6111 54.3915 18.3592 56.2479 19.8553 57.7995C21.4069 59.2957 23.291 60.0437 25.5075 60.0437C25.4521 60.4316 25.4244 60.681 25.4244 60.7918C25.4244 60.9027 25.4521 61.1797 25.5075 61.623C23.291 61.623 21.4069 62.3988 19.8553 63.9504C18.3592 65.4466 17.6111 67.2752 17.6111 69.4364C17.6111 71.5975 18.3592 73.4262 19.8553 74.9223C21.4069 76.4739 23.291 77.2497 25.5075 77.2497C27.2253 77.2497 28.7492 76.7233 30.0792 75.6704C31.4645 74.673 32.4342 73.3984 32.9884 71.8469C33.4871 72.0685 33.9581 72.2348 34.4014 72.3456C34.1798 73.1214 34.0689 73.9249 34.069 74.7561C34.0689 76.9726 34.817 78.829 36.3132 80.3252C37.8648 81.8767 39.7211 82.6525 41.8823 82.6525C44.0434 82.6525 45.8721 81.8767 47.3683 80.3252C48.9198 78.829 49.6956 76.9726 49.6956 74.7561C49.6956 72.1516 48.615 70.0459 46.4539 68.4389C46.8418 67.9956 47.1466 67.58 47.3683 67.1921C48.7536 68.1896 50.3051 68.6883 52.023 68.6883ZM37.3107 51.8148C39.8597 51.8148 41.9931 52.7014 43.711 54.4747C45.4842 56.1925 46.3708 58.2982 46.3708 60.7918C46.3708 63.3409 45.4842 65.502 43.711 67.2752C41.9377 68.9931 39.8043 69.852 37.3107 69.852C34.7616 69.852 32.6005 68.9654 30.8273 67.1921C29.1094 65.4189 28.2505 63.2854 28.2505 60.7918C28.2505 58.2428 29.1371 56.1094 30.9104 54.3915C32.6836 52.6737 34.817 51.8148 37.3107 51.8148ZM37.3107 68.6883C39.5272 68.6883 41.3835 67.9125 42.8797 66.3609C44.4313 64.8093 45.2071 62.953 45.2071 60.7918C45.2071 58.6307 44.4313 56.802 42.8797 55.3059C41.3835 53.7543 39.5272 52.9785 37.3107 52.9785C35.0941 52.9785 33.2377 53.7543 31.7416 55.3059C30.2454 56.802 29.4973 58.6307 29.4973 60.7918C29.4973 63.0084 30.2454 64.8924 31.7416 66.444C33.2931 67.9402 35.1495 68.6883 37.3107 68.6883Z" fill="#9C0000"></path>
</svg>