<svg width="75" height="96" viewBox="0 0 75 96" fill="none" xmlns="http://www.w3.org/2000/svg">
<rect x="0.25" y="0.25" width="74.2" height="94.6" rx="7.75" fill="white"></rect>
<rect x="0.25" y="0.25" width="74.2" height="94.6" rx="7.75" stroke="#003500" stroke-width="0.5"></rect>
<path d="M49.6898 63.1204C52.3287 63.1204 54.2931 62.4753 55.5833 61.1852C56.8734 59.8951 58.0756 57.5201 59.1898 54.0602C59.2484 56.4645 59.8348 59.5725 60.9491 63.3843C60.0694 64.2639 58.574 65.0849 56.463 65.8472C54.4104 66.6096 52.4753 66.9907 50.6574 66.9907C45.7315 66.9907 42.682 65.6127 41.5093 62.8565C40.9228 61.5077 40.6296 60.7747 40.6296 60.6574V30.3102C40.6296 30.1343 40.4537 29.5479 40.1019 28.5509C39.75 27.5541 39.574 26.9676 39.5741 26.7917V26C42.1543 26.821 43.8549 27.7886 44.6759 28.9028L43.0046 42.1852V47.287L43.2685 47.375C48.1358 44.2084 50.716 41.3936 51.0093 38.9306H52.3287C52.7392 38.9306 53.3549 39.2824 54.1759 39.9861C55.0555 40.6898 55.6419 41.3056 55.9352 41.8333L42.8287 49.1343V60.0417C42.8287 60.3349 42.9753 60.6867 43.2685 61.0972C43.5617 61.5077 44.2654 61.9475 45.3796 62.4167C46.4938 62.8858 47.9305 63.1204 49.6898 63.1204ZM29.8102 65.0555C29.8102 64.7623 29.9274 63.8241 30.162 62.2407C30.4552 60.5988 30.6018 59.6312 30.6019 59.338C30.6018 58.8688 30.5139 58.2238 30.338 57.4028L19.9583 64.7037C19.3719 64.645 18.0524 63.5309 16 61.3611C21.9815 59.8951 26.9953 57.8719 31.0417 55.2917V45.6158C30.8657 45.4399 30.6605 45.3519 30.4259 45.3518C25.3827 46.8766 22.8318 47.6389 22.7732 47.6389C22.0108 47.6389 21.0725 47.0818 19.9583 45.9676C24.1219 44.2084 27.6697 43.2408 30.6019 43.0648C30.895 42.713 31.0416 42.2732 31.0417 41.7454C31.0416 40.3966 30.7484 38.4908 30.162 36.0278L28.7546 30.4861H30.338C30.5725 30.4862 31.1296 30.8673 32.0093 31.6296C32.9475 32.392 33.4753 32.8612 33.5926 33.037C33.7098 33.2716 33.8564 33.6528 34.0324 34.1806L33.3287 39.2824V65.4074C33.3287 65.5247 33.1527 65.9938 32.8009 66.8148L32.0093 68.75C30.5432 68.2809 29.8102 67.0494 29.8102 65.0555Z" fill="#006C00"></path>
</svg>