<svg width="75" height="96" viewBox="0 0 75 96" fill="none" xmlns="http://www.w3.org/2000/svg">
<rect x="0.25" y="0.25" width="74.2" height="94.6" rx="7.75" fill="white"></rect>
<rect x="0.25" y="0.25" width="74.2" height="94.6" rx="7.75" stroke="#003500" stroke-width="0.5"></rect>
<path d="M37.8788 26.9237C37.8788 27.2022 37.7396 27.8983 37.4611 29.0121C37.2383 30.1259 37.127 30.7385 37.127 30.8498V35.2772C37.2383 35.3329 37.5446 35.3607 38.0459 35.3607L48.9054 34.1077C49.5179 34.1077 50.576 34.5254 52.0797 35.3607C53.5832 36.1961 54.6692 36.9479 55.3375 37.6161C55.1704 37.7832 54.8363 38.1174 54.3351 38.6185C53.8338 39.1198 53.4719 39.4818 53.2491 39.7045C53.082 39.9273 52.7757 40.2614 52.3303 40.7069C51.9404 41.0968 51.6341 41.4309 51.4114 41.7093C51.2443 41.9321 50.9937 42.2384 50.6596 42.6282C50.3811 43.0181 50.1583 43.3522 49.9913 43.6306C49.8799 43.9091 49.7407 44.2154 49.5736 44.5495C49.4065 44.8837 49.2951 45.2178 49.2395 45.5519C49.1838 45.8304 49.1559 46.1367 49.156 46.4708C49.1559 46.8049 49.2395 47.4454 49.4066 48.3921H44.8957C40.9417 48.6705 38.8812 48.8098 38.7141 48.8097C37.9902 48.8098 37.4611 48.6984 37.127 48.4756L37.0435 61.4235C36.2638 67.1038 35.5677 70.7793 34.9551 72.45C34.2868 71.2248 33.9527 70.2781 33.9527 69.6098V64.7648C33.9527 64.7092 34.0083 64.2079 34.1198 63.2612C34.2311 62.3145 34.2868 61.7298 34.2868 61.507V50.2298C34.2868 49.84 33.9805 49.6451 33.3679 49.6451C32.2541 49.6451 29.6089 49.8122 25.4322 50.1463C24.8752 51.2044 24.4854 52.0676 24.2627 52.7359C24.0956 52.7359 23.9007 52.5688 23.6779 52.2347C23.121 50.8981 22.6755 49.1161 22.3414 46.8885C22.0072 44.6609 21.7845 43.4079 21.6731 43.1294L19 37.0314C19.5012 37.0314 20.3087 37.0871 21.4225 37.1985C22.5363 37.3099 23.2324 37.3656 23.5109 37.3655C24.7917 37.3656 28.1888 36.8922 33.7021 35.9454C34.0919 35.667 34.2868 35.2772 34.2868 34.776C34.2868 31.8801 33.5628 28.2881 32.1149 24H35.2892C36.0132 24 36.6258 24.3063 37.127 24.9189C37.6282 25.4758 37.8788 26.1441 37.8788 26.9237ZM47.9865 39.2868C47.9864 38.2287 47.8472 37.5326 47.5688 37.1985C47.346 36.8087 46.8448 36.6137 46.0652 36.6137C45.8424 36.6137 45.5361 36.6416 45.1463 36.6972L37.9623 37.282C37.7952 37.282 37.5446 37.1428 37.2105 36.8643V47.2226C37.3776 47.2226 37.7117 47.2505 38.2129 47.3061C38.7141 47.3062 39.1039 47.3062 39.3824 47.3061C39.4381 47.3062 39.5216 47.2783 39.633 47.2226C39.8001 47.1669 40.0507 47.1112 40.3848 47.0555C40.7189 46.9442 41.0809 46.8606 41.4708 46.8049C45.8145 46.1367 47.9864 43.6306 47.9865 39.2868ZM34.1198 47.6403V37.8667L24.0121 39.2868C24.2905 40.345 24.4854 41.3195 24.5968 42.2105C24.7639 43.1016 24.8752 43.7699 24.931 44.2154C24.9866 44.6609 25.0145 45.357 25.0145 46.3037C25.0701 47.2505 25.1259 48.0301 25.1816 48.6427L34.1198 47.6403Z" fill="#BA0000"></path>
</svg>