<svg width="75" height="96" viewBox="0 0 75 96" fill="none" xmlns="http://www.w3.org/2000/svg">
<rect x="0.25" y="0.25" width="74.2" height="94.6" rx="7.75" fill="white"></rect>
<rect x="0.25" y="0.25" width="74.2" height="94.6" rx="7.75" stroke="#003500" stroke-width="0.5"></rect>
<path d="M51.1266 41.1922C51.9289 41.2496 53.075 41.6507 54.5651 42.3957C56.055 43.1407 56.8 43.9144 56.8 44.7167C56.8 44.774 56.6567 45.1178 56.3702 45.7482C56.141 46.3213 55.8544 46.9803 55.5106 47.7253C55.224 48.4703 55.0521 49.0434 54.9949 49.4445C54.9948 50.2468 54.9375 51.5363 54.8229 53.3128C54.7083 55.032 54.479 57.4389 54.1352 60.5335C53.8487 63.5708 53.2756 66.1783 52.416 68.356C51.6137 70.4764 50.6108 71.5366 49.4074 71.5366C49.2927 71.5366 49.1494 71.5079 48.9776 71.4506L43.9918 64.7456C45.0233 64.9748 46.1408 65.0895 47.3443 65.0895H48.5478C49.0635 64.7456 49.4933 64.3731 49.8372 63.972C50.181 63.5708 50.4389 63.0264 50.6108 62.3387C50.84 61.5937 50.9833 61.0493 51.0406 60.7054C51.1552 60.3616 51.2698 59.6739 51.3845 58.6424C51.499 57.5535 51.5564 56.8945 51.5564 56.6653C51.5564 54.8314 51.5564 53.3701 51.5564 52.2812C51.5564 51.1351 51.5564 50.4188 51.5564 50.1322C51.6137 49.8457 51.6423 49.5878 51.6424 49.3586C51.6423 49.1293 51.6423 48.8715 51.6424 48.5849C51.6423 46.9803 51.2985 45.7769 50.6108 44.9745C49.9804 44.1149 48.8343 43.6851 47.1724 43.6851C45.1666 43.6851 42.8456 44.029 40.2095 44.7167C40.3814 45.0605 40.8685 45.5477 41.6709 46.178L37.2868 51.4216H43.4761C42.9603 51.9947 41.6422 52.4818 39.5218 52.883C37.4014 53.2841 36.2266 53.542 35.9974 53.6566V56.8372C36.2266 56.8372 37.0862 56.7226 38.5763 56.4933C40.1235 56.2641 41.0118 56.1495 41.2411 56.1495C42.731 56.1495 43.9918 56.5793 45.0234 57.4389C45.0233 57.6108 44.88 57.8687 44.5935 58.2126C44.307 58.5564 44.0777 58.7283 43.9059 58.7283L36.4272 58.9002C36.198 59.3014 35.9974 59.8172 35.8255 60.4475C35.7108 61.0206 35.6249 61.5651 35.5676 62.0808C35.5103 62.5393 35.453 62.7972 35.3957 62.8545C35.3957 63.0264 35.367 63.4276 35.3097 64.0579C35.2524 64.6883 35.1664 65.1754 35.0519 65.5193C34.9945 65.8058 34.8226 66.1783 34.5361 66.6368C34.3068 67.0379 33.9916 67.3531 33.5905 67.5823C33.5332 65.0608 33.3326 62.482 32.9888 59.8458C32.9315 59.7312 32.8168 59.6166 32.6449 59.502C29.8369 60.247 28.1749 60.6195 27.6592 60.6195C27.2007 60.6195 26.6563 60.4476 26.0259 60.1037C25.3955 59.7026 25.0517 59.3014 24.9944 58.9002C26.8282 58.6137 29.5503 58.0693 33.1607 57.267V54.0005C31.728 54.3443 30.6105 54.5162 29.8082 54.5162C28.7193 54.5162 27.7165 54.2584 26.7996 53.7426C28.6334 53.5134 31.1836 53.0262 34.4501 52.2812C34.6793 52.224 35.3097 51.4503 36.3413 49.9603C37.4301 48.413 37.9745 47.4961 37.9745 47.2095V45.3184C37.7453 45.2038 37.4014 45.1751 36.943 45.2324L21.47 47.2095V64.9175C21.47 65.1468 21.0688 65.9491 20.2665 67.3244C18.8911 66.9233 18.2034 65.7485 18.2035 63.8C18.2034 63.3989 18.3181 62.0522 18.5473 59.7599C18.7765 57.4676 18.8911 56.1208 18.8912 55.7197C18.8911 51.8801 18.4327 48.9861 17.5158 47.0376L17 46.0061V44.4588H18.5473C18.6619 44.4588 19.0057 44.6594 19.5788 45.0605C20.2092 45.4617 20.6103 45.6623 20.7823 45.6622C20.7823 45.5476 24.2494 45.0319 31.1836 44.1149C32.5016 42.8542 33.1607 40.8771 33.1607 38.1836C32.9888 38.0117 32.5016 37.9258 31.6994 37.9257C31.5274 37.9258 31.0976 37.9544 30.41 38.0117C29.7222 38.069 29.2924 38.0977 29.1205 38.0976C27.9171 38.0977 26.7422 37.6679 25.5961 36.8082C25.9972 36.751 26.6563 36.665 27.5732 36.5503C28.4901 36.3785 29.2065 36.2352 29.7223 36.1205C30.2953 36.006 30.897 35.8627 31.5274 35.6907C32.2151 35.5188 32.7309 35.2896 33.0748 35.003C33.4759 34.7165 33.7338 34.3727 33.8484 33.9715C34.4214 30.8196 34.708 28.9858 34.708 28.47C34.708 26.98 34.4501 25.49 33.9344 24H36.2553C36.5418 24.0001 37.0862 24.3152 37.8886 24.9456C38.7482 25.576 39.2639 26.0058 39.4359 26.235L36.857 33.6277C38.1178 33.6277 39.4645 33.4558 40.8972 33.1119C42.3872 32.7681 43.1608 32.5962 43.2182 32.5961C43.5047 32.5962 44.5075 32.854 46.2268 33.3698C45.711 34.2867 44.0491 35.089 41.2411 35.7767C38.433 36.4071 36.8857 36.8369 36.5992 37.0661C36.1407 37.41 35.7682 37.8971 35.4817 38.5274C35.1951 39.1005 34.5074 40.7338 33.4186 43.4272C34.0489 43.5992 34.6793 43.6851 35.3097 43.6851L51.1266 41.1922ZM31.2696 51.2497C30.8111 51.2497 30.238 50.8486 29.5503 50.0463C28.9199 49.1867 28.6047 48.5849 28.6048 48.2411V46.8657H30.41C30.983 46.8657 31.4415 47.2669 31.7853 48.0691C32.1865 48.8142 32.387 49.5305 32.387 50.2182C32.387 50.5047 32.3584 50.7053 32.3011 50.8199C31.9572 51.1065 31.6134 51.2497 31.2696 51.2497Z" fill="#006C00"></path>
</svg>