<svg width="75" height="96" viewBox="0 0 75 96" fill="none" xmlns="http://www.w3.org/2000/svg">
<rect x="0.25" y="0.25" width="74.2" height="94.6" rx="7.75" fill="white"></rect>
<rect x="0.25" y="0.25" width="74.2" height="94.6" rx="7.75" stroke="#003500" stroke-width="0.5"></rect>
<path d="M30.5336 18.7688C30.1576 19.2524 29.3786 19.6821 28.1968 20.0581C27.0149 20.3805 25.9136 20.6759 24.893 20.9445C23.926 21.2132 23.4425 21.5623 23.4425 21.9921V23.1202L32.7899 21.2668C33.918 21.6429 34.5895 22.1533 34.8044 22.7979L27.0687 23.8454C32.1184 28.358 36.6309 30.856 40.6063 31.3395C40.6062 31.447 40.7137 31.6081 40.9286 31.8229C39.4781 32.3065 38.0008 32.5482 36.4966 32.5482C36.0669 32.5482 35.7445 32.5482 35.5297 32.5482C35.3685 32.5482 35.1536 32.5213 34.885 32.4676C34.6164 32.4139 34.4284 32.3602 34.321 32.3064C34.2672 32.2528 34.0792 32.1453 33.7569 31.9841C33.4883 31.7693 33.2734 31.5812 33.1122 31.42C32.9511 31.2589 32.6287 30.9903 32.1453 30.6142C31.7155 30.1845 31.3126 29.8085 30.9366 29.4861L28.1162 26.3434C26.612 24.7319 25.5107 23.9261 24.8124 23.926C23.6842 23.9261 22.8516 24.329 22.3144 25.1347L20.6222 28.1968C20.6222 28.4654 20.9445 28.5997 21.5891 28.5997L27.1492 27.5522L30.0502 29.2444C29.9427 29.889 29.8353 30.6411 29.7278 31.5006C29.7278 31.5544 29.7278 31.7693 29.7278 32.1453C29.7815 32.5214 29.8084 32.8974 29.8084 33.2734V36.8996C29.8084 37.4905 29.4323 38.35 28.6803 39.4781C28.4117 39.4782 28.1699 39.317 27.9551 38.9947C27.7939 38.6724 27.579 38.2426 27.3104 37.7054C27.0418 37.1145 26.7195 36.631 26.3434 36.2549C25.1616 36.2549 23.7648 36.3892 22.1532 36.6578C21.7772 37.1413 21.4817 37.8397 21.2668 38.7529C20.6759 38.5381 20.3804 38.162 20.3804 37.6248L20.1387 29.1638C19.0105 30.2919 17.6675 31.4201 16.1096 32.5482C14.5517 33.6226 13.4505 34.1598 12.8058 34.1598C12.8058 34.1598 12.7789 34.1598 12.7252 34.1598C12.6715 34.1598 12.5641 34.1598 12.4029 34.1598C12.2955 34.1598 12.1612 34.1598 12 34.1598C17.3721 30.5606 20.4879 27.4716 21.3474 24.893C21.1862 24.7856 20.9176 24.7319 20.5416 24.7318C20.3804 24.7319 19.7626 24.8662 18.6882 25.1347C17.6138 25.3497 16.9423 25.4571 16.6737 25.457C15.9216 25.4571 15.3844 25.1079 15.0621 24.4095C16.5125 24.3558 18.7151 24.0335 21.6697 23.4425C22.0995 23.3351 22.3412 22.8516 22.395 21.9921V21.0251C22.2875 21.0788 22.0189 21.1057 21.5891 21.1057C20.9982 21.1057 20.1387 21.052 19.0106 20.9445C19.8701 20.8371 21.0251 20.5685 22.4755 20.1387C22.7978 19.9239 23.0665 19.2255 23.2814 18.0436C21.4548 17.8825 20.0581 17.8019 19.0911 17.8018C19.0911 17.6945 19.0105 17.5333 18.8494 17.3184C19.8701 17.1572 21.2937 16.8618 23.1202 16.432C23.3351 16.056 23.4425 15.6262 23.4425 15.1427C23.4425 14.8741 23.3619 14.4444 23.2008 13.8534C23.0933 13.2088 23.0396 12.7522 23.0396 12.4835C23.0396 12.3224 23.0664 12.1612 23.1202 12H23.7648C24.1409 12.0001 24.8124 12.3761 25.7794 13.1281L24.9736 15.6261C25.2421 15.8948 25.4839 16.0291 25.6988 16.0291C25.8599 16.0291 26.5852 15.8411 27.8745 15.465C29.2175 15.089 29.9696 14.901 30.1307 14.9009C30.5068 14.901 30.9902 15.0084 31.5812 15.2232V15.7067C30.1307 16.0291 28.0088 16.62 25.2153 17.4795C25.0541 17.5333 24.8392 17.775 24.5706 18.2047C24.3557 18.6346 24.2483 18.93 24.2483 19.0911V19.6552L24.4901 19.8969C24.8124 19.8433 25.4302 19.6553 26.3434 19.3329C27.3104 18.9569 27.8476 18.7689 27.9551 18.7688H30.5336ZM27.7939 35.6908C27.7939 35.1537 27.8207 34.4822 27.8745 33.6763C27.9282 32.8705 27.955 32.3871 27.9551 32.2259C27.955 29.8622 27.3641 28.6535 26.1823 28.5997L21.7503 29.4055V32.2259C23.5231 31.7961 24.6244 31.5812 25.0541 31.5812C25.9136 31.5812 26.3971 31.7693 26.5046 32.1453C24.9467 32.6825 23.8185 32.9511 23.1202 32.9511C22.4218 32.9511 21.9652 32.9242 21.7503 32.8705V35.6908C22.5024 35.6372 23.2008 35.5566 23.8454 35.4491C24.49 35.3417 24.9735 35.2611 25.2959 35.2073C25.6182 35.1537 25.8331 35.1268 25.9405 35.1268C25.9942 35.1268 26.0748 35.1537 26.1823 35.2073C26.2897 35.2074 26.4777 35.2611 26.7463 35.3685C27.0149 35.476 27.3641 35.5834 27.7939 35.6908Z" fill="#9C0000"></path>
<path d="M41.4062 36.1847C39.9557 39.8915 39.2305 42.1209 39.2305 42.8729C39.2305 43.8936 40.1437 46.6334 41.9703 51.0922C42.1851 51.7906 42.3731 52.9187 42.5343 54.4766C43.0178 53.2948 44.0385 51.3877 45.5964 48.7553C47.208 46.123 48.0138 44.1622 48.0138 42.8729C48.0138 41.8523 47.8526 40.4555 47.5304 38.6827C49.0345 40.1332 50.1895 41.8254 50.9953 43.7593C52.6069 42.6849 54.6214 41.9866 57.0389 41.6642C56.7703 41.8791 56.3674 42.2283 55.8302 42.7118C55.2929 43.1953 54.8632 43.5982 54.5409 43.9205C54.2185 44.1891 53.8694 44.5383 53.4934 44.968C53.1173 45.3441 52.8487 45.7201 52.6875 46.0962C52.5263 46.4722 52.4189 46.8483 52.3652 47.2243C52.3115 47.869 52.2309 48.7554 52.1235 49.8835C52.0697 51.0116 52.016 51.8443 51.9623 52.3815C51.9623 52.9187 51.9086 53.6439 51.8012 54.5572C51.6937 55.4167 51.5862 56.0614 51.4788 56.4911C51.3713 56.9209 51.2102 57.4312 50.9953 58.0222C50.8341 58.6131 50.6193 59.0697 50.3507 59.392C50.1358 59.6607 49.8403 59.9561 49.4643 60.2784C49.0882 60.547 48.6584 60.7351 48.175 60.8425C47.6915 60.9499 47.1543 61.0037 46.5634 61.0037C43.8773 61.0037 42.4268 59.3921 42.212 56.1688C41.2987 58.3176 39.7945 59.3921 37.6995 59.392C34.6911 59.3921 32.0591 57.1466 32.8646 52.865L34.3956 44.7263C34.2882 42.2552 33.16 39.6766 31.0112 36.9905C31.3335 37.1517 31.8439 37.4203 32.5423 37.7963C33.2943 38.1187 33.8315 38.3873 34.1539 38.6021C34.5299 38.7633 34.9597 39.0588 35.4432 39.4885C35.9266 39.8646 36.3296 40.2944 36.6519 40.7778C37.7263 38.8439 39.311 37.3129 41.4062 36.1847ZM49.142 42.3894C49.1419 42.6043 49.1419 42.7924 49.142 42.9535C49.1419 44.3503 48.6584 45.8813 47.6915 47.5466C46.7782 49.212 45.8381 50.8505 44.8712 52.4621C43.9042 54.02 43.4207 55.363 43.4207 56.4911C43.4207 58.6937 44.4951 59.795 46.644 59.7949C49.3837 59.795 50.7536 57.5118 50.7536 52.9456V48.5942C50.7536 48.1644 50.9953 47.4123 51.4788 46.3379C51.9623 45.2635 52.4726 44.4846 53.0099 44.0011C52.0966 44.4846 51.1027 45.1024 50.0284 45.8544C50.0283 44.5114 49.7329 43.3564 49.142 42.3894ZM33.9927 52.7844C33.9927 54.2886 34.315 55.5779 34.9597 56.6523C35.658 57.7267 36.5444 58.2639 37.6189 58.2639C40.09 58.2639 41.3256 56.8135 41.3256 53.9125C41.3256 52.7307 40.7884 50.7699 39.714 48.0301C38.6395 45.2904 38.1023 43.5445 38.1024 42.7923C38.1023 41.9866 38.2904 40.9927 38.6664 39.8108C37.8069 40.9927 37.2697 42.282 37.0548 43.6787C36.5713 42.8192 35.7386 41.6911 34.5568 40.2943C35.2014 42.1209 35.5237 43.5713 35.5238 44.6457C35.5237 44.8606 35.2551 46.2305 34.718 48.7553C34.2344 51.2265 33.9927 52.5695 33.9927 52.7844Z" fill="#9C0000"></path>
<path d="M61.7045 60.3275L59.8511 61.5362C59.5288 61.7511 59.287 61.9391 59.1259 62.1003C59.0184 62.2614 58.8841 62.4495 58.723 62.6643C58.5618 62.8255 58.3738 63.1478 58.1589 63.6313C57.944 64.0611 57.7023 64.5446 57.4337 65.0818C57.2188 65.619 56.8159 66.4785 56.225 67.6604C55.6877 68.8422 55.0968 70.0778 54.4522 71.3671C54.1836 71.9043 53.6195 72.4952 52.76 73.1399C51.9004 73.7845 50.638 74.644 48.9727 75.7185C47.361 76.8466 45.9374 77.8941 44.7019 78.8611L45.5883 74.9127C46.1255 72.0117 46.985 69.5943 48.1669 67.6604C49.3487 65.6727 50.7992 64.2222 52.5183 63.309C54.291 62.342 55.7952 61.6705 57.0308 61.2945C58.2663 60.9184 59.8242 60.5961 61.7045 60.3275ZM46.3135 61.8585C45.7226 63.5776 45.3465 64.9743 45.1854 66.0487C45.0242 67.1232 44.9436 68.6005 44.9436 70.4807C44.9436 70.7493 44.9436 71.2328 44.9436 71.9312C44.9436 72.6295 44.9436 73.1936 44.9436 73.6234H41.7204C41.7204 72.925 41.7204 72.146 41.7204 71.2865C41.7204 70.4807 41.7204 69.9704 41.7204 69.7555C41.7204 69.3794 41.7204 69.084 41.7204 68.8691C41.7204 68.6005 41.7204 68.305 41.7204 67.9827C41.7741 67.6604 41.8009 67.3918 41.801 67.1769C41.8546 66.962 41.9353 66.6128 42.0427 66.1293C42.2039 65.5921 42.3113 65.1624 42.365 64.84C42.4187 64.464 42.553 63.8193 42.7679 62.9061C42.9828 61.9928 43.1708 61.187 43.332 60.4886C43.9766 60.811 44.9705 61.2676 46.3135 61.8585ZM39.7864 60.4081C39.8401 60.7841 39.8939 61.6705 39.9476 63.0672C40.055 64.4103 40.1356 65.2967 40.1894 65.7264C40.243 66.1562 40.3236 66.962 40.4311 68.1438C40.5385 69.3257 40.6459 70.1584 40.7534 70.6419C40.8608 71.1791 40.9951 71.958 41.1563 72.9787C41.3712 73.9994 41.5861 74.8052 41.801 75.3961C42.0695 76.0408 42.365 76.7929 42.6874 77.6524C43.0634 78.5119 43.4663 79.2909 43.8961 79.9893C44.3258 80.7413 44.8093 81.4934 45.3465 82.2455L42.7679 84.0989C38.7389 79.0491 36.7243 71.1522 36.7244 60.4081C36.8855 60.6767 37.1004 60.7304 37.369 60.5692C37.8525 60.5692 38.6583 60.5155 39.7864 60.4081ZM57.6754 62.1003C57.4068 62.1003 57.0039 62.1809 56.4667 62.342C55.9295 62.4495 55.1505 62.7986 54.1299 63.3896C53.1629 63.9268 52.1959 64.652 51.229 65.5653C50.3157 66.4248 49.4024 67.7409 48.4892 69.5137C47.6296 71.2328 47.0118 73.2205 46.6358 75.4767C49.0532 74.1874 50.9066 72.9787 52.1959 71.8506C53.4852 70.7762 54.3179 69.8898 54.6939 69.1914C55.0699 68.4393 55.4997 67.3649 55.9832 65.9682C56.5204 64.5177 57.0845 63.2284 57.6754 62.1003ZM44.6213 62.1808C44.5676 62.1809 44.4601 62.1809 44.299 62.1808C44.1378 62.1271 44.0303 62.1003 43.9767 62.1003C43.2245 64.6789 42.8485 67.0694 42.8485 69.272C42.8485 69.4869 42.8485 69.9435 42.8485 70.6419C42.8485 71.3402 42.365 72.4146 42.8485 72.4146H43.8155C43.7618 71.77 43.7349 71.1253 43.7349 70.4807C43.7349 69.1377 44.0303 66.3711 44.6213 62.1808ZM43.2514 82.4873L43.6543 82.0038C41.9353 79.1566 40.7534 76.2288 40.1088 73.2205C39.4641 70.2658 39.0343 66.4248 38.8195 61.6974C38.712 61.6974 38.4434 61.7242 38.0137 61.7779C38.0136 65.8607 38.4165 69.5943 39.2224 72.9787C40.0282 76.4168 40.8071 78.8611 41.5592 80.3116C42.365 81.762 42.9291 82.4873 43.2514 82.4873Z" fill="#006C00"></path>
</svg>