<svg width="75" height="96" viewBox="0 0 75 96" fill="none" xmlns="http://www.w3.org/2000/svg">
<g clip-path="url(#clip0_1_936)">
<rect width="74.7" height="95.1" rx="8" fill="white"></rect>
<path d="M74.7 87.9C74.6999 92.7 72.4333 95.1 67.9 95.1H6.8C2.26666 95.1 -3e-06 92.7 0 87.9V7.2C-3e-06 2.40007 2.26666 7.6e-05 6.8 0H67.9C72.4333 7.6e-05 74.6999 2.40007 74.7 7.2V87.9ZM73 87.9V7.2C72.9999 3.53341 71.2999 1.70007 67.9 1.7H6.8C3.39999 1.70007 1.69999 3.53341 1.7 7.2V87.9C1.69999 91.6333 3.39999 93.5 6.8 93.5H67.9C71.2999 93.5 72.9999 91.6333 73 87.9Z" fill="white"></path>
<path d="M59 82C57.5033 81.8796 56.0067 81.8194 54.5102 81.8194C53.0136 81.8194 51.5469 81.8796 50.1102 82C50.2299 76.9434 50.2897 71.9169 50.2898 66.9205C50.2897 61.9241 50.2299 56.9277 50.1102 51.9313C51.6068 52.0517 53.0734 52.1119 54.5102 52.1119C56.0067 52.1119 57.5033 52.0517 59 51.9313C58.8802 56.9277 58.8203 61.9241 58.8204 66.9205C58.8203 71.9771 58.8802 77.0036 59 82ZM57.2041 53.8275C56.3061 53.8275 55.4081 53.8275 54.5102 53.8275C53.6721 53.8275 52.804 53.8275 51.9061 53.8275C51.9659 57.4394 51.9959 60.9609 51.9959 64.3922H57.1143C57.1142 60.9609 57.1442 57.4394 57.2041 53.8275ZM57.1143 67.8234V66.0175H51.9959V67.8234H57.1143ZM57.2041 80.1038C57.1442 76.2511 57.1142 72.7296 57.1143 69.5391H51.9959C51.9959 72.8499 51.9659 76.3715 51.9061 80.1038C52.804 80.0436 53.6721 80.0135 54.5102 80.0135C55.4081 80.0135 56.3061 80.0436 57.2041 80.1038ZM59 45.0687C57.5033 44.9484 56.0067 44.8882 54.5102 44.8881C53.0136 44.8882 51.5469 44.9484 50.1102 45.0687C50.2299 40.0122 50.2897 34.9857 50.2898 29.9892C50.2897 24.9929 50.2299 19.9965 50.1102 15C51.6068 15.1205 53.0734 15.1807 54.5102 15.1806C56.0067 15.1807 57.5033 15.1205 59 15C58.8802 19.9965 58.8203 24.9929 58.8204 29.9892C58.8203 35.0459 58.8802 40.0724 59 45.0687ZM57.2041 16.8962C56.3061 16.8963 55.4081 16.8963 54.5102 16.8962C53.6721 16.8963 52.804 16.8963 51.9061 16.8962C51.9659 20.5081 51.9959 24.0297 51.9959 27.4609H57.1143C57.1142 24.0297 57.1442 20.5081 57.2041 16.8962ZM57.1143 30.8922V29.0863H51.9959V30.8922H57.1143ZM57.2041 43.1725C57.1442 39.3199 57.1142 35.7983 57.1143 32.6078H51.9959C51.9959 35.9187 51.9659 39.4403 51.9061 43.1725C52.804 43.1123 53.6721 43.0822 54.5102 43.0822C55.4081 43.0822 56.3061 43.1123 57.2041 43.1725ZM23.8898 82C22.3932 81.8796 20.8966 81.8194 19.4 81.8194C17.9034 81.8194 16.4367 81.8796 15 82C15.1197 76.9434 15.1796 71.9169 15.1796 66.9205C15.1796 61.9241 15.1197 56.9277 15 51.9313C16.4966 52.0517 17.9632 52.1119 19.4 52.1119C20.8966 52.1119 22.3932 52.0517 23.8898 51.9313C23.77 56.9277 23.7102 61.9241 23.7102 66.9205C23.7102 71.9771 23.77 77.0036 23.8898 82ZM22.0939 53.8275C21.1959 53.8275 20.2979 53.8275 19.4 53.8275C18.5619 53.8275 17.6939 53.8275 16.7959 53.8275C16.8558 57.4394 16.8857 60.9609 16.8857 64.3922H22.0041C22.0041 60.9609 22.034 57.4394 22.0939 53.8275ZM22.0041 67.8234V66.0175H16.8857V67.8234H22.0041ZM22.0939 80.1038C22.034 76.2511 22.0041 72.7296 22.0041 69.5391H16.8857C16.8857 72.8499 16.8558 76.3715 16.7959 80.1038C17.6939 80.0436 18.5619 80.0135 19.4 80.0135C20.2979 80.0135 21.1959 80.0436 22.0939 80.1038ZM23.8898 45.0687C22.3932 44.9484 20.8966 44.8882 19.4 44.8881C17.9034 44.8882 16.4367 44.9484 15 45.0687C15.1197 40.0122 15.1796 34.9857 15.1796 29.9892C15.1796 24.9929 15.1197 19.9965 15 15C16.4966 15.1205 17.9632 15.1807 19.4 15.1806C20.8966 15.1807 22.3932 15.1205 23.8898 15C23.77 19.9965 23.7102 24.9929 23.7102 29.9892C23.7102 35.0459 23.77 40.0724 23.8898 45.0687ZM22.0939 16.8962C21.1959 16.8963 20.2979 16.8963 19.4 16.8962C18.5619 16.8963 17.6939 16.8963 16.7959 16.8962C16.8558 20.5081 16.8857 24.0297 16.8857 27.4609H22.0041C22.0041 24.0297 22.034 20.5081 22.0939 16.8962ZM22.0041 30.8922V29.0863H16.8857V30.8922H22.0041ZM22.0939 43.1725C22.034 39.3199 22.0041 35.7983 22.0041 32.6078H16.8857C16.8857 35.9187 16.8558 39.4403 16.7959 43.1725C17.6939 43.1123 18.5619 43.0822 19.4 43.0822C20.2979 43.0822 21.1959 43.1123 22.0939 43.1725ZM41.4898 82C39.9932 81.8796 38.4966 81.8194 37 81.8194C35.5034 81.8194 34.0367 81.8796 32.6 82C32.7197 76.9434 32.7796 71.9169 32.7796 66.9205C32.7796 61.9241 32.7197 56.9277 32.6 51.9313C34.0966 52.0517 35.5632 52.1119 37 52.1119C38.4966 52.1119 39.9932 52.0517 41.4898 51.9313C41.37 56.9277 41.3102 61.9241 41.3102 66.9205C41.3102 71.9771 41.37 77.0036 41.4898 82ZM39.6939 53.8275C38.7959 53.8275 37.8979 53.8275 37 53.8275C36.1619 53.8275 35.2938 53.8275 34.3959 53.8275C34.4557 57.4394 34.4857 60.9609 34.4857 64.3922H39.6041C39.604 60.9609 39.634 57.4394 39.6939 53.8275ZM39.6041 67.8234V66.0175H34.4857V67.8234H39.6041ZM39.6939 80.1038C39.634 76.2511 39.604 72.7296 39.6041 69.5391H34.4857C34.4857 72.8499 34.4557 76.3715 34.3959 80.1038C35.2938 80.0436 36.1619 80.0135 37 80.0135C37.8979 80.0135 38.7959 80.0436 39.6939 80.1038ZM41.4898 45.0687C39.9932 44.9484 38.4966 44.8882 37 44.8881C35.5034 44.8882 34.0367 44.9484 32.6 45.0687C32.7197 40.0122 32.7796 34.9857 32.7796 29.9892C32.7796 24.9929 32.7197 19.9965 32.6 15C34.0966 15.1205 35.5632 15.1807 37 15.1806C38.4966 15.1807 39.9932 15.1205 41.4898 15C41.37 19.9965 41.3102 24.9929 41.3102 29.9892C41.3102 35.0459 41.37 40.0724 41.4898 45.0687ZM39.6939 16.8962C38.7959 16.8963 37.8979 16.8963 37 16.8962C36.1619 16.8963 35.2938 16.8963 34.3959 16.8962C34.4557 20.5081 34.4857 24.0297 34.4857 27.4609H39.6041C39.604 24.0297 39.634 20.5081 39.6939 16.8962ZM39.6041 30.8922V29.0863H34.4857V30.8922H39.6041ZM39.6939 43.1725C39.634 39.3199 39.604 35.7983 39.6041 32.6078H34.4857C34.4857 35.9187 34.4557 39.4403 34.3959 43.1725C35.2938 43.1123 36.1619 43.0822 37 43.0822C37.8979 43.0822 38.7959 43.1123 39.6939 43.1725Z" fill="#006C00"></path>
</g>
<rect x="0.25" y="0.25" width="74.2" height="94.6" rx="7.75" stroke="#003500" stroke-width="0.5"></rect>
<defs>
<clipPath id="clip0_1_936">
<rect width="74.7" height="95.1" rx="8" fill="white"></rect>
</clipPath>
</defs>
</svg>