<svg width="75" height="96" viewBox="0 0 75 96" fill="none" xmlns="http://www.w3.org/2000/svg">
<g clip-path="url(#clip0_1_812)">
<rect width="74.7" height="95.1" rx="8" fill="white"></rect>
<path d="M74.7 87.9C74.6999 92.7 72.4333 95.1 67.9 95.1H6.80002C2.26668 95.1 0 92.7 0 87.9V7.20001C0 2.40008 2.26668 7e-05 6.80002 0H67.9C72.4333 7e-05 74.6999 2.40008 74.7 7.20001V87.9ZM73 87.9V7.20001C72.9999 3.53341 71.2999 1.70008 67.9 1.70001H6.80002C3.40001 1.70008 1.7 3.53341 1.70001 7.20001V87.9C1.7 91.6333 3.40001 93.5 6.80002 93.5H67.9C71.2999 93.5 72.9999 91.6333 73 87.9Z" fill="white"></path>
<path d="M41.0731 45.1741C39.713 45.0653 38.353 45.0109 36.9929 45.0108C35.6328 45.0109 34.3 45.0653 32.9944 45.1741C33.1032 40.6043 33.1575 36.0617 33.1575 31.5462C33.1575 27.0308 33.1032 22.5155 32.9944 18C34.3544 18.1089 35.6872 18.1632 36.9929 18.1632C38.353 18.1632 39.713 18.1089 41.0731 18C40.9643 22.5155 40.9099 27.0308 40.9099 31.5462C40.9099 36.1161 40.9643 40.6587 41.0731 45.1741ZM39.441 19.7137C38.625 19.7137 37.8089 19.7137 36.9929 19.7137C36.2313 19.7137 35.4425 19.7137 34.6265 19.7137C34.6808 22.9779 34.708 26.1604 34.708 29.2613H39.3595C39.3594 26.1604 39.3866 22.9779 39.441 19.7137ZM39.3595 32.3623V30.7302H34.708V32.3623H39.3595ZM39.441 43.4603C39.3866 39.9786 39.3594 36.7961 39.3595 33.9127H34.708C34.708 36.9049 34.6808 40.0874 34.6265 43.4603C35.4425 43.406 36.2313 43.3788 36.9929 43.3788C37.8089 43.3788 38.625 43.406 39.441 43.4603ZM57.0675 78.55C55.7074 78.4412 54.3473 78.3868 52.9873 78.3868C51.6272 78.3868 50.2943 78.4412 48.9887 78.55C49.0975 73.9802 49.1519 69.4376 49.1519 64.9222C49.1519 60.4068 49.0975 55.8914 48.9887 51.3759C50.3487 51.4848 51.6816 51.5392 52.9873 51.5391C54.3473 51.5392 55.7074 51.4848 57.0675 51.3759C56.9586 55.8914 56.9042 60.4068 56.9043 64.9222C56.9042 69.492 56.9586 74.0346 57.0675 78.55ZM55.4354 53.0896C54.6193 53.0897 53.8033 53.0897 52.9873 53.0896C52.2256 53.0897 51.4368 53.0897 50.6208 53.0896C50.6751 56.3538 50.7023 59.5363 50.7024 62.6372H55.3538C55.3537 59.5363 55.381 56.3538 55.4354 53.0896ZM55.3538 65.7382V64.1062H50.7024V65.7382H55.3538ZM55.4354 76.8363C55.381 73.3546 55.3537 70.172 55.3538 67.2887H50.7024C50.7023 70.2808 50.6751 73.4634 50.6208 76.8363C51.4368 76.7819 52.2256 76.7547 52.9873 76.7547C53.8033 76.7547 54.6193 76.7819 55.4354 76.8363ZM25.0788 78.55C23.7187 78.4412 22.3586 78.3868 20.9986 78.3868C19.6385 78.3868 18.3056 78.4412 17 78.55C17.1088 73.9802 17.1632 69.4376 17.1632 64.9222C17.1632 60.4068 17.1088 55.8914 17 51.3759C18.36 51.4848 19.6929 51.5392 20.9986 51.5391C22.3586 51.5392 23.7187 51.4848 25.0788 51.3759C24.97 55.8914 24.9156 60.4068 24.9156 64.9222C24.9156 69.492 24.9699 74.0346 25.0788 78.55ZM23.4467 53.0896C22.6307 53.0897 21.8146 53.0897 20.9986 53.0896C20.237 53.0897 19.4481 53.0897 18.6321 53.0896C18.6864 56.3538 18.7137 59.5363 18.7137 62.6372H23.3651C23.3651 59.5363 23.3923 56.3538 23.4467 53.0896ZM23.3651 65.7382V64.1062H18.7137V65.7382H23.3651ZM23.4467 76.8363C23.3923 73.3546 23.3651 70.172 23.3651 67.2887H18.7137C18.7137 70.2808 18.6864 73.4634 18.6321 76.8363C19.4481 76.7819 20.237 76.7547 20.9986 76.7547C21.8146 76.7547 22.6307 76.7819 23.4467 76.8363Z" fill="#006C00"></path>
</g>
<rect x="0.25" y="0.25" width="74.2" height="94.6" rx="7.75" stroke="#003500" stroke-width="0.5"></rect>
<defs>
<clipPath id="clip0_1_812">
<rect width="74.7" height="95.1" rx="8" fill="white"></rect>
</clipPath>
</defs>
</svg>