<svg width="75" height="96" viewBox="0 0 75 96" fill="none" xmlns="http://www.w3.org/2000/svg">
<g clip-path="url(#clip0_1_837)">
<rect width="74.7" height="95.1" rx="8" fill="white"></rect>
<path d="M74.7 87.9C74.6999 92.7 72.4333 95.1 67.9 95.1H6.79999C2.26666 95.1 0 92.7 0 87.9V7.19998C0 2.40005 2.26666 7e-05 6.79999 0H67.9C72.4333 7e-05 74.6999 2.40005 74.7 7.19998V87.9ZM73 87.9V7.19998C72.9999 3.53338 71.2999 1.70005 67.9 1.69998H6.79999C3.39999 1.70005 1.7 3.53338 1.70001 7.19998V87.9C1.7 91.6333 3.39999 93.4999 6.79999 93.5H67.9C71.2999 93.4999 72.9999 91.6333 73 87.9Z" fill="white"></path>
<path d="M41 33C39.5 32.8836 38 32.8254 36.5 32.8254C35 32.8254 33.5 32.8836 32 33C32.12 29.3334 32.18 25.6667 32.18 22C32.18 18.3334 32.12 14.6667 32 11C33.5 11.1165 35 11.1747 36.5 11.1746C38 11.1747 39.5 11.1165 41 11C40.88 14.6667 40.8199 18.3334 40.82 22C40.8199 25.6667 40.8799 29.3334 41 33ZM39.2 12.8333C38.3 12.8334 37.4 12.8334 36.5 12.8333H33.8C33.8599 14.2884 33.92 16.5292 33.98 19.5556H39.02C39.02 19.1482 39.0799 16.9075 39.2 12.8333ZM39.02 22.873V21.127H33.98V22.873H39.02ZM39.2 31.1667C39.08 27.2672 39.02 25.0265 39.02 24.4445H33.98C33.98 24.7937 33.92 27.0344 33.8 31.1667C34.7 31.1085 35.6 31.0794 36.5 31.0794L39.2 31.1667Z" fill="#9C0000"></path>
<path d="M59 86C57.5064 85.8799 56.0128 85.8199 54.5193 85.8199C53.0257 85.8199 51.5322 85.8798 50.0387 86C50.1581 82.2169 50.2179 78.4338 50.2179 74.6508C50.2179 70.8677 50.1581 67.0846 50.0387 63.3015C51.5322 63.4216 53.0257 63.4816 54.5193 63.4816C56.0128 63.4816 57.5064 63.4217 59 63.3015C58.8805 67.0846 58.8207 70.8677 58.8208 74.6508C58.8207 78.4338 58.8805 82.2169 59 86ZM57.2077 65.193C56.3116 65.193 55.4154 65.193 54.5193 65.193H51.831C51.8906 66.6943 51.9504 69.0062 52.0102 72.1287H57.0285C57.0284 71.7084 57.0882 69.3965 57.2077 65.193ZM57.0285 75.5515V73.75H52.0102V75.5515H57.0285ZM57.2077 84.1085C57.0882 80.0852 57.0284 77.7733 57.0285 77.1728H52.0102C52.0101 77.5331 51.9504 79.845 51.831 84.1085C52.727 84.0484 53.6232 84.0184 54.5193 84.0184L57.2077 84.1085ZM59 59.6986C57.5064 59.5785 56.0128 59.5184 54.5193 59.5184C53.0257 59.5184 51.5322 59.5785 50.0387 59.6986C50.1581 55.9155 50.2179 52.1324 50.2179 48.3493C50.2179 44.5662 50.1581 40.7831 50.0387 37C51.5322 37.1201 53.0257 37.1802 54.5193 37.1801C56.0128 37.1802 57.5064 37.1202 59 37C58.8805 40.7831 58.8207 44.5662 58.8208 48.3493C58.8207 52.1324 58.8805 55.9155 59 59.6986ZM57.2077 38.8915C56.3116 38.8916 55.4154 38.8916 54.5193 38.8915H51.831C51.8906 40.3928 51.9504 42.7047 52.0102 45.8272H57.0285C57.0284 45.4069 57.0882 43.095 57.2077 38.8915ZM57.0285 49.25V47.4485H52.0102V49.25H57.0285ZM57.2077 57.807C57.0882 53.7837 57.0284 51.4718 57.0285 50.8713H52.0102C52.0101 51.2316 51.9504 53.5435 51.831 57.807C52.727 57.747 53.6232 57.7169 54.5193 57.7169L57.2077 57.807ZM23.9613 86C22.4677 85.8799 20.9742 85.8199 19.4807 85.8199C17.9871 85.8199 16.4935 85.8798 15 86C15.1195 82.2169 15.1792 78.4338 15.1792 74.6508C15.1792 70.8677 15.1195 67.0846 15 63.3015C16.4935 63.4216 17.9871 63.4816 19.4807 63.4816C20.9742 63.4816 22.4677 63.4217 23.9613 63.3015C23.8418 67.0846 23.782 70.8677 23.7821 74.6508C23.782 78.4338 23.8418 82.2169 23.9613 86ZM22.169 65.193C21.2729 65.193 20.3768 65.193 19.4807 65.193H16.7923C16.852 66.6943 16.9117 69.0062 16.9714 72.1287H21.9898C21.9898 71.7084 22.0495 69.3965 22.169 65.193ZM21.9898 75.5515V73.75H16.9714V75.5515H21.9898ZM22.169 84.1085C22.0495 80.0852 21.9898 77.7733 21.9898 77.1728H16.9714C16.9714 77.5331 16.9117 79.845 16.7923 84.1085C17.6884 84.0484 18.5845 84.0184 19.4807 84.0184L22.169 84.1085ZM23.9613 59.6986C22.4677 59.5785 20.9742 59.5184 19.4807 59.5184C17.9871 59.5184 16.4935 59.5785 15 59.6986C15.1195 55.9155 15.1792 52.1324 15.1792 48.3493C15.1792 44.5662 15.1195 40.7831 15 37C16.4935 37.1201 17.9871 37.1802 19.4807 37.1801C20.9742 37.1802 22.4677 37.1202 23.9613 37C23.8418 40.7831 23.782 44.5662 23.7821 48.3493C23.782 52.1324 23.8418 55.9155 23.9613 59.6986ZM22.169 38.8915C21.2729 38.8916 20.3768 38.8916 19.4807 38.8915H16.7923C16.852 40.3928 16.9117 42.7047 16.9714 45.8272H21.9898C21.9898 45.4069 22.0495 43.095 22.169 38.8915ZM21.9898 49.25V47.4485H16.9714V49.25H21.9898ZM22.169 57.807C22.0495 53.7837 21.9898 51.4718 21.9898 50.8713H16.9714C16.9714 51.2316 16.9117 53.5435 16.7923 57.807C17.6884 57.747 18.5845 57.7169 19.4807 57.7169L22.169 57.807ZM41.4359 86C39.9423 85.8799 38.4487 85.8199 36.9552 85.8199C35.4616 85.8199 33.9681 85.8798 32.4746 86C32.594 82.2169 32.6537 78.4338 32.6537 74.6508C32.6537 70.8677 32.594 67.0846 32.4746 63.3015C33.9681 63.4216 35.4616 63.4816 36.9552 63.4816C38.4487 63.4816 39.9423 63.4217 41.4359 63.3015C41.3163 67.0846 41.2566 70.8677 41.2566 74.6508C41.2566 78.4338 41.3163 82.2169 41.4359 86ZM39.6436 65.193C38.7474 65.193 37.8513 65.193 36.9552 65.193H34.2668C34.3265 66.6943 34.3862 69.0062 34.446 72.1287H39.4644C39.4643 71.7084 39.5241 69.3965 39.6436 65.193ZM39.4644 75.5515V73.75H34.446V75.5515H39.4644ZM39.6436 84.1085C39.5241 80.0852 39.4643 77.7733 39.4644 77.1728H34.446C34.446 77.5331 34.3863 79.845 34.2668 84.1085C35.1629 84.0484 36.059 84.0184 36.9552 84.0184L39.6436 84.1085ZM41.4359 59.6986C39.9423 59.5785 38.4487 59.5184 36.9552 59.5184C35.4616 59.5184 33.9681 59.5785 32.4746 59.6986C32.594 55.9155 32.6537 52.1324 32.6537 48.3493C32.6537 44.5662 32.594 40.7831 32.4746 37C33.9681 37.1201 35.4616 37.1802 36.9552 37.1801C38.4487 37.1802 39.9423 37.1202 41.4359 37C41.3163 40.7831 41.2566 44.5662 41.2566 48.3493C41.2566 52.1324 41.3163 55.9155 41.4359 59.6986ZM39.6436 38.8915C38.7474 38.8916 37.8513 38.8916 36.9552 38.8915H34.2668C34.3265 40.3928 34.3862 42.7047 34.446 45.8272H39.4644C39.4643 45.4069 39.5241 43.095 39.6436 38.8915ZM39.4644 49.25V47.4485H34.446V49.25H39.4644ZM39.6436 57.807C39.5241 53.7837 39.4643 51.4718 39.4644 50.8713H34.446C34.446 51.2316 34.3863 53.5435 34.2668 57.807C35.1629 57.747 36.059 57.7169 36.9552 57.7169L39.6436 57.807Z" fill="#006C00"></path>
</g>
<rect x="0.25" y="0.25" width="74.2" height="94.6" rx="7.75" stroke="#003500" stroke-width="0.5"></rect>
<defs>
<clipPath id="clip0_1_837">
<rect width="74.7" height="95.1" rx="8" fill="white"></rect>
</clipPath>
</defs>
</svg>