<svg width="75" height="96" viewBox="0 0 75 96" fill="none" xmlns="http://www.w3.org/2000/svg">
<g clip-path="url(#clip0_1_795)">
<rect width="74.7" height="95.1" rx="8" fill="white"></rect>
<path d="M74.7 87.9C74.6999 92.7 72.4333 95.1 67.9 95.1H6.8C2.26666 95.1 -3e-06 92.7 0 87.9V7.2C-3e-06 2.40007 2.26666 7.6e-05 6.8 0H67.9C72.4333 7.6e-05 74.6999 2.40007 74.7 7.2V87.9ZM73 87.9V7.2C72.9999 3.53341 71.2999 1.70007 67.9 1.7H6.8C3.39999 1.70007 1.69999 3.53341 1.7 7.2V87.9C1.69999 91.6333 3.39999 93.5 6.8 93.5H67.9C71.2999 93.5 72.9999 91.6333 73 87.9Z" fill="white"></path>
<path d="M53.6026 30C54.678 30 56.0931 30.5378 57.8478 31.6132C59.659 32.6886 60.9326 33.3396 61.6685 33.5659V34.0754C61.3854 34.3018 60.5081 34.5565 59.0365 34.8395C57.6213 35.1225 56.6591 35.6886 56.1497 36.5376L54.197 42.7355C53.8573 43.6978 51.8762 46.443 48.2537 50.9711C45.9896 53.8013 44.8576 56.3484 44.8576 58.6124C44.8576 59.6313 45.367 60.8199 46.3859 62.1784C47.4613 63.5368 49.0744 64.2727 51.2253 64.3859C51.4517 64.3859 51.8196 64.6406 52.3291 65.15H33.3956C33.7352 64.867 34.4427 64.5557 35.5182 64.2161C36.5936 63.8199 37.3012 63.4802 37.6408 63.1972C37.5842 62.9708 37.471 62.4897 37.3012 61.7539C37.1314 61.018 36.9899 60.452 36.8767 60.0558C36.7634 59.6596 36.5936 59.1785 36.3673 58.6124C36.1408 58.0464 35.8861 57.5936 35.6031 57.254C35.3201 56.8578 34.9805 56.5465 34.5843 56.32C34.5842 56.2635 34.2447 56.2352 33.5654 56.2351C31.924 56.2352 28.9523 57.0559 24.6506 58.6973C20.4054 60.2822 17.4621 61.0746 15.8207 61.0746C15.2546 61.0746 14.4905 60.9614 13.5283 60.735C12.566 60.5086 12.0566 60.3105 12 60.1407C12.849 59.4049 14.066 58.2162 15.6508 56.5748C15.5942 56.405 15.4244 56.2635 15.1414 56.1502C14.8584 55.9804 14.5754 55.8672 14.2924 55.8106H13.8679V55.3012C13.9245 55.188 14.0377 55.0465 14.2075 54.8767C15.9621 54.5371 17.3772 54.1975 18.4526 53.8578C19.5847 53.5183 21.396 52.6409 23.8865 51.2258C26.4336 49.7542 29.3486 47.7448 32.6315 45.1977L45.5368 34.5848C46.216 33.6226 46.8386 32.8585 47.4047 32.2924C47.9707 31.7264 48.7914 31.217 49.8669 30.7641C50.9423 30.2548 52.1875 30 53.6026 30ZM34.9239 55.0465C35.2069 55.0465 35.8295 55.471 36.7918 56.32C37.8106 57.1691 38.3766 57.6219 38.4898 57.6785L44.7727 52.0749C48.565 48.6788 50.7725 46.3864 51.3952 45.1977L54.7913 37.5564C56.2629 35.5754 56.9987 34.3584 56.9988 33.9056C56.9987 33.2264 56.5176 32.5471 55.5554 31.8679C54.5931 31.1321 53.7158 30.7642 52.9234 30.7641C52.0177 30.7642 50.8291 31.4151 49.3575 32.7169C47.8858 33.9622 44.8859 36.5093 40.3577 40.3582C35.8861 44.1506 30.6221 48.1976 24.5657 52.4994C24.7355 52.9522 25.3015 53.3201 26.2638 53.6031C27.226 53.8296 27.8769 53.9428 28.2165 53.9427L34.4145 51.99C37.0182 51.141 39.3671 50.1221 41.4615 48.9335C43.5557 47.7448 45.1406 46.5845 46.216 45.4524C47.2914 44.3204 48.1122 43.3299 48.6782 42.4808C49.2442 41.5752 49.5272 40.8677 49.5273 40.3582V39.8488C49.0178 39.679 48.0839 39.4809 46.7255 39.2545C46.8386 38.5753 46.9801 38.2074 47.15 38.1507H47.3198C47.4329 38.2074 47.6028 38.2357 47.8292 38.2356C48.7914 38.2357 49.6121 38.4338 50.2914 38.83C51.0272 39.2262 51.48 39.5658 51.6499 39.8488C51.8762 40.1318 51.9894 40.3299 51.9895 40.4431C51.9894 40.5564 51.7913 40.8111 51.3952 41.2072L50.8857 41.8865C49.8668 44.0374 47.6594 46.2166 44.2633 48.424C40.8671 50.6315 37.4144 52.3579 33.9051 53.6031C32.9994 53.8862 31.3862 54.2258 29.0656 54.622C26.7448 54.9616 24.594 55.4144 22.6129 55.9804C20.4054 56.5465 19.2451 56.8295 19.1319 56.8295C17.6602 57.3389 16.5565 57.9898 15.8207 58.7822V59.6313H18.9621C19.9243 59.6313 21.396 59.1219 23.377 58.103C23.8298 57.7634 24.4242 57.3672 25.16 56.9144C29.292 55.6691 32.5466 55.0465 34.9239 55.0465ZM39.254 60.4803C39.2539 61.3294 39.5652 62.1501 40.1879 62.9425C40.8105 63.6783 41.6029 64.0463 42.5652 64.0462C43.9802 64.0463 44.6878 63.3953 44.6878 62.0935C44.6878 61.1878 44.15 60.2539 43.0746 59.2917C41.9991 58.2728 40.9803 57.6502 40.0181 57.4238C39.5087 58.6691 39.2539 59.6879 39.254 60.4803Z" fill="#006C00"></path>
<path d="M53.9016 33.6409C53.9015 34.49 53.5336 34.9145 52.7978 34.9144C51.9488 34.9145 51.5242 34.49 51.5243 33.6409C51.5242 32.9617 51.9488 32.6221 52.7978 32.622C53.5336 32.6221 53.9015 32.9617 53.9016 33.6409Z" fill="#9C0000"></path>
</g>
<rect x="0.25" y="0.25" width="74.2" height="94.6" rx="7.75" stroke="#003500" stroke-width="0.5"></rect>
<defs>
<clipPath id="clip0_1_795">
<rect width="74.7" height="95.1" rx="8" fill="white"></rect>
</clipPath>
</defs>
</svg>