<svg width="75" height="96" viewBox="0 0 75 96" fill="none" xmlns="http://www.w3.org/2000/svg">
<g clip-path="url(#clip0_1_850)">
<rect width="74.7" height="95.1" rx="8" fill="white"></rect>
<path d="M74.7 87.9C74.6999 92.7 72.4333 95.1 67.9 95.1H6.8C2.26666 95.1 -3e-06 92.7 0 87.9V7.19997C-3e-06 2.40004 2.26666 4.54824e-05 6.8 -3.05176e-05H67.9C72.4333 4.54824e-05 74.6999 2.40004 74.7 7.19997V87.9ZM73 87.9V7.19997C72.9999 3.53338 71.2999 1.70004 67.9 1.69997H6.8C3.39999 1.70004 1.69999 3.53338 1.7 7.19997V87.9C1.69999 91.6333 3.39999 93.5 6.8 93.5H67.9C71.2999 93.5 72.9999 91.6333 73 87.9Z" fill="white"></path>
<path d="M40.7992 33.1719C39.3328 33.0546 37.8664 32.996 36.4 32.9959C34.9336 32.996 33.4672 33.0546 32.0009 33.1719C32.1181 29.4766 32.1768 25.7813 32.1768 22.0859C32.1768 18.3907 32.1181 14.6954 32.0009 11C33.4672 11.1174 34.9336 11.176 36.4 11.176C37.8664 11.176 39.3328 11.1174 40.7992 11C40.6819 14.6954 40.6232 18.3907 40.6233 22.0859C40.6232 25.7813 40.6818 29.4766 40.7992 33.1719ZM39.0395 12.8477C38.1597 12.8477 37.2798 12.8477 36.4 12.8477H33.7605C33.8191 14.3141 33.8778 16.5724 33.9365 19.6224H38.8636C38.8635 19.2119 38.9222 16.9536 39.0395 12.8477ZM38.8636 22.9658V21.2061H33.9365V22.9658H38.8636ZM39.0395 31.3242C38.9222 27.3943 38.8635 25.1361 38.8636 24.5495H33.9365C33.9365 24.9015 33.8778 27.1597 33.7605 31.3242C34.6403 31.2656 35.5202 31.2363 36.4 31.2362L39.0395 31.3242ZM40.7992 84.6423C39.3328 84.525 37.8664 84.4663 36.4 84.4663C34.9336 84.4663 33.4672 84.525 32.0009 84.6423C32.1181 80.947 32.1768 77.2517 32.1768 73.5564C32.1768 69.8611 32.1181 66.1658 32.0009 62.4704C33.4672 62.5878 34.9336 62.6464 36.4 62.6464C37.8664 62.6464 39.3328 62.5878 40.7992 62.4704C40.6819 66.1658 40.6232 69.8611 40.6233 73.5564C40.6232 77.2517 40.6818 80.947 40.7992 84.6423ZM39.0395 64.3181C38.1597 64.3181 37.2798 64.3181 36.4 64.3181H33.7605C33.8191 65.7845 33.8778 68.0427 33.9365 71.0928H38.8636C38.8635 70.6822 38.9222 68.424 39.0395 64.3181ZM38.8636 74.4362V72.6765H33.9365V74.4362H38.8636ZM39.0395 82.7947C38.9222 78.8647 38.8635 76.6065 38.8636 76.0199H33.9365C33.9365 76.3718 33.8778 78.6301 33.7605 82.7947C34.6403 82.736 35.5202 82.7067 36.4 82.7067L39.0395 82.7947ZM40.7992 58.9511C39.3328 58.8338 37.8664 58.7751 36.4 58.7751C34.9336 58.7751 33.4672 58.8338 32.0009 58.9511C32.1181 55.2558 32.1768 51.5605 32.1768 47.8652C32.1768 44.1699 32.1181 40.4746 32.0009 36.7792C33.4672 36.8966 34.9336 36.9552 36.4 36.9552C37.8664 36.9552 39.3328 36.8966 40.7992 36.7792C40.6819 40.4746 40.6232 44.1699 40.6233 47.8652C40.6232 51.5605 40.6818 55.2558 40.7992 58.9511ZM39.0395 38.6269C38.1597 38.6269 37.2798 38.6269 36.4 38.6269H33.7605C33.8191 40.0933 33.8778 42.3515 33.9365 45.4016H38.8636C38.8635 44.991 38.9222 42.7328 39.0395 38.6269ZM38.8636 48.745V46.9853H33.9365V48.745H38.8636ZM39.0395 57.1034C38.9222 53.1735 38.8635 50.9153 38.8636 50.3287H33.9365C33.9365 50.6806 33.8778 52.9389 33.7605 57.1034C34.6403 57.0448 35.5202 57.0155 36.4 57.0154L39.0395 57.1034Z" fill="#9C0000"></path>
<path d="M58 33.2785C56.5403 33.1623 55.0807 33.1041 53.6212 33.1041C52.1615 33.1041 50.7019 33.1623 49.2424 33.2785C49.3591 29.6155 49.4175 25.9524 49.4175 22.2893C49.4175 18.6262 49.3591 14.9632 49.2424 11.3C50.7019 11.4164 52.1615 11.4745 53.6212 11.4745C55.0807 11.4745 56.5403 11.4164 58 11.3C57.8832 14.9632 57.8248 18.6262 57.8248 22.2893C57.8248 25.9524 57.8832 29.6155 58 33.2785ZM56.2485 13.1316C55.3727 13.1316 54.4969 13.1316 53.6212 13.1316H50.9939C51.0522 14.5852 51.1106 16.8238 51.1691 19.8472H56.0733C56.0733 19.4403 56.1316 17.2017 56.2485 13.1316ZM56.0733 23.1614V21.4171H51.1691V23.1614H56.0733ZM56.2485 31.447C56.1317 27.5514 56.0733 25.3128 56.0733 24.7313H51.1691C51.169 25.0802 51.1106 27.3188 50.9939 31.447C51.8696 31.3889 52.7454 31.3598 53.6212 31.3598L56.2485 31.447ZM23.7576 33.2785C22.298 33.1623 20.8384 33.1041 19.3788 33.1041C17.9192 33.1041 16.4596 33.1623 15 33.2785C15.1168 29.6155 15.1751 25.9524 15.1751 22.2893C15.1751 18.6262 15.1167 14.9632 15 11.3C16.4596 11.4164 17.9192 11.4745 19.3788 11.4745C20.8384 11.4745 22.298 11.4164 23.7576 11.3C23.6409 14.9632 23.5825 18.6262 23.5825 22.2893C23.5825 25.9524 23.6408 29.6155 23.7576 33.2785ZM22.0061 13.1316C21.1303 13.1316 20.2546 13.1316 19.3788 13.1316H16.7515C16.8099 14.5852 16.8682 16.8238 16.9266 19.8472H21.831C21.8309 19.4403 21.8893 17.2017 22.0061 13.1316ZM21.831 23.1614V21.4171H16.9266V23.1614H21.831ZM22.0061 31.447C21.8893 27.5514 21.8309 25.3128 21.831 24.7313H16.9266C16.9266 25.0802 16.8683 27.3188 16.7515 31.447C17.6273 31.3889 18.503 31.3598 19.3788 31.3598L22.0061 31.447ZM58 84.3C56.5403 84.1837 55.0807 84.1256 53.6212 84.1256C52.1615 84.1256 50.7019 84.1837 49.2424 84.3C49.3591 80.6369 49.4175 76.9738 49.4175 73.3108C49.4175 69.6477 49.3591 65.9846 49.2424 62.3215C50.7019 62.4378 52.1615 62.496 53.6212 62.496C55.0807 62.496 56.5403 62.4378 58 62.3215C57.8832 65.9846 57.8248 69.6477 57.8248 73.3108C57.8248 76.9738 57.8832 80.6369 58 84.3ZM56.2485 64.1531C55.3727 64.1531 54.4969 64.1531 53.6212 64.1531H50.9939C51.0522 65.6067 51.1106 67.8452 51.1691 70.8687H56.0733C56.0733 70.4617 56.1316 68.2232 56.2485 64.1531ZM56.0733 74.1829V72.4386H51.1691V74.1829H56.0733ZM56.2485 82.4685C56.1317 78.5728 56.0733 76.3343 56.0733 75.7528H51.1691C51.169 76.1017 51.1106 78.3403 50.9939 82.4685C51.8696 82.4103 52.7454 82.3812 53.6212 82.3812L56.2485 82.4685ZM58 58.8329C56.5403 58.7166 55.0807 58.6585 53.6212 58.6584C52.1615 58.6585 50.7019 58.7166 49.2424 58.8329C49.3591 55.1698 49.4175 51.5067 49.4175 47.8436C49.4175 44.1806 49.3591 40.5175 49.2424 36.8544C50.7019 36.9707 52.1615 37.0288 53.6212 37.0288C55.0807 37.0288 56.5403 36.9707 58 36.8544C57.8832 40.5175 57.8248 44.1806 57.8248 47.8436C57.8248 51.5067 57.8832 55.1698 58 58.8329ZM56.2485 38.6859C55.3727 38.686 54.4969 38.686 53.6212 38.6859H50.9939C51.0522 40.1396 51.1106 42.3781 51.1691 45.4016H56.0733C56.0733 44.9946 56.1316 42.7561 56.2485 38.6859ZM56.0733 48.7158V46.9715H51.1691V48.7158H56.0733ZM56.2485 57.0013C56.1317 53.1057 56.0733 50.8671 56.0733 50.2857H51.1691C51.169 50.6346 51.1106 52.8731 50.9939 57.0013C51.8696 56.9433 52.7454 56.9141 53.6212 56.9141L56.2485 57.0013ZM23.7576 84.3C22.298 84.1837 20.8384 84.1256 19.3788 84.1256C17.9192 84.1256 16.4596 84.1837 15 84.3C15.1168 80.6369 15.1751 76.9738 15.1751 73.3108C15.1751 69.6477 15.1167 65.9846 15 62.3215C16.4596 62.4378 17.9192 62.496 19.3788 62.496C20.8384 62.496 22.298 62.4378 23.7576 62.3215C23.6409 65.9846 23.5825 69.6477 23.5825 73.3108C23.5825 76.9738 23.6408 80.6369 23.7576 84.3ZM22.0061 64.1531C21.1303 64.1531 20.2546 64.1531 19.3788 64.1531H16.7515C16.8099 65.6067 16.8682 67.8452 16.9266 70.8687H21.831C21.8309 70.4617 21.8893 68.2232 22.0061 64.1531ZM21.831 74.1829V72.4386H16.9266V74.1829H21.831ZM22.0061 82.4685C21.8893 78.5728 21.8309 76.3343 21.831 75.7528H16.9266C16.9266 76.1017 16.8683 78.3403 16.7515 82.4685C17.6273 82.4103 18.503 82.3812 19.3788 82.3812L22.0061 82.4685ZM23.7576 58.8329C22.298 58.7166 20.8384 58.6585 19.3788 58.6584C17.9192 58.6585 16.4596 58.7166 15 58.8329C15.1168 55.1698 15.1751 51.5067 15.1751 47.8436C15.1751 44.1806 15.1167 40.5175 15 36.8544C16.4596 36.9707 17.9192 37.0288 19.3788 37.0288C20.8384 37.0288 22.298 36.9707 23.7576 36.8544C23.6409 40.5175 23.5825 44.1806 23.5825 47.8436C23.5825 51.5067 23.6408 55.1698 23.7576 58.8329ZM22.0061 38.6859C21.1303 38.686 20.2546 38.686 19.3788 38.6859H16.7515C16.8099 40.1396 16.8682 42.3781 16.9266 45.4016H21.831C21.8309 44.9946 21.8893 42.7561 22.0061 38.6859ZM21.831 48.7158V46.9715H16.9266V48.7158H21.831ZM22.0061 57.0013C21.8893 53.1057 21.8309 50.8671 21.831 50.2857H16.9266C16.9266 50.6346 16.8683 52.8731 16.7515 57.0013C17.6273 56.9433 18.503 56.9141 19.3788 56.9141L22.0061 57.0013Z" fill="#006C00"></path>
</g>
<rect x="0.25" y="0.25" width="74.2" height="94.6" rx="7.75" stroke="#003500" stroke-width="0.5"></rect>
<defs>
<clipPath id="clip0_1_850">
<rect width="74.7" height="95.1" rx="8" fill="white"></rect>
</clipPath>
</defs>
</svg>