<svg width="75" height="96" viewBox="0 0 75 96" fill="none" xmlns="http://www.w3.org/2000/svg">
<g clip-path="url(#clip0_1_805)">
<rect width="74.7" height="95.1" rx="8" fill="white"></rect>
<path d="M74.7 87.9C74.6999 92.7 72.4333 95.1 67.9 95.1H6.8C2.26666 95.1 -3e-06 92.7 0 87.9V7.2C-3e-06 2.40007 2.26666 7.6e-05 6.8 0H67.9C72.4333 7.6e-05 74.6999 2.40007 74.7 7.2V87.9ZM73 87.9V7.2C72.9999 3.53341 71.2999 1.70007 67.9 1.7H6.8C3.4 1.70007 1.7 3.53341 1.7 7.2V87.9C1.7 91.6333 3.4 93.5 6.8 93.5H67.9C71.2999 93.5 72.9999 91.6333 73 87.9Z" fill="white"></path>
<path d="M40.8119 77.55C39.4968 77.4448 38.1816 77.3922 36.8665 77.3922C35.5513 77.3922 34.2625 77.4448 33 77.55C33.1052 73.1311 33.1578 68.7386 33.1578 64.3723C33.1578 60.0061 33.1052 55.6398 33 51.2735C34.3151 51.3788 35.6039 51.4314 36.8665 51.4313C38.1816 51.4314 39.4968 51.3788 40.8119 51.2735C40.7067 55.6398 40.6541 60.0061 40.6541 64.3723C40.6541 68.7912 40.7067 73.1838 40.8119 77.55ZM39.2338 52.9306C38.4446 52.9306 37.6556 52.9306 36.8665 52.9306C36.13 52.9306 35.3672 52.9306 34.5782 52.9306C34.6307 56.087 34.6571 59.1644 34.6571 62.1629H39.1549C39.1548 59.1644 39.1811 56.087 39.2338 52.9306ZM39.1549 65.1614V63.5832H34.6571V65.1614H39.1549ZM39.2338 75.8929C39.1811 72.5262 39.1548 69.4488 39.1549 66.6607H34.6571C34.6571 69.554 34.6307 72.6314 34.5782 75.8929C35.3672 75.8403 36.13 75.814 36.8665 75.814C37.6556 75.814 38.4446 75.8403 39.2338 75.8929ZM40.8119 45.2765C39.4968 45.1713 38.1816 45.1187 36.8665 45.1187C35.5513 45.1187 34.2625 45.1713 33 45.2765C33.1052 40.8577 33.1578 36.4651 33.1578 32.0988C33.1578 27.7326 33.1052 23.3663 33 19C34.3151 19.1053 35.6039 19.1579 36.8665 19.1578C38.1816 19.1579 39.4968 19.1053 40.8119 19C40.7067 23.3663 40.6541 27.7326 40.6541 32.0988C40.6541 36.5177 40.7067 40.9103 40.8119 45.2765ZM39.2338 20.6571C38.4446 20.6571 37.6556 20.6571 36.8665 20.6571C36.13 20.6571 35.3672 20.6571 34.5782 20.6571C34.6307 23.8135 34.6571 26.8909 34.6571 29.8894H39.1549C39.1548 26.8909 39.1811 23.8135 39.2338 20.6571ZM39.1549 32.8879V31.3097H34.6571V32.8879H39.1549ZM39.2338 43.6194C39.1811 40.2527 39.1548 37.1753 39.1549 34.3871H34.6571C34.6571 37.2805 34.6307 40.3579 34.5782 43.6194C35.3672 43.5668 36.13 43.5405 36.8665 43.5405C37.6556 43.5405 38.4446 43.5668 39.2338 43.6194Z" fill="#006C00"></path>
</g>
<rect x="0.25" y="0.25" width="74.2" height="94.6" rx="7.75" stroke="#003500" stroke-width="0.5"></rect>
<defs>
<clipPath id="clip0_1_805">
<rect width="74.7" height="95.1" rx="8" fill="white"></rect>
</clipPath>
</defs>
</svg>