<svg width="75" height="96" viewBox="0 0 75 96" fill="none" xmlns="http://www.w3.org/2000/svg">
<rect x="0.25" y="0.25" width="74.2" height="94.6" rx="7.75" fill="white"></rect>
<rect x="0.25" y="0.25" width="74.2" height="94.6" rx="7.75" stroke="#003500" stroke-width="0.5"></rect>
<path d="M55.6471 39.366C54.3498 39.8192 53.3346 40.0458 52.6015 40.0458C49.7814 40.0458 47.5818 39.6776 46.0027 38.9412C44.931 37.865 42.7314 34.353 39.4039 28.4052C36.1326 22.4009 33.4818 18.634 31.4514 17.1046C31.2258 16.9347 31.113 16.7647 31.113 16.5948C31.113 16.3116 31.2258 16.1417 31.4514 16.085C31.677 16.0284 32.2692 16.0001 33.228 16C33.51 16.0001 33.792 16.0567 34.074 16.1699C34.356 16.2266 34.6098 16.3682 34.8354 16.5948C35.1174 16.7647 35.343 16.963 35.5122 17.1895C35.7378 17.3595 35.9634 17.6428 36.189 18.0392C36.471 18.3791 36.6966 18.6907 36.8658 18.9739C37.035 19.2005 37.2324 19.5687 37.458 20.0784C37.6836 20.5883 37.8528 20.9848 37.9656 21.268C38.1348 21.4946 38.3322 21.8911 38.5578 22.4575C38.8398 23.024 39.0372 23.4205 39.15 23.6471C41.4624 26.8759 43.239 29.3116 44.4799 30.9543C45.777 32.5404 47.2716 34.0698 48.9637 35.5425C50.6556 36.9587 52.2912 37.8366 53.8705 38.1765C54.0396 38.2332 54.6318 38.6297 55.6471 39.366ZM31.8744 27.3006C31.8744 27.414 31.4514 28.122 30.6054 29.4248C29.7594 30.7277 28.716 32.2005 27.4752 33.8431C26.2344 35.4292 25.191 36.5338 24.345 37.1569C21.6378 39.3661 19.8894 40.4706 19.0998 40.4706H18C24.9936 34.353 28.4904 29.1417 28.4904 24.8366C28.4904 24.6667 28.4904 24.4968 28.4904 24.3268H29.6748C30.2388 24.3268 30.972 25.3181 31.8744 27.3006Z" fill="#006C00"></path>
<path d="M47.5857 48.7847C47.9676 48.7847 48.486 49.0085 49.1407 49.456C49.85 49.8476 50.2592 50.1273 50.3683 50.2951V50.9664C50.0955 51.2461 49.7136 51.386 49.2226 51.386C48.9497 51.386 48.2677 51.358 47.1765 51.302C46.0853 51.1902 45.4033 51.1342 45.1305 51.1342C43.2208 51.1342 41.9386 51.386 41.2839 51.8894L38.5013 54.8264C38.6104 54.6026 38.9105 53.6796 39.4016 52.0572C39.2379 51.8894 38.7195 51.8055 37.8466 51.8055C37.3555 51.8055 36.0733 51.8894 34.0001 52.0572C34 52.8405 33.7818 53.9872 33.3453 55.4976L33.0998 54.7424C32.8815 54.183 32.636 53.6796 32.3632 53.232C32.145 52.7845 31.9267 52.5607 31.7085 52.5607C31.2174 52.5607 30.1535 52.7286 28.5167 53.0642C26.9344 53.3999 25.8977 53.5677 25.4067 53.5677C24.4792 53.5677 23.5789 53.0922 22.7059 52.1412L31.7085 51.1342L29.908 47.526H31.954C32.0085 47.526 32.445 47.7218 33.2635 48.1134C33.2635 48.7847 33.4544 49.7916 33.8364 51.1342C34.2728 51.0783 36.237 50.7706 39.729 50.2112C40.2745 48.3652 40.6019 46.6869 40.711 45.1765C42.7298 46.3513 43.7391 47.0785 43.7392 47.3582L42.4297 49.456C42.5934 49.6238 42.8935 49.7077 43.33 49.7077C43.6027 49.7077 44.312 49.5679 45.4579 49.2882C46.6036 48.9525 47.3129 48.7847 47.5857 48.7847ZM27.3709 56.6724C30.59 56.5046 33.2634 56.2249 35.3914 55.8333C37.5192 55.4417 39.0469 55.1061 39.9745 54.8264C40.902 54.5467 41.6113 54.4068 42.1024 54.4068C42.9207 54.4068 44.012 55.1061 45.376 56.5046C44.6667 57.8472 44.0938 58.994 43.6573 59.945C43.2208 60.8401 42.9207 61.4274 42.7571 61.7071C42.6479 61.9869 42.457 62.3505 42.1842 62.798C41.9114 63.2456 41.5022 63.9168 40.9566 64.8119C40.3564 64.2525 39.7835 63.9728 39.2379 63.9728C38.4195 63.9728 37.4646 64.1965 36.3735 64.6441V66.4901C36.4825 66.5461 36.7826 66.5741 37.2737 66.5741C37.3282 66.5741 39.0196 66.4062 42.3479 66.0706C45.6761 65.679 47.3947 65.4832 47.5039 65.4832C48.0495 65.4832 49.1952 66.0706 50.9412 67.2453C50.5593 68.0285 50.2592 69.2872 50.041 71.0214C49.8227 72.7556 49.468 74.4058 48.977 75.9722C48.5405 77.5945 47.7221 78.9371 46.5218 80C45.867 79.1609 44.5576 77.6504 42.5934 75.4687C44.2302 75.7484 45.1577 75.8883 45.376 75.8883C46.3035 75.8883 46.8764 75.3848 47.0947 74.3779C47.3129 73.4269 47.422 71.4409 47.4221 68.4201C46.9855 67.8048 46.2489 67.4971 45.2123 67.4971C41.6113 67.4971 38.5832 67.8607 36.1279 68.5879V70.8536C36.4553 71.1892 36.7553 71.357 37.0282 71.357C37.792 71.357 38.665 71.1053 39.6471 70.6018C39.3743 70.3781 39.2379 69.9305 39.2379 69.2592C39.8926 69.3152 40.6837 69.7068 41.6113 70.434C42.5388 71.1053 43.0026 71.7766 43.0026 72.4479C43.0026 73.343 42.6752 73.7905 42.0205 73.7905C41.7477 73.7905 41.2839 73.4269 40.6292 72.6996C40.029 72.0283 39.6744 71.6647 39.5653 71.6088C34 73.287 31.1629 74.1261 31.0538 74.1261C30.7264 74.1261 30.3717 73.9583 29.9898 73.6227C29.6624 73.287 29.4442 72.9234 29.3351 72.5318C30.5354 72.364 32.2813 72.0283 34.5729 71.5249V69.511C34.5184 69.0075 34.1637 68.7558 33.509 68.7558C30.7264 68.7558 28.5712 68.9795 27.0435 69.4271C27.0435 70.9934 27.0435 72.2241 27.0435 73.1192C27.098 74.0702 27.1254 74.6576 27.1254 74.8814C27.1799 75.1051 27.2072 75.3009 27.2072 75.4687C27.2617 75.6925 27.2891 75.9442 27.2891 76.224C27.289 76.3358 27.2072 76.6715 27.0435 77.2309C26.9344 77.7903 26.8798 78.1539 26.8799 78.3218C26.8798 78.5455 26.9344 78.7133 27.0435 78.8252H26.1433C25.8159 78.8252 25.6249 78.6294 25.5704 78.2378C25.243 73.5947 24.7792 70.1543 24.1791 67.9166C24.6701 67.9726 25.434 68.1124 26.4706 68.3362L34.6548 67.0775L34.7366 66.9097V65.0636C34.5729 64.8958 34.2455 64.8119 33.7545 64.8119C32.3905 64.8119 31.5175 65.0357 31.1356 65.4832C30.59 64.9797 29.9353 63.5532 29.1714 61.2037C28.4076 58.7982 27.8074 57.2878 27.3709 56.6724ZM38.9924 62.798C39.7017 62.798 40.3018 62.2666 40.7929 61.2037C41.3385 60.1408 41.6113 59.0779 41.6113 58.015C41.6113 57.6234 41.5022 57.12 41.2839 56.5046H36.4553V58.6024C36.7826 58.7702 37.0554 58.8542 37.2737 58.8541C37.4374 58.8542 37.6011 58.8262 37.7648 58.7702C37.983 58.7143 38.1466 58.6863 38.2558 58.6863C38.9105 58.6863 39.3743 59.022 39.6471 59.6933C38.9924 60.1967 37.9284 60.6163 36.4553 60.9519V62.798H38.9924ZM34.6548 57.092C34.4365 57.092 33.9182 57.1759 33.0998 57.3437C32.2814 57.5116 31.763 57.5955 31.5448 57.5955C31.3811 57.5955 31.0264 57.4556 30.4809 57.1759L31.463 63.721C32.827 63.5532 33.9182 63.3295 34.7366 63.0497V61.1198C34.3547 61.0639 33.9728 61.0359 33.5909 61.0359C33.2635 61.0359 32.9634 61.0638 32.6906 61.1198C32.5269 60.952 32.3087 60.7002 32.0359 60.3645C32.0904 60.3086 32.9907 60.001 34.7366 59.4415C34.682 57.9871 34.6548 57.2039 34.6548 57.092Z" fill="#BA0000"></path>
</svg>