<svg width="75" height="96" viewBox="0 0 75 96" fill="none" xmlns="http://www.w3.org/2000/svg">
<rect x="0.25" y="0.25" width="74.2" height="94.6" rx="7.75" fill="white"></rect>
<rect x="0.25" y="0.25" width="74.2" height="94.6" rx="7.75" stroke="#003500" stroke-width="0.5"></rect>
<path d="M44.0588 43.1238C43.102 43.1238 42.2578 43.0675 41.5263 42.9549C40.7946 42.8424 40.1193 42.6455 39.5003 42.364C38.9375 42.0827 38.4591 41.8013 38.0652 41.5199C37.6712 41.2385 37.3054 40.8164 36.9678 40.2536C36.6863 39.6909 36.4331 39.2406 36.208 38.9029C36.0391 38.5653 35.8703 38.0025 35.7015 37.2146C35.5326 36.4268 35.4201 35.8358 35.3638 35.4419C35.3075 34.9917 35.195 34.2882 35.0262 33.3314C34.9136 32.3748 34.8292 31.6713 34.7729 31.221L23.4611 35.1042C21.9979 34.8791 20.8442 34.3445 20 33.5003C26.2468 32.0934 31.143 30.6583 34.6885 29.195V19.9092C34.6885 19.459 34.1538 17.4893 33.0846 14H34.8573C35.1387 14.0001 36.208 14.6191 38.0652 15.8572C37.7838 17.0953 37.4461 19.0088 37.0522 21.5975C37.0521 25.9309 36.9959 28.1258 36.8834 28.182C36.9959 28.2946 37.1366 28.3509 37.3054 28.3509L50.2212 23.7079C52.0783 24.4396 53.0069 25.0305 53.007 25.4807C53.0069 25.9309 52.7536 26.2123 52.2472 26.3248L44.9874 28.0132C41.7795 28.8011 39.1063 29.6453 36.9678 30.5457V34.0068C36.9677 34.6259 37.0522 35.3293 37.221 36.1172C37.4461 36.8488 38.0933 37.7211 39.1626 38.7341C40.2318 39.6909 41.6669 40.1692 43.4679 40.1692C46.6757 40.1692 48.6735 39.6065 49.4615 38.4809C49.574 38.3683 50.2212 36.8488 51.403 33.9224L52.7537 40.2536C52.5285 40.7601 52.219 41.126 51.8251 41.351C48.8986 42.5329 46.3099 43.1238 44.0588 43.1238Z" fill="#006C00"></path>
<path d="M47.2623 49.597C47.6562 49.597 48.1908 49.8221 48.8662 50.2723C49.5978 50.6663 50.0199 50.9477 50.1325 51.1165V51.7918C49.851 52.0732 49.4571 52.2139 48.9506 52.2139C48.6692 52.2139 47.9657 52.1858 46.8402 52.1295C45.7146 52.0169 45.0111 51.9607 44.7298 51.9606C42.76 51.9607 41.4375 52.2139 40.7622 52.7204L37.892 55.675C38.0046 55.4499 38.3141 54.5213 38.8206 52.8892C38.6517 52.7204 38.1171 52.636 37.2167 52.636C36.7102 52.636 35.3876 52.7204 33.2491 52.8892C33.2491 53.6771 33.024 54.8308 32.5738 56.3503L32.3205 55.5906C32.0954 55.0278 31.8422 54.5213 31.5608 54.0711C31.3357 53.6208 31.1105 53.3957 30.8855 53.3957C30.3789 53.3957 29.2815 53.5646 27.5932 53.9022C25.9611 54.2399 24.8918 54.4087 24.3854 54.4087C23.4286 54.4087 22.5 53.9304 21.5996 52.9736L30.8855 51.9606L29.0283 48.3307H31.1387C31.1949 48.3307 31.6452 48.5277 32.4894 48.9216C32.4893 49.597 32.6863 50.61 33.0803 51.9606C33.5305 51.9044 35.5565 51.5948 39.1583 51.0321C39.721 49.1749 40.0587 47.4866 40.1713 45.967C42.2535 47.1489 43.2947 47.8805 43.2947 48.1619L41.944 50.2723C42.1128 50.4412 42.4224 50.5256 42.8726 50.5255C43.154 50.5256 43.8856 50.3849 45.0675 50.1035C46.2493 49.7658 46.9809 49.597 47.2623 49.597ZM26.4114 57.5321C29.7317 57.3633 32.4893 57.0819 34.6842 56.688C36.879 56.294 38.4548 55.9564 39.4115 55.675C40.3682 55.3936 41.0998 55.2529 41.6064 55.2529C42.4505 55.2529 43.5761 55.9564 44.9831 57.3633C44.2514 58.714 43.6605 59.8677 43.2103 60.8244C42.76 61.7248 42.4505 62.3158 42.2817 62.5971C42.1691 62.8785 41.9721 63.2443 41.6908 63.6946C41.4094 64.1448 40.9873 64.8201 40.4246 65.7206C39.8055 65.1578 39.2145 64.8764 38.6518 64.8764C37.8076 64.8764 36.8227 65.1015 35.6972 65.5517V67.4089C35.8097 67.4652 36.1193 67.4933 36.6258 67.4933C36.682 67.4933 38.4266 67.3245 41.8596 66.9868C45.2925 66.5929 47.0653 66.3959 47.1779 66.3959C47.7406 66.3959 48.9225 66.9868 50.7234 68.1687C50.3294 68.9565 50.0199 70.2228 49.7948 71.9674C49.5696 73.712 49.2038 75.3722 48.6974 76.948C48.2471 78.58 47.4029 79.9307 46.1649 81C45.4895 80.1558 44.1388 78.6363 42.1129 76.4415C43.8012 76.7229 44.7579 76.8636 44.9831 76.8636C45.9397 76.8636 46.5307 76.3571 46.7558 75.3441C46.9809 74.3874 47.0934 72.3895 47.0935 69.3505C46.6432 68.7314 45.8835 68.4219 44.8142 68.4219C41.0998 68.4219 37.9764 68.7877 35.444 69.5193V71.7986C35.7816 72.1362 36.0911 72.3051 36.3725 72.3051C37.1604 72.3051 38.0608 72.0518 39.0739 71.5453C38.7924 71.3202 38.6518 70.87 38.6518 70.1947C39.3271 70.2509 40.1431 70.6449 41.0999 71.3765C42.0566 72.0518 42.5349 72.7272 42.535 73.4025C42.5349 74.3029 42.1973 74.7532 41.522 74.7532C41.2405 74.7532 40.7622 74.3874 40.0869 73.6557C39.4678 72.9804 39.102 72.6146 38.9895 72.5583C33.2491 74.2467 30.3226 75.0908 30.2101 75.0908C29.8724 75.0908 29.5066 74.922 29.1127 74.5843C28.775 74.2467 28.5499 73.8808 28.4374 73.4869C29.6754 73.3181 31.4763 72.9804 33.84 72.4739V70.4479C33.7837 69.9414 33.4179 69.6882 32.7426 69.6882C29.8724 69.6882 27.6494 69.9133 26.0737 70.3635C26.0737 71.9393 26.0737 73.1774 26.0737 74.0778C26.1299 75.0345 26.1581 75.6255 26.1581 75.8506C26.2143 76.0757 26.2425 76.2727 26.2425 76.4415C26.2988 76.6666 26.3269 76.9198 26.3269 77.2012C26.3269 77.3138 26.2425 77.6515 26.0737 78.2142C25.9611 78.777 25.9048 79.1428 25.9049 79.3117C25.9048 79.5368 25.9611 79.7056 26.0737 79.8182H25.1451C24.8074 79.8182 24.6105 79.6212 24.5542 79.2272C24.2165 74.5562 23.7382 71.0951 23.1191 68.844C23.6256 68.9003 24.4135 69.041 25.4828 69.2661L33.9244 67.9998L34.0089 67.831V65.9738C33.84 65.805 33.5023 65.7206 32.9959 65.7206C31.5889 65.7206 30.6885 65.9457 30.2945 66.3959C29.7317 65.8894 29.0564 64.4543 28.2685 62.0906C27.4806 59.6707 26.8616 58.1512 26.4114 57.5321ZM38.3985 63.6946C39.1301 63.6946 39.7492 63.1599 40.2557 62.0906C40.8184 61.0214 41.0998 59.9521 41.0999 58.8828C41.0998 58.4889 40.9873 57.9824 40.7622 57.3633H35.7816V59.4737C36.1193 59.6426 36.4006 59.727 36.6258 59.727C36.7946 59.727 36.9634 59.6988 37.1323 59.6426C37.3574 59.5863 37.5262 59.5581 37.6388 59.5581C38.3141 59.5582 38.7924 59.8958 39.0739 60.5711C38.3985 61.0777 37.3011 61.4997 35.7816 61.8374V63.6946H38.3985ZM33.9244 57.9542C33.6993 57.9542 33.1647 58.0387 32.3205 58.2075C31.4763 58.3763 30.9417 58.4607 30.7166 58.4607C30.5478 58.4607 30.1819 58.32 29.6192 58.0386L30.6322 64.6231C32.0391 64.4543 33.1647 64.2292 34.0089 63.9478V62.0062C33.6149 61.95 33.221 61.9218 32.827 61.9218C32.4893 61.9218 32.1798 61.95 31.8985 62.0062C31.7296 61.8374 31.5045 61.5842 31.2231 61.2465C31.2793 61.1902 32.2079 60.8807 34.0089 60.3179C33.9526 58.8547 33.9244 58.0668 33.9244 57.9542Z" fill="#BA0000"></path>
</svg>