<svg width="75" height="96" viewBox="0 0 75 96" fill="none" xmlns="http://www.w3.org/2000/svg">
<rect x="0.25" y="0.25" width="74.2" height="94.6" rx="7.75" fill="white"></rect>
<rect x="0.25" y="0.25" width="74.2" height="94.6" rx="7.75" stroke="#003500" stroke-width="0.5"></rect>
<path d="M49.5123 14C49.9906 14.0001 50.9176 14.4486 52.2931 15.3455C53.6684 16.2426 54.3562 16.9603 54.3562 17.4984C54.3562 17.5583 54.2067 17.8274 53.9077 18.3057C53.6684 18.7244 53.3395 19.2327 52.921 19.8307C52.5621 20.369 52.3229 20.8175 52.2034 21.1762C52.1435 21.7743 52.0538 22.4022 51.9342 23.06C51.8146 23.6581 51.5754 24.7644 51.2166 26.379C50.8578 27.9937 50.4989 29.7878 50.1402 31.7612C49.3029 34.9905 47.9574 37.4125 46.1036 39.0271C45.6849 38.7281 45.4457 38.459 45.3859 38.2198C44.7281 35.5287 44.2198 34.0038 43.861 33.6449C43.5021 33.2264 42.4257 33.0171 40.6317 33.017L27.2659 34.2729C26.8473 34.2729 26.2194 34.1533 25.3822 33.914C25.1429 34.3327 24.9336 34.9008 24.7543 35.6184H24.216C23.917 35.6184 23.7077 35.439 23.5881 35.0802C23.5283 34.7214 23.3788 33.4955 23.1396 31.4024C22.7808 28.3525 22.422 25.5119 22.0632 22.8806C21.9435 21.9836 21.7342 21.1763 21.4353 20.4586C21.196 19.6812 20.897 18.9935 20.5382 18.3954C20.2392 17.7377 20.0598 17.3191 20 17.1396C20 16.4818 20.1794 16.1529 20.5382 16.1529C20.598 16.1529 21.0764 16.2725 21.9735 16.5117C22.9303 16.6911 23.5283 16.7808 23.7675 16.7808L49.5123 14ZM45.7447 33.4655C46.2829 32.9274 47.0005 30.924 47.8976 27.4554C48.7946 23.987 49.2431 21.266 49.2432 19.2925C49.2431 18.1563 48.974 17.4088 48.4358 17.0499C47.9574 16.6911 47.0304 16.5117 45.655 16.5117L38.5685 17.1396C39.1067 17.4387 39.8243 17.947 40.7214 18.6646C40.2429 21.1763 40.0037 22.6713 40.0038 23.1497C40.0037 23.9272 40.1532 24.4654 40.4523 24.7644C40.811 25.0036 41.4091 25.1232 42.2463 25.1232C42.4257 25.1232 42.8144 25.0634 43.4125 24.9438C44.0702 24.8242 44.4889 24.7644 44.6683 24.7644C45.8045 24.7644 46.6118 25.3325 47.0903 26.4687C46.3128 27.2462 44.8178 27.6349 42.6051 27.6348C39.316 27.6349 37.6714 26.1398 37.6715 23.1497C37.6714 22.9105 37.7014 22.3424 37.7612 21.4453C37.8209 20.4886 37.8509 19.8905 37.8509 19.6513C37.8508 17.9769 37.1332 17.1397 35.698 17.1396C35.6382 17.1397 35.1299 17.1995 34.1731 17.319C33.276 17.3789 32.5285 17.4088 31.9305 17.4087C32.0501 17.648 32.3192 18.0068 32.7378 18.4851C33.2162 18.9636 33.4554 19.4719 33.4554 20.0101C33.4554 20.8474 32.9172 22.4321 31.8408 24.7644C30.7643 27.0967 29.4487 28.6216 27.8939 29.3392L26.9071 29.9671C26.7277 29.9672 26.638 29.9074 26.638 29.7877C26.638 29.6084 26.6978 29.4289 26.8174 29.2495C29.5085 26.1996 30.854 23.0899 30.8541 19.9204C30.854 19.8008 30.8241 19.5018 30.7644 19.0234C30.7045 18.545 30.6746 18.1862 30.6746 17.9469L30.8541 17.7675C30.0168 17.7676 27.5948 17.9769 23.5881 18.3954L25.1131 32.6582H28.4321L42.0669 30.6847C42.7247 30.7446 43.9506 31.6715 45.7447 33.4655Z" fill="#006C00"></path>
<path d="M49.1343 47.7091C49.5529 47.7091 50.121 47.9483 50.8387 48.4267C51.616 48.8454 52.0646 49.1444 52.1842 49.3238V50.0414C51.8852 50.3404 51.4665 50.4899 50.9284 50.4899C50.6293 50.4899 49.8818 50.46 48.6858 50.4002C47.4897 50.2806 46.7422 50.2208 46.4432 50.2208C44.3501 50.2208 42.9448 50.4899 42.2272 51.0281L39.1773 54.1677C39.2969 53.9285 39.6258 52.9418 40.164 51.2075C39.9846 51.0281 39.4165 50.9384 38.4597 50.9384C37.9214 50.9384 36.5161 51.0281 34.2436 51.2075C34.2436 52.0448 34.0044 53.2707 33.526 54.8853L33.2569 54.078C33.0177 53.48 32.7486 52.9418 32.4496 52.4634C32.2103 51.985 31.9711 51.7457 31.7319 51.7457C31.1937 51.7457 30.0276 51.9252 28.2335 52.2839C26.4993 52.6428 25.363 52.8222 24.8248 52.8222C23.8082 52.8222 22.8214 52.3139 21.8646 51.2972L31.7319 50.2208L29.7585 46.3636H32.0011C32.0608 46.3636 32.5392 46.5729 33.4363 46.9915C33.4363 47.7091 33.6456 48.7856 34.0642 50.2208C34.5426 50.161 36.6955 49.8321 40.5228 49.234C41.1208 47.2606 41.4796 45.4666 41.5993 43.8519C43.8119 45.1077 44.9182 45.8852 44.9183 46.1841L43.483 48.4267C43.6624 48.6061 43.9913 48.6958 44.4698 48.6958C44.7687 48.6958 45.5462 48.5463 46.802 48.2473C48.0578 47.8885 48.8353 47.7091 49.1343 47.7091ZM26.9777 56.1412C30.506 55.9618 33.4363 55.6628 35.7686 55.2441C38.1008 54.8255 39.7753 54.4667 40.7919 54.1677C41.8085 53.8687 42.586 53.7192 43.1242 53.7192C44.0212 53.7192 45.2172 54.4667 46.7123 55.9618C45.9349 57.397 45.3069 58.623 44.8286 59.6396C44.3501 60.5964 44.0212 61.2243 43.8418 61.5233C43.7222 61.8224 43.5129 62.2111 43.2139 62.6895C42.9149 63.1679 42.4664 63.8855 41.8684 64.8424C41.2105 64.2443 40.5826 63.9453 39.9846 63.9453C39.0875 63.9453 38.041 64.1845 36.845 64.6629V66.6364C36.9646 66.6962 37.2935 66.7261 37.8317 66.7261C37.8915 66.7261 39.7454 66.5467 43.3933 66.1879C47.0412 65.7693 48.925 65.56 49.0446 65.56C49.6426 65.56 50.8984 66.1879 52.8121 67.4437C52.3935 68.281 52.0646 69.6265 51.8254 71.4804C51.5861 73.3342 51.1974 75.0984 50.6593 76.7728C50.1808 78.5071 49.2838 79.9423 47.9682 81.0786C47.2505 80.1815 45.8153 78.5669 43.6624 76.2346C45.4564 76.5336 46.4731 76.6831 46.7123 76.6831C47.7289 76.6831 48.3568 76.1449 48.5961 75.0685C48.8353 74.0519 48.9549 71.9289 48.9549 68.6996C48.4764 68.0418 47.6691 67.7129 46.5329 67.7128C42.586 67.7129 39.267 68.1016 36.5759 68.879V71.301C36.9347 71.6598 37.2636 71.8392 37.5626 71.8392C38.3998 71.8392 39.3567 71.5701 40.4331 71.0319C40.1341 70.7926 39.9846 70.3142 39.9846 69.5966C40.7022 69.6564 41.5693 70.075 42.586 70.8524C43.6026 71.5701 44.1109 72.2877 44.1109 73.0053C44.1109 73.9622 43.7521 74.4406 43.0345 74.4406C42.7355 74.4406 42.2271 74.0519 41.5096 73.2744C40.8517 72.5568 40.463 72.1681 40.3434 72.1083C34.2436 73.9023 31.1339 74.7994 31.0143 74.7994C30.6555 74.7994 30.2668 74.62 29.8482 74.2612C29.4893 73.9023 29.2501 73.5136 29.1306 73.095C30.4462 72.9156 32.3598 72.5568 34.8715 72.0186V69.8657C34.8117 69.3275 34.423 69.0584 33.7054 69.0584C30.6555 69.0584 28.2933 69.2976 26.6189 69.776C26.6189 71.4505 26.6189 72.7661 26.6189 73.7229C26.6787 74.7396 26.7086 75.3675 26.7086 75.6067C26.7684 75.8459 26.7983 76.0552 26.7983 76.2346C26.8581 76.4738 26.888 76.7429 26.888 77.042C26.888 77.1616 26.7983 77.5204 26.6189 78.1184C26.4993 78.7164 26.4394 79.1051 26.4395 79.2845C26.4394 79.5237 26.4993 79.7031 26.6189 79.8227H25.6321C25.2733 79.8227 25.064 79.6134 25.0042 79.1948C24.6454 74.2313 24.1371 70.5534 23.4793 68.1614C24.0175 68.2212 24.8547 68.3707 25.991 68.6099L34.9613 67.2643L35.051 67.0849V65.1115C34.8715 64.9321 34.5127 64.8424 33.9745 64.8424C32.4794 64.8424 31.5226 65.0816 31.104 65.56C30.506 65.0218 29.7884 63.4968 28.9512 60.9851C28.1139 58.4137 27.4561 56.799 26.9777 56.1412ZM39.7155 62.6895C40.4929 62.6895 41.1507 62.1214 41.689 60.9851C42.287 59.8489 42.586 58.7127 42.586 57.5764C42.586 57.1578 42.4664 56.6196 42.2272 55.9618H36.9347V58.2043C37.2935 58.3838 37.5925 58.4735 37.8317 58.4734C38.0111 58.4735 38.1905 58.4436 38.37 58.3837C38.6091 58.324 38.7885 58.2941 38.9082 58.294C39.6258 58.2941 40.1341 58.6529 40.4331 59.3705C39.7155 59.9087 38.5493 60.3572 36.9347 60.716V62.6895H39.7155ZM34.9613 56.5897C34.722 56.5897 34.1539 56.6794 33.2569 56.8588C32.3598 57.0382 31.7917 57.1279 31.5525 57.1279C31.3731 57.1279 30.9844 56.9784 30.3864 56.6794L31.4628 63.6762C32.9579 63.4968 34.1539 63.2576 35.051 62.9586V60.8954C34.6323 60.8356 34.2137 60.8057 33.7951 60.8057C33.4363 60.8057 33.1074 60.8356 32.8084 60.8954C32.6289 60.716 32.3897 60.4469 32.0908 60.0881C32.1505 60.0283 33.1373 59.6994 35.051 59.1014C34.9911 57.5465 34.9612 56.7093 34.9613 56.5897Z" fill="#BA0000"></path>
</svg>