<svg width="75" height="96" viewBox="0 0 75 96" fill="none" xmlns="http://www.w3.org/2000/svg">
<rect x="0.25" y="0.25" width="74.2" height="94.6" rx="7.75" fill="white"></rect>
<rect x="0.25" y="0.25" width="74.2" height="94.6" rx="7.75" stroke="#003500" stroke-width="0.5"></rect>
<path d="M35.6219 14C36.3406 14.0001 37.2391 14.4493 38.3173 15.3477C39.3955 16.1864 39.9345 17.0549 39.9346 17.9533C39.9345 19.0914 39.4254 19.6605 38.4072 19.6604C37.6883 19.6605 36.6102 18.9417 35.1726 17.5041C33.735 16.0666 32.8366 14.8985 32.4772 14H35.6219ZM49.0092 22.4457C50.0874 22.4458 51.2254 22.6854 52.4235 23.1645C53.6813 23.6437 54.3102 24.2427 54.3103 24.9615C54.3102 25.6204 53.3818 25.9798 51.525 26.0396L43.7082 25.7701C43.0493 25.7701 42.3904 25.7701 41.7315 25.7701C38.2574 25.7701 34.1843 26.1595 29.5122 26.9381C24.9 27.6569 22.534 28.0163 22.4142 28.0163C21.2162 28.0163 20.0782 27.4772 19 26.399L49.0092 22.4457ZM48.7397 39.2473C48.7396 39.6666 48.56 40.4154 48.2006 41.4935C47.8412 41.6133 47.6315 41.6732 47.5717 41.6732C47.2721 41.6732 46.6132 40.9844 45.595 39.6067L38.8564 30.0828C45.4452 32.8981 48.7396 35.9529 48.7397 39.2473ZM29.6919 30.2625C30.2909 30.4422 31.0696 30.8316 32.028 31.4305C33.0462 31.9696 33.5553 32.4788 33.5554 32.9579C33.5553 33.3773 32.7766 34.1859 31.2193 35.3838C26.0081 39.5768 22.9233 41.6732 21.965 41.6732H20.9766L26.6371 36.2823C28.6736 34.0062 29.6919 31.9996 29.6919 30.2625Z" fill="#006C00"></path>
<path d="M48.4702 48.724C48.8894 48.724 49.4585 48.9636 50.1773 49.4428C50.9559 49.8621 51.4052 50.1616 51.525 50.3413V51.06C51.2255 51.3595 50.8062 51.5093 50.2671 51.5093C49.9676 51.5093 49.2189 51.4794 48.0209 51.4194C46.8229 51.2996 46.0742 51.2398 45.7747 51.2397C43.6782 51.2398 42.2706 51.5093 41.5519 52.0484L38.4971 55.1931C38.6168 54.9535 38.9462 53.9652 39.4854 52.2281C39.3056 52.0484 38.7366 51.9585 37.7783 51.9585C37.2391 51.9585 35.8315 52.0484 33.5554 52.2281C33.5554 53.0667 33.3158 54.2946 32.8366 55.9118L32.5671 55.1032C32.3275 54.5042 32.0579 53.9651 31.7584 53.4859C31.5188 53.0068 31.2792 52.7672 31.0397 52.7671C30.5005 52.7672 29.3325 52.9469 27.5356 53.3062C25.7985 53.6656 24.6604 53.8453 24.1214 53.8453C23.1031 53.8453 22.1147 53.3362 21.1564 52.3179L31.0397 51.2397L29.063 47.3763H31.3092C31.369 47.3763 31.8483 47.5859 32.7468 48.0052C32.7467 48.724 32.9564 49.8022 33.3757 51.2397C33.8549 51.1798 36.0112 50.8504 39.8448 50.2514C40.4437 48.2748 40.8031 46.4778 40.9229 44.8605C43.1392 46.1184 44.2473 46.8971 44.2473 47.1966L42.8097 49.4428C42.9894 49.6225 43.3188 49.7123 43.7981 49.7123C44.0975 49.7123 44.8762 49.5626 46.1341 49.2631C47.392 48.9037 48.1706 48.724 48.4702 48.724ZM26.2777 57.1697C29.8117 56.99 32.7467 56.6905 35.0828 56.2712C37.4188 55.852 39.096 55.4926 40.1143 55.1931C41.1325 54.8936 41.9112 54.7438 42.4504 54.7438C43.3488 54.7438 44.5468 55.4926 46.0443 56.99C45.2655 58.4276 44.6366 59.6555 44.1575 60.6738C43.6782 61.6322 43.3488 62.2611 43.1691 62.5606C43.0493 62.8601 42.8397 63.2494 42.5402 63.7286C42.2407 64.2078 41.7914 64.9266 41.1925 65.885C40.5336 65.286 39.9046 64.9865 39.3057 64.9865C38.4072 64.9865 37.3589 65.2261 36.161 65.7053V67.6819C36.2808 67.7419 36.6102 67.7718 37.1493 67.7718C37.2092 67.7718 39.066 67.5921 42.7199 67.2327C46.3737 66.8134 48.2605 66.6038 48.3803 66.6038C48.9793 66.6038 50.2371 67.2327 52.1539 68.4905C51.7346 69.3291 51.4052 70.6768 51.1656 72.5337C50.926 74.3906 50.5366 76.1576 49.9976 77.8348C49.5183 79.5718 48.6199 81.0094 47.3021 82.1475C46.5833 81.249 45.1458 79.6317 42.9895 77.2957C44.7864 77.5952 45.8046 77.7449 46.0443 77.7449C47.0625 77.7449 47.6915 77.2058 47.9311 76.1276C48.1706 75.1093 48.2904 72.983 48.2905 69.7484C47.8112 69.0896 47.0026 68.7601 45.8646 68.7601C41.9112 68.7601 38.5869 69.1494 35.8915 69.9281V72.354C36.2508 72.7134 36.5803 72.8931 36.8798 72.8931C37.7183 72.8931 38.6767 72.6236 39.7549 72.0845C39.4554 71.8449 39.3056 71.3657 39.3057 70.6469C40.0244 70.7069 40.8929 71.1261 41.9113 71.9048C42.9295 72.6236 43.4386 73.3423 43.4387 74.0611C43.4386 75.0195 43.0792 75.4987 42.3605 75.4987C42.061 75.4987 41.5518 75.1093 40.8331 74.3307C40.1742 73.6119 39.7848 73.2226 39.6651 73.1627C33.5554 74.9596 30.4406 75.8581 30.3209 75.8581C29.9615 75.8581 29.5721 75.6784 29.1528 75.319C28.7934 74.9596 28.5538 74.5703 28.4341 74.151C29.7518 73.9713 31.6686 73.6119 34.1843 73.0728V70.9165C34.1244 70.3774 33.7351 70.1078 33.0163 70.1078C29.9615 70.1078 27.5955 70.3474 25.9183 70.8266C25.9183 72.5038 25.9183 73.8215 25.9183 74.7799C25.9782 75.7982 26.0082 76.4271 26.0082 76.6667C26.068 76.9063 26.098 77.116 26.098 77.2957C26.1579 77.5353 26.1879 77.8048 26.1879 78.1043C26.1878 78.2241 26.098 78.5835 25.9183 79.1825C25.7985 79.7815 25.7386 80.1708 25.7386 80.3505C25.7386 80.5901 25.7985 80.7698 25.9183 80.8896H24.93C24.5706 80.8896 24.3609 80.6799 24.3011 80.2606C23.9416 75.2891 23.4325 71.6053 22.7736 69.2094C23.3127 69.2693 24.1513 69.419 25.2894 69.6586L34.2742 68.3109L34.364 68.1312V66.1545C34.1843 65.9748 33.8249 65.885 33.2859 65.885C31.7884 65.885 30.83 66.1246 30.4107 66.6038C29.8117 66.0647 29.0929 64.5373 28.2544 62.0215C27.4158 59.4459 26.7569 57.8286 26.2777 57.1697ZM39.0361 63.7286C39.8148 63.7286 40.4737 63.1596 41.0128 62.0215C41.6117 60.8834 41.9112 59.7454 41.9113 58.6073C41.9112 58.188 41.7914 57.6489 41.5519 56.99H36.2509V59.2362C36.6102 59.4159 36.9097 59.5058 37.1493 59.5057C37.329 59.5058 37.5087 59.4758 37.6884 59.4159C37.928 59.356 38.1077 59.3261 38.2275 59.3261C38.9463 59.3261 39.4554 59.6855 39.7549 60.4042C39.0361 60.9433 37.8681 61.3926 36.2509 61.7519V63.7286H39.0361ZM34.2742 57.619C34.0346 57.619 33.4655 57.7088 32.5671 57.8885C31.6686 58.0682 31.0995 58.158 30.86 58.158C30.6802 58.158 30.2909 58.0083 29.6919 57.7088L30.7701 64.7169C32.2675 64.5373 33.4655 64.2976 34.364 63.9981V61.9317C33.9447 61.8717 33.5254 61.8418 33.1062 61.8418C32.7467 61.8418 32.4173 61.8717 32.1178 61.9317C31.9381 61.752 31.6985 61.4824 31.399 61.123C31.4589 61.0631 32.4472 60.7337 34.364 60.1347C34.3041 58.5773 34.2741 57.7388 34.2742 57.619Z" fill="#BA0000"></path>
</svg>