<svg width="75" height="96" viewBox="0 0 75 96" fill="none" xmlns="http://www.w3.org/2000/svg">
<rect x="0.25" y="0.25" width="74.2" height="94.6" rx="7.75" fill="white"></rect>
<rect x="0.25" y="0.25" width="74.2" height="94.6" rx="7.75" stroke="#003500" stroke-width="0.5"></rect>
<path d="M45.3694 42.5321C47.7538 42.5321 49.4451 42.1439 50.4433 41.3676C51.4414 40.5913 52.1623 38.9 52.6059 36.2937C52.6059 36.1828 52.8 35.9333 53.1882 35.5451L53.8536 42.5321C53.8536 43.5302 52.9941 44.2511 51.2751 44.6947C49.6115 45.1383 48.0865 45.3601 46.7003 45.3601C41.2105 45.3601 38.3269 43.0866 38.0497 38.5395L39.9628 27.6431V25.9796C39.8519 25.9242 39.5192 25.8965 38.9647 25.8964C37.5229 25.8964 35.9979 26.4509 34.3899 27.5599C33.7799 31.1089 32.449 34.3806 30.3973 37.375C28.3455 40.3695 25.8502 42.3935 22.9112 43.447C22.2458 43.6689 21.6358 43.9461 21.0813 44.2788H20C22.9944 42.5598 25.5729 40.2031 27.7356 37.2086C29.8982 34.1588 31.3954 31.1367 32.2272 28.1422C32.1717 28.0868 32.0886 28.059 31.9777 28.059C27.0979 29.6117 24.6302 30.388 24.5748 30.388C24.1312 30.388 23.6321 30.1662 23.0776 29.7226C22.5785 29.279 22.2735 28.8354 22.1626 28.3917C26.7651 27.7263 30.12 27.0332 32.2272 26.3123C32.5599 26.0905 32.8649 25.231 33.1422 23.7337C33.4749 22.1811 33.6412 20.9334 33.6413 19.9907C33.6412 19.5471 33.558 18.6322 33.3917 17.2458C33.3917 17.135 33.3362 16.9963 33.2254 16.8299C33.1144 16.6082 33.059 16.4418 33.059 16.3309V15C34.9444 15.5546 36.4138 16.3309 37.4675 17.329C35.9702 20.7117 35.2216 22.8743 35.2216 23.8169V25.231C35.277 25.2864 35.388 25.3142 35.5544 25.3141C35.7207 25.3142 36.7465 24.8983 38.632 24.0665C40.5173 23.1793 41.5432 22.7357 41.7096 22.7356C42.7631 22.7357 43.7613 23.3733 44.704 24.6487C44.6485 24.7042 44.6208 24.8151 44.6208 24.9814C43.4008 25.8132 42.3195 27.5323 41.3769 30.1385C40.4341 32.6893 39.9628 35.1847 39.9628 37.6245C39.9628 39.7872 40.3232 41.1458 41.0441 41.7003C41.8204 42.2548 43.2622 42.5321 45.3694 42.5321Z" fill="#006C00"></path>
<path d="M47.6546 50.0576C48.0428 50.0577 48.5696 50.2795 49.235 50.7231C49.9559 51.1112 50.3718 51.3885 50.4827 51.5548V52.2203C50.2054 52.4975 49.8172 52.6362 49.3182 52.6362C49.0409 52.6362 48.3478 52.6085 47.2388 52.553C46.1297 52.4421 45.4365 52.3866 45.1593 52.3866C43.2184 52.3866 41.9153 52.6362 41.2499 53.1352L38.4218 56.0465C38.5327 55.8247 38.8377 54.9097 39.3368 53.3016C39.1704 53.1353 38.6436 53.0521 37.7564 53.052C37.2573 53.0521 35.9542 53.1353 33.847 53.3016C33.847 54.0779 33.6252 55.2147 33.1816 56.7119L32.9321 55.9633C32.7102 55.4088 32.4607 54.9097 32.1835 54.4661C31.9616 54.0225 31.7398 53.8007 31.518 53.8007C31.0189 53.8007 29.9376 53.967 28.2741 54.2997C26.6659 54.6325 25.6123 54.7988 25.1133 54.7988C24.1706 54.7988 23.2556 54.3275 22.3684 53.3848L31.518 52.3866L29.6881 48.81H31.7676C31.823 48.81 32.2666 49.0041 33.0984 49.3922C33.0984 50.0576 33.2925 51.0558 33.6807 52.3866C34.1243 52.3312 36.1205 52.0262 39.6695 51.4717C40.224 49.6418 40.5567 47.9782 40.6677 46.481C42.7194 47.6455 43.7452 48.3664 43.7453 48.6436L42.4144 50.7231C42.5807 50.8894 42.8857 50.9726 43.3294 50.9726C43.6066 50.9726 44.3275 50.834 45.492 50.5567C46.6565 50.224 47.3773 50.0577 47.6546 50.0576ZM27.1096 57.8764C30.3812 57.7101 33.0984 57.4328 35.2611 57.0446C37.4237 56.6565 38.9763 56.3237 39.9191 56.0465C40.8617 55.7692 41.5826 55.6306 42.0817 55.6306C42.9134 55.6306 44.0225 56.3237 45.4088 57.71C44.6879 59.0409 44.1057 60.1777 43.6621 61.1204C43.2184 62.0076 42.9134 62.5899 42.7471 62.8671C42.6362 63.1444 42.4421 63.5048 42.1649 63.9484C41.8876 64.392 41.4717 65.0575 40.9172 65.9447C40.3072 65.3902 39.7249 65.1129 39.1704 65.1129C38.3386 65.1129 37.3682 65.3347 36.2592 65.7784V67.6083C36.3701 67.6637 36.6751 67.6915 37.1742 67.6915C37.2296 67.6915 38.9486 67.5251 42.3312 67.1924C45.7138 66.8042 47.4605 66.6101 47.5715 66.6101C48.1259 66.6101 49.2904 67.1924 51.065 68.3569C50.6767 69.1332 50.3718 70.3809 50.15 72.0999C49.9281 73.8189 49.5677 75.4548 49.0687 77.0074C48.625 78.6156 47.7932 79.9464 46.5733 81C45.9079 80.1682 44.577 78.671 42.5808 76.5084C44.2443 76.7856 45.187 76.9243 45.4088 76.9243C46.3515 76.9243 46.9337 76.4252 47.1556 75.4271C47.3773 74.4844 47.4882 72.5158 47.4883 69.5214C47.0446 68.9114 46.296 68.6064 45.2425 68.6064C41.5826 68.6064 38.505 68.9668 36.0097 69.6877V71.9336C36.3423 72.2663 36.6473 72.4326 36.9246 72.4326C37.7009 72.4326 38.5882 72.1831 39.5863 71.684C39.309 71.4622 39.1704 71.0186 39.1704 70.3532C39.8358 70.4087 40.6399 70.7968 41.5826 71.5177C42.5253 72.1831 42.9966 72.8485 42.9967 73.5139C42.9966 74.4012 42.6639 74.8448 41.9985 74.8448C41.7212 74.8448 41.2499 74.4844 40.5845 73.7635C39.9745 73.0981 39.614 72.7376 39.5032 72.6822C33.847 74.3457 30.9635 75.1775 30.8526 75.1775C30.5199 75.1775 30.1594 75.0111 29.7713 74.6784C29.4385 74.3457 29.2167 73.9853 29.1059 73.5971C30.3258 73.4308 32.1002 73.098 34.4293 72.599V70.6027C34.3738 70.1036 34.0134 69.8541 33.348 69.8541C30.5199 69.8541 28.3295 70.0759 26.7769 70.5195C26.7768 72.0722 26.7768 73.2921 26.7769 74.1794C26.8323 75.1221 26.86 75.7043 26.86 75.9261C26.9154 76.1479 26.9432 76.342 26.9432 76.5084C26.9986 76.7302 27.0264 76.9797 27.0264 77.257C27.0264 77.3679 26.9432 77.7006 26.7769 78.2551C26.6659 78.8096 26.6105 79.1701 26.6105 79.3364C26.6105 79.5582 26.6659 79.7246 26.7769 79.8355H25.8619C25.5292 79.8355 25.3351 79.6414 25.2797 79.2532C24.9469 74.6507 24.4756 71.2404 23.8656 69.0223C24.3647 69.0778 25.141 69.2164 26.1946 69.4382L34.5125 68.1905L34.5956 68.0242V66.1943C34.4292 66.0279 34.0965 65.9447 33.5975 65.9447C32.2112 65.9447 31.3239 66.1665 30.9358 66.6101C30.3812 66.1111 29.7158 64.697 28.9395 62.368C28.1631 59.9836 27.5532 58.4864 27.1096 57.8764ZM38.9209 63.9484C39.6418 63.9484 40.2517 63.4216 40.7508 62.368C41.3053 61.3145 41.5826 60.2609 41.5826 59.2073C41.5826 58.8191 41.4717 58.32 41.2499 57.71H36.3424V59.7895C36.6751 59.9559 36.9523 60.0391 37.1742 60.0391C37.3405 60.0391 37.5068 60.0114 37.6732 59.9559C37.895 59.9004 38.0614 59.8727 38.1723 59.8727C38.8377 59.8727 39.309 60.2054 39.5863 60.8708C38.9209 61.3699 37.8396 61.7858 36.3424 62.1185V63.9484H38.9209ZM34.5125 58.2923C34.2906 58.2923 33.7638 58.3755 32.9321 58.5418C32.1002 58.7082 31.5735 58.7914 31.3517 58.7914C31.1853 58.7914 30.8249 58.6528 30.2704 58.3755L31.2685 64.8634C32.6548 64.697 33.7638 64.4752 34.5956 64.198V62.2849C34.2074 62.2294 33.8193 62.2017 33.4311 62.2017C33.0984 62.2017 32.7934 62.2294 32.5162 62.2849C32.3498 62.1185 32.128 61.869 31.8507 61.5363C31.9061 61.4808 32.8211 61.1758 34.5956 60.6213C34.5402 59.1795 34.5124 58.4032 34.5125 58.2923Z" fill="#BA0000"></path>
</svg>