<svg width="75" height="96" viewBox="0 0 75 96" fill="none" xmlns="http://www.w3.org/2000/svg">
<rect x="0.25" y="0.25" width="74.2" height="94.6" rx="7.75" fill="white"></rect>
<rect x="0.25" y="0.25" width="74.2" height="94.6" rx="7.75" stroke="#003500" stroke-width="0.5"></rect>
<path d="M51.83 39.2284C52.514 39.2284 53.7967 39.7985 55.6781 40.9386C57.5593 42.0788 58.4999 42.9625 58.5 43.5895C58.4999 43.8176 58.3004 44.1311 57.9014 44.5302C57.5593 44.9293 57.0747 45.8414 56.4477 47.2666C55.8776 48.6348 55.3645 50.5161 54.9085 52.9105C54.1673 57.3001 53.5402 60.2361 53.0272 61.7183C52.514 63.2005 51.6874 64.6828 50.5473 66.165C49.5211 67.4192 48.8085 68.0463 48.4095 68.0463C47.8963 68.0463 47.5543 67.8467 47.3833 67.4477L45.502 61.8038C44.8749 60.4356 43.5352 59.7515 41.4829 59.7515C40.8558 59.7515 34.8984 60.2361 23.6107 61.2052C23.4966 61.2623 23.3826 61.4048 23.2686 61.6328C23.2116 61.8038 23.0406 62.1744 22.7555 62.7445C22.5275 63.3145 22.1569 63.9417 21.6439 64.6258C21.0738 62.5164 20.5607 59.951 20.1046 56.9296C19.6485 53.9081 19.1355 51.3997 18.5654 49.4044C17.9953 47.3521 17.1402 45.4423 16 43.6751L21.3873 44.1026C21.4444 44.1026 21.5013 44.1026 21.5584 44.1026C22.5275 44.1026 25.0074 43.7321 28.998 42.9909V36.834C28.998 36.435 28.7984 35.8079 28.3994 34.9527C28.0573 34.0976 27.7723 33.6415 27.5443 33.5845C27.5442 33.5275 27.1737 33.4705 26.4326 33.4135C25.7485 33.2995 24.8648 33.1 23.7817 32.8149C22.7555 32.4729 21.9289 31.9598 21.3018 31.2757C24.0382 31.2757 27.8863 30.7626 32.8461 29.7364L46.0151 27C48.3524 27 49.5211 27.4561 49.5211 28.3682C49.5211 28.7673 48.9795 29.2234 47.8964 29.7364C46.8702 30.1925 45.958 30.5061 45.16 30.6771C43.7347 30.8481 41.5969 31.2187 38.7465 31.7887C39.5446 32.7009 40.4282 33.8981 41.3974 35.3803L39.7726 40.7676C39.8296 40.8246 40.0576 40.8531 40.4567 40.8531L51.83 39.2284ZM37.2072 41.4517V31.8742L29.4256 33.0714C31.0788 34.2116 31.9054 35.0383 31.9054 35.5513V42.2213H33.1881C33.5872 42.2213 34.9269 41.9648 37.2072 41.4517ZM49.0081 60.9487C49.8061 59.9225 50.5187 57.8417 51.1459 54.7062C51.8299 51.5708 52.172 48.8914 52.172 46.668C52.172 44.5587 51.8869 43.3045 51.3169 42.9054C50.8608 42.5634 49.4926 42.3924 47.2123 42.3924H39.4306V48.5493C40.4567 49.1194 41.1693 49.4044 41.5684 49.4044C41.7394 49.4044 42.11 49.3475 42.6801 49.2334C43.3071 49.0624 43.7062 48.9769 43.8773 48.9768C45.4735 48.9769 46.4711 49.604 46.8702 50.8581C45.901 51.5993 44.5613 51.9698 42.8511 51.9698C40.6277 51.9698 39.003 51.5423 37.9769 50.6871C37.0077 49.832 36.5231 48.3498 36.5231 46.2404C36.5231 45.1573 36.6087 44.1311 36.7797 43.162C35.6965 43.39 33.9862 43.6181 31.6489 43.8461C31.3638 45.6134 31.1358 46.9531 30.9648 47.8652C30.7937 48.7203 30.4802 49.7465 30.0242 50.9437C29.5681 52.1409 28.9695 53.11 28.2284 53.8511C27.5442 54.5922 26.6606 55.1908 25.5775 55.6469V55.1338C25.9195 54.5637 26.5751 53.11 27.5443 50.7726C28.5134 48.4353 28.998 47.0956 28.998 46.7535V44.6157L21.5584 45.8129V46.5825C21.5583 46.6965 21.6439 47.2381 21.8149 48.2072L22.1569 50.2595C22.499 53.9081 22.727 56.9296 22.841 59.3239L42.8511 57.2716C43.6492 57.2716 44.3333 57.4427 44.9034 57.7847C45.5305 58.1268 45.958 58.4688 46.1861 58.8109C46.4711 59.0959 47.0127 59.8085 47.8109 60.9487H49.0081Z" fill="#006C00"></path>
</svg>