<svg width="75" height="96" viewBox="0 0 75 96" fill="none" xmlns="http://www.w3.org/2000/svg">
<g clip-path="url(#clip0_1_1102)">
<rect width="74.7" height="95.1" rx="8" fill="white"></rect>
<path d="M32 16.9431C32 17.2847 31.8245 17.541 31.4737 17.7117C31.1813 17.8257 30.421 17.968 29.193 18.1388C27.5556 18.3666 26.0643 18.5944 24.7193 18.8221C25.1286 19.0499 25.8011 19.4485 26.7368 20.0178C26.7368 22.7509 26.7368 24.9716 26.7368 26.6797C26.7953 28.3879 26.8246 29.4983 26.8246 30.0107C26.8245 30.4662 26.8245 30.8648 26.8246 31.2064C26.883 31.4912 26.9123 31.7189 26.9123 31.8897C26.9123 32.4022 26.8245 32.7723 26.6491 33C25.0117 32.5445 23.6082 31.3203 22.4386 29.3274C22.7895 29.4413 23.2573 29.4983 23.8421 29.4982C24.7778 29.4983 25.2456 28.5588 25.2456 26.6797C25.2456 22.5232 24.7193 19.904 23.6667 18.8221H22.1755C21.5322 20.1887 20.421 21.3844 18.8421 22.4092C22.1169 16.7153 23.7544 12.6442 23.7544 10.1957C23.7544 9.74027 23.7251 9.3417 23.6667 9H24.6316C24.924 9.00006 25.5965 9.51251 26.6491 10.5374L22.7017 17.8826C22.8187 18.0534 22.9941 18.1388 23.2281 18.1388L29.8947 16.1744C30.4795 16.2883 31.1813 16.5445 32 16.9431ZM11.9123 19.3345C11.9708 19.3915 12.0877 19.42 12.2632 19.4199C12.4386 19.42 13.3743 19.1922 15.0702 18.7367C16.8246 18.2243 17.7895 17.968 17.9649 17.968C18.4327 17.968 18.9006 18.1388 19.3684 18.4804C18.9006 18.9929 17.9649 19.4484 16.5614 19.847L14.5439 20.4448C15.0702 21.7545 15.3333 22.8648 15.3333 23.7758C15.3333 24.6869 15.1871 26.0819 14.8947 27.9609C14.6023 29.8399 14.3099 30.8933 14.0175 31.121C13.4327 30.8363 13.1111 30.1246 13.0526 28.9858L13.9298 22.5801C13.9298 21.8399 13.7836 21.299 13.4912 20.9573C13.1988 20.5588 12.9064 20.331 12.614 20.274C12.3801 20.2171 12.0585 20.1887 11.6491 20.1886C10.0117 22.4093 8.46198 23.7189 7 24.1174C11.4444 18.1388 13.7544 13.5837 13.9298 10.4519H14.8947C15.3041 10.452 15.8304 11.0499 16.4737 12.2455L11.9123 19.3345Z" fill="#006C00"></path>
<path d="M76.7492 91.0648C76.7491 96.125 74.3596 98.6551 69.5806 98.6551H5.16859C0.389516 98.6551 -2 96.125 -2 91.0648V5.99033C-2 0.930218 0.389516 -1.59989 5.16859 -1.59998H69.5806C74.3596 -1.59989 76.7491 0.930218 76.7492 5.99033V91.0648ZM61.4632 16.8486L61.3578 0.192189H57.0356L56.5085 8.52042C56.5084 8.87189 56.7192 9.43414 57.141 10.2072C57.5626 10.9803 58.2654 12.1399 59.2494 13.686C60.3035 15.162 61.0415 16.2162 61.4632 16.8486ZM74.9571 37.722V5.99033C74.957 2.12498 73.1649 0.192273 69.5806 0.192189H62.0958C62.0957 4.69021 62.0957 8.37994 62.0958 11.2614C62.0957 14.0726 62.0957 16.0405 62.0958 17.1649C62.166 18.2895 62.2011 18.9923 62.2012 19.2733C63.185 20.679 65.188 23.5605 68.2101 27.9178C71.3024 32.2752 73.5514 35.5433 74.9571 37.722ZM50.8157 4.19816C48.5667 1.52758 47.3368 0.192273 47.126 0.192189H40.2737L43.9634 7.88788C44.1039 7.60684 44.2445 7.36087 44.3851 7.14996C44.5959 6.93919 44.8419 6.72834 45.123 6.51743C45.4744 6.30666 45.7906 6.13097 46.0718 5.99033C46.3529 5.77956 46.7043 5.60386 47.126 5.46322C47.6179 5.25245 48.0045 5.1119 48.2856 5.04155C48.5667 4.97134 48.9884 4.83078 49.5507 4.61987C50.1129 4.4091 50.5345 4.26852 50.8157 4.19816ZM52.2916 7.78249C51.4482 7.78256 50.5346 8.16908 49.5507 8.94209C48.5667 9.71525 47.8991 10.5235 47.5477 11.3668C47.8288 12.0697 48.1099 12.6319 48.3911 13.0535C48.7424 13.4753 49.1992 14.0375 49.7615 14.7402C50.394 15.3728 50.9914 16.0756 51.5537 16.8486C53.2404 19.168 56.0516 23.2794 59.9873 29.1829C63.9933 35.0865 67.437 40.2872 70.3186 44.7852C73.2703 49.2128 74.8164 51.5672 74.9571 51.8483V40.0412L74.1137 39.3033C73.4811 38.8816 72.8134 38.4248 72.1107 37.9328C71.4781 37.3706 71.0916 37.0192 70.9511 36.8786C69.4751 34.0674 67.7181 31.0454 65.68 27.8124C63.7121 24.5093 62.166 22.0495 61.0415 20.433C59.9873 18.8166 58.2654 16.3216 55.8759 12.9481C53.5566 9.57471 52.3619 7.85285 52.2916 7.78249ZM56.5085 50.267C58.3357 49.2128 60.7955 48.4749 63.8879 48.0532C63.8878 47.7721 63.8176 46.8936 63.6771 45.4176C63.5364 43.9418 63.4661 42.3254 63.4662 40.5683C63.4661 40.2872 63.4661 40.0413 63.4662 39.8304C63.4661 39.5493 63.4661 39.3384 63.4662 39.1978C63.5364 39.0573 63.5715 38.9168 63.5716 38.7762C63.5716 38.6356 63.5716 38.5302 63.5716 38.4599V38.3545C62.5876 36.5975 60.6198 33.5052 57.6681 29.0774C57.5274 28.7964 57.2815 28.6558 56.9301 28.6558L56.5085 50.267ZM56.1922 57.3302C56.1921 55.6435 56.7192 54.3082 57.7735 53.3242C58.8979 52.3403 60.2684 51.8483 61.8849 51.8483C63.923 51.8483 65.0826 52.3403 65.3638 53.3242C65.7854 54.8001 66.7693 68.8211 68.3156 95.3871C68.3858 95.9493 68.8075 96.4764 69.5806 96.9684C73.1649 96.9684 74.957 95.0005 74.9571 91.0648V55.2218C74.2542 55.4326 73.4811 55.6786 72.6378 55.9597C71.9349 53.0783 69.0534 47.3855 63.9933 38.8816V42.255C63.9932 42.6768 64.0986 43.6958 64.3096 45.3123C64.5906 46.9287 64.7312 47.9478 64.7313 48.3694C64.7312 49.0722 64.4501 49.4236 63.8879 49.4236C63.7473 49.4236 63.431 49.3886 62.9391 49.3182C62.4471 49.1777 62.1308 49.1074 61.9903 49.1074C60.5846 49.1074 59.0385 49.7399 57.3518 51.0049L62.2012 49.9507C63.0445 49.9507 63.9932 50.4076 65.0475 51.3212C64.5555 51.3212 63.923 51.251 63.15 51.1104L61.8849 50.8995C61.0415 50.8996 60.2333 51.1104 59.4602 51.532C58.6871 51.8835 58.1248 52.2349 57.7735 52.5862C57.4923 52.8674 56.8247 53.5351 55.7705 54.5893C55.7705 53.3242 56.1921 52.27 57.0356 51.4266C56.6138 51.4267 56.2975 51.5672 56.0868 51.8483C56.0867 49.4588 56.0165 45.4528 55.8759 39.8304C55.8056 34.1377 55.7705 30.3074 55.7705 28.3395C56.0516 28.0584 56.3678 27.6368 56.7193 27.0745L45.0176 11.683C46.7746 7.81769 48.9533 5.88497 51.5537 5.8849C51.905 5.88497 52.1861 5.92012 52.397 5.99033C52.6781 6.06064 52.8889 6.13095 53.0296 6.20115C53.2403 6.27146 53.4512 6.41206 53.6621 6.62282C53.9432 6.83374 54.1189 7.00944 54.1892 7.14993C54.3297 7.29057 54.5406 7.5717 54.8217 7.99331C55.1028 8.41507 55.3488 8.73132 55.5597 8.94209C55.6299 7.60684 55.665 6.09582 55.6651 4.40902C55.665 2.86293 55.6299 1.45732 55.5597 0.192189H48.7073L52.5025 4.72526C52.151 4.86591 51.5536 5.1119 50.7103 5.46322C49.8669 5.74442 49.2695 5.95524 48.9182 6.09572C48.637 6.16604 48.1802 6.34178 47.5477 6.62282C46.9854 6.90402 46.5989 7.15001 46.3881 7.36078C46.1772 7.50142 45.896 7.74741 45.5447 8.09874C45.2635 8.37994 45.0527 8.69619 44.9122 9.04752C44.8419 9.32872 44.8067 9.68012 44.8068 10.1017C44.8067 10.3126 44.8419 10.5586 44.9122 10.8397C44.7716 10.8397 44.4202 10.8749 43.858 10.9451C41.5387 5.60384 39.7114 2.01956 38.3761 0.192189H5.16859C1.58428 0.192273 -0.207879 2.12498 -0.207868 5.99033V50.8995C5.62539 48.0884 10.3693 46.6828 14.0239 46.6827C14.305 46.6828 14.4807 46.7179 14.551 46.7881C13.7779 47.3504 13.04 47.8072 12.3372 48.1586C11.7046 48.51 10.8964 48.8614 9.91252 49.2128C8.99886 49.4939 8.19065 49.7048 7.48786 49.8453C6.85533 49.9859 5.69568 50.267 4.00896 50.6887C2.32222 51.0401 0.916612 51.3564 -0.207868 51.6375V56.9085C2.60334 54.519 5.76596 52.3051 9.27999 50.267C12.8643 48.2289 15.4646 47.2098 17.0811 47.2098C17.3622 47.2098 17.7839 47.2801 18.3462 47.4207C18.9787 47.5613 19.3652 47.6315 19.5058 47.6315C19.576 47.6315 21.2628 46.999 24.566 45.7339C27.8691 44.3986 30.0478 43.731 31.1021 43.7309C32.0157 44.1527 32.6131 44.3986 32.8942 44.4688V46.3665C31.6291 47.1396 30.4344 47.7018 29.3099 48.0532C30.7155 48.9668 31.6643 49.4236 32.1563 49.4236C32.3671 49.4236 32.859 49.3886 33.6322 49.3182C34.4052 49.1777 34.8972 49.1074 35.1081 49.1074C36.0217 49.1074 37.4976 49.6696 39.5357 50.7941H41.3279L34.581 45.4176C36.619 46.1205 39.1843 47.9478 42.2767 50.8995C45.369 53.8513 47.0557 56.3814 47.3369 58.4898C50.64 58.6304 53.6972 59.2629 56.5085 60.3874C56.5084 59.7549 56.4381 59.1926 56.2976 58.7006C56.2273 58.1384 56.1921 57.6816 56.1922 57.3302ZM67.9993 96.9684C67.437 96.2656 67.1559 95.5627 67.1559 94.86C66.4531 77.8521 65.434 64.6745 64.0987 55.3272C63.9581 54.3433 62.9391 53.8513 61.0415 53.8513C58.5817 53.8513 57.3518 54.9758 57.3518 57.2248C57.3518 57.4356 57.6329 59.1575 58.1952 62.3904C58.7574 65.6233 59.3196 70.3321 59.8819 76.5167C60.4441 82.7014 60.7252 89.5186 60.7253 96.9684H67.9993ZM5.16859 96.9684H59.5657C59.5656 84.6693 58.6871 73.1784 56.9301 62.4958C50.6049 60.1063 44.8067 58.9115 39.5357 58.9115C37.9895 58.9115 36.4082 58.9818 34.7918 59.1223C35.9865 59.6143 37.111 60.036 38.1652 60.3874C39.2897 60.7388 40.0979 61.0199 40.5899 61.2307C41.0819 61.3713 41.5387 61.5821 41.9604 61.8632C42.5929 62.3552 44.0688 64.1122 46.3881 67.1343C48.7073 70.0861 49.8669 71.9485 49.8669 72.7216C49.8669 73.2839 49.8317 73.6001 49.7615 73.6704C48.4964 71.8431 46.9503 70.297 45.123 69.0319C43.2957 67.6966 41.2224 66.4315 38.9032 65.2367C36.5839 64.042 35.0026 63.1635 34.1593 62.6012C34.0187 61.8281 33.7024 60.7036 33.2105 59.2277H31.5238C28.7125 59.2278 23.7226 61.0199 16.554 64.6042V68.1885C16.6945 67.3451 17.1514 66.9235 17.9245 66.9235C18.557 66.9235 18.9435 66.9586 19.0841 67.0289C19.0841 72.4405 18.9787 76.0248 18.7679 77.7818C18.6273 79.5388 18.1002 82.4906 17.1865 86.6371C17.046 87.4102 16.5189 87.7968 15.6052 87.7968C15.3944 87.7968 14.6564 83.4745 13.3914 74.83C13.3914 72.7919 14.3753 70.7889 16.3432 68.821C16.3432 68.5399 16.2377 68.3993 16.0269 68.3993L2.42765 82.2095C2.9196 78.3441 6.04707 73.4596 11.8101 67.556L2.95475 73.1433C2.7439 72.9324 2.63849 72.7216 2.6385 72.5108C5.16859 70.8241 9.59626 68.2236 15.9215 64.7096L19.4004 62.6012C22.0007 61.4065 25.4093 60.3171 29.6262 59.3332C33.9133 58.3493 37.357 57.8573 39.9574 57.8573C42.2766 57.8573 44.4553 57.9979 46.4935 58.279C45.1581 54.8353 43.4714 52.6917 41.4333 51.8483C41.0818 52.1294 40.8359 52.27 40.6954 52.27C40.5548 52.27 40.3088 52.1998 39.9574 52.0591C39.6762 51.9186 39.5005 51.8483 39.4303 51.8483C39.1491 51.8483 38.7274 52.0592 38.1652 52.4808C37.603 52.8323 37.2867 53.008 37.2165 53.0079L25.0931 57.0139C24.32 57.2951 23.0901 57.7519 21.4034 58.3844C19.7166 59.0169 18.3813 59.544 17.3974 59.9657C16.4135 60.3171 15.2187 60.8794 13.8131 61.6525C12.4075 62.3553 11.1073 63.0932 9.91252 63.8663C12.0209 59.3683 18.9084 54.6595 30.575 49.7399C29.1693 48.6857 28.1854 48.1586 27.6232 48.1586C26.7798 48.1586 22.563 50.1968 14.9727 54.273L10.9667 56.9085L18.8733 48.1586H17.8191L12.0209 53.2188L-0.207868 59.6494V65.9747C1.90053 65.2719 3.06018 64.9205 3.27103 64.9205C5.94168 64.9205 8.19064 65.1313 10.0179 65.553V66.2909C10.0179 67.4154 6.89046 68.5399 0.635517 69.6644C0.284107 69.7347 0.00296283 69.805 -0.207868 69.8753V74.9354C0.635487 75.0057 1.05718 75.3922 1.05719 76.095C1.05718 76.5167 0.635487 76.9736 -0.207868 77.4656V91.1702C-0.207879 92.9272 0.284082 94.3328 1.26801 95.3871C2.32221 96.4413 3.62241 96.9684 5.16859 96.9684ZM42.3821 12.1047L36.4785 7.57164C37.6733 7.92312 39.2546 8.87187 41.2225 10.418C41.2224 10.2775 40.9764 9.75039 40.4845 8.83666C41.4684 9.46926 42.1009 10.5586 42.3821 12.1047ZM30.6804 64.8151L21.2979 84.9504C21.5088 83.334 21.6845 81.2255 21.825 78.6252C22.0359 76.0248 22.2116 73.8461 22.3521 72.0891C22.4927 70.3321 22.7738 68.5399 23.1955 66.7126C23.6875 64.8854 24.4254 63.4446 25.4094 62.3904C26.3933 61.3362 27.6583 60.6685 29.2045 60.3874C29.1342 60.7388 28.8882 61.1956 28.4666 61.7579C28.8179 62.3904 29.5559 62.7067 30.6804 62.7067V64.8151Z" fill="#006C00"></path>
</g>
<rect x="0.25" y="0.25" width="74.2" height="94.6" rx="7.75" stroke="#003500" stroke-width="0.5"></rect>
<defs>
<clipPath id="clip0_1_1102">
<rect width="74.7" height="95.1" rx="8" fill="white"></rect>
</clipPath>
</defs>
</svg>